<svg enable-background="new 0 0 103 99" viewBox="0 0 103 99" xmlns="http://www.w3.org/2000/svg" xmlns:xlink="http://www.w3.org/1999/xlink"><linearGradient id="a" gradientUnits="userSpaceOnUse" x1="23.8357" x2="149.2964" y1="12.3763" y2="180.7364"><stop offset="0" stop-color="#3272b8"/><stop offset=".5138" stop-color="#1c4698"/><stop offset=".66" stop-color="#1d489c"/><stop offset=".7862" stop-color="#2451a3"/><stop offset=".9045" stop-color="#2c61ad"/><stop offset="1" stop-color="#3272b8"/></linearGradient><path d="m53.5 99h-4c-27.34 0-49.5-22.16-49.5-49.5s22.16-49.5 49.5-49.5h4c27.34 0 49.5 22.16 49.5 49.5s-22.16 49.5-49.5 49.5z" fill="url(#a)"/><g fill="#fff"><path d="m25.4 73.31h52.18v4.24h-52.18z"/><path d="m75.35 65.01c-.01-10.34-.01-20.68 0-31.01 0-.37.08-.77.2-1.12.43-1.27.9-2.54 1.38-3.85h-50.87c.48 1.33.96 2.61 1.4 3.9.12.34.18.71.18 1.07.01 10.32.01 20.64 0 30.96 0 .39-.08.8-.21 1.17-.44 1.27-.9 2.54-1.37 3.84h50.87c-.48-1.34-.96-2.63-1.41-3.94-.11-.33-.17-.68-.17-1.02zm-20.13-15.28c1.28.74 2.55 1.49 3.84 2.21.21.12.52.16.76.1 1.9-.48 3.78-.99 5.66-1.5.08-.02.17-.03.31-.06.28 1.04.55 2.06.85 3.15-1.02.28-2.03.56-3.18.87.94.54 1.77 1.03 2.65 1.54-.54.95-1.07 1.86-1.63 2.84-.87-.49-1.71-.97-2.66-1.52.29 1.11.55 2.11.83 3.18-1.05.28-2.08.56-3.16.84-.37-1.36-.72-2.65-1.07-3.95-.14-.53-.32-1.05-.41-1.59-.1-.62-.41-.98-.96-1.27-1.28-.69-2.53-1.44-3.85-2.21-.02.19-.04.32-.04.46 0 1.48-.01 2.96.01 4.44 0 .24.12.53.29.7 1.28 1.32 2.6 2.62 3.9 3.92.14.14.27.29.37.4l-2.33 2.33c-.67-.71-1.38-1.46-2.1-2.22-.04.02-.08.04-.12.06v2.9h-3.3v-2.87c-.04-.02-.08-.04-.12-.07-.7.78-1.4 1.55-2.07 2.29-.88-.88-1.63-1.62-2.42-2.42.09-.09.22-.24.35-.37 1.31-1.32 2.64-2.63 3.95-3.96.13-.13.28-.32.29-.49.02-1.68.01-3.35.01-5.13-.35.2-.63.35-.91.52-1.09.63-2.17 1.27-3.28 1.88-.33.18-.49.42-.59.79-.47 1.82-.96 3.63-1.45 5.44-.03.12-.08.23-.14.39-1.04-.28-2.06-.55-3.13-.83.27-1.04.53-2.06.83-3.17-.94.53-1.78 1.01-2.66 1.51-.55-.95-1.08-1.87-1.64-2.84.86-.5 1.7-.99 2.66-1.55-1.14-.31-2.14-.59-3.18-.87.29-1.06.56-2.07.85-3.16.51.13.99.25 1.48.37 1.5.4 3 .81 4.49 1.2.18.05.43.09.57.01 1.46-.82 2.91-1.67 4.42-2.54-.16-.11-.27-.2-.39-.27-1.27-.73-2.52-1.48-3.8-2.18-.24-.13-.59-.17-.85-.11-1.88.47-3.74.98-5.61 1.48-.08.02-.17.03-.31.06-.29-1.05-.56-2.08-.85-3.15 1.03-.28 2.04-.55 3.18-.86-.93-.55-1.76-1.04-2.65-1.56.54-.94 1.08-1.87 1.63-2.84.87.5 1.71.98 2.66 1.52-.29-1.11-.55-2.11-.83-3.18 1.06-.28 2.08-.56 3.17-.85.36 1.35.71 2.65 1.07 3.95.1.39.26.77.3 1.16.1.98.65 1.52 1.5 1.94 1.15.58 2.25 1.27 3.43 1.95.02-.18.04-.32.04-.45 0-1.46.02-2.92-.01-4.38 0-.27-.14-.61-.32-.8-1.28-1.32-2.6-2.62-3.9-3.92-.13-.13-.25-.26-.34-.36.78-.77 1.53-1.53 2.34-2.34.67.72 1.38 1.47 2.09 2.23.04-.02.09-.04.13-.07v-2.9h3.3v3.06c.82-.89 1.52-1.66 2.2-2.41.87.88 1.62 1.62 2.41 2.42-.09.09-.22.23-.35.37-1.3 1.31-2.62 2.6-3.9 3.93-.18.19-.32.53-.32.8-.03 1.59-.01 3.17-.01 4.83.25-.13.44-.22.63-.33 1.17-.67 2.33-1.37 3.51-2.02.37-.2.55-.47.66-.87.46-1.8.96-3.59 1.43-5.39.03-.12.08-.23.14-.4 1.04.28 2.06.55 3.14.83-.28 1.07-.54 2.07-.84 3.19.94-.54 1.77-1.02 2.66-1.53.56.96 1.09 1.88 1.64 2.84-.87.51-1.7.99-2.65 1.54 1.12.31 2.13.58 3.17.87-.29 1.07-.57 2.1-.85 3.17-1.99-.53-3.92-1.04-5.85-1.57-.37-.1-.65-.06-.97.13-1.35.8-2.71 1.58-4.12 2.39.1.18.2.26.32.33z"/><path d="m25.4 21.45h52.2v4.21h-52.2z"/></g></svg>