<svg enable-background="new 0 0 103 99" viewBox="0 0 103 99" xmlns="http://www.w3.org/2000/svg" xmlns:xlink="http://www.w3.org/1999/xlink"><linearGradient id="a" gradientUnits="userSpaceOnUse" x1="23.8357" x2="149.2964" y1="12.3763" y2="180.7364"><stop offset="0" stop-color="#3272b8"/><stop offset=".5138" stop-color="#1c4698"/><stop offset=".66" stop-color="#1d489c"/><stop offset=".7862" stop-color="#2451a3"/><stop offset=".9045" stop-color="#2c61ad"/><stop offset="1" stop-color="#3272b8"/></linearGradient><path d="m53.5 99h-4c-27.34 0-49.5-22.16-49.5-49.5s22.16-49.5 49.5-49.5h4c27.34 0 49.5 22.16 49.5 49.5s-22.16 49.5-49.5 49.5z" fill="url(#a)"/><g fill="#fff"><path d="m77.11 44.65c-.01-3.38-1.35-6.21-3.85-8.48-1.04-.93-2.1-1.85-3.17-2.76-1.08-.94-1.86-2.1-1.99-3.52-.12-1.41-.03-2.83-.03-4.26.12-.02.22-.05.33-.06 1.97-.39 2.99-1.63 3-3.64.01-1.04.01-2.09-.01-3.13-.04-2.01-1.46-3.44-3.46-3.45-10.96-.01-21.93-.01-32.89 0-2 .01-3.43 1.45-3.46 3.45-.02.93-.01 1.87-.01 2.8 0 2.44.88 3.52 3.27 4.02.03.01.06.06.12.12 0 1.03 0 2.1.01 3.17.01 1.82-.71 3.31-2.08 4.51-1.1.97-2.22 1.91-3.3 2.91-2.43 2.24-3.7 5.04-3.72 8.34-.03 9.23-.02 18.45 0 27.69.01 4.85 3.11 9.13 7.71 10.68.79.27 1.62.43 2.43.64h30.96c.12-.04.24-.1.37-.12 5.58-.8 9.75-5.55 9.76-11.2.04-9.25.04-18.48.01-27.71zm-43.24-22.53c-.02-1.04-.01-2.09-.01-3.13.01-.97.4-1.36 1.39-1.37h32.29c1.25 0 1.6.34 1.6 1.56 0 .96.01 1.91-.01 2.87-.01.81-.42 1.22-1.22 1.27-.14.01-.27 0-.4 0h-32.02c-.16 0-.32.01-.47-.01-.73-.05-1.14-.47-1.15-1.19zm40.97 50.2c-.01 5-4.05 9.04-9.04 9.06-9.54.03-19.08.03-28.63 0-4.96-.01-9-4.07-9.01-9.02-.03-9.25-.03-18.5 0-27.75.01-2.59 1.02-4.8 2.93-6.57 1.03-.95 2.1-1.86 3.16-2.77 1.47-1.25 2.48-2.79 2.83-4.7.07-.4.29-.43.6-.42 1.28.01 2.58.01 3.87 0 .88-.01 1.41-.45 1.4-1.17-.01-.69-.52-1.1-1.38-1.1-1.39-.01-2.8 0-4.28 0v-2.23h28.41v2.23h-.8c-5.7 0-11.38-.01-17.08 0-.88 0-1.34.32-1.41.99-.08.73.4 1.26 1.19 1.28.89.03 1.78.01 2.67.01 4.96 0 9.92.01 14.88-.01.51 0 .71.12.82.66.37 1.75 1.3 3.19 2.65 4.36 1.08.93 2.16 1.86 3.21 2.82 1.97 1.8 3 4.07 3.01 6.73.02 9.18.03 18.39 0 27.6z"/><path d="m64.75 45.59c-2.47.35-4.2 1.7-5.47 3.82-1 1.67-2.04 3.35-3.3 4.83-4.74 5.59-10.81 9.06-17.86 10.87-3.81.97-6.16 4.76-5.23 8.54.95 3.86 4.73 6.15 8.58 5.23 3.43-.81 6.73-1.98 9.89-3.52 8.77-4.29 15.7-10.55 20.4-19.17.61-1.12.97-2.28.95-3.56.04-4.28-3.76-7.63-7.96-7.04zm5.02 9.5c-4.42 8.17-10.97 14.1-19.27 18.17-3.02 1.48-6.17 2.6-9.44 3.4-2.67.65-5.28-.88-5.93-3.49-.64-2.59.9-5.16 3.55-5.83 6.4-1.62 12.04-4.61 16.82-9.18 2.36-2.26 4.3-4.85 5.84-7.73.7-1.3 1.73-2.18 3.18-2.54 3.05-.75 5.96 1.53 5.96 4.67.06.02.11.04.17.06-.29.83-.47 1.71-.88 2.47z"/><path d="m56.84 37.38c-.1-.56-.56-.92-1.28-.93-.93-.02-1.87-.01-2.8-.01.45-.68 1.41-1.44.37-2.29-1.12-.9-1.64.29-2.32 1.02-.05-.27-.07-.43-.1-.6-.18-.84-.32-1.7-.56-2.53-.17-.59-.76-.84-1.34-.69-.57.15-.91.65-.82 1.26.03.22.1.43.16.65.43 1.67.44 3.33-.02 5.09-.27-.14-.47-.25-.66-.35-2.02-1.03-4.17-1.43-6.4-1.11-7.13 1.04-11.24 8.01-8.74 14.79.21.58.15 1.01-.26 1.46-.66.71-.86 1.58-.74 2.54.13 1.08.82 1.8 1.59 2.46 1.17 1.01 2.86 1.06 4.04.06.56-.47 1.06-.49 1.7-.24 1.73.69 3.55.9 5.37.59 4.22-.7 7.27-3.01 8.72-7.04 1.46-4.04.68-7.78-2.11-11.08-.12-.14-.23-.29-.37-.47.34-.17.61-.31.9-.43 1.41-.62 2.89-.85 4.42-.8.86 0 1.38-.58 1.25-1.35zm-5.69 10.87c-.39 4.67-4 8.06-8.67 8.25-1.05-.25-2.13-.41-3.15-.75-1.36-.47-2.56-.39-3.67.57-.56.48-.96.39-1.6-.26-.58-.6-.65-1.01-.18-1.56.95-1.11 1.08-2.31.58-3.67-1.95-5.33 1.21-10.72 6.8-11.68 5.3-.9 10.34 3.73 9.89 9.1z"/><path d="m72.56 72.56c-.14 3.52-3.08 6.45-6.58 6.55-.8.02-1.37-.43-1.39-1.12-.01-.65.47-1.1 1.27-1.15 2.54-.2 4.22-1.89 4.43-4.4.06-.84.53-1.34 1.2-1.3.68.04 1.11.6 1.07 1.42z"/><path d="m60.04 59.75c-.01.64-.51 1.13-1.15 1.12s-1.13-.51-1.11-1.15c.01-.6.53-1.1 1.11-1.11.61-.01 1.15.52 1.15 1.14z"/><path d="m64.58 51.78c0 .63-.52 1.14-1.14 1.13s-1.14-.54-1.12-1.17c.02-.6.51-1.08 1.12-1.09.65 0 1.14.49 1.14 1.13z"/><path d="m40.68 71.17c-.02.59-.53 1.1-1.12 1.11-.62.01-1.15-.51-1.15-1.14-.01-.64.49-1.13 1.14-1.12.64 0 1.14.52 1.13 1.15z"/><path d="m47.5 72.31c-.02.64-.54 1.11-1.19 1.08-.6-.03-1.08-.54-1.08-1.14.01-.62.55-1.14 1.17-1.13.62.03 1.12.57 1.1 1.19z"/><path d="m65.73 57.44c.02.62-.5 1.15-1.13 1.15-.62 0-1.1-.45-1.12-1.06-.03-.64.44-1.17 1.07-1.2.61-.03 1.16.5 1.18 1.11z"/><path d="m57.76 65.46c-.01.62-.56 1.14-1.17 1.11-.63-.02-1.12-.55-1.09-1.19.03-.6.53-1.08 1.13-1.08.62.02 1.14.55 1.13 1.16z"/><path d="m50.93 66.54c.03.62-.49 1.15-1.11 1.17-.64.01-1.14-.48-1.15-1.12-.01-.62.45-1.1 1.06-1.13.64-.04 1.17.45 1.2 1.08z"/><path d="m43.64 42.4c.03.71-.43 1.15-1.28 1.22-2.39.18-3.99 1.91-3.94 4.31.02 1.01-.37 1.56-1.11 1.56-.73.01-1.14-.54-1.17-1.54v-.27c.02-3.42 2.75-6.25 6.1-6.33.88-.02 1.37.35 1.4 1.05z"/></g></svg>