<svg enable-background="new 0 0 103 99" viewBox="0 0 103 99" xmlns="http://www.w3.org/2000/svg" xmlns:xlink="http://www.w3.org/1999/xlink"><linearGradient id="a" gradientUnits="userSpaceOnUse" x1="23.8357" x2="149.2964" y1="12.3763" y2="180.7364"><stop offset="0" stop-color="#3272b8"/><stop offset=".5138" stop-color="#1c4698"/><stop offset=".66" stop-color="#1d489c"/><stop offset=".7862" stop-color="#2451a3"/><stop offset=".9045" stop-color="#2c61ad"/><stop offset="1" stop-color="#3272b8"/></linearGradient><path d="m53.5 99h-4c-27.34 0-49.5-22.16-49.5-49.5s22.16-49.5 49.5-49.5h4c27.34 0 49.5 22.16 49.5 49.5s-22.16 49.5-49.5 49.5z" fill="url(#a)"/><g fill="#fff"><path d="m86.87 55.89v2.9c-.18.85-.33 1.71-.54 2.55-.78 3.11-2.49 5.66-4.81 7.82-.52.49-1.1.5-1.54.07-.44-.44-.42-1.07.11-1.59 1.45-1.4 2.7-2.95 3.52-4.81 3.57-8.06-1.3-17.17-9.99-18.64-.5-.08-1-.11-1.68-.18.25.28.39.44.53.6.88.99 1.45 2.12 1.67 3.43.12.72-.21 1.26-.82 1.36-.62.11-1.09-.26-1.23-1-.35-1.85-1.56-3.03-3.12-3.9-.25-.14-.67-.05-.98.02-2.63.67-5.22 1.48-7.88 1.99-2.5.48-5.06.64-7.59.95-3.61.44-6.81 1.82-9.63 4.2.38.31.75.58 1.07.89.78.74 1.24 1.65 1.33 2.73.05.68-.32 1.17-.92 1.25-.57.07-1.06-.33-1.15-1.02-.15-1.21-.94-1.82-2.01-2.26-1.77 1.97-2.88 4.24-3.23 6.84-.62 4.62.8 8.54 4.25 11.69 4.71 4.3 10.28 6.5 16.67 6.64.51.01.78-.15 1-.61.67-1.47.8-2.96.41-4.51-.21-.85.42-1.59 1.18-1.34.34.12.71.53.82.89.48 1.56.4 3.13-.07 4.68-.06.2-.13.39-.26.79 1.45-.33 2.8-.55 4.1-.93 3.82-1.11 7.18-3.05 10.06-5.82.08-.08.16-.16.25-.23.55-.5 1.16-.53 1.59-.1.47.47.42 1.07-.17 1.63-3.67 3.57-7.98 5.97-12.99 7.04-5.53 1.18-10.93.71-16.16-1.5-.53-.22-.95-.13-1.44.04-4.22 1.55-8.57 2.36-13.07 2.03-6.47-.46-11.45-3.6-14.98-8.99-2.46-3.75-3.31-7.92-2.95-12.38.48-6.01 2.8-11.17 6.74-15.69 1.65-1.89 3.1-3.94 4.64-5.92.09-.11.16-.22.24-.34.46-.62 1.01-.76 1.53-.41.54.36.62 1 .15 1.63-1.32 1.77-2.58 3.59-4.02 5.27-2.16 2.53-4.25 5.1-5.46 8.24-1.88 4.84-2.58 9.78-.88 14.84 2.3 6.83 8.66 11.56 15.85 11.69 3.5.06 6.96-.46 10.44-1.56-.26-.18-.44-.29-.62-.41-2.78-1.85-5.37-3.91-7.08-6.85-3.83-6.6-2.18-14.77 3.96-19.71 3.56-2.86 7.61-4.4 12.16-4.66 1.14-.07 2.28-.21 3.55-.34-.69-.94-1.51-1.45-2.41-1.88-.33-.15-.72-.43-.83-.73-.1-.3.02-.86.25-1.03.29-.22.84-.31 1.18-.2 1.58.53 2.83 1.53 3.73 2.94.28.44.56.51 1.01.39 2.26-.61 4.53-1.19 6.79-1.82.2-.05.48-.33.48-.5.02-2.87.14-5.75-.65-8.57-2.17-7.74-9.29-13.09-17.31-12.94-3.03.06-5.86.86-8.47 2.39-.14.09-.28.17-.41.26-.03.03-.04.08-.07.15.68.18 1.36.34 2.02.55.7.22 1.03.79.83 1.36-.2.6-.73.79-1.48.64-1.12-.23-2.25-.46-3.38-.58-.35-.04-.85.14-1.07.41-1.04 1.31-2.09 2.63-2.99 4.03-.82 1.27-1.46 2.65-2.2 3.98-.42.76-1 .96-1.58.62-.56-.34-.64-.89-.25-1.63.72-1.34 1.44-2.67 2.17-4.01 3.89-7.15 11.86-11.2 19.85-10.1 8.08 1.11 14.8 7.24 16.54 15.18.34 1.56.43 3.19.55 4.79.08 1.12.02 2.25.02 3.27 1.58.12 3.13.12 4.63.38 6.49 1.12 11.62 6.6 12.38 13.14.01.16.07.34.12.51z"/><path d="m32.31 53.88c-.05.61-.3.99-.86 1.09-.58.1-1.01-.17-1.18-.71-.31-.98-.85-1.81-1.74-2.31-.75-.43-1.58-.7-2.38-1.03-.19-.07-.41-.08-.6-.14-.56-.19-.82-.59-.72-1.17.09-.59.5-.87 1.07-.86 2.44.03 5.42 2.18 6.23 4.48.08.22.13.47.18.65z"/><path d="m64.11 55.73c-.01.72-.39 1.19-.93 1.22-.58.03-1.02-.27-1.1-.84-.28-2.07-1.66-3.25-3.33-4.2-.71-.41-.93-.94-.62-1.51s.9-.7 1.6-.33c2.03 1.1 3.64 2.57 4.25 4.9.07.3.1.6.13.76z"/><path d="m44.64 42.46c-.4.38-1.07.38-1.42-.07-1.22-1.59-2.92-2.12-4.82-2.31-.75-.07-1.12-.54-1.04-1.18.07-.58.53-.92 1.23-.9 2.12.19 4.11.79 5.66 2.41.21.22.4.45.56.7.32.48.26.96-.17 1.35z"/><path d="m59.51 32.07c-.31.29-.58.69-.94.83-.51.2-1.02-.09-1.17-.59-.54-1.82-1.87-2.69-3.58-3.19-.56-.17-.79-.62-.67-1.19.12-.58.53-.83 1.11-.79 2.06.12 4.71 2.47 5.08 4.51.02.09.02.19.03.28.05.04.1.09.14.14z"/><path d="m75 58.96c-.02.59-.32.96-.9 1.06-.58.09-1.04-.22-1.14-.77-.22-1.35-.99-2.29-2.08-3.02-.48-.32-.61-.8-.34-1.33s.75-.67 1.28-.5c1.44.46 3.2 3.03 3.18 4.56z"/></g></svg>