<svg enable-background="new 0 0 180 138" viewBox="0 0 180 138" xmlns="http://www.w3.org/2000/svg"><ellipse cx="90" cy="69" fill="#fff" rx="90" ry="49.59"/><ellipse cx="90" cy="69" fill="#e29f23" rx="83.61" ry="45.81"/><path d="m164.7 69c0 23.78-33.44 43.05-74.7 43.05-41.25 0-74.7-19.27-74.7-43.05s33.44-43.05 74.7-43.05c41.25 0 74.7 19.27 74.7 43.05z" fill="#9e3120"/><path d="m125.55 57.08c1.46 1.48 2.18 3.42 2.18 5.83v18.93h-4.87v-20.09c0-1.67-.44-3.01-1.31-4.03s-2.02-1.53-3.44-1.53c-1.65 0-3.26.59-4.81 1.77-1.56 1.18-2.77 2.73-3.63 4.64v19.24h-4.87v-26.49h4.58l.03 6.17c.96-2.01 2.38-3.62 4.27-4.83s3.93-1.82 6.11-1.82c2.38 0 4.3.73 5.76 2.21zm-46.55-1.73-12.37 26.97h-.58l-12.47-26.97h5.26l9.63 21.02 9.53-21.02zm72.32 1.92c-1.92-1.61-4.5-2.41-7.74-2.41-1.92 0-3.83.35-5.71 1.06s-3.46 1.67-4.72 2.89l.34.34c1.16-.99 2.49-1.78 3.98-2.35s2.96-.86 4.41-.86c2.31 0 4.13.68 5.46 2.02 1.31 1.33 1.96 3.15 1.98 5.45-.67.74-1.92 1.52-4.18 2.2-6.35 1.9-7.94 2.01-10.94 3.84-2.04 1.25-3 3.06-3 5.23 0 2.3.77 4.14 2.3 5.54 1.54 1.4 3.56 2.1 6.09 2.1 2.05 0 3.99-.58 5.81-1.75 1.82-1.16 3.22-2.72 4.21-4.66l.03 5.92h4.56v-18.06c0-2.72-.96-4.89-2.88-6.5zm-1.99 11.01v6.55c-.86 1.81-2 3.28-3.42 4.39-1.42 1.12-2.88 1.67-4.36 1.67-1.57 0-2.82-.58-3.76-1.75-.94-1.16-1.41-2.7-1.41-4.61 0-.01 0-.02 0-.03.01-1.7.8-3.32 2.12-4.4 1.51-1.24 3.57-2.16 6.38-3.17 2.15-.77 3.66-1.81 4.45-2.63v3.16zm-59.34 14.04c1.92 0 3.82-.35 5.69-1.06s3.42-1.67 4.65-2.89l-.35-.34c-1.14.99-2.45 1.78-3.93 2.35s-2.94.86-4.4.86c-2.31 0-4.14-.67-5.5-2.02-1.33-1.33-2.93-3.15-3-5.45.66-.74 1.89-1.53 4.13-2.2 6.31-1.9 7.9-2.01 10.86-3.84 2.01-1.24 2.93-3.06 2.88-5.22-.05-2.3-.86-4.14-2.42-5.54-1.57-1.4-3.61-2.1-6.13-2.1-6.33 0-9.91 3.22-11.91 6.44-1.66 2.68-2.42 5.83-2.36 9.01.2 10.18 8.56 12 11.79 12zm-6.93-13.42s-.82-12.62 7.51-12.62c1.57 0 2.84.58 3.8 1.75.96 1.16 1.47 2.7 1.5 4.61v.03c.03 1.7-.74 3.32-2.03 4.4-1.48 1.24-3.53 2.16-6.32 3.17-2.13.77-3.62 1.81-4.39 2.62l-.07-3.16zm-20.41 18.78c-3.05-6.98-4.82-10.97-5.81-13.21l-13.13-30.24h-.65l-15.55 37.47h1.04l12.85-31.06s15.03 35.59 16.07 37.77c1.29 2.7 8.82 15.64 26.58 15.64 0-.94 0-.94 0-.94-5.75-.06-15.84-2.73-21.4-15.43z" fill="#fff"/><g fill="#e29f23"><path d="m71.45 90.1c-8.82-2.56-17.33-6.17-25.13-11.05-7.06-4.41-13.77-10.2-17.57-17.74-.21-.41-2.32.3-2.34.26 3.61 7.17 9.8 12.59 16.39 16.99 8.04 5.37 17.14 9.18 26.4 11.87.65.18 1.95-.42 2.25-.33z"/><path d="m103.55 86.53c-.71-.36-1.8-.14-3.07.63-1.04.62-2.21 1.62-3.39 2.89-.01.01-.01.02-.02.02-3.85 1.7-8.31 2.46-13.32 2.26.67-.34 1.3-.77 1.86-1.28.04.01.07.01.11.01 2.94-.27 5.63-1.58 7.58-3.66.08-.09.11-.21.07-.32s-.13-.19-.25-.21c-1.5-.25-3.08-.02-4.44.64-.09.04-.17.08-.25.13.42-.78.77-1.72 1.06-2.82.03-.13-.02-.27-.13-.35s-.26-.07-.37.02c-1.38 1.09-2.47 2.57-3.12 4.22-.22.56-.39 1.14-.51 1.72-.85.83-1.89 1.46-3.02 1.82-.01.01-.03.01-.04.02-1.15-.09-2.33-.22-3.53-.4.38-.12.76-.26 1.13-.45.04.01.09.02.13.01 1.6-.22 3.11-.86 4.48-1.9.09-.07.14-.18.12-.29-.01-.11-.09-.21-.19-.25-.12-.05-.25-.08-.38-.1.35-.55.45-1.25.48-1.83.01-.11-.04-.22-.13-.28s-.21-.08-.31-.03c-1.84.78-3.42 2.25-4.35 4.03-.78.42-1.59.63-2.63.82-.52-.1-1.06-.2-1.61-.32-.97-.21-1.95-.44-2.91-.69 1.03-.32 1.97-.87 2.71-1.6 1.95.26 4-.55 5.23-2.08.08-.1.09-.24.03-.35s-.19-.18-.32-.16c-.21.03-.42.07-.63.13.35-.42.66-.87.91-1.35.06-.11.05-.24-.03-.33-.07-.1-.19-.15-.31-.13-2.17.37-4.08 1.73-5.25 3.73-.91.95-2.27 1.61-3.63 1.77-.01 0-.02.01-.03.01-.16-.07-.32-.14-.48-.21-.37.26-.79.31-1.22.41.46.41.95.97 1.43 1.36-.76-.34-1.53-.6-2.32-.79-.62-.49-1.48-1.23-1.98-1.77-.23-.04-.47-.06-.7-.08.64.81 1.41 1.64 2.09 2.19.01.04.02.07.05.1 1.96 2.68 4.88 4.56 8.03 5.17.13.03.26-.03.33-.14s.06-.26-.02-.36c-.36-.46-.75-.91-1.16-1.32.34.2.68.4 1.03.59v.01c.9 2.34 2.72 4.18 4.76 4.8.11.03.24 0 .32-.08s.11-.21.07-.32c-.07-.2-.14-.39-.23-.56.71.27 1.45.47 2.21.56.12.02.25-.04.31-.15.07-.11.06-.24-.01-.35-1.45-2.09-3.97-3.67-6.9-4.34-.01 0-.01 0-.01 0-.01-.01-.03-.02-.04-.03-2.17-1.17-4.22-2.57-6.1-4.18 1.53.45 3.08.84 4.65 1.17.51.11 1.01.21 1.5.3.06.04.15.06.23.05h.02c.27.05.53.1.8.14 1.29 1.47 2.71 2.54 4.26 3.19.02.03.03.05.06.08 1.86 1.83 4.58 2.8 7.27 2.6.12-.01.22-.08.27-.19s.03-.23-.04-.33c-.2-.25-.43-.46-.69-.63.62-.11 1.23-.29 1.81-.55.1-.04.17-.14.19-.24.02-.11-.02-.22-.11-.29-1.3-1.12-2.95-1.42-4.11-1.48-1.46-.07-2.89.18-4.28.42-.03.01-.06.02-.09.04-1.26-.53-2.44-1.35-3.53-2.46 2.95.43 5.74.57 8.37.42 0 0 .01.01.01.01.94.49 2.15 1.01 3.14 1.34 2.05 1.59 4.87 2.22 7.53 1.68.12-.03.21-.11.25-.23.03-.12-.01-.24-.11-.32-.45-.38-1.09-.79-1.72-1.11.3-.03.6-.08.88-.14 1.19-.28 2.2-.63 3.07-1.07.11-.06.18-.17.18-.29s-.07-.23-.18-.28c-1.95-.91-4.22-1.14-6.34-.69 1.18-.34 2.32-.75 3.41-1.24.53.1 1.07.19 1.79-.01.84-.24 1.73-.78 2.52-1.52.32-.3.62-.63.89-.92.17-.19.86-.95 1.01-1.12.07-.07.1-.17.08-.27-.03-.14-.09-.22-.18-.27zm-15.01-.82c-.39 1.15-.87 2.07-1.42 2.72-.03.04-.05.08-.07.13-.27.23-.52.48-.76.75.48-1.34 1.25-2.58 2.25-3.6zm-10.44 2.15c.01 0 .03-.01.04-.01.32-.17.67-.35 1.03-.5-.45.33-.95.59-1.48.77.14-.09.28-.17.41-.26zm1.97 10.77c.02.02.03.04.06.06.18.14.35.34.49.6-.88-.42-1.72-1.1-2.4-1.96.57.5 1.19.94 1.85 1.3zm7.57-1.4.09.03c.33.03.68.16.98.37-1.09-.01-2.17-.23-3.17-.62.69.15 1.39.23 2.1.22zm3.04-3.54c-.51-.17-1.08-.39-1.64-.63.85.13 1.72.18 2.58.15l.02.02c.08.05.16.1.24.14-.45.08-.86.2-1.2.32zm1.18-1.11c-.04-.01-.07-.02-.11-.02-.33.02-.67.02-1 .01.78-.13 1.55-.28 2.3-.47-.41.14-.81.3-1.19.48z"/></g></svg>