<svg enable-background="new 0 0 180 138" viewBox="0 0 180 138" xmlns="http://www.w3.org/2000/svg"><g fill="#ec1c24"><path d="m48.5 86.77c-.15 1.04-.82 1.88-1.63 2.6-.42.37-.86.02-1.24-.28-1.23-.95-1.22-.92-2.11.22-.34.42-.55 1.2-1.23 1-.83-.23-1.47-.87-1.97-1.58-.17-.25-.04-.55.09-.82.18-.35.37-.68.58-1.03 1.13-1.9 1.14-1.91 2.97-.63.43.3.74.37 1.01-.16.11-.22.27-.42.43-.61.38-.4.47-1.23 1.34-.93.85.29 1.77 1.44 1.76 2.22z"/><path d="m61.4 93.15c-.38.9-.95 2.01-1.67 3.01-.22.3-.59 0-.85-.18-.99-.7-1.97-1.42-2.99-2.09-.45-.29-.43-.58-.24-.98.42-.87.84-1.74 1.26-2.6.22-.43.53-.72 1.02-.38 1.07.72 2.12 1.45 3.17 2.2.24.17.39.43.3 1.02z"/><path d="m90.28 90.62-.1.03-.11-.02c.07-.11.15-.11.21-.01z"/><path d="m156.26 98.67c-.25-.26-.53.02-.78.11-.43.16-.87.34-1.29.52-3.09 1.34-6.09 2.87-9.25 4.02-5.86 2.15-12.93-1.53-14.65-7.55-.17-.59-.04-.93.37-1.3.96-.86 2.08-1.4 3.33-1.66 2.1-.45 4.2-.89 6.3-1.29 4.34-.83 7.66-3.05 9.77-6.99.24-.46.67-1.1.14-1.46-.6-.4-1.09.26-1.4.67-1.43 1.86-3.46 2.59-5.62 3.05-2.55.55-5.18.68-7.68 1.48-3.34 1.05-5.88 2.96-6.88 6.46-1.33 4.61.46 9.09 4.71 11.87.36.24.73.49 1.28.86-2.96.82-5.66 1.63-8.39 2.3-5.23 1.29-10.54 2.05-15.9 2.47-1.39.54-2.86.29-4.29.34-.85 0-1.71 0-2.55 0-2.61 0-5.22 0-7.83.01-.58 0-1.12-.16-1.65-.36-2.54-.38-5.1-.74-7.64-1.16-4.72-.77-8.14-3.33-10.3-7.56-.11-.22-.23-.45-.35-.66-.24-.46-.63-.5-.76-.02-.49 1.78-1.52 3.54-.53 5.47 1.26 2.46 2.23 5.02 2.74 7.75.18.97.02 1.67-.68 2.41-3.56 3.73-7.9 6.37-12.39 8.78-1.61.87-3.36 1.42-5.14 1.83-3.26.74-5.6-.1-7.27-2.53-.42-.62-.47-.98.25-1.42 1.85-1.17 3.64-2.42 5.3-3.85 2.05-1.75 3.2-4 3.63-6.63.36-2.13.36-4.28.39-6.42.01-.57.03-.92.8-.83 1.53.2 2.78-.41 3.79-1.58 1.98-2.3 2.39-5.05 2.23-7.95-.09-1.54-.55-3.02-1.32-4.38-.11-.21-.32-.48-.5-.5-.3-.04-.34.33-.4.54-.66 2.07-1.53 4.15.09 6.2.14.18.2.46.27.7.1.33.04.61-.21.88-1.26 1.34-5.8 1.73-6.72-.9-.15-.43-.4-.84-.65-1.23-.22-.34-.51-.47-.67.04-.61 1.92-1.46 3.77-.35 5.87 1.2 2.25 1.84 4.72 2.08 7.28.07.68-.02 1.24-.43 1.79-1.93 2.62-4.56 4.42-7.2 6.22-.53.36-1.03.82-1.79.99.34-2.48.79-4.81 1.41-7.13.51-1.96.8-3.91.37-5.93-.47-2.16-1.63-3.96-3-5.63-.48-.6-.55-1.07-.08-1.71.76-1.04 1.42-2.14 2.13-3.22 1.82-2.76 3.02-5.76 3.46-9.04.1-.73.38-1.72-.48-2.14-.82-.41-1.43.35-2.07.8-2.33 1.71-3.83 4.13-5.56 6.35-.86 1.27-1.71 2.54-2.64 3.93-.51-.62-.95-1.14-1.4-1.71.79-.35 1.57-.18 2.43-.39-1.03-1.17-2.35-1.76-3.39-2.7-.62-.35-1.26-.65-1.86-1.05-.82-.55-1.16-.39-1.18.61-.01.49-.13.99-.26 1.47-.35 1.28-.07 2.36.86 3.34.71.75 1.23 1.66 1.91 2.45.59.67.53 1.14-.09 1.79-1.66 1.78-3.72 3.12-5.42 4.85.02.37.02.77.58.73 2.76-.95 4.84-2.79 6.65-5.08.4.42.71.84 1.1 1.14.75.59.68 1.16.23 1.92-.86 1.45-1.64 2.93-2.42 4.42-1.43 2.73-1.75 5.64-1.33 8.65.24 1.67 1.36 2.58 3.05 2.5 1.48-.07 2.76-.68 3.98-1.47.86-.54 1.68-1.13 2.67-1.82-.24 1.29-.52 2.37-.62 3.47-.1 1.14-.71 1.72-1.65 2.26-3.41 1.99-7.04 3.49-10.65 5.06-4.26 1.86-8.52 3.71-12.78 5.56-.21.1-.6.16-.53.39.08.29.38.18.68.13 4-.6 7.91-1.6 11.85-2.47 4.09-.9 8.24-1.65 11.74-4.15.97-.7 1.22-.38 1.52.59.63 2.04 1.54 3.92 3.49 5.11 2.35 1.42 4.8 1.16 7.27.52 3.96-1.04 7.27-3.31 10.55-5.63 2.74-1.93 5.17-4.2 6.98-7.06.63-1 1.18-2.04 1.18-3.28 0-.89-.02-1.79-.01-2.68 0-.3-.11-.67.34-.8.11-.26-.03-.82.6-.47.4.23.86.37 1.27.57 4.08 1.93 8.39 2.79 12.88 2.89h13.08c.36 0 .72.01 1.08-.01 8.04-.54 15.9-2.02 23.52-4.64 6.85-2.35 13.35-5.52 20.01-8.34 2.39-1.01 3.49-2.79 4.49-4.86.03-.21.27-.52.05-.77zm-110.59-1c1.63-2.09 3.24-4.21 5.29-5.91.25-.21.49-.46.85-.36.09.02.14.22.23.36-.24.53-.43 1.08-.71 1.58-1.23 2.23-2.71 4.3-4.1 6.42-.29.45-.59.6-.99.14-.1-.11-.21-.2-.34-.27-.98-.55-.9-1.1-.23-1.96zm-1.57 17.74c-2.59-.01-3.12-.85-2.33-2.6 1.05-2.3 2.24-4.53 3.72-6.61.54-.76.86-.7 1.45-.1 1.27 1.3 2.48 2.66 3.45 4.22.42.68.43 1.17-.22 1.75-1.95 1.74-4.03 3.18-6.07 3.34z"/><path d="m73.84 115.75c-1.18 2.25-1.18 2.25-3.35.8-.57-.38-1.13-.75-1.67-1.11-.33 0-.35.26-.45.43-.33.6-.63 1.21-.95 1.8-.25.49-.53.59-1.01.24-.99-.71-1.99-1.39-3.01-2.05-.53-.35-.6-.74-.32-1.27.4-.77.82-1.54 1.16-2.35.29-.66.65-.78 1.24-.37.85.6 1.74 1.14 2.57 1.76.53.39.88.4 1.12-.27.07-.16.16-.32.24-.48.86-1.84.53-2.09 2.57-.72.41.28.83.58 1.23.86 1.51 1.07 1.51 1.07.63 2.73z"/><path d="m84.27 132.18c-1.6.36-3.24-.73-3.65-2.53-.54-2.38.39-4.33 1.95-6.05.24-.26.53-.47.8-.7.29-.4.68-.67 1.39-.98-.5.67-.59 1.3-1.13 1.67-.17 1.04-.8 1.98-.72 3.1.07.87.07 1.76.98 2.22.87.45 1.66.12 2.38-.41.09-.07.2-.09.29-.13.27 1.59-.87 3.48-2.29 3.81z"/><path d="m76.79 95.39c-.48.99-1 1.96-1.51 2.93-.09.17-.23.27-.53.25-.11-.05-.3-.13-.48-.25-.97-.66-1.91-1.37-2.9-2-.54-.35-.6-.67-.29-1.22.43-.77.82-1.59 1.18-2.39.29-.63.66-.77 1.25-.35.96.68 1.92 1.36 2.89 2.02.37.27.6.58.39 1.01z"/><path d="m107.05 117.31c-4.36.4-8.72.53-13.08 0z"/><path d="m103.43 112.58c-2.61 0-5.22 0-7.83.01-.58 0-1.12-.16-1.65-.36 3.17.11 6.33.23 9.48.35z"/><path d="m35.94 106.99c-.46.42-1.09.42-1.66.67.23-.59.52-1.09 1.09-1.39.01.38.01.77.57.72z"/><path d="m79.22 114.31c-.07 1.16.01 2.35-.33 3.49 0-.89-.02-1.79-.01-2.68 0-.31-.11-.68.34-.81z"/><path d="m110.28 112.25c-1.39.54-2.86.29-4.29.34 1.43-.12 2.87-.23 4.29-.34z"/><path d="m125.19 99.83c-.14-4.55-2.79-7.53-6.34-9.93-.3-.21-.59-.25-.78.16-.35.73-.77 1.4-.62 2.32.32 1.84.58 3.67.74 5.53.11 1.24.46 2.48.09 3.73-.26.88-.86 1.27-1.74 1.33-.83.05-1.25-.37-1.42-1.14-.15-.68-.48-.67-.84-.14-.28.41-.54.85-.97 1.14-.48.34-.97.68-1.57.38-.57-.29-.75-.83-.76-1.43 0-.16.1-.35-.11-.54-.73.71-1.33 1.58-2.27 2.04-1.89.93-3.1.21-3.07-1.86 0-.04-.08-.09-.16-.16-.17.15-.37.3-.54.48-.3.3-.59.63-.87.95.23.36 1.6-.83.95.71.1.88.24 1.75 1.21 2.1 1 .36 1.87.07 2.65-.66.47-.42.84-.98 1.45-1.24 1.36 2.47 2.16 2.41 4.16-.33.14.23.27.43.39.64.84 1.38 2.26 1.47 3.22.18.45-.61.77-1.28.96-2.02.46-1.77.22-3.56.09-5.34-.11-1.62-.27-3.23-.42-5.02 2.32 1.47 4.11 3.21 5.18 5.45 1.88 3.89 1.24 6.05-2.23 8-1.03.59-2.16 1.04-3.09 1.93 4.6-.37 6.85-2.79 6.71-7.26zm-18.9 4.78c-.21.2-.27-.04-.39-.14-.25-.23-.51-.42-.86-.71.73-.33.98.17 1.3.39.14.08.09.33-.05.46z"/><path d="m104.91 103.36c-.49-.08-.53.49-.87.62-.21.01-.45-.02-.58.18-.83 1.29-2.28 1.16-3.5 1.55-.4-.65-.82-1.3-1.23-1.96-.18-.7-.62-.28-.91-.17-1.54.58-3.07 1.2-4.6 1.78-1.99.77-4.06 1.2-6.2 1.14-3.43-.09-5-1.9-4.65-5.34.12.07.23.13.35.21.5 1.95 1.5 2.76 3.63 3.03 3.88.48 7.39-.8 10.88-2.23.1-.04.2-.1.29-.14.52-.22 1.1-.68 1.57-.6.7.12.24.95.42 1.45.35.91 1 1.16 1.86 1.04.75-.1 1.4-.48 2.07-.83.25 0 .41-.11.42-.38.01-.07.05-.1.12-.1.21.41 1.58-.78.93.75z"/><path d="m91.35 97.61c-.32-.09-.38.09-.45.29-.27.88-.71.61-1.22.21-.34-.26-.8-.72-1.11.01-.22.52-1 1.2.17 1.6.25.36.63.55 1.08.82.33-1.32.96-1.32 1.79-.43.24.25.42.25.65-.1.66-1 .25-2.09-.91-2.4zm-1.74 1.79c0 .01-.01.02-.01.04-.04.1-.11.16-.18.2-.01.01-.02.01-.03.01-.02.01-.04.01-.07.02-.02 0-.04.01-.07.01-.04.01-.09.01-.12.01-.02 0-.04 0-.05 0s-.03 0-.04 0c-.05 0-.1 0-.15.01-.03 0-.07 0-.11.01v-1.15c.33.24.86-.12.88.54-.01.12-.03.22-.05.3z"/><path d="m104.04 103.98c-1.23 1.73-2.47 2.26-4.09 1.74 1.23-.39 2.68-.25 3.5-1.55.13-.21.37-.18.59-.19z"/><path d="m82.71 101.4c-.12-.07-.23-.13-.35-.21-.02-.9.35-1.7.73-2.5.11.95-.51 1.78-.38 2.71z"/><path d="m99.95 105.73c-.99-.29-1.15-1.1-1.23-1.96.42.66.82 1.31 1.23 1.96z"/><path d="m103.85 102.76c-.01.27-.17.38-.42.38.13-.13.27-.26.42-.38z"/><path d="m105.04 103.76c.73-.34.98.17 1.3.39.13.09.09.34-.05.47-.21.2-.27-.03-.39-.14-.25-.24-.51-.44-.86-.72z"/><path d="m88.76 99.71c0-.36 0-.72 0-1.16.32.24.86-.12.88.54.02.71-.49.58-.88.62-.01 0 0 0 0 0z"/></g><path d="m94 83.77c-1.12 0-2.26-.07-3.38-.18l-.39-.01c-.2.04-.39.07-.6.07-.54 0-1.01-.14-1.42-.26-.04-.01-.09-.02-.13-.04-5.91-.9-11.28-3.21-15.98-6.87l-.03-.02-.03-.02c-.2-.17-.42-.34-.67-.51-.38-.27-.8-.58-1.18-.97-.23-.24-.42-.49-.59-.77-.43-.21-.85-.5-1.24-.89-.12-.12-.24-.25-.34-.37-.11-.13-.21-.24-.3-.37l-.18-.23c-.15-.2-.3-.38-.45-.54-4.38-4.95-7.16-10.76-8.25-17.27-1.32-7.86-.08-15.4 3.68-22.42 2.37-4.42 5.65-8.28 9.76-11.46.55-.43 1.14-.82 1.71-1.17 0 0 .28-.18.36-.23.46-1.79 1.08-3.38 1.87-4.84.2-.36.4-.71.61-1.03v-.77c-.04-.09-.08-.18-.11-.27-.59-1.71.33-3.76 1.99-4.47.27-.12.52-.18.75-.22.71-.78 1.77-1.25 2.96-1.27.02 0 .13-.03.21-.04.05-.01.1-.02.15-.03.59-.7 1.38-1.12 2.38-1.29.2-.03.39-.05.58-.05.97 0 1.71.42 2.3.76h.01c.4-.13.83-.2 1.26-.2.02 0 .12-.03.2-.04.22-.05.5-.12.84-.12.18 0 .37.02.54.07.83-.12 1.67-.17 2.51-.17 1.78 0 3.61.25 5.6.78 6.74 1.79 11.73 6.26 14.8 13.3.14.33.33.66.51 1.01.03.07.07.13.11.2 1.47.8 2.6 1.92 3.68 3.01.13.13.25.25.38.38 4.37 4.33 7.41 9.6 9.04 15.66 1.24 4.63 1.52 9.33.84 13.94-.55 3.68-1.62 7.23-3.18 10.53-.02.04-.03.09-.05.12-.11.25-.26.6-.57.9-.09.35-.24.62-.32.76-4.38 7.59-10.67 12.92-18.71 15.85-3.84 1.35-7.73 2.07-11.53 2.07z" fill="#231f20"/><path d="m85.75 6.1c.76 0 1.35.4 1.98.75.12.07.13.14.11.22.45-.26.97-.39 1.5-.4.32 0 .66-.17 1.02-.17.11 0 .22.01.32.05.16.05.32.11.46.16-.04-.04-.1-.1-.14-.15.82-.12 1.62-.17 2.42-.17 1.79 0 3.55.28 5.29.74 6.84 1.82 11.25 6.3 14.02 12.63.24.55.55 1.08.84 1.61 1.63.8 2.85 2.11 4.11 3.36 4.28 4.24 7.17 9.31 8.73 15.12 1.18 4.41 1.48 8.9.8 13.47-.53 3.56-1.54 6.96-3.09 10.19-.16.36-.28.74-.7.89.07.3-.05.55-.2.8-4.2 7.27-10.17 12.44-18.09 15.33-3.63 1.34-7.34 2.05-11.14 2.05-1.09 0-2.18-.05-3.29-.18-.14 0-.28-.01-.42-.01-.03-.05-.07-.08-.11-.08-.03 0-.07.02-.1.08-.15.04-.29.05-.43.05-.45 0-.87-.15-1.29-.28-5.75-.86-10.92-3.07-15.5-6.64-.57-.5-1.26-.87-1.78-1.41-.24-.25-.45-.53-.58-.88-.51-.15-.91-.45-1.26-.79-.1-.1-.2-.21-.29-.3-.1-.11-.18-.22-.27-.33-.22-.27-.43-.55-.66-.82-4.25-4.79-6.91-10.39-7.97-16.68-1.27-7.6-.1-14.84 3.56-21.67 2.35-4.39 5.52-8.04 9.44-11.08.57-.43 1.17-.83 1.77-1.22.21-.13.4-.26.6-.4.41-1.76 1.01-3.43 1.87-5 .23-.42.49-.85.76-1.25.18-.27.37-.54.57-.8-.37-.26-.61-.6-.74-.97-.38-1.11.22-2.52 1.34-3 .21-.09.38-.14.51-.14s.23.04.29.14c.45-.9 1.42-1.39 2.45-1.4.32 0 .65-.16 1.01-.16.02-.03.03-.07.05-.09.37-.57.95-.98 1.86-1.13.12-.03.25-.04.37-.04m11.94 15.82c-.01-.02-.02-.04-.04-.07 0 .01.01.02.01.03.01.01.02.02.03.04m-11.94-18.19c-.26 0-.52.02-.78.07-1.11.18-2.05.65-2.78 1.37-1.27.07-2.45.55-3.3 1.36-.2.05-.4.12-.62.22-2.25.97-3.43 3.63-2.64 5.95.01.04.03.09.04.13v.2c-.16.26-.32.53-.47.8-.77 1.42-1.39 2.96-1.86 4.65-.58.37-1.17.76-1.76 1.22-4.24 3.27-7.63 7.26-10.08 11.84-3.89 7.25-5.16 15.05-3.8 23.17 1.12 6.74 3.99 12.75 8.53 17.87.13.14.26.32.4.49.07.08.13.16.18.24.09.11.2.24.33.39l.01.01.01.01c.11.13.25.28.4.43.39.39.8.71 1.24.95.16.24.35.47.57.68.46.47.92.8 1.35 1.11.22.15.43.3.58.43l.05.04.05.04c4.83 3.76 10.36 6.15 16.44 7.09.01 0 .03.01.04.01.43.13 1.04.32 1.76.32.23 0 .46-.02.68-.05h.09.13c1.15.12 2.32.18 3.46.18 3.95 0 7.97-.74 11.96-2.21 8.3-3.02 14.8-8.52 19.32-16.36.08-.14.24-.4.36-.77.32-.39.48-.77.59-1 .01-.03.03-.07.04-.1 1.61-3.4 2.72-7.05 3.28-10.86.71-4.78.42-9.63-.86-14.42-1.68-6.27-4.83-11.72-9.35-16.19-.13-.13-.25-.25-.38-.38-1.03-1.02-2.17-2.17-3.64-3.04-.15-.28-.3-.55-.41-.8-3.23-7.39-8.48-12.09-15.59-13.97-2.09-.55-4.01-.82-5.9-.82-.83 0-1.66.05-2.47.16-.2-.03-.39-.05-.59-.05-.48 0-.86.1-1.12.15-.02 0-.04.01-.07.01-.33.01-.64.05-.96.12-.61-.34-1.42-.69-2.46-.69z" fill="#fff"/><path d="m90.71 82.4c-.14 0-.28-.01-.42-.01-.08-.1-.14-.1-.21 0-.61.16-1.16-.07-1.73-.23.08-2.78 1.42-4.97 3.36-6.9-.37 1.11-.82 2.21-1.1 3.34-.24.98-.29 2.01-.46 3.01-.09.49.65.34.56.79z" fill="#125199"/><path d="m93.51 9.77c-1.52.12-2.11 1.2-2.84 2.11-1.57.43-3.1-.26-3.67-1.66-.13-.3.04-.71-.38-.91-.01-.41.07-.79.21-1.12.42-.98 1.45-1.51 2.51-1.52.4-.01.87-.28 1.34-.12 2.3.8 2.7 1.06 2.83 3.22z" fill="#f9f7f4"/><path d="m86.63 10.64c-1.52.12-2.11 1.2-2.84 2.11-1.57.43-3.1-.26-3.67-1.66-.13-.3.04-.71-.38-.91-.01-.41.07-.79.21-1.12.42-.98 1.45-1.51 2.51-1.52.4-.01.87-.28 1.34-.12 2.29.79 2.69 1.05 2.83 3.22z" fill="#f9f7f4"/><path d="m70.49 73.23c.13.35.34.64.58.88-.24-.24-.45-.53-.58-.88zm4.73-53.18c.07-.04.12-.09.18-.12-.05.05-.12.08-.18.12zm3.24-7.28c.04.04.1.08.15.11-.06-.03-.11-.07-.15-.11zm4.35-3.48c.01-.04.02-.1.03-.14 0 .06-.01.1-.03.14z" fill="#fff"/><path d="m123.22 65.2c-4.2 7.27-10.17 12.44-18.09 15.33-.34-.58-.38-1.23-.37-1.86.04-5.86-.64-11.67-.97-17.52 0-.08 0-.16-.01-.24.05-.5.15-1-.12-1.48-.03-.5-.08-1-.11-1.5-.03-.36-.11-.71-.11-1.07-.03-4.93-.13-9.88-.47-14.8-.12-1.74-.15-3.49-.46-5.22.1-1.18-.04-2.35-.18-3.52-.05-.41-.18-.9.37-1.11.02-.01.04-.02.08-.02.17-.02.34-.05.48-.1.24-.08.45-.21.62-.37.07-.07.13-.13.2-.21.17-.23.3-.5.4-.82.26-.87-.24-1.54-.65-2.23.83-1.45.66-2.08-.87-3.6.33-.38.3-.84.26-1.28-.09-.82-.73-1.29-1.18-1.88.42-1.62.04-2.4-1.65-3.29.52-1.76.04-2.59-2.03-3.48.39-1.88-.61-3.02-2.65-3.04-.1-1.79-.38-2.01-2.04-2.67-.52-.21-1.03.45-1.39-.18.51-1.24-.57-1.7-1.24-2.47 2.65-.39 5.2-.1 7.71.57 6.84 1.82 11.25 6.3 14.02 12.63.24.55.55 1.08.84 1.61.36 1.08.71 2.15 1.07 3.23 1.28 3.83 1.49 7.81 1.92 11.78.79 7.39 2.5 14.6 4.67 21.68.65 2.13 1.22 4.3 2.22 6.33 0 .29-.12.54-.27.8z" fill="#0f173e"/><path d="m77.54 48.25c.11.2.15.54-.18.62-.71.14-.65.65-.6 1.15.07.68.66.5 1.07.63-.41 3.12-.95 6.22-1.21 9.35-.22 2.58-.98 4.88-2.33 7.05-.96 1.55-1.87 3.14-2.82 4.7-.3.51-.43 1.14-.99 1.49-.51-.15-.91-.45-1.26-.79-.1-.1-.2-.21-.29-.3-.1-.11-.18-.22-.27-.33-.21-.28-.43-.56-.66-.82-4.25-4.79-6.91-10.39-7.97-16.68-1.27-7.6-.1-14.84 3.56-21.67 2.35-4.39 5.52-8.04 9.44-11.08.57-.43 1.17-.83 1.77-1.22.21-.13.4-.26.6-.4.17.95-.3 1.89.01 2.84-.2.83-.13 1.65.04 2.47.15 1.09-.64 2.04-.42 3.13-.29.41-.27.83-.04 1.26-.22 1.03.82 1.51 1.07 2.34.1.18.2.38.3.58.02.8-.47 1.46-.66 2.18-.35 1.36-.58 2.74.17 4.06.05.2.08.41.16.6.73 1.58 1.96 2.89 2.51 4.58-1.27 1.17-1.93 2.52-1 4.26z" fill="#73cde0"/><path d="m105.14 80.53c-4.66 1.72-9.47 2.42-14.42 1.88.09-.45-.64-.29-.55-.78.17-1 .22-2.03.46-3.01.28-1.13.73-2.23 1.1-3.34-1.93 1.93-3.28 4.12-3.36 6.9-5.75-.86-10.92-3.07-15.5-6.64-.02-.36.11-.63.28-.87.04-.07.1-.12.15-.18.08-.1.16-.18.24-.27.11-.12.22-.24.3-.37 1.39 1.03 3.07 1.1 4.68 1.27 2.43.26 4.33-1.07 6.14-2.41 4.43-3.27 8.83-6.6 13.79-9.06 1.76-.87 3.56-1.64 5.36-2.46.33 5.84 1.01 11.66.97 17.52-.02.59.02 1.24.36 1.82z" fill="#0b66b0"/><path d="m127.2 53.3c-.53 3.56-1.54 6.96-3.09 10.19-.16.36-.28.74-.7.89-.99-2.02-1.55-4.2-2.22-6.33-2.17-7.1-3.87-14.3-4.67-21.68-.42-3.97-.64-7.96-1.92-11.78-.36-1.08-.71-2.15-1.07-3.23 1.63.8 2.85 2.11 4.11 3.36 4.28 4.24 7.17 9.31 8.73 15.12 1.21 4.42 1.51 8.9.83 13.46z" fill="#73cde0"/><path d="m85.69 59.83c-.13.12-.23.27-.35.41-3.26 3.81-6.51 7.62-9.77 11.43-.58.72-1.16 1.43-1.75 2.15-.09.13-.18.26-.29.37-.09.09-.16.17-.24.27-.05.07-.11.12-.15.18-.17.24-.3.51-.28.87-.57-.5-1.26-.87-1.78-1.41-.24-.25-.45-.53-.58-.88.54-.36.67-.98.99-1.49.95-1.55 1.86-3.14 2.82-4.7 1.35-2.17 2.11-4.48 2.33-7.05.26-3.13.79-6.24 1.21-9.35.1-.1.18-.2.27-.29.13-.02.28-.14.37.07.14.71.37 1.28 1.27.8.42.37.85.39 1.28.02.27-.22.55-.38.9-.43 1.23 1.53 2.83 1.88 4.93 1.09.15.08.32.15.47.23-.12.72-.05 1.43.08 2.14.35 2.14-.15 4.02-1.73 5.57z" fill="#0f173e"/><path d="m99.98 28.25c0 .58 0 1.14-.01 1.72-.53-.16-.85.32-1.29.43-2.65-4.03-5.5-7.91-8.83-11.42-1.47-1.54-3.15-2.67-5.14-3.36-4.06-1.4-7.18.2-8.42 4.29-.29.96-.58 1.9-.87 2.86-.32-.95.16-1.89-.01-2.84.41-1.76 1.01-3.43 1.87-5 .23-.42.49-.85.76-1.25.18-.27.37-.54.57-.8.71-.71 1.42-1.4 1.98-2.24.72-.49 1.4-1.05 2.24-1.35.1.05.23.09.26.15.98 2.27 2.5 2.79 4.61 1.55 1.29 1 2.05 1.12 3.01.48.3.17.18.5.27.76.41 1.16 1.52 1.74 2.64 1.38.23 2.1.61 2.61 2.24 3.02.03 2.13.3 2.62 1.77 3.1-.27.93-.29 1.57.03 2.13.04.09.1.16.16.24.1.12.2.24.33.36s.27.25.43.37c.05.04.11.09.16.13-.02.54-.04 1.09-.07 1.64.2 1.24 1.07 2.27 1.09 3.56.02.06.15.07.22.09z" fill="#ec4258"/><path d="m95.67 11.88c-1.1.1-1.51.99-2.04 1.75-1.13.36-2.23-.22-2.64-1.38-.09-.25.03-.59-.27-.76-.03-1.15.63-1.88 1.52-2.47.36.62.88-.03 1.39.18 1.65.67 1.93.89 2.04 2.68z" fill="#dea731"/><path d="m80.58 10.64c-.55.84-1.27 1.53-1.98 2.24-.37-.26-.61-.6-.74-.97-.38-1.11.22-2.52 1.34-3 .59-.25.9-.2.89.48 0 .5.24.87.49 1.25z" fill="#dea731"/><path d="m103.45 56.87c-.03-4.93-.13-9.88-.47-14.8-.12-1.74-.15-3.49-.46-5.22-.08 0-.15.01-.23.01.01.05.02.11.03.17.01.05.02.11.03.16.02.11.04.21.07.29.02.13.04.25.05.36.01.05.01.11.02.15.02.22.02.39 0 .55 0 .03-.01.08-.02.1-.01.03-.02.08-.03.11-.03.11-.1.21-.16.29-.02.02-.04.05-.07.08-.08.08-.15.14-.26.21-.03.02-.08.04-.11.07-.04.02-.09.04-.12.07-.09.04-.18.09-.28.13-.05.02-.11.04-.16.07-.11.41-.18.84-.34 1.23-.14.4-.04.63.3.89 1.6 1.26 1.95 2.7 1.12 4.27-.77 1.47-2.25 1.98-4.12 1.41-.13-.04-.27-.08-.41-.12l-.04.04c-.02.32.04.66-.07.93-.22.54-.73.64-1.24.54-.52-.1-.59-.54-.6-.99-.02-.55.32-.73.82-.74.22 0 .62.1.59-.24-.03-.39-.41-.63-.76-.83-1.76 2.05-4.1 3.31-6.48 4.46-.68.33-1.35.83-2.17.85-.34.15-.68.32-1.02.47.15.08.32.15.47.23.45.14.83-.16 1.24-.2 2.41-.91 6.02.29 6.55 3.25.38 2.09 1.18 4.1 1.64 6.18 1.74-.59 3.3-1.54 4.93-2.37.63-.32 1.4-.4 1.86-1.03-.03-.32-.1-.67-.1-1.03zm-4.32-6.93c-.62.01-1.01-.34-1.07-.96-.05-.54.26-.86.78-.96.71.04 1 .55 1.09 1.12.07.49-.32.79-.8.8zm2.14-.4c-.6.05-.83-.34-.86-.9-.04-.63.39-.76.88-.82.71-.08.99.43 1 .97.02.52-.43.76-1.02.75z" fill="#d56840"/><path d="m96.76 61.35c1.75-.59 3.3-1.54 4.93-2.37.63-.32 1.4-.4 1.86-1.03.03.5.08 1 .11 1.5-.03.5-.12 1 .12 1.48v.24c-1.78.82-3.6 1.59-5.36 2.46-4.97 2.47-9.36 5.78-13.79 9.06-1.83 1.35-3.72 2.67-6.14 2.41-1.61-.17-3.29-.24-4.68-1.27.59-.72 1.16-1.43 1.75-2.15.46.49 1.12.38 1.67.59 1.73.66 3.24.16 4.66-.84.71-.5 1.42-.98 2.13-1.47.66.05 1.12-.18 1.26-.88 1.76-1.54 3.76-2.79 5.6-4.24.89-.7 1.93-1.2 2.67-2.09 1.26-.08 2.2-.83 3.21-1.4z" fill="#51c1dc"/><path d="m93.63 13.63c.53-.76.95-1.65 2.04-1.75 2.04.02 3.04 1.16 2.65 3.04-1.04.25-2 .63-2.46 1.72-1.63-.4-2.01-.91-2.23-3.01z" fill="#f9f7f4"/><path d="m95.87 16.64c.46-1.09 1.41-1.47 2.46-1.72 2.08.89 2.55 1.73 2.03 3.48-1.15-.05-2.09.35-2.72 1.34-1.47-.47-1.74-.96-1.77-3.1z" fill="#dea731"/><path d="m97.64 19.75c.63-1 1.57-1.4 2.72-1.34 1.68.89 2.08 1.67 1.65 3.29-1.26-.01-2.49.04-3.24 1.29-1.35-1-1.59-1.7-1.13-3.24z" fill="#f9f7f4"/><path d="m102.93 24.87c1.54 1.52 1.7 2.16.87 3.6-1.1-.37-2.13-.45-2.98.54-.28-.25-.57-.5-.85-.75-.41-.82-.07-1.64-.02-2.47.9-.66 1.82-1.17 2.98-.92z" fill="#f9f7f4"/><path d="m102.93 24.87c-1.16-.25-2.1.27-2.99.91-.66-.12-.8-.82-1.26-1.15.02-.54.04-1.09.07-1.64.76-1.25 1.99-1.3 3.24-1.29.46.59 1.1 1.08 1.18 1.88.07.45.1.91-.24 1.29z" fill="#dea731"/><path d="m100.82 29.01c.85-.99 1.89-.9 2.98-.54.41.68.91 1.36.65 2.23-.25.84-.76 1.4-1.68 1.5-1.13.13-1.86-.42-2.36-1.37-.01-.28-.02-.57-.04-.85.05-.38.5-.57.45-.97z" fill="#dea731"/><path d="m100.42 30.83c.5.96 1.23 1.51 2.36 1.37-.63.2-.5.71-.45 1.14.15 1.17.28 2.34.18 3.52-.08 0-.15.01-.23.01-.33-.23-.49-.57-.65-.92-.4-.89-.76-1.82-1.48-2.53.03-.67-.59-1.08-.7-1.68.52-.13.82-.45.97-.91z" fill="#e9445b"/><path d="m103.79 60.92c-.25-.48-.15-.98-.12-1.48.27.47.16.98.12 1.48z" fill="#0b66b0"/><path d="m75.88 38.79c-.76-1.33-.53-2.71-.17-4.06.2-.73.68-1.38.66-2.18.26-.02.4.1.43.35.25.54.23 1.26.83 1.59.89.49 1.75.1 2.5-.34.7-.4.59-1.12.33-1.78-.11-.36-.23-.71-.34-1.07.08-.7-.16-1.27-.68-1.74-1.01-1.65-2.65-2.09-4.39-1.17-.21-1.09.58-2.04.42-3.13.46-.09.33-.47.39-.76.4-1.86.87-3.67 2.61-4.81 1.99-1.3 3.99-.93 6.02-.12 2.74 1.1 4.62 3.28 6.68 5.24-.3.23-.18.58-.25.87-.15.66-.13 1.42-.87 1.79-1-.58-2.02-1.12-3.23-.87-1.12.23-2.22.57-3.34.77-1.16.22-1.6.84-1.34 1.97-.74 1.04-.6 2.07.11 3.05 1.55 2.17 3.38 2.93 6.24 1.98.77-.26 1.58-.45 2.38-.58 1.58-.25 3.15 1.03 2.82 2.35-.38 1.48-1.27 2.62-2.8 3.11-1.67.52-3.29.18-4.87-.45-.04-.42-.28-.65-.75-.83.14.4.29.65.54.85-.02.63-.23 1.26-.91 1.23-1.33-.05-2.46.35-3.51 1.07-.21.14-.68-.08-.65.36.02.25.26.51.48.68.42.36.91.35 1.4.09.6-.32 1.18-.61 1.88-.72 1.22-.2 1.63-.75 1.74-2.07.86.68 1.61 1.48 2.57 2.05.6.36 1.3.58 1.74 1.17l-.08.07c-.68.05-1.37.11-2.07.15-2.37-.55-4.74.28-7.11.03-.99.04-.49-.96-.93-1.33-1.01-.85-1.83-1.8-1.24-3.36-1.07.94-2.13.92-3.24.55z" fill="#facd95"/><path d="m91.17 24.78c-2.05-1.96-3.95-4.13-6.68-5.24-2.03-.82-4.03-1.18-6.02.12-1.74 1.14-2.21 2.96-2.61 4.81-.07.29.07.67-.39.76-.17-.82-.24-1.64-.04-2.47.29-.96.58-1.91.87-2.86 1.24-4.09 4.36-5.7 8.42-4.29 1.99.68 3.68 1.83 5.14 3.36 3.33 3.51 6.17 7.39 8.83 11.42.01.3.21.49.41.67.04.26.13.5.38.64.11.61.73 1.01.7 1.68-1.02-.36-1.5-1.32-2.22-2.02-2.24-2.2-4.53-4.38-6.79-6.58z" fill="#f9f7f4"/><path d="m75.88 38.79c1.12.38 2.17.39 3.22-.55-.59 1.55.23 2.51 1.24 3.36.43.37-.05 1.37.93 1.33-.09.13-.4.26-.27.38.65.6.39 1.46.68 2.15-.41.5-.13 1.1-.22 1.64-.05.36.16.83-.42.96-.02-.42-.57-.63-.46-1.11-.36-.7-.64-1.45-1.22-2.02-.09-.48-.3-.85-.83-.97-.55-1.67-1.77-2.99-2.51-4.58-.07-.19-.1-.39-.14-.59z" fill="#e9a362"/><path d="m78.54 43.96c.52.12.73.49.83.97-.01.05-.03.09-.09.11-.3-.02-.73-.1-.76.29-.04.45-.37 1.02.28 1.35.45 1.09 1.1.74 1.77.26-.11.48.43.68.46 1.11.05.28.11.58.16.86-.93.62-1.91.61-2.9.14-.08.49-.14.89-.21 1.29-.09.1-.18.2-.27.29-.4-.13-1 .05-1.07-.63-.04-.5-.11-1.01.6-1.15.35-.07.29-.41.2-.62-.93-1.72-.27-3.07 1-4.27z" fill="#f1be55"/><path d="m80.11 31.29c-.49-.34-.92-.75-1.5-.97-1.72-.66-2.46-.2-2.54 1.65.1.18.2.38.3.58.26-.02.4.1.43.35.61.39 1.22.4 1.88.1.57-.26 1.18-.42 1.77-.63-.11-.37-.23-.72-.34-1.08zm-3.39.49c-.07-.83.61-.87 1.33-1.08-.29.78-.17 1.4.3 2.05-.89.01-1.57-.09-1.63-.97z" fill="#30251f"/><path d="m80.11 31.29c-.49-.35-.92-.75-1.5-.97-1.72-.66-2.46-.2-2.54 1.65-.24-.84-1.27-1.3-1.07-2.34.86-.58 1.79-.57 2.76-.35.54.12 1.08.41 1.66.26.53.48.76 1.05.69 1.75z" fill="#e9a362"/><path d="m79.42 29.54c-.6.15-1.12-.14-1.66-.26-.98-.22-1.9-.23-2.76.35-.23-.42-.25-.85.04-1.26 1.73-.91 3.37-.47 4.38 1.17z" fill="#30251f"/><path d="m84.04 69.95c-.71.49-1.42.98-2.13 1.47-1.42 1-2.95 1.5-4.66.84-.55-.21-1.22-.1-1.67-.59 3.26-3.81 6.51-7.62 9.77-11.43.12-.14.22-.28.35-.41 1.59-1.55 2.08-3.43 1.71-5.6-.12-.71-.2-1.42-.08-2.14.45.14.83-.16 1.24-.21.17.25.47.3.72.42 1.29.64 2.33 1.54 2.5 3.08.2 1.72.25 3.46.48 5.17.12.86.13 1.9 1.33 2.16-.74.89-1.79 1.39-2.67 2.09-1.84 1.45-3.84 2.7-5.6 4.24-.67.02-1.07.34-1.29.91z" fill="#facd95"/><path d="m81.2 48.91c-.05-.28-.11-.58-.16-.86.58-.12.37-.6.42-.96.09-.54-.2-1.14.22-1.64.15.28.3.57.46.86.07.08.12.15.18.23v.01c.01.65-.18 1.54.95 1.24.95-.25 1.83-.15 2.73.08.28.08.57.21.76-.12.41-.73 1.12-1.32 1.21-2.23.61-.49 1.22-.99 1.68-1.62.4-.29.67-.67.79-1.16l.08-.07c.64.49.08 1.26.39 1.89.59-.43.42-1 .48-1.51.03-.32-.24-.83.25-.9.37-.05.53.41.7.73.76 1.48-.05 2.72-.72 3.91-.98 1.75-2.39 3.16-3.73 4.64-.34.15-.68.32-1.02.47-2.11.79-3.72.45-4.93-1.09.09-.59-.51-.93-.5-1.49-.09-.15-.17-.28-.24-.41z" fill="#facd95"/><path d="m81.2 48.91c.08.13.14.26.22.4-.74.14-1.2.5-1.07 1.34-.27.33-.03.37.23.39.09.21.26.22.45.2-.43.37-.86.36-1.28-.02.03-.49.33-1.1-.22-1.4-.53-.3-.8.21-1.05.61-.09-.21-.24-.09-.37-.07.07-.4.13-.8.21-1.29.97.45 1.95.46 2.88-.16z" fill="#30251f"/><path d="m81.01 51.23c-.18.02-.36.01-.45-.2-.08-.13-.15-.26-.23-.39-.13-.84.33-1.2 1.07-1.34 0 .55.6.9.5 1.49-.32.06-.62.22-.89.44z" fill="#f1be55"/><path d="m78.46 50.41c.24-.4.52-.9 1.05-.61.54.32.25.91.22 1.4-.89.48-1.12-.08-1.27-.79z" fill="#f1be55"/><g fill="#e9445b"><path d="m98.69 24.63c.46.35.6 1.03 1.26 1.15-.04.83-.39 1.65.02 2.47-.07-.02-.2-.03-.2-.05-.01-1.3-.88-2.33-1.08-3.57z"/><path d="m100.82 29.01c.04.41-.41.59-.45.97-.13 0-.27 0-.4 0 0-.58 0-1.14 0-1.72.29.25.57.5.85.75z"/><path d="m99.1 31.09c-.21-.18-.4-.38-.41-.67.45-.11.76-.6 1.29-.43-.09.52-.63.69-.88 1.1z"/></g><path d="m87.88 51.41c1.34-1.48 2.76-2.89 3.73-4.64.66-1.2 1.48-2.42.72-3.91-.16-.32-.34-.78-.7-.73-.49.08-.22.59-.25.9-.05.51.1 1.08-.48 1.51-.32-.63.25-1.4-.39-1.89-.43-.6-1.14-.82-1.74-1.17-.95-.58-1.71-1.37-2.57-2.05-.26-.16-.24-.41-.21-.66 1.58.62 3.2.97 4.87.45 1.53-.48 2.43-1.63 2.8-3.11.34-1.32-1.25-2.6-2.82-2.35-.8.13-1.61.32-2.38.58-2.85.95-4.67.2-6.24-1.98-.71-.99-.85-2.01-.11-3.05.07-.01.12.01.17.05 0 .63-.02 1.26.25 1.86.15.34.36.61.75.66.42.07.65-.18.79-.54s.38-.59.8-.52c.32.41-.68.96.13 1.33-.03.48.33.36.59.36.55.01 1.11-.01 1.63.24 1.15.49 2.24.29 3.14-.52.41-.37.71-.87 1.34-1-2.35-2.39-4.04-2.54-6.6-.66-.4-.59.09-.78.45-1.04.52-.38 1.04-.76.61-1.52 1.8-.9 3.35.41 4.92.76-.37-.47-.71-.9-1.04-1.34.74-.38.72-1.14.87-1.79.07-.29-.04-.64.25-.87 2.27 2.2 4.55 4.38 6.79 6.6.72.71 1.18 1.66 2.22 2.02.72.72 1.08 1.64 1.48 2.53.16.37.33.7.65.92.43 1.9.29 2.28-1.02 2.8.02-.61-.12-1.12-.83-1.39-.02.35-.04.66-.07.97-.38-.1-.68-.15-.64.43.03.49-.02.99-.03 1.48-.85-.03-1.73.21-2.26.75-1.12 1.15-1.5 2.6-.91 4.18-1.76 2.05-4.1 3.31-6.48 4.46-.7.37-1.35.87-2.18.89z" fill="#e9a362"/><path d="m93.57 62.74c-1.18-.26-1.21-1.3-1.33-2.16-.23-1.72-.28-3.46-.48-5.17-.17-1.52-1.2-2.42-2.5-3.08-.25-.12-.54-.17-.72-.42 2.41-.91 6.02.29 6.55 3.26.38 2.09 1.18 4.1 1.64 6.18-.98.57-1.92 1.32-3.16 1.39z" fill="#e9a362"/><path d="m101.25 41.79c-.34-.27-.45-.49-.3-.89.14-.4.23-.82.34-1.23.02-.61-.12-1.12-.83-1.39-.02.35-.04.66-.07.97.42.67 0 1.28-.15 1.9-.07.24-.34.18-.52.01-.85-.03-1.73.21-2.26.75-1.12 1.15-1.5 2.6-.91 4.18.35.2.72.43.76.83.03.34-.37.24-.59.24-.5.01-.83.18-.82.74.01.43.08.88.6.99.52.1 1.02.01 1.24-.54.11-.28.05-.62.07-.93-.02-.04-.05-.08-.08-.12.04.03.08.05.12.08.14.04.27.08.41.12 1.86.55 3.34.05 4.12-1.41.81-1.6.45-3.03-1.13-4.3zm-1.07 3.42c-.87.3-1.67-.02-1.92-.8.09-.79-.48-1.93 1.04-1.97.92-.47 1.39.07 1.68.82.31.78-.1 1.7-.8 1.95z" fill="#f1be55"/><path d="m98.85 48.03c.71.04 1 .55 1.09 1.12.08.48-.32.78-.8.79-.62.01-1.01-.34-1.07-.96-.06-.52.24-.84.78-.95z" fill="#f1be55"/><path d="m101.27 49.54c-.6.05-.83-.34-.86-.9-.04-.63.39-.76.88-.82.71-.08.99.42 1 .97.02.52-.43.76-1.02.75z" fill="#f1be55"/><path d="m84.04 69.95c.23-.58.63-.89 1.26-.88-.14.7-.59.94-1.26.88z" fill="#73cde0"/><path d="m99.1 31.09c.25-.4.79-.58.88-1.11h.4c.01.28.02.57.04.85-.15.48-.46.78-.95.9-.24-.14-.33-.38-.37-.64z" fill="#ec4258"/><path d="m82.13 46.3c-.15-.28-.3-.57-.46-.86-.29-.7-.03-1.55-.68-2.15-.13-.12.18-.25.27-.38 2.37.25 4.74-.59 7.11-.03v.39c-2.08.54-4.22.43-6.37.53.46 1.27 1.55 1.72 3.13 1.34 1.43-.35 2.75-1 4.06-1.63.25 0 .42.1.45.38-.47.63-1.08 1.13-1.68 1.62-.21.13-.41.26-.62.39-1.58.99-3.16 1.86-5.02.63v-.01c-.07-.06-.14-.14-.19-.22z" fill="#e9445b"/><path d="m82.3 29.37c-.04-.04-.11-.07-.17-.05-.26-1.13.17-1.76 1.34-1.97 1.12-.21 2.22-.53 3.34-.77 1.21-.25 2.23.29 3.23.87.34.43.68.87 1.04 1.34-1.58-.36-3.12-1.66-4.92-.76-1.32.3-2.61.79-3.86 1.34z" fill="#30251f"/><path d="m86 38.78c-.03.25-.04.5.21.66-.1 1.3-.52 1.87-1.74 2.07-.7.11-1.28.41-1.88.72-.49.25-.98.27-1.4-.09-.21-.17-.46-.45-.48-.68-.04-.43.43-.21.65-.36 1.05-.72 2.18-1.12 3.51-1.07.68.03.9-.6.91-1.23.08-.01.14-.01.22-.02z" fill="#d56840"/><path d="m76.79 32.89c.61.39 1.22.4 1.88.09.57-.26 1.18-.42 1.77-.63.26.66.36 1.39-.33 1.78-.75.43-1.61.82-2.5.34-.59-.32-.57-1.04-.82-1.58z" fill="#e9a362"/><path d="m88.37 43.28c0-.13 0-.26 0-.39.68-.05 1.38-.11 2.07-.15-.12.49-.39.87-.79 1.16-.02-.27-.2-.38-.45-.38-.18-.48-.57-.12-.83-.24z" fill="#d56840"/><path d="m85.99 38.77c-.07.01-.14.02-.21.02-.25-.2-.4-.45-.54-.85.47.18.72.41.75.83z" fill="#e9a362"/><path d="m79.28 45.03c.04-.02.08-.07.09-.11.58.58.86 1.32 1.22 2.02-.67.48-1.33.83-1.77-.26.15-.55.3-1.09.46-1.65z" fill="#0f173e"/><path d="m79.28 45.03c-.16.55-.32 1.1-.48 1.64-.65-.33-.33-.9-.28-1.35.03-.39.46-.31.76-.29z" fill="#73cde0"/><path d="m78.36 32.76c-.89 0-1.57-.1-1.63-.98-.07-.83.61-.87 1.33-1.08-.3.79-.19 1.41.3 2.06z" fill="#f9f7f4"/><path d="m82.31 46.54c1.86 1.23 3.45.36 5.02-.63.21-.13.41-.26.62-.39-.09.91-.79 1.49-1.21 2.23-.18.33-.47.2-.76.12-.9-.24-1.78-.33-2.73-.08-1.12.28-.92-.6-.94-1.25z" fill="#e9a362"/><path d="m82.13 46.3c.07.08.12.15.18.23-.06-.07-.13-.15-.18-.23z" fill="#e9a362"/><path d="m80.35 50.64c.08.13.15.26.23.39-.27-.02-.5-.06-.23-.39z" fill="#0f173e"/><path d="m85.12 30.59c2.55-1.88 4.25-1.73 6.6.66-.63.12-.92.62-1.34 1-.9.82-1.98 1.01-3.14.52.13-.24.68-.28.29-.77-.24-.3-.3-.72-.22-1.11.14-.66-.25-.53-.6-.39-.78.33-1.3.93-1.7 1.67-.82-.37.18-.91-.13-1.33.09-.08.16-.17.24-.25z" fill="#30251f"/><path d="m85.12 30.59c-.08.09-.15.17-.22.26-.42-.08-.66.15-.8.52-.14.36-.37.61-.79.54-.39-.05-.6-.33-.75-.66-.26-.6-.24-1.23-.25-1.86 1.25-.55 2.52-1.04 3.86-1.36.43.76-.09 1.14-.61 1.52-.35.25-.85.45-.44 1.04z" fill="#d56840"/><path d="m85.02 32.16c.38-.74.9-1.35 1.7-1.67.34-.14.74-.27.6.39-.09.39-.02.82.22 1.11.39.49-.16.53-.29.77-.52-.25-1.08-.23-1.63-.24-.26 0-.62.13-.6-.36z" fill="#f9f7f4"/><path d="m100.39 39.25c.42.67 0 1.28-.16 1.9-.05.24-.34.18-.52.01.01-.5.08-.99.03-1.48-.04-.58.27-.53.65-.43z" fill="#d56840"/><path d="m99.31 42.43c.92-.47 1.39.07 1.68.82.3.78-.12 1.71-.8 1.95-.87.3-1.67-.02-1.92-.8.88-.37.85-1.23 1.04-1.97z" fill="#d56840"/><path d="m99.31 42.43c-.2.74-.15 1.6-1.04 1.97.08-.79-.48-1.92 1.04-1.97z" fill="#e9a362"/><path d="m97.79 47.41c-.02-.04-.05-.08-.08-.12.04.02.08.05.12.08z" fill="#d56840"/><path d="m88.37 43.28c.26.12.66-.24.83.23-1.33.63-2.63 1.28-4.06 1.63-1.58.38-2.66-.07-3.13-1.34 2.14-.08 4.28.02 6.36-.52z" fill="#f9f7f4"/><path d="m87.69 11.01c-2.11 1.24-3.64.72-4.61-1.55-.03-.08-.17-.11-.26-.15.01-.04.02-.1.03-.14s.02-.1.03-.14c.02-.1.04-.18.07-.27.03-.13.07-.27.11-.4.02-.09.05-.17.09-.26.01-.06.03-.1.05-.14.07-.16.13-.33.22-.48.04-.08.09-.15.13-.22.37-.57.95-.98 1.86-1.13.96-.16 1.63.32 2.36.72.23.13.09.27-.03.42-1.07 1.24-.71 2.49-.05 3.74z" fill="#dea731"/></svg>