<svg id="Layer_1" data-name="Layer 1" xmlns="http://www.w3.org/2000/svg" xmlns:xlink="http://www.w3.org/1999/xlink" viewBox="0 0 167 128"><defs><style>.cls-1{fill:url(#linear-gradient);}.cls-2{fill:url(#linear-gradient-2);}.cls-3{fill:url(#radial-gradient);}.cls-4{fill:url(#radial-gradient-2);}.cls-5{fill:url(#Gold);}.cls-6{fill:url(#Gold-2);}.cls-7{fill:url(#Gold-3);}.cls-8{fill:url(#Gold-4);}.cls-9{fill:url(#Gold-5);}.cls-10{fill:url(#Gold-6);}.cls-11{fill:url(#Gold-7);}.cls-12{fill:url(#Gold-8);}.cls-13{fill:url(#Gold-9);}.cls-14{fill:url(#Gold-10);}.cls-15{fill:url(#Gold-11);}.cls-16{fill:url(#Gold-12);}.cls-17{fill:url(#Gold-13);}.cls-18{fill:url(#Gold-14);}.cls-19{fill:url(#Gold-15);}.cls-20{fill:url(#Gold-16);}.cls-21{fill:url(#Gold-17);}.cls-22{fill:url(#Gold-18);}.cls-23{fill:url(#Gold-19);}.cls-24{fill:url(#Gold-20);}.cls-25{fill:url(#Gold-21);}.cls-26{fill:url(#Gold-22);}.cls-27{fill:url(#Gold-23);}.cls-28{fill:url(#Gold-24);}.cls-29{fill:url(#Gold-25);}.cls-30{fill:url(#Gold-26);}.cls-31{fill:url(#Gold-27);}.cls-32{fill:url(#Gold-28);}.cls-33{fill:url(#Gold-29);}.cls-34{fill:url(#Gold-30);}.cls-35{fill:url(#Gold-31);}.cls-36{fill:url(#Gold-32);}.cls-37{fill:url(#Gold-33);}.cls-38{fill:url(#Gold-34);}.cls-39{fill:url(#Gold-35);}.cls-40{fill:url(#Gold-36);}.cls-41{fill:url(#Gold-37);}.cls-42{fill:url(#Gold-38);}.cls-43{fill:url(#Gold-39);}.cls-44{fill:url(#Gold-40);}.cls-45{fill:url(#Gold-41);}.cls-46{fill:url(#Gold-42);}.cls-47{fill:url(#Gold-43);}.cls-48{fill:url(#Gold-44);}.cls-49{fill:url(#Gold-45);}.cls-50{fill:url(#Gold-46);}.cls-51{fill:url(#Gold-47);}.cls-52{fill:url(#Gold-48);}.cls-53{fill:url(#Gold-49);}.cls-54{fill:url(#Gold-50);}.cls-55{fill:url(#Gold-51);}.cls-56{fill:url(#Gold-52);}.cls-57{fill:url(#Gold-53);}.cls-58{fill:url(#Gold-54);}.cls-59{fill:url(#Gold-55);}.cls-60{fill:url(#Gold-56);}.cls-61{fill:url(#Gold-57);}.cls-62{fill:url(#Gold-58);}.cls-63{fill:url(#Gold-59);}.cls-64{fill:url(#Gold-60);}.cls-65{fill:url(#Gold-61);}.cls-66{fill:url(#Gold-62);}.cls-67{fill:url(#Gold-63);}.cls-68{fill:url(#Gold-64);}.cls-69{fill:url(#Gold-65);}.cls-70{fill:url(#Gold-66);}.cls-71{fill:url(#Gold-67);}.cls-72{fill:url(#Gold-68);}.cls-73{fill:url(#Gold-69);}.cls-74{fill:url(#Gold-70);}.cls-75{fill:url(#Gold-71);}.cls-76{fill:url(#Gold-72);}.cls-77{fill:url(#Gold-73);}.cls-78{fill:url(#Gold-74);}.cls-79{fill:url(#Gold-75);}.cls-80{fill:url(#Gold-76);}.cls-81{fill:url(#Gold-77);}.cls-82{fill:url(#Gold-78);}.cls-83{fill:url(#Gold-79);}.cls-84{fill:url(#Gold-80);}.cls-85{fill:url(#Gold-81);}.cls-86{fill:url(#Gold-82);}.cls-87{fill:url(#Gold-83);}.cls-88{fill:url(#Gold-84);}.cls-89{fill:url(#Gold-85);}.cls-90{fill:url(#Gold-86);}.cls-91{fill:url(#Gold-87);}.cls-92{fill:url(#Gold-88);}.cls-93{fill:url(#Gold-89);}.cls-94{fill:url(#Gold-90);}.cls-95{fill:url(#Gold-91);}.cls-96{fill:url(#Gold-92);}.cls-97{fill:url(#Gold-93);}.cls-98{fill:url(#Gold-94);}.cls-99{fill:url(#Gold-95);}.cls-100{fill:url(#Gold-96);}.cls-101{fill:url(#Gold-97);}.cls-102{fill:url(#Gold-98);}.cls-103{fill:url(#Gold-99);}.cls-104{fill:url(#Gold-100);}.cls-105{fill:url(#Gold-101);}.cls-106{fill:url(#Gold-102);}.cls-107{fill:url(#Gold-103);}.cls-108{fill:url(#Gold-104);}.cls-109{fill:url(#Gold-105);}.cls-110{fill:url(#Gold-106);}.cls-111{fill:url(#Gold-107);}.cls-112{fill:url(#Gold-108);}.cls-113{font-size:31.18px;fill:#fff;font-family:YesevaOne-Regular, Yeseva One;}</style><linearGradient id="linear-gradient" x1="86.37" y1="16.4" x2="86.37" y2="96.89" gradientUnits="userSpaceOnUse"><stop offset="0" stop-color="#a60e13"/><stop offset="0.73" stop-color="#ef4e23"/><stop offset="1" stop-color="#ef5323"/></linearGradient><linearGradient id="linear-gradient-2" x1="86.37" y1="16.4" x2="86.37" y2="89.11" gradientUnits="userSpaceOnUse"><stop offset="0" stop-color="#f05822"/><stop offset="0.27" stop-color="#ec1c24"/><stop offset="1" stop-color="#b9131a"/></linearGradient><radialGradient id="radial-gradient" cx="81.94" cy="28.42" r="41.36" gradientTransform="translate(163.92 30.8) rotate(179.11) scale(1 0.13)" gradientUnits="userSpaceOnUse"><stop offset="0" stop-color="#c4e7f3"/><stop offset="1" stop-color="#ec1c24" stop-opacity="0"/></radialGradient><radialGradient id="radial-gradient-2" cx="509.43" cy="1158.7" r="41.36" gradientTransform="translate(-421.55 -45.54) rotate(-0.89) scale(1 0.13)" gradientUnits="userSpaceOnUse"><stop offset="0" stop-color="#fff"/><stop offset="1" stop-color="#ec1c24" stop-opacity="0"/></radialGradient><linearGradient id="Gold" x1="27.83" y1="27.46" x2="27.83" y2="100.2" gradientUnits="userSpaceOnUse"><stop offset="0" stop-color="#ffe8a3"/><stop offset="0.5" stop-color="#ffca05"/><stop offset="1" stop-color="#faac18"/></linearGradient><linearGradient id="Gold-2" x1="22.65" y1="27.46" x2="22.65" y2="100.2" xlink:href="#Gold"/><linearGradient id="Gold-3" x1="26.56" y1="27.46" x2="26.56" y2="100.2" xlink:href="#Gold"/><linearGradient id="Gold-4" x1="29.68" y1="27.46" x2="29.68" y2="100.2" xlink:href="#Gold"/><linearGradient id="Gold-5" x1="31.05" y1="27.46" x2="31.05" y2="100.2" xlink:href="#Gold"/><linearGradient id="Gold-6" x1="28.36" y1="27.46" x2="28.36" y2="100.2" xlink:href="#Gold"/><linearGradient id="Gold-7" x1="31.93" y1="27.46" x2="31.93" y2="100.2" xlink:href="#Gold"/><linearGradient id="Gold-8" x1="26.79" y1="27.46" x2="26.79" y2="100.2" xlink:href="#Gold"/><linearGradient id="Gold-9" x1="21.18" y1="27.46" x2="21.18" y2="100.2" xlink:href="#Gold"/><linearGradient id="Gold-10" x1="34.92" y1="27.46" x2="34.92" y2="100.2" xlink:href="#Gold"/><linearGradient id="Gold-11" x1="33.6" y1="27.46" x2="33.6" y2="100.2" xlink:href="#Gold"/><linearGradient id="Gold-12" x1="22.64" y1="27.46" x2="22.64" y2="100.2" xlink:href="#Gold"/><linearGradient id="Gold-13" x1="34.36" y1="27.46" x2="34.36" y2="100.2" xlink:href="#Gold"/><linearGradient id="Gold-14" x1="23.26" y1="27.46" x2="23.26" y2="100.2" xlink:href="#Gold"/><linearGradient id="Gold-15" x1="32.47" y1="27.46" x2="32.47" y2="100.2" xlink:href="#Gold"/><linearGradient id="Gold-16" x1="21" y1="27.46" x2="21" y2="100.2" xlink:href="#Gold"/><linearGradient id="Gold-17" x1="30.2" y1="27.46" x2="30.2" y2="100.2" xlink:href="#Gold"/><linearGradient id="Gold-18" x1="21.2" y1="27.46" x2="21.2" y2="100.2" xlink:href="#Gold"/><linearGradient id="Gold-19" x1="29.49" y1="27.46" x2="29.49" y2="100.2" xlink:href="#Gold"/><linearGradient id="Gold-20" x1="23.38" y1="27.46" x2="23.38" y2="100.2" xlink:href="#Gold"/><linearGradient id="Gold-21" x1="30.51" y1="27.46" x2="30.51" y2="100.2" xlink:href="#Gold"/><linearGradient id="Gold-22" x1="28.09" y1="27.46" x2="28.09" y2="100.2" xlink:href="#Gold"/><linearGradient id="Gold-23" x1="33.32" y1="27.46" x2="33.32" y2="100.2" xlink:href="#Gold"/><linearGradient id="Gold-24" x1="37.02" y1="27.46" x2="37.02" y2="100.2" xlink:href="#Gold"/><linearGradient id="Gold-25" x1="40.32" y1="27.46" x2="40.32" y2="100.2" xlink:href="#Gold"/><linearGradient id="Gold-26" x1="54.37" y1="27.46" x2="54.37" y2="100.2" xlink:href="#Gold"/><linearGradient id="Gold-27" x1="40.6" y1="27.46" x2="40.6" y2="100.2" xlink:href="#Gold"/><linearGradient id="Gold-28" x1="38.39" y1="27.46" x2="38.39" y2="100.2" xlink:href="#Gold"/><linearGradient id="Gold-29" x1="40.06" y1="27.46" x2="40.06" y2="100.2" xlink:href="#Gold"/><linearGradient id="Gold-30" x1="41.39" y1="27.46" x2="41.39" y2="100.2" xlink:href="#Gold"/><linearGradient id="Gold-31" x1="41.97" y1="27.46" x2="41.97" y2="100.2" xlink:href="#Gold"/><linearGradient id="Gold-32" x1="40.82" y1="27.46" x2="40.82" y2="100.2" xlink:href="#Gold"/><linearGradient id="Gold-33" x1="42.35" y1="27.46" x2="42.35" y2="100.2" xlink:href="#Gold"/><linearGradient id="Gold-34" x1="40.15" y1="27.46" x2="40.15" y2="100.2" xlink:href="#Gold"/><linearGradient id="Gold-35" x1="37.77" y1="27.46" x2="37.77" y2="100.2" xlink:href="#Gold"/><linearGradient id="Gold-36" x1="43.62" y1="27.46" x2="43.62" y2="100.2" xlink:href="#Gold"/><linearGradient id="Gold-37" x1="43.06" y1="27.46" x2="43.06" y2="100.2" xlink:href="#Gold"/><linearGradient id="Gold-38" x1="38.39" y1="27.46" x2="38.39" y2="100.2" xlink:href="#Gold"/><linearGradient id="Gold-39" x1="43.38" y1="27.46" x2="43.38" y2="100.2" xlink:href="#Gold"/><linearGradient id="Gold-40" x1="38.65" y1="27.46" x2="38.65" y2="100.2" xlink:href="#Gold"/><linearGradient id="Gold-41" x1="42.58" y1="27.46" x2="42.58" y2="100.2" xlink:href="#Gold"/><linearGradient id="Gold-42" x1="37.69" y1="27.46" x2="37.69" y2="100.2" xlink:href="#Gold"/><linearGradient id="Gold-43" x1="41.61" y1="27.46" x2="41.61" y2="100.2" xlink:href="#Gold"/><linearGradient id="Gold-44" x1="37.77" y1="27.46" x2="37.77" y2="100.2" xlink:href="#Gold"/><linearGradient id="Gold-45" x1="41.31" y1="27.46" x2="41.31" y2="100.2" xlink:href="#Gold"/><linearGradient id="Gold-46" x1="38.7" y1="27.46" x2="38.7" y2="100.2" xlink:href="#Gold"/><linearGradient id="Gold-47" x1="41.74" y1="27.46" x2="41.74" y2="100.2" xlink:href="#Gold"/><linearGradient id="Gold-48" x1="40.71" y1="27.46" x2="40.71" y2="100.2" xlink:href="#Gold"/><linearGradient id="Gold-49" x1="42.94" y1="27.46" x2="42.94" y2="100.2" xlink:href="#Gold"/><linearGradient id="Gold-50" x1="44.52" y1="27.46" x2="44.52" y2="100.2" xlink:href="#Gold"/><linearGradient id="Gold-51" x1="45.92" y1="27.46" x2="45.92" y2="100.2" xlink:href="#Gold"/><linearGradient id="Gold-52" x1="51.91" y1="27.46" x2="51.91" y2="100.2" xlink:href="#Gold"/><linearGradient id="Gold-53" x1="131.88" y1="27.46" x2="131.88" y2="100.2" xlink:href="#Gold"/><linearGradient id="Gold-54" x1="134.08" y1="27.46" x2="134.08" y2="100.2" xlink:href="#Gold"/><linearGradient id="Gold-55" x1="132.42" y1="27.46" x2="132.42" y2="100.2" xlink:href="#Gold"/><linearGradient id="Gold-56" x1="131.09" y1="27.46" x2="131.09" y2="100.2" xlink:href="#Gold"/><linearGradient id="Gold-57" x1="130.51" y1="27.46" x2="130.51" y2="100.2" xlink:href="#Gold"/><linearGradient id="Gold-58" x1="131.65" y1="27.46" x2="131.65" y2="100.2" xlink:href="#Gold"/><linearGradient id="Gold-59" x1="130.13" y1="27.46" x2="130.13" y2="100.2" xlink:href="#Gold"/><linearGradient id="Gold-60" x1="132.32" y1="27.46" x2="132.32" y2="100.2" xlink:href="#Gold"/><linearGradient id="Gold-61" x1="134.71" y1="27.46" x2="134.71" y2="100.2" xlink:href="#Gold"/><linearGradient id="Gold-62" x1="128.85" y1="27.46" x2="128.85" y2="100.2" xlink:href="#Gold"/><linearGradient id="Gold-63" x1="129.42" y1="27.46" x2="129.42" y2="100.2" xlink:href="#Gold"/><linearGradient id="Gold-64" x1="134.09" y1="27.46" x2="134.09" y2="100.2" xlink:href="#Gold"/><linearGradient id="Gold-65" x1="129.09" y1="27.46" x2="129.09" y2="100.2" xlink:href="#Gold"/><linearGradient id="Gold-66" x1="133.82" y1="27.46" x2="133.82" y2="100.2" xlink:href="#Gold"/><linearGradient id="Gold-67" x1="129.9" y1="27.46" x2="129.9" y2="100.2" xlink:href="#Gold"/><linearGradient id="Gold-68" x1="134.79" y1="27.46" x2="134.79" y2="100.2" xlink:href="#Gold"/><linearGradient id="Gold-69" x1="130.87" y1="27.46" x2="130.87" y2="100.2" xlink:href="#Gold"/><linearGradient id="Gold-70" x1="134.7" y1="27.46" x2="134.7" y2="100.2" xlink:href="#Gold"/><linearGradient id="Gold-71" x1="131.17" y1="27.46" x2="131.17" y2="100.2" xlink:href="#Gold"/><linearGradient id="Gold-72" x1="133.77" y1="27.46" x2="133.77" y2="100.2" xlink:href="#Gold"/><linearGradient id="Gold-73" x1="130.74" y1="27.46" x2="130.74" y2="100.2" xlink:href="#Gold"/><linearGradient id="Gold-74" x1="131.77" y1="27.46" x2="131.77" y2="100.2" xlink:href="#Gold"/><linearGradient id="Gold-75" x1="129.54" y1="27.46" x2="129.54" y2="100.2" xlink:href="#Gold"/><linearGradient id="Gold-76" x1="127.96" y1="27.46" x2="127.96" y2="100.2" xlink:href="#Gold"/><linearGradient id="Gold-77" x1="126.56" y1="27.46" x2="126.56" y2="100.2" xlink:href="#Gold"/><linearGradient id="Gold-78" x1="120.56" y1="27.46" x2="120.56" y2="100.2" xlink:href="#Gold"/><linearGradient id="Gold-79" x1="66.55" y1="27.46" x2="66.55" y2="100.2" xlink:href="#Gold"/><linearGradient id="Gold-80" x1="30.27" y1="54.2" x2="30.27" y2="95.22" xlink:href="#Gold"/><linearGradient id="Gold-81" x1="144.28" y1="27.46" x2="144.28" y2="100.2" xlink:href="#Gold"/><linearGradient id="Gold-82" x1="149.45" y1="27.46" x2="149.45" y2="100.2" xlink:href="#Gold"/><linearGradient id="Gold-83" x1="145.55" y1="27.46" x2="145.55" y2="100.2" xlink:href="#Gold"/><linearGradient id="Gold-84" x1="142.43" y1="27.46" x2="142.43" y2="100.2" xlink:href="#Gold"/><linearGradient id="Gold-85" x1="141.06" y1="27.46" x2="141.06" y2="100.2" xlink:href="#Gold"/><linearGradient id="Gold-86" x1="143.75" y1="27.46" x2="143.75" y2="100.2" xlink:href="#Gold"/><linearGradient id="Gold-87" x1="140.18" y1="27.46" x2="140.18" y2="100.2" xlink:href="#Gold"/><linearGradient id="Gold-88" x1="145.32" y1="27.46" x2="145.32" y2="100.2" xlink:href="#Gold"/><linearGradient id="Gold-89" x1="150.93" y1="27.46" x2="150.93" y2="100.2" xlink:href="#Gold"/><linearGradient id="Gold-90" x1="137.19" y1="27.46" x2="137.19" y2="100.2" xlink:href="#Gold"/><linearGradient id="Gold-91" x1="138.51" y1="27.46" x2="138.51" y2="100.2" xlink:href="#Gold"/><linearGradient id="Gold-92" x1="149.47" y1="27.46" x2="149.47" y2="100.2" xlink:href="#Gold"/><linearGradient id="Gold-93" x1="137.74" y1="27.46" x2="137.74" y2="100.2" xlink:href="#Gold"/><linearGradient id="Gold-94" x1="148.84" y1="27.46" x2="148.84" y2="100.2" xlink:href="#Gold"/><linearGradient id="Gold-95" x1="139.64" y1="27.46" x2="139.64" y2="100.2" xlink:href="#Gold"/><linearGradient id="Gold-96" x1="151.1" y1="27.46" x2="151.1" y2="100.2" xlink:href="#Gold"/><linearGradient id="Gold-97" x1="141.91" y1="27.46" x2="141.91" y2="100.2" xlink:href="#Gold"/><linearGradient id="Gold-98" x1="150.91" y1="27.46" x2="150.91" y2="100.2" xlink:href="#Gold"/><linearGradient id="Gold-99" x1="142.62" y1="27.46" x2="142.62" y2="100.2" xlink:href="#Gold"/><linearGradient id="Gold-100" x1="148.72" y1="27.46" x2="148.72" y2="100.2" xlink:href="#Gold"/><linearGradient id="Gold-101" x1="141.6" y1="27.46" x2="141.6" y2="100.2" xlink:href="#Gold"/><linearGradient id="Gold-102" x1="144.02" y1="27.46" x2="144.02" y2="100.2" xlink:href="#Gold"/><linearGradient id="Gold-103" x1="138.79" y1="27.46" x2="138.79" y2="100.2" xlink:href="#Gold"/><linearGradient id="Gold-104" x1="135.09" y1="27.46" x2="135.09" y2="100.2" xlink:href="#Gold"/><linearGradient id="Gold-105" x1="131.79" y1="27.46" x2="131.79" y2="100.2" xlink:href="#Gold"/><linearGradient id="Gold-106" x1="117.74" y1="27.46" x2="117.74" y2="100.2" xlink:href="#Gold"/><linearGradient id="Gold-107" x1="105.55" y1="27.46" x2="105.55" y2="100.2" xlink:href="#Gold"/><linearGradient id="Gold-108" x1="142.05" y1="53.78" x2="142.05" y2="96.16" xlink:href="#Gold"/></defs><ellipse class="cls-1" cx="86.37" cy="61.44" rx="61.62" ry="40.75"/><ellipse class="cls-2" cx="86.37" cy="61.44" rx="57.21" ry="37.84"/><ellipse class="cls-3" cx="86.37" cy="61.44" rx="57.21" ry="37.84"/><ellipse class="cls-4" cx="85.69" cy="62.26" rx="57.21" ry="37.84"/><path class="cls-5" d="M27.76,63.47l.12-.22A2.12,2.12,0,0,0,28,63a3,3,0,0,0,.19-.41q.09-.2.15-.36a1,1,0,0,0,.06-.16.69.69,0,0,0,.05-.13l.09-.27-.24.38c-.14.23-.33.55-.5.87l-.25.47-.12.22-.09.2-.15.3-.05.12a3.17,3.17,0,0,0,.34-.39A3.81,3.81,0,0,0,27.76,63.47Z"/><path class="cls-6" d="M22.38,53.17a6,6,0,0,0,.16,1,4.24,4.24,0,0,0,.18.5,2.11,2.11,0,0,0,.24.44v0a.62.62,0,0,1,0-.1l-.07-.33-.05-.23,0-.12,0-.13-.12-.56c0-.19-.06-.38-.1-.56l0-.26,0-.23-.07-.48s0,.12,0,.32,0,.21,0,.35S22.37,53,22.38,53.17Z"/><path class="cls-7" d="M26.53,45.83c0-.12,0-.27,0-.42l0-.49c0-.17,0-.34,0-.49l.05-.44c0-.12,0-.23,0-.3l0-.12s0,.1-.09.27a4.12,4.12,0,0,0-.17.66l-.06.42c0,.15,0,.3,0,.45a2.84,2.84,0,0,0,.13.88Z"/><path class="cls-8" d="M29.88,70.55c0-.09,0-.17,0-.26l0-.24c0-.32.05-.6.06-.79v-.32l0,.13,0,.16-.05.2-.12.5c0,.1-.05.2-.07.29l-.06.3-.11.6,0,.07v.07l0,.14,0,.25-.08.52a4.29,4.29,0,0,0,.41-1.08A5.23,5.23,0,0,0,29.88,70.55Z"/><path class="cls-9" d="M31.74,47.09l-.33.18-.37.22-.37.22-.32.2-.32.2a3,3,0,0,0,.77-.28,3.79,3.79,0,0,0,.34-.2l.3-.2c.19-.14.34-.27.45-.36l.17-.15L32,47Z"/><path class="cls-10" d="M28.85,54.59l-.16.16-.35.35-.34.36-.08.08-.08.08-.14.16-.21.22,0,.07,0,0a3.14,3.14,0,0,0,.39-.24l.36-.3a4.91,4.91,0,0,0,.59-.64c.09-.1.16-.2.23-.29l.16-.23a1.86,1.86,0,0,0,.14-.22l-.3.28Z"/><path class="cls-11" d="M31.63,39.42c.06-.21.17-.47.27-.74l.15-.4.15-.34c0-.11.08-.19.1-.25l0-.09-.14.19c-.08.13-.19.31-.3.51l-.15.34a3.82,3.82,0,0,0-.13.36,1.61,1.61,0,0,0-.08.38,1.56,1.56,0,0,0,0,.37Z"/><path class="cls-12" d="M28.33,82.76l-.25-.13-.61-.33-.17-.09-.17-.1-.36-.2c-.48-.28-.94-.57-1.3-.8-.18-.11-.32-.21-.42-.28l-.16-.1.32.32c.21.2.51.46.86.73.19.13.38.27.59.39l.31.19.08,0,.09,0,.16.08a4.2,4.2,0,0,0,1.38.41l-.16-.08Z"/><path class="cls-13" d="M20.49,62.12l.06.21c.05.15.1.32.16.49s.14.35.23.53l.13.27c.05.09.1.18.16.27a3.36,3.36,0,0,0,.35.49,3.25,3.25,0,0,0,.42.41l-.08-.13-.2-.35-.14-.24-.14-.27c-.1-.18-.21-.38-.31-.58-.2-.41-.39-.82-.53-1.13l-.23-.52s0,.14.07.37C20.46,62,20.47,62.05,20.49,62.12Z"/><path class="cls-14" d="M35.58,41.69l-.3.07-.36.08c-.24.06-.48.12-.66.18l-.3.08h.34a1.86,1.86,0,0,0,.34,0L35,42l.29-.09a4.64,4.64,0,0,0,.45-.18l.17-.08-.08,0Z"/><path class="cls-15" d="M33.41,76c0,.33,0,.78.07,1.23l0,.34,0,.16a.78.78,0,0,0,0,.16l.06.59,0,.23,0,.18,0,.16a5.37,5.37,0,0,0,.11-1.26s0-.1,0-.16v-.15c0-.1,0-.2,0-.3s0-.38-.08-.55a8,8,0,0,0-.18-.85c-.05-.21-.09-.34-.09-.34v.15C33.4,75.68,33.4,75.82,33.41,76Z"/><path class="cls-16" d="M21.38,71.65a.6.6,0,0,0,.09.15c.13.22.33.52.57.85l.19.24.22.24a4.17,4.17,0,0,0,.47.47,4,4,0,0,0,1.1.71l-.45-.42-.21-.2-.12-.12-.06-.06-.06-.06-.51-.52-.26-.27-.24-.26-.43-.48-.17-.2-.13-.15-.11-.13.05.1Z"/><path class="cls-17" d="M31.4,40.34a1.93,1.93,0,0,0,.45.73,4.52,4.52,0,0,0,.43-.4c.13-.13.27-.29.43-.47l.24-.3.12-.16.12-.18c.08-.11.16-.24.24-.37s.16-.27.23-.41a2.4,2.4,0,0,0,.11-.23c0-.07.07-.15.11-.23s.13-.32.19-.49a6.92,6.92,0,0,0,.28-1.11c0-.2,0-.41.07-.63s0-.44,0-.67l.1-.18.13-.2.16-.26.19-.32.23-.34.13-.18.06-.09.07-.09.27-.38.14-.18.15-.19.28-.35.28-.33.26-.29L37,31.9l.1-.11.18-.19.16-.16-.17.16-.19.18L37,31.9l-.13.12c-.34.36-.78.84-1.18,1.33l-.3.37-.28.37-.12.17-.07.08,0,.09-.22.31-.17.25-.14.21-.11.18-.21.15-.25.2-.29.25a4.11,4.11,0,0,0-.31.29,8.74,8.74,0,0,0-.65.69l-.15.19-.15.2-.14.21a2.39,2.39,0,0,0-.13.21,3.62,3.62,0,0,0-.24.43c-.07.15-.13.29-.19.44a3.09,3.09,0,0,0-.19.88,1.48,1.48,0,0,0,0,.21,1.49,1.49,0,0,0,0,.21A2.59,2.59,0,0,0,31.4,40.34Zm.14-1a1.61,1.61,0,0,1,.08-.38,3.82,3.82,0,0,1,.13-.36l.15-.34c.11-.2.22-.38.3-.51l.14-.19,0,.09c0,.06-.06.14-.1.25l-.15.34-.15.4c-.1.27-.21.53-.27.74l-.11.33A1.56,1.56,0,0,1,31.54,39.38Z"/><path class="cls-18" d="M30.86,82.14c-.08-.11-.17-.24-.28-.37s-.22-.28-.35-.43-.26-.32-.41-.49l-.24-.26-.25-.27-.27-.27-.28-.28c-.2-.19-.41-.38-.63-.56s-.45-.38-.69-.56l-.19-.14-.19-.14-.39-.27L26.48,78l-.21-.13c-.14-.09-.28-.18-.43-.26l-.46-.25-.12,0-.12-.06-.24-.12-.5-.22-.26-.11-.27-.1c-.36-.13-.73-.25-1.13-.36l-.3-.08-.31-.07L21.5,76l-.29-.26-.34-.3-.42-.4-.24-.24a3.07,3.07,0,0,1-.26-.25c-.18-.17-.36-.36-.55-.56l-.29-.3-.29-.31-.59-.65c-.05-.06-.09-.12-.14-.17L18,72.42l-.29-.34c-.18-.22-.37-.44-.54-.66l-.5-.64-.23-.3-.21-.29-.64-.89L15.31,69l.22.36c.15.23.36.56.62.94l.2.3.22.32c.15.22.31.44.48.67s.17.24.26.35l.27.36.28.36.13.17.15.18c.19.23.38.47.57.69l.14.17L19,74l.28.32.27.31.13.15.13.14.5.52c.3.32.56.57.75.75l.28.27.1.21.12.24c.08.17.18.35.28.55l.09.16,0,.08.05.07c.06.11.12.22.19.33l.21.34c.07.12.15.24.23.35a13.8,13.8,0,0,0,2.43,2.81l.37.3.18.15.19.13a8.35,8.35,0,0,0,.78.49l.19.11.2.1.4.17.4.14a2.62,2.62,0,0,0,.4.11,3.78,3.78,0,0,0,1.57,0,3.66,3.66,0,0,0,1.46-.65l-.16-.25Zm-3.56.39-.16-.08-.09,0-.08,0-.31-.19c-.21-.12-.4-.26-.59-.39-.35-.27-.65-.53-.86-.73l-.32-.32.16.1c.1.07.24.17.42.28.36.23.82.52,1.3.8l.36.2.17.1.17.09.61.33.25.13.19.1.16.08A4.2,4.2,0,0,1,27.3,82.53Z"/><path class="cls-19" d="M32.84,70.51,33,70l0-.13,0-.13.07-.28.08-.28,0-.14s0-.1.05-.14c0-.2.11-.39.17-.58l0-.14a.88.88,0,0,0,0-.15l.1-.28.09-.27c0-.09.07-.18.1-.26l.2-.5.09-.22a2.2,2.2,0,0,1,.09-.21c.12-.27.21-.49.28-.64l.12-.24-.13.23-.33.63-.1.2c0,.08-.07.15-.1.23l-.23.48c-.08.17-.15.35-.22.53l-.12.28-.05.14-.06.14-.2.57c0,.09-.07.19-.1.28l-.09.28c-.06.18-.11.36-.17.53a1.82,1.82,0,0,1-.07.25l-.06.24-.11.41c0,.13,0,.24-.08.33l-.06.28q-.21.23-.39.45l-.18.22-.16.23a6.59,6.59,0,0,0-.54.91l-.11.23c0,.08-.07.16-.1.23s-.11.31-.16.46,0,.16-.07.23l0,.12,0,.11a3.73,3.73,0,0,0-.09.46c0,.15,0,.3-.05.45a15529127182155.15,15529127182155.15,0,0,0,0,.44c0,.14,0,.29,0,.43a1.48,1.48,0,0,0,0,.21l0,.21a5.27,5.27,0,0,0,.15.81c.07.25.15.5.23.74a3.45,3.45,0,0,0,.14.34l.15.33.16.31.16.28.33.51.33.42.28.33.23.23.2.2a4.25,4.25,0,0,0,.93-1.29,4.74,4.74,0,0,0,.41-1.41c0-.12,0-.24,0-.36s0-.24,0-.36v-.36c0-.06,0-.12,0-.18s0-.12,0-.18c0-.25,0-.49-.08-.72L34,76.13c0-.12,0-.23-.07-.35a21.52,21.52,0,0,0-.7-2.55c0-.09-.06-.18-.09-.27l-.09-.26L33,72.46l0-.06,0-.05,0-.11c-.05-.15-.1-.28-.14-.39l-.07-.17-.05-.14,0-.29C32.74,71.07,32.78,70.82,32.84,70.51Zm.65,5.26a8,8,0,0,1,.18.85c0,.17.06.36.08.55s0,.2,0,.3v.15c0,.06,0,.11,0,.16A5.37,5.37,0,0,1,33.68,79l0-.16,0-.18,0-.23-.06-.59a.78.78,0,0,1,0-.16l0-.16,0-.34c0-.45-.06-.9-.07-1.23,0-.17,0-.31,0-.41v-.15S33.44,75.56,33.49,75.77Z"/><path class="cls-20" d="M15.82,59.24c.07.24.17.57.31,1,.06.2.14.41.22.64l.12.35.07.18.07.19c.18.49.39,1,.61,1.52.11.26.22.52.34.77l.18.37a1.42,1.42,0,0,0,.08.18l.09.18.17.35a.2.2,0,0,1,0,.08l.05.08.08.15.31.54.27.46.21.35.19.3c0,.13,0,.27.07.43s.08.35.13.54.1.41.16.63.13.46.21.7c.16.49.37,1,.59,1.51a.93.93,0,0,0,.05.1l0,.1.09.19c.07.12.13.25.2.38l.21.37.24.37c.07.12.16.23.24.35l.12.17.13.17c.18.22.36.42.55.62l.15.14a.86.86,0,0,0,.14.13,3.4,3.4,0,0,0,.31.25,5.75,5.75,0,0,0,.63.42l.16.09.17.07.34.13a3.38,3.38,0,0,0,.69.14,3.19,3.19,0,0,0,1.44-.2l0-.06a1.45,1.45,0,0,1-.06-.19c-.06-.17-.14-.41-.25-.69a2.29,2.29,0,0,0-.1-.23,2.44,2.44,0,0,0-.1-.24c-.07-.17-.15-.35-.24-.53s-.09-.19-.14-.29l-.15-.29-.17-.31L25,71.73a.65.65,0,0,0-.09-.16,7.47,7.47,0,0,0-.4-.64l0-.09-.06-.08-.11-.16L24,70.27l-.26-.34-.28-.33-.29-.33c-.06,0-.11-.11-.16-.16L23,69l-.08-.09a12,12,0,0,0-1.5-1.25c-.14-.1-.28-.2-.43-.29l-.23-.15-.24-.13c-.32-.19-.66-.36-1-.53l-.19-.28-.11-.16L19.05,66l-.28-.43L18.44,65a.16.16,0,0,1,0-.07l0-.08-.09-.16-.18-.33q-.18-.33-.36-.69c-.13-.24-.24-.49-.36-.74s-.23-.49-.35-.74-.21-.49-.31-.72c-.2-.48-.38-.92-.53-1.31l-.34-.94L15.74,59l0-.1,0,.1A1.78,1.78,0,0,0,15.82,59.24Zm5.56,12.33.13.15.17.2.43.48.24.26.26.27.51.52.06.06.06.06.12.12.21.2.45.42a4,4,0,0,1-1.1-.71,4.17,4.17,0,0,1-.47-.47l-.22-.24L22,72.65c-.24-.33-.44-.63-.57-.85a.6.6,0,0,1-.09-.15l-.06-.11-.05-.1Z"/><path class="cls-21" d="M27,71.05a1,1,0,0,0,0,.17,3.06,3.06,0,0,0,.05.32l.06.31a2.46,2.46,0,0,0,.07.29c.05.19.11.36.16.52l.09.24c0,.07.06.14.08.21.12.27.23.48.31.62l.09.16L28,74a4.1,4.1,0,0,0,1.14-.89,4.19,4.19,0,0,0,.4-.54l.16-.29a.91.91,0,0,0,.07-.14l.07-.15a6.62,6.62,0,0,0,.24-.62c0-.1.06-.21.08-.31l0-.16a1.24,1.24,0,0,0,0-.16c.05-.22.08-.43.11-.65,0-.05,0-.11,0-.16a1,1,0,0,0,0-.17l0-.32c0-.11,0-.22,0-.32s0-.22,0-.32v-.63c0-.41,0-.8,0-1.17q0-.27,0-.51c0-.17,0-.32,0-.47s0-.27,0-.39,0-.22,0-.3L30.4,65l.12-.28.17-.37.2-.42.06-.11,0-.06,0,0,.12-.21.06-.11a.41.41,0,0,0,.07-.11l.14-.21c.09-.15.19-.3.29-.44a19.12,19.12,0,0,1,1.14-1.55l.41-.49.16-.18,0,0-.12.13-.44.47c-.35.39-.82.93-1.25,1.49-.1.15-.21.29-.31.43l-.3.43-.13.2-.07.1,0,.05,0,0-.22.41-.19.36-.08.15-.06.12-.12.25a6.2,6.2,0,0,0-.85.62l-.19.17-.18.17c-.11.11-.22.23-.32.35a5.71,5.71,0,0,0-.95,1.48l0,.09,0,.1-.07.19a3.3,3.3,0,0,0-.12.38c0,.13-.07.26-.1.39s-.05.25-.07.38,0,.25,0,.37,0,.12,0,.18v.19c0,.24,0,.47,0,.7C27,70.94,27,71,27,71.05Zm2.4.6,0-.25,0-.14v-.07l0-.07.11-.6.06-.3c0-.09,0-.19.07-.29l.12-.5.05-.2,0-.16,0-.13v.32c0,.19,0,.47-.06.79l0,.24c0,.09,0,.17,0,.26a5.23,5.23,0,0,1-.12.54,4.29,4.29,0,0,1-.41,1.08Z"/><path class="cls-22" d="M18.65,51c.07.71.19,1.66.35,2.58q.06.36.12.69l.13.67c.05.21.09.42.13.61s.09.38.13.55l.11.45.09.36.09.3c0,.11,0,.24-.05.39s0,.31,0,.49,0,.37,0,.58v.65c0,.23,0,.47,0,.71a6.43,6.43,0,0,0,.08.74,6.35,6.35,0,0,0,.13.76c0,.13,0,.26.08.38s.07.25.1.38a8.1,8.1,0,0,0,.57,1.42,4.9,4.9,0,0,0,.38.62l.21.28.11.13.12.12a3.49,3.49,0,0,0,1.06.7,3,3,0,0,0,.61.16,3.79,3.79,0,0,0,.68,0v-.24a6.31,6.31,0,0,0,0-.66,1.65,1.65,0,0,0,0-.21v-.12l0-.12c0-.16,0-.33-.07-.52s-.07-.37-.11-.57,0-.21-.06-.31-.05-.21-.07-.32a11.9,11.9,0,0,0-1.05-2.78A10,10,0,0,0,20.08,57L20,56.66l-.11-.34-.13-.45c-.18-.65-.41-1.53-.6-2.43s-.35-1.82-.45-2.52l-.12-.85,0-.32,0,.33C18.59,50.29,18.61,50.59,18.65,51Zm2,11.14c.14.31.33.72.53,1.13.1.2.21.4.31.58l.14.27.14.24.2.35.08.13a3.25,3.25,0,0,1-.42-.41,3.36,3.36,0,0,1-.35-.49c-.06-.09-.11-.18-.16-.27l-.13-.27c-.09-.18-.16-.36-.23-.53s-.11-.34-.16-.49l-.06-.21c0-.07,0-.13,0-.18-.05-.23-.07-.37-.07-.37Z"/><path class="cls-23" d="M27.61,64.2l.09-.12.09-.11.18-.23c.1-.16.21-.33.3-.5a7.6,7.6,0,0,0,.49-1,16.9,16.9,0,0,0,.65-2.08c0-.16.07-.31.1-.46a3.38,3.38,0,0,0,.09-.41c0-.12,0-.24.07-.35l.06-.27.15-.19.18-.21L30.3,58l.29-.31.32-.35.35-.36.37-.37c.49-.48,1-.93,1.39-1.26l.47-.38.18-.14-.19.13-.49.36c-.41.3-.94.72-1.46,1.18s-1,.94-1.41,1.32l-.25.26-.2.2-.16.18a5.78,5.78,0,0,0-2.87,1.76,5.48,5.48,0,0,0-1.19,2.42c0,.1,0,.2-.06.3a2.89,2.89,0,0,0,0,.29c0,.19,0,.37,0,.54a3.88,3.88,0,0,0,0,.49v.23l0,.2c0,.26.07.47.1.62l0,.09,0,.07,0,.06a4,4,0,0,0,.64-.19,3.29,3.29,0,0,0,.56-.29A3.59,3.59,0,0,0,27.61,64.2Zm-.43,0,.15-.3.09-.2.12-.22.25-.47c.17-.32.36-.64.5-.87l.24-.38-.09.27a.69.69,0,0,1-.05.13,1,1,0,0,1-.06.16q-.06.16-.15.36A3,3,0,0,1,28,63a2.12,2.12,0,0,1-.11.21l-.12.22a3.81,3.81,0,0,1-.29.41,3.17,3.17,0,0,1-.34.39Z"/><path class="cls-24" d="M22.54,55a3,3,0,0,0,.31.48,2.11,2.11,0,0,0,.39.4,2.45,2.45,0,0,0,1,.52l.06-.2c0-.07,0-.15.07-.24s.05-.2.08-.32.11-.52.16-.85a10.63,10.63,0,0,0,.1-1.06,8.9,8.9,0,0,0-.23-2.59c-.06-.23-.13-.47-.21-.71a7.54,7.54,0,0,0-.29-.74,8.65,8.65,0,0,0-.87-1.5l0-.27c0-.17,0-.42,0-.71s0-.65,0-1v-.88c0-.1,0-.2,0-.3,0-.81.06-1.63.12-2.25,0-.31.05-.57.07-.75a2.06,2.06,0,0,1,0-.21v0s0,.12,0,.21-.07.45-.11.77c-.08.63-.17,1.46-.22,2.28,0,.1,0,.21,0,.31l0,.3V46c0,.1,0,.2,0,.29v2c0,.09-.07.2-.12.32l-.13.4c-.05.15-.1.31-.14.48s-.05.17-.08.26l-.06.28A10.69,10.69,0,0,0,22,52.55,5.56,5.56,0,0,0,22.54,55Zm-.18-2.59c0-.2,0-.32,0-.32l.07.48,0,.23,0,.26c0,.18.07.37.1.56l.12.56,0,.13,0,.12.05.23.07.33a.62.62,0,0,0,0,.1v0a2.11,2.11,0,0,1-.24-.44,4.24,4.24,0,0,1-.18-.5,6,6,0,0,1-.16-1c0-.15,0-.3,0-.43S22.36,52.49,22.36,52.39Z"/><path class="cls-25" d="M35.11,49.21l.13-.07,0,0,0,0-.14.06-.5.21-.33.15-.37.17-.4.19-.4.22-.21.11-.2.11-.4.22L31.6,51l-.49.31-.18.12a6,6,0,0,0-1.6.29,5.86,5.86,0,0,0-.67.28,5,5,0,0,0-.6.36,5.92,5.92,0,0,0-2.24,3.54c0,.11,0,.22-.05.31a1.12,1.12,0,0,0,0,.24,1.47,1.47,0,0,0,0,.2,3.09,3.09,0,0,0,1.15-.07,3.39,3.39,0,0,0,.51-.17,4.17,4.17,0,0,0,.46-.26,6,6,0,0,0,1.53-1.49,12.94,12.94,0,0,0,1.07-1.73l.21-.38c.06-.13.11-.24.17-.35l.14-.29.11-.24.17-.13.21-.15.26-.19L32,51l.35-.24.19-.12.19-.13.2-.12.2-.12.39-.24.39-.21.18-.11.18-.09.32-.17Zm-6,5.18-.16.23c-.07.09-.14.19-.23.29a4.91,4.91,0,0,1-.59.64l-.36.3a3.14,3.14,0,0,1-.39.24l0,0,0-.07.21-.22.14-.16.08-.08.08-.08.34-.36.35-.35.16-.16.14-.14.3-.28A1.86,1.86,0,0,1,29.15,54.39Z"/><path class="cls-26" d="M26.2,46.05a2.4,2.4,0,0,0,.38.9,2.29,2.29,0,0,0,.74.67l.1-.15a4.29,4.29,0,0,0,.26-.44l.07-.14.09-.16c.05-.12.11-.24.16-.37s.12-.26.18-.41a2,2,0,0,1,.08-.22,2.25,2.25,0,0,1,.08-.24,7.67,7.67,0,0,0-.06-5l0-.23.06-.27.08-.34.11-.41c0-.15.08-.3.12-.46s.09-.33.14-.49l.16-.51,0-.13,0-.13.09-.25.09-.25.09-.25.18-.46.08-.22a1.67,1.67,0,0,0,.08-.2c.11-.25.2-.47.27-.62l.11-.24-.12.24c-.08.15-.18.37-.3.62s-.13.27-.19.42l-.2.47c-.07.16-.14.32-.2.49l-.1.26a2,2,0,0,0-.1.26l-.18.51c-.06.17-.12.34-.17.5l-.07.23c0,.08-.05.16-.07.23l-.13.41a1.05,1.05,0,0,1-.05.19l0,.16-.07.27-.07.23-.38.55c-.08.12-.15.24-.23.38l-.12.2-.13.22a9.62,9.62,0,0,0-.83,2.07,5.41,5.41,0,0,0-.12.55,5.62,5.62,0,0,0-.06.56,2.44,2.44,0,0,0,0,.27,2.17,2.17,0,0,0,0,.26A2.73,2.73,0,0,0,26.2,46.05Zm.21-1.13.06-.42a4.12,4.12,0,0,1,.17-.66c.05-.17.09-.27.09-.27l0,.12c0,.07,0,.18,0,.3l-.05.44c0,.15,0,.32,0,.49l0,.49c0,.15,0,.3,0,.42v.42a2.84,2.84,0,0,1-.13-.88C26.39,45.22,26.4,45.07,26.41,44.92Z"/><path class="cls-27" d="M35.78,44.69l.39-.1.19,0,.19,0,.36-.08.34-.06.3,0,.45-.06.17,0H38l-.46,0H37.4l-.16,0-.34,0-.19,0-.18,0-.2,0-.09,0-.1,0-.39.08c-.13,0-.25.06-.37.09l-.36.08-.32.09-.27.08-.2.07L34,45a4.46,4.46,0,0,0-4.38,1.26l-.16.17-.14.18a3.85,3.85,0,0,0-.26.34c-.07.11-.14.22-.2.33l-.09.15-.07.14a3,3,0,0,0-.2.44l-.06.17a2.7,2.7,0,0,0,1,.21,3.09,3.09,0,0,0,.91-.14,3.34,3.34,0,0,0,.44-.17L31,48l.21-.11.4-.26a4.61,4.61,0,0,0,.38-.28,12.7,12.7,0,0,0,1.29-1.19l.13-.14.13-.14.22-.24c.14-.16.24-.29.32-.39l.18-.06.21-.08.12,0,.14,0,.31-.11.17,0,.18-.06Zm-3.89,2.38c-.11.09-.26.22-.45.36l-.3.2a3.79,3.79,0,0,1-.34.2,3,3,0,0,1-.77.28l.32-.2.32-.2.37-.22.37-.22.33-.18L32,47l.09,0Z"/><path class="cls-28" d="M38.5,40.81h.89l.33,0H40l.31,0,.14,0,.14,0,.25.05.11,0,.1,0,.15,0,.14,0-.13,0-.16-.05L41,41l-.11,0-.25-.06-.28-.07-.3-.06-.16,0-.16,0-.33,0h-.16l-.16,0-.3,0h-.85a5.89,5.89,0,0,0-.55-.29,5,5,0,0,0-.54-.19,3.82,3.82,0,0,0-1-.12l-.48,0-.23,0-.22.06-.41.16-.38.19-.17.1-.16.11-.29.21c-.18.15-.32.3-.44.42a3.17,3.17,0,0,0-.35.44,2.28,2.28,0,0,0,.75.4,1.8,1.8,0,0,0,.39.08l.19,0h.2a3.47,3.47,0,0,0,.78-.1l.38-.11.38-.13.18-.08.18-.07.17-.08.17-.08.62-.33.27-.15.24-.14.35-.22h.58Zm-2.79.9a4.64,4.64,0,0,1-.45.18L35,42l-.33.08a1.86,1.86,0,0,1-.34,0H34l.3-.08c.18-.06.42-.12.66-.18l.36-.08.3-.07.22,0,.08,0Z"/><path class="cls-29" d="M36.88,36.67l-.17.14-.17.15-.16.17c-.1.12-.2.24-.29.37a3.23,3.23,0,0,0-.22.41,2.29,2.29,0,0,0-.1.23c0,.07-.05.15-.07.23a.36.36,0,0,0,.12,0h.32c.14,0,.3,0,.49-.07s.4-.09.63-.16l.36-.12.18-.08.2-.08.19-.09.1,0,.11-.05a4.49,4.49,0,0,0,.42-.24c.15-.08.3-.18.45-.28s.32-.22.48-.34.34-.25.51-.39l.27-.22.14-.11.07-.07.07,0L41,35.9l.2-.06.12,0,.14,0,.3-.08.17,0,.18,0,.37-.09.38-.08.19,0,.2,0,.37-.06h.09l.09,0,.18,0,.31,0,.66-.06-.65,0-.32,0-.17,0-.18,0-.38,0-.19,0-.2,0-.39.06-.37.07c-.24,0-.46.1-.66.15l-.13,0-.13,0-.2.06-.17,0-.18,0-.23,0a5.06,5.06,0,0,0-.58,0l-.35,0h-.19l-.19,0a3.14,3.14,0,0,0-.4.08,3,3,0,0,0-.4.11l-.11,0-.1,0-.2.08-.21.09-.2.1-.38.23A1.33,1.33,0,0,0,36.88,36.67Z"/><path class="cls-30" d="M83.49,102.57l-3.22-.43L78,101.82l-2.7-.4c-1.93-.29-4.1-.64-6.44-1.12-1.18-.23-2.39-.5-3.65-.81s-2.54-.63-3.86-1c-2.63-.75-5.38-1.66-8.15-2.76-1.39-.55-2.78-1.14-4.17-1.8l-.13-.06-.13-.06-.26-.13L48,93.42l-.52-.26-.52-.26c-.34-.18-.69-.35-1-.54l-.51-.28-.52-.28c-.68-.38-1.35-.79-2-1.2l-.5-.31-.25-.16L42,90.05,41.85,90l-.5-.32-.24-.17-.25-.16L40.37,89l-.48-.34c-.33-.23-.64-.47-1-.7l-.47-.36L38,87.21l-.46-.37-.23-.19-.23-.19-.45-.39-.23-.19-.22-.2-.22-.2-.22-.19-.44-.41-.21-.2-.21-.21-.43-.41L34,83.64l-.21-.22,0,0-.05-.05-.1-.11-.4-.43-.1-.11-.1-.11-.2-.22-.19-.22-.2-.23-.37-.45c-.07-.07-.13-.15-.19-.22L31.69,81l-.37-.46c-.12-.16-.23-.32-.35-.47s-.24-.31-.35-.47l-.33-.48L30.2,79l-.08-.12L30,78.63l-.32-.48-.3-.5-.16-.24L29,77.16l-.29-.5a2,2,0,0,1-.14-.25l-.14-.25-.14-.25c0-.09-.09-.17-.13-.26a30.55,30.55,0,0,1-1.78-4.14l-.05-.13,0-.13L26.24,71l-.16-.53c0-.09-.06-.18-.08-.26l-.08-.27-.15-.53-.13-.52-.07-.27-.06-.26-.11-.53c0-.17-.08-.35-.11-.52l-.1-.53-.05-.26v-.13l0-.13L25,65.72l0-.26,0-.26-.07-.52,0-.25c0-.09,0-.18,0-.26s0-.34,0-.51v-.51c0-.17,0-.34,0-.51v-1.5q0-1,.12-2c.06-.64.14-1.27.24-1.88s.21-1.21.33-1.79c.06-.3.13-.58.2-.87s.14-.56.21-.84c.15-.55.3-1.08.47-1.6s.35-1,.52-1.5.37-1,.56-1.4a31.78,31.78,0,0,1,2.32-4.46,25.93,25.93,0,0,1,1.88-2.65c.23-.3.42-.51.54-.66a1.47,1.47,0,0,1,.15-.17l0,0-.05,0-.15.16c-.13.14-.33.35-.57.64a25.87,25.87,0,0,0-2,2.59,29.84,29.84,0,0,0-2.47,4.42c-.11.23-.2.45-.31.69s-.09.23-.14.35l-.15.36c-.19.48-.39,1-.57,1.5s-.35,1.06-.51,1.61c-.08.28-.17.56-.24.85s-.15.58-.22.87c-.14.59-.26,1.19-.37,1.81s-.21,1.26-.28,1.91-.13,1.31-.16,2v.25c0,.08,0,.17,0,.25v1c0,.18,0,.35,0,.52v.53c0,.17,0,.35,0,.52s0,.18,0,.27l0,.26.06.53a2.48,2.48,0,0,0,0,.27l0,.26.08.54,0,.13v.07l0,.07,0,.26.09.54,0,.14a.59.59,0,0,0,0,.13l.06.27.11.54.06.27L25,69l.13.54.15.55.08.27a2.68,2.68,0,0,0,.07.27l.17.54.08.27s0,.09.05.13l0,.14A32.07,32.07,0,0,0,27.51,76c0,.09.09.17.14.26l.14.26.13.26.15.26.29.51.15.26.15.25.31.5.33.5.16.25.08.13.09.12.34.49.35.48.36.48.37.47.19.24.19.23.38.46c.07.08.13.16.2.23l.2.23.2.23.1.11.1.11.41.44c.13.15.28.3.42.44l.42.43.43.43.22.21.22.21.44.41.23.2.22.2.23.2.23.2.46.39.23.2.23.19.48.38.47.37.48.37,1,.71.49.35.5.34.25.17.25.16.5.33.13.08.13.08.25.16.51.32c.68.41,1.37.82,2.06,1.2l.52.29.52.28c.35.19.7.36,1,.54l.53.26.53.26.52.25.27.13.13.06.13.06c1.41.65,2.83,1.24,4.23,1.78a81.31,81.31,0,0,0,8.26,2.67q2,.54,3.9,1c1.26.28,2.49.52,3.68.74,2.36.42,4.55.72,6.48,1l2.72.32,2.3.24,3.24.32,1.14.1Z"/><path class="cls-31" d="M40.57,81.41l0-.09.05-.09.08-.17a1.66,1.66,0,0,0,.06-.16l0-.07,0,0,0-.12-.11.16c-.06.1-.13.24-.21.37s-.07.14-.11.2l0,.1,0,.08-.06.13,0,0,.15-.16Z"/><path class="cls-32" d="M38.28,77a1.68,1.68,0,0,0,.07.43,1.34,1.34,0,0,0,.17.4v-.06l0-.14,0-.1v-.11l0-.23a1.72,1.72,0,0,0,0-.24l0-.11v-.1l0-.21a.79.79,0,0,0,0,.14v.15A1.15,1.15,0,0,0,38.28,77Z"/><path class="cls-33" d="M40.05,73.9a1.28,1.28,0,0,1,0-.19v-.2c0-.08,0-.15,0-.21l0-.19s0-.1,0-.13v0a.7.7,0,0,0,0,.11,2.49,2.49,0,0,0-.07.29s0,.11,0,.18,0,.12,0,.19a1.1,1.1,0,0,0,.06.37Z"/><path class="cls-34" d="M41.47,84.43s0-.07,0-.11,0-.07,0-.1,0-.26,0-.34v-.14l0,.06,0,.07,0,.08,0,.22,0,.12,0,.13,0,.25v.12l0,.11,0,.22a2.14,2.14,0,0,0,.17-.46C41.44,84.58,41.46,84.5,41.47,84.43Z"/><path class="cls-35" d="M42.26,74.43l-.13.08L42,74.6l-.16.09-.14.09-.13.09a1.75,1.75,0,0,0,.32-.12l.15-.09.13-.09a1.81,1.81,0,0,0,.19-.15l.07-.06,0,0Z"/><path class="cls-36" d="M41,77.63,41,77.7l-.14.14-.15.16,0,0,0,0-.06.06-.08.1,0,0h0l.17-.11.15-.12c.1-.09.18-.19.26-.27l.09-.13.07-.1.06-.09-.13.12Z"/><path class="cls-37" d="M42.22,71.16l.11-.31c0-.06.05-.12.07-.17l.06-.15,0-.1,0,0-.06.08-.13.22-.06.14-.06.15,0,.17a.76.76,0,0,0,0,.15Z"/><path class="cls-38" d="M40.81,89.63l-.1,0-.26-.14-.08,0-.07,0-.15-.09-.56-.34-.18-.12-.07,0,.14.14.37.31.25.16.13.08,0,0,0,0,.07,0a1.91,1.91,0,0,0,.59.18l-.07,0Z"/><path class="cls-39" d="M37.47,80.84l0,.09c0,.06,0,.13.07.2a2.18,2.18,0,0,0,.09.23l.06.12.06.11.16.21a.91.91,0,0,0,.17.17l0,0L38,81.77l-.05-.1-.06-.12a1.46,1.46,0,0,1-.13-.25c-.09-.17-.17-.34-.23-.48l-.1-.22,0,.16S37.46,80.81,37.47,80.84Z"/><path class="cls-40" d="M43.9,72.13l-.13,0-.15,0-.28.08-.13,0h.15l.14,0,.14,0,.13,0,.19-.07.07,0h0Z"/><path class="cls-41" d="M43,86.75c0,.14,0,.33,0,.52v.22s0,0,0,.06l0,.25v.25a2,2,0,0,0,0-.54v-.13s0-.09,0-.13l0-.23c0-.15-.06-.28-.08-.37a1,1,0,0,0,0-.14v.06A1.21,1.21,0,0,0,43,86.75Z"/><path class="cls-42" d="M37.85,84.9a.21.21,0,0,0,0,.06,2.48,2.48,0,0,0,.24.36l.08.11.09.1a2,2,0,0,0,.21.2A1.65,1.65,0,0,0,39,86l-.19-.18-.09-.08,0,0,0,0,0,0-.21-.23-.11-.11a1.14,1.14,0,0,0-.11-.11L38,85l-.08-.08,0-.07-.05,0,0,0Z"/><path class="cls-43" d="M42.12,71.56a.93.93,0,0,0,.19.31,1.45,1.45,0,0,0,.18-.17l.19-.21.1-.12,0-.07a.35.35,0,0,0,.05-.08.86.86,0,0,0,.1-.16,1,1,0,0,0,.1-.17.31.31,0,0,0,.05-.1l0-.09.08-.21a3.37,3.37,0,0,0,.12-.48q0-.12,0-.27a2.61,2.61,0,0,0,0-.28l.05-.08,0-.09.07-.11.08-.13.1-.14.05-.08,0,0,0,0,.11-.16.06-.08.06-.08.13-.15.12-.14.11-.12,0-.06,0,0,.08-.08.06-.07-.07.07-.08.08,0,0-.05.05c-.15.15-.34.36-.51.57l-.12.15-.12.16,0,.07,0,0,0,0-.09.14-.07.11-.06.08,0,.08-.08.06-.11.09L43,69.7l-.13.12-.27.29-.07.09-.06.08-.06.09-.06.09a1.62,1.62,0,0,0-.1.18,1.54,1.54,0,0,0-.08.19,1.3,1.3,0,0,0-.08.37.34.34,0,0,0,0,.1.25.25,0,0,1,0,.08A1.16,1.16,0,0,0,42.12,71.56Zm.06-.41,0-.17.06-.15.06-.14.13-.22.06-.08,0,0,0,.1-.06.15s0,.11-.07.17l-.11.31,0,.14A.76.76,0,0,1,42.18,71.15Z"/><path class="cls-44" d="M41.89,89.37l-.12-.16a1.19,1.19,0,0,0-.15-.18l-.17-.21a1.14,1.14,0,0,0-.11-.11l-.1-.12-.12-.11L41,88.36l-.26-.24-.3-.24-.08-.06-.08-.06-.17-.11L40,87.59l-.08-.06-.19-.11-.2-.1,0,0,0,0-.1,0-.21-.09-.11,0-.12,0c-.15-.06-.31-.11-.48-.16l-.13,0-.13,0-.27-.06-.12-.11-.15-.12-.18-.18-.1-.1-.11-.1L37,85.91l-.13-.13-.12-.13-.25-.28-.06-.07-.06-.07-.12-.15L36,84.8a3.17,3.17,0,0,0-.21-.27.64.64,0,0,0-.1-.13l-.08-.12-.28-.39-.1-.14.1.15.26.4.09.13.09.14.21.28.11.15.11.15.12.15.06.08.06.08.24.29.06.07.06.07L37,86l.12.13.06.06,0,.06.21.22c.13.14.24.25.32.32l.12.12,0,.09.06.1a2.67,2.67,0,0,0,.12.24l0,.06,0,0,0,0s.05.09.08.14l.09.14.1.15a6.09,6.09,0,0,0,1,1.2l.15.13.08.06.08.06.33.21.09,0,.08,0,.17.08.17.06.17,0a1.69,1.69,0,0,0,.67,0,1.39,1.39,0,0,0,.62-.28l-.07-.1A.83.83,0,0,0,41.89,89.37Zm-1.52.16-.07,0,0,0,0,0-.13-.08-.25-.16-.37-.31-.14-.14.07,0,.18.12.56.34.15.09.07,0,.08,0,.26.14.1,0,.08,0,.07,0A1.91,1.91,0,0,1,40.37,89.53Z"/><path class="cls-45" d="M42.74,84.41l0-.21s0,0,0,0l0-.06,0-.12,0-.12v-.06a.14.14,0,0,0,0-.06c0-.08.05-.16.08-.24l0-.06a.14.14,0,0,1,0-.06l0-.12,0-.12a.36.36,0,0,1,0-.11l.08-.21,0-.1,0-.09.12-.27,0-.1-.06.1c0,.06-.08.15-.13.26l-.05.09,0,.09a2,2,0,0,1-.1.21l-.09.23,0,.12,0,.06a.14.14,0,0,1,0,.06l-.09.24,0,.12,0,.12a1.87,1.87,0,0,1-.07.22l0,.11,0,.1,0,.18,0,.14,0,.12-.17.19-.07.09a.61.61,0,0,0-.07.1,2.65,2.65,0,0,0-.23.39.31.31,0,0,0-.05.1,1,1,0,0,0,0,.1,1.46,1.46,0,0,0-.07.19l0,.1v.1a1.29,1.29,0,0,0,0,.19,1.23,1.23,0,0,0,0,.19.34.34,0,0,1,0,.1v.09a1.09,1.09,0,0,0,0,.18V87s0,0,0,.08a2,2,0,0,0,.06.35,2.81,2.81,0,0,0,.1.31l.06.15.06.14a.83.83,0,0,1,.07.13l.07.12.14.22.14.18.12.14.1.1.08.08a1.84,1.84,0,0,0,.4-.55,1.86,1.86,0,0,0,.17-.6.77.77,0,0,0,0-.15s0-.11,0-.16v-.15a.22.22,0,0,0,0-.08v-.07l0-.31,0-.15a.77.77,0,0,0,0-.15,10.5,10.5,0,0,0-.3-1.09.76.76,0,0,1,0-.11s0-.08,0-.11a.49.49,0,0,0,0-.11v0l0,0L42.71,85l0-.07,0-.06,0-.12C42.69,84.65,42.71,84.54,42.74,84.41ZM43,86.65c0,.09.05.22.08.37l0,.23s0,.09,0,.13v.13a2,2,0,0,1,0,.54V87.8l0-.25s0,0,0-.06v-.22c0-.19,0-.38,0-.52a1.21,1.21,0,0,1,0-.18v-.06A1,1,0,0,1,43,86.65Z"/><path class="cls-46" d="M35.48,79.61c0,.1.07.24.13.42l.1.27,0,.15,0,.08,0,.07c.08.21.16.44.26.66l.14.32.08.16,0,.08,0,.07.07.15,0,0,0,0,0,.06.13.24.11.19.09.15.08.13c0,.05,0,.11,0,.18s0,.15.05.23a2.68,2.68,0,0,0,.07.27,1.71,1.71,0,0,0,.09.3,4.68,4.68,0,0,0,.25.64l0,0,0,0,0,.09.09.16a.65.65,0,0,0,.09.16l.09.15.11.15a.35.35,0,0,0,0,.08l.06.07a2.85,2.85,0,0,0,.23.26l.06.06.06.06.13.11.27.17.07,0,.07,0,.15.06a1.5,1.5,0,0,0,.29.06A1.36,1.36,0,0,0,40,86.2v0a.22.22,0,0,1,0-.08,3.05,3.05,0,0,0-.11-.29l0-.1a.93.93,0,0,1-.05-.1c0-.07-.06-.15-.1-.23l-.06-.12-.06-.12L39.42,85l0-.07,0-.07c-.05-.09-.11-.18-.17-.27l0,0,0,0-.05-.07-.1-.14a1.71,1.71,0,0,0-.11-.14L38.75,84l-.13-.14-.06-.07,0,0,0,0a5,5,0,0,0-.64-.53l-.18-.13-.1-.06-.1,0a4.53,4.53,0,0,0-.44-.23L37,82.62l0-.06,0-.08-.12-.19-.14-.22,0,0,0,0,0-.07-.08-.14-.15-.3-.15-.31L36,80.87c-.05-.1-.09-.21-.14-.31s-.16-.39-.22-.55l-.14-.4a.41.41,0,0,1,0-.12l0,0,0,0A.35.35,0,0,0,35.48,79.61Zm2.37,5.25,0,.07L38,85l.18.21a1.14,1.14,0,0,1,.11.11l.11.11.21.23,0,0,0,0,0,0,.09.08L39,86a1.65,1.65,0,0,1-.46-.3,2,2,0,0,1-.21-.2l-.09-.1-.08-.11a2.48,2.48,0,0,1-.24-.36.21.21,0,0,1,0-.06l0-.05,0,0Z"/><path class="cls-47" d="M40.26,84.64a.15.15,0,0,0,0,.07.59.59,0,0,0,0,.14c0,.05,0,.09,0,.13l0,.13c0,.08,0,.15.07.22l0,.1a.36.36,0,0,0,0,.09l.12.27,0,.06v0a1.55,1.55,0,0,0,.48-.38,1.3,1.3,0,0,0,.18-.23.75.75,0,0,1,.07-.12l0-.07,0-.06a2.77,2.77,0,0,0,.1-.26l0-.14,0-.06a.64.64,0,0,1,0-.07,2.7,2.7,0,0,0,0-.28.15.15,0,0,0,0-.07v-.07a.61.61,0,0,0,0-.14.57.57,0,0,0,0-.13s0-.09,0-.14v-.27c0-.17,0-.34,0-.49s0-.15,0-.22,0-.14,0-.2,0-.12,0-.17,0-.09,0-.13l0-.1.06-.12.07-.16.08-.18,0-.05v0l.06-.09,0,0,0,0,.06-.1.12-.18c.17-.25.35-.49.49-.67l.17-.2.07-.08,0,0-.05,0-.19.2c-.15.17-.34.4-.53.64l-.13.18-.13.18-.06.09,0,0v0l-.1.17-.08.15,0,.07,0,.05,0,.1-.36.27-.08.07-.08.07-.14.15a2.56,2.56,0,0,0-.4.63l0,0,0,0,0,.09s0,.11,0,.16l0,.16,0,.16c0,.06,0,.11,0,.16v.16c0,.1,0,.2,0,.3Zm1,.26,0-.11v-.12l0-.25,0-.13,0-.12,0-.22,0-.08,0-.07,0-.06v.14c0,.08,0,.2,0,.34s0,.06,0,.1,0,.07,0,.11,0,.15,0,.23a2.14,2.14,0,0,1-.17.46Z"/><path class="cls-48" d="M36.69,76.08c0,.3.08.7.15,1.1a2.93,2.93,0,0,0,0,.29l0,.28L37,78c0,.08,0,.16,0,.23l.05.19,0,.15,0,.13s0,.11,0,.17a1.25,1.25,0,0,0,0,.21c0,.07,0,.16,0,.24v.28c0,.1,0,.2,0,.3s0,.21,0,.32,0,.22,0,.33a6165427505973.36,6165427505973.36,0,0,1,.08.32,3.6,3.6,0,0,0,.25.6,1.48,1.48,0,0,0,.16.27l.09.11,0,.06s0,0,0,0a1.37,1.37,0,0,0,.45.3,1.11,1.11,0,0,0,.26.07,1.38,1.38,0,0,0,.29,0v-.1c0-.07,0-.16,0-.28a.28.28,0,0,1,0-.09v-.1a1.7,1.7,0,0,0,0-.22c0-.08,0-.16,0-.25l0-.13,0-.13a5,5,0,0,0-.44-1.19,4.57,4.57,0,0,0-1-1.24l0-.12a1.31,1.31,0,0,1,0-.15l-.05-.19c-.08-.27-.18-.65-.26-1s-.15-.78-.19-1.08c0-.14,0-.27-.05-.36l0-.14v.15C36.66,75.8,36.67,75.92,36.69,76.08Zm.83,4.74c.06.14.14.31.23.48a1.46,1.46,0,0,0,.13.25l.06.12.05.1.09.15,0,0a.91.91,0,0,1-.17-.17l-.16-.21-.06-.11-.06-.12a2.18,2.18,0,0,1-.09-.23c0-.07,0-.14-.07-.2l0-.09s0-.06,0-.08l0-.16Z"/><path class="cls-49" d="M40.51,81.72l0,0a.1.1,0,0,0,0,0l.08-.09.13-.21a4.54,4.54,0,0,0,.21-.45,7.37,7.37,0,0,0,.27-.89c0-.06,0-.13,0-.19l0-.18a.39.39,0,0,0,0-.14l0-.12.06-.08.08-.09.1-.12.12-.13.14-.15.15-.16.16-.15c.21-.21.42-.4.59-.54l.2-.16.08-.06-.08.05-.21.16c-.18.13-.4.31-.63.5s-.43.4-.59.56l-.11.11-.09.09-.07.07a2.49,2.49,0,0,0-1.22.76,2.37,2.37,0,0,0-.51,1s0,.08,0,.12,0,.09,0,.13,0,.16,0,.23a1.48,1.48,0,0,0,0,.21v.09a.28.28,0,0,1,0,.09,2.43,2.43,0,0,0,.05.26v.1l.28-.08.24-.13A1.75,1.75,0,0,0,40.51,81.72Zm-.19,0,.06-.13,0-.08,0-.1c0-.06.07-.13.11-.2s.15-.27.21-.37l.11-.16,0,.12,0,0,0,.07a1.66,1.66,0,0,1-.06.16l-.08.17-.05.09,0,.09-.12.18-.15.16Z"/><path class="cls-50" d="M38.34,77.79a1.1,1.1,0,0,0,.14.21,1.29,1.29,0,0,0,.16.17,1.07,1.07,0,0,0,.44.22l0-.09a.62.62,0,0,0,0-.1l0-.13c0-.11,0-.23.07-.36s0-.29,0-.46a3.6,3.6,0,0,0-.1-1.1,2.12,2.12,0,0,0-.09-.31,2.45,2.45,0,0,0-.12-.31,3.88,3.88,0,0,0-.37-.64v-.11c0-.08,0-.18,0-.31s0-.27,0-.43v-.5c0-.35,0-.7.06-1s0-.24,0-.32a.22.22,0,0,1,0-.09v0a.64.64,0,0,0,0,.09c0,.08,0,.19,0,.32s-.07.63-.09,1c0,0,0,.09,0,.13v1.25s0,.08,0,.13l-.06.17-.06.21,0,.11,0,.12a4.1,4.1,0,0,0-.13,1.08A2.26,2.26,0,0,0,38.34,77.79Zm-.07-1.1a.79.79,0,0,1,0-.14l0,.21v.1l0,.11a1.72,1.72,0,0,1,0,.24l0,.23v.11l0,.1,0,.14v.06a1.34,1.34,0,0,1-.17-.4,1.68,1.68,0,0,1-.07-.43,1.15,1.15,0,0,1,0-.18Z"/><path class="cls-51" d="M43.7,75.33l.06,0h0l-.06,0-.21.09-.15.06-.15.08-.17.08-.18.09-.08,0-.09,0-.17.1-.29.18-.21.13-.08.06a2.35,2.35,0,0,0-.68.12,1.48,1.48,0,0,0-.29.12,2.07,2.07,0,0,0-.25.15,2.25,2.25,0,0,0-.69.77c-.07.14-.13.28-.18.4s-.07.24-.09.34a.69.69,0,0,0,0,.13.41.41,0,0,0,0,.1.62.62,0,0,0,0,.09,1.31,1.31,0,0,0,.49,0,1.29,1.29,0,0,0,.21-.07l.2-.11a2.33,2.33,0,0,0,.65-.64,5.73,5.73,0,0,0,.46-.73l.09-.17a1,1,0,0,0,.07-.15l.06-.12,0-.1.07-.06.09-.06.11-.08.14-.1.15-.1.08,0,.08,0,.08-.06.09,0,.17-.1.16-.09.08,0,.08,0,.13-.08Zm-2.54,2.21-.07.1-.09.13c-.08.08-.16.18-.26.27l-.15.12-.17.11h0l0,0,.08-.1.06-.06,0,0,0,0,.15-.16L41,77.7l.07-.07.06-.06.13-.12Z"/><path class="cls-52" d="M39.9,74a1,1,0,0,0,.17.38,1,1,0,0,0,.31.29l0-.07.1-.18,0-.07,0-.06s0-.1.07-.16,0-.11.08-.17l0-.1,0-.1a3.22,3.22,0,0,0,0-2.15l0-.1,0-.11,0-.15,0-.17.06-.2a1,1,0,0,1,.06-.21l.06-.21,0-.06,0,0,0-.11,0-.11a.42.42,0,0,0,0-.1l.08-.2,0-.09,0-.09a2.54,2.54,0,0,1,.11-.26l0-.1,0,.1-.13.26-.08.18-.09.2-.08.21,0,.11a.49.49,0,0,1,0,.11l-.07.22-.08.21,0,.1,0,.1,0,.17s0,.06,0,.08l0,.07,0,.12,0,.1a2.12,2.12,0,0,0-.16.23l-.1.16,0,.09a.41.41,0,0,0,0,.09,4.06,4.06,0,0,0-.36.88,2,2,0,0,0-.05.24l0,.23v.23Zm.09-.48q0-.11,0-.18a2.49,2.49,0,0,1,.07-.29.7.7,0,0,1,0-.11v0s0,.08,0,.13l0,.19c0,.06,0,.13,0,.21v.2a1.28,1.28,0,0,0,0,.19v.17A1.1,1.1,0,0,1,40,73.7C40,73.63,40,73.57,40,73.51Z"/><path class="cls-53" d="M44,73.41l.16,0,.08,0,.08,0,.16,0,.14,0,.13,0,.19,0h-.32l-.15,0h-.32l-.16,0-.17,0-.15,0-.13,0-.12,0-.09,0-.07,0a1.89,1.89,0,0,0-1.87.54l-.07.07-.06.07-.11.15-.09.14,0,.06a.21.21,0,0,0,0,.06l-.08.19a.23.23,0,0,0,0,.07,1,1,0,0,0,.41.09,1,1,0,0,0,.39-.06l.19-.07.09,0,.09,0,.17-.11a.83.83,0,0,0,.16-.12,4.6,4.6,0,0,0,.55-.51L43,74l0,0,.09-.11.14-.16.08,0,.09,0,.05,0,.06,0,.13,0,.07,0,.08,0Zm-1.66,1a1.81,1.81,0,0,1-.19.15l-.13.09-.15.09a1.75,1.75,0,0,1-.32.12l.13-.09.14-.09L42,74.6l.16-.09.13-.08.1-.05,0,0Z"/><path class="cls-54" d="M45.14,71.75h.39l.14,0h.13l.13,0h.12l.11,0h.16l0,0,0,0-.07,0h-.09l-.1,0-.12,0-.13,0-.07,0h-.07l-.14,0H44.9l-.23-.12-.23-.08a1.75,1.75,0,0,0-.44,0l-.21,0-.1,0-.09,0-.18.06-.16.08-.07.05-.07,0-.12.1a1.72,1.72,0,0,0-.19.17,1.5,1.5,0,0,0-.15.19.9.9,0,0,0,.32.17l.17,0h.16a1.27,1.27,0,0,0,.34-.05l.16,0,.16-.06.08,0,.07,0,.08,0,.07,0,.26-.14.12-.07.1-.06.15-.09h.24ZM44,72.14l-.19.07-.13,0-.14,0-.14,0h-.15l.13,0,.28-.08.15,0,.13,0,.09,0h0Z"/><path class="cls-55" d="M44.46,70l-.08.06a960848312666.41,960848312666.41,0,0,1-.14.14l-.12.15a1.62,1.62,0,0,0-.1.18.69.69,0,0,1,0,.1l0,.1h.19l.21,0a1.8,1.8,0,0,0,.27-.07l.15,0,.08,0,.08,0,.09,0,0,0,0,0,.18-.1.2-.12.2-.14.22-.17.11-.09.06-.05,0,0,0,0,.07,0,.09,0,.05,0,.06,0,.13,0,.07,0,.07,0,.16,0,.17,0,.08,0h.08l.16,0h.29l.28,0-.28,0h-.29l-.16,0H47l-.17,0-.16,0-.28.06-.06,0h0l-.08,0-.08,0H46a2.08,2.08,0,0,0-.25,0h-.31l-.17,0-.17,0h0l0,0-.09,0-.08,0-.09,0-.16.1Z"/><path class="cls-56" d="M64.32,98.07,63,97.89l-1-.14-1.15-.16c-.82-.13-1.75-.28-2.75-.48-.5-.1-1-.22-1.55-.35s-1.08-.27-1.64-.43a35.6,35.6,0,0,1-3.48-1.17c-.59-.24-1.18-.49-1.78-.77l0,0-.06,0-.11-.06-.22-.1L49,94.07,48.74,94l-.44-.23-.22-.11-.22-.13L47,93l-.21-.14-.11-.07,0,0-.06,0-.21-.14-.1-.07-.11-.07-.21-.15-.2-.14-.41-.3-.2-.16-.2-.15-.2-.16-.1-.08-.09-.08-.2-.17L44.25,91l-.1-.08-.09-.09-.1-.08-.18-.17-.09-.09-.09-.09-.18-.17L43.24,90l-.09-.09,0,0,0,0,0-.05-.18-.18,0,0,0,0-.08-.1-.09-.09-.08-.1-.16-.19-.08-.1-.08-.09-.15-.2-.15-.2-.15-.2-.14-.2,0,0,0,0-.07-.11-.14-.2-.13-.21-.06-.11a.61.61,0,0,1-.07-.1L41,87l-.06-.1-.06-.11-.06-.11a.37.37,0,0,1-.05-.11A11.83,11.83,0,0,1,40,84.84l0-.06s0,0,0,0l0-.12-.07-.22,0-.11,0-.11-.07-.23,0-.22,0-.12,0-.11,0-.22a1.89,1.89,0,0,0-.05-.23l0-.22,0-.11v-.12l0-.22,0-.11s0-.07,0-.11l0-.22v-.11s0-.07,0-.11,0-.15,0-.22v-.22a1.48,1.48,0,0,1,0-.21v-.43a.41.41,0,0,1,0-.11v-.1c0-.28,0-.56,0-.83s.06-.54.1-.8.09-.52.14-.77l.09-.37a3.58,3.58,0,0,1,.09-.35c.06-.24.13-.47.2-.69s.14-.43.22-.64l.24-.59a13.74,13.74,0,0,1,1-1.9,12,12,0,0,1,.8-1.13,2.91,2.91,0,0,1,.24-.28.28.28,0,0,1,.06-.08l0,0,0,0-.07.07-.24.27a11.47,11.47,0,0,0-.84,1.11,12.47,12.47,0,0,0-1.06,1.88,2.55,2.55,0,0,1-.13.29l-.06.15-.06.16c-.08.2-.17.42-.24.64s-.15.45-.22.69a3.1,3.1,0,0,0-.1.36c0,.12-.07.24-.1.37s-.11.51-.16.77-.08.53-.12.81-.05.56-.06.85v1.1c0,.07,0,.15,0,.22a.49.49,0,0,0,0,.12V82l0,.22s0,.08,0,.12v.11l0,.23v.11l0,.12,0,.23v.05s0,0,0,.06l0,.12,0,.23,0,.11,0,.12.06.23.06.23,0,.11a.56.56,0,0,0,0,.12l.07.23,0,.12s0,0,0,0l0,.06a14.94,14.94,0,0,0,.76,1.82l.06.11.06.11.06.11.06.11.12.22a.41.41,0,0,1,.07.11l.06.1.14.22.13.21.07.11a.1.1,0,0,1,0,0l0,0,.15.21.15.21.15.2.16.2.08.1.08.1.17.2.08.1.08.09.09.1,0,0,0,0,.17.18.18.19.18.18.18.19.09.09.1.08.19.18.09.09.1.08.1.09.09.08.2.17a.39.39,0,0,0,.1.08l.1.08.2.17.2.15.21.16c.14.1.27.21.41.3l.21.15.22.15.1.07.11.07.21.14.06,0,.05,0,.11.07.22.13c.29.18.58.35.88.51l.22.13.22.11.45.24.22.11.22.11.23.1.11.06.06,0,0,0c.61.28,1.21.53,1.81.76a36.74,36.74,0,0,0,3.52,1.14c.56.15,1.12.29,1.66.41s1.06.22,1.57.31c1,.18,1.93.31,2.76.41l1.16.14,1,.1,1.38.13.49,0Z"/><path class="cls-57" d="M131.91,81.41l-.06-.09,0-.09-.09-.17-.06-.16a.14.14,0,0,1,0-.07l0,0a.67.67,0,0,1,0-.12l.1.16.21.37.11.2.05.1,0,.08.06.13,0,0a1.07,1.07,0,0,1-.14-.16A1.88,1.88,0,0,1,131.91,81.41Z"/><path class="cls-58" d="M134.2,77a2.26,2.26,0,0,1-.07.43c0,.07,0,.14-.07.21l-.11.19v-.06l0-.14,0-.1v-.11l.05-.23a2.4,2.4,0,0,0,0-.24l0-.11,0-.1,0-.21s0,0,0,.14v.15S134.2,77,134.2,77Z"/><path class="cls-59" d="M132.43,73.9c0-.06,0-.12,0-.19l0-.2c0-.08,0-.15,0-.21l0-.19s0-.1,0-.13v0a.82.82,0,0,0,0,.11,2.84,2.84,0,0,1,.06.29.84.84,0,0,1,0,.18,1.15,1.15,0,0,1,0,.19,1.44,1.44,0,0,1-.05.37Z"/><path class="cls-60" d="M131,84.43s0-.07,0-.11,0-.07,0-.1,0-.26,0-.34V83.8l0,.07,0,.08.05.22,0,.12,0,.13,0,.25v.23l0,.22a2.19,2.19,0,0,1-.18-.46C131,84.58,131,84.5,131,84.43Z"/><path class="cls-61" d="M130.21,74.43l.14.08.16.09.16.09.13.09.14.09a1.61,1.61,0,0,1-.33-.12l-.14-.09-.13-.09a1.14,1.14,0,0,1-.19-.15l-.08-.06,0,0Z"/><path class="cls-62" d="M131.44,77.63l.07.07.15.14.14.16,0,0,0,0,.06.06.09.1,0,0h0l-.17-.11-.15-.12a3,3,0,0,1-.25-.27l-.1-.13a.86.86,0,0,0-.07-.1l-.06-.09.13.12Z"/><path class="cls-63" d="M130.26,71.16a3.21,3.21,0,0,0-.12-.31l-.06-.17-.06-.15-.05-.1,0,0a.45.45,0,0,1,.06.08,1.83,1.83,0,0,1,.13.22l.07.14a.88.88,0,0,1,0,.15,1,1,0,0,1,0,.17s0,.1,0,.15Z"/><path class="cls-64" d="M131.66,89.63l.11,0,.26-.14.07,0,.08,0,.15-.09.55-.34.18-.12.07,0-.14.14c-.09.08-.21.19-.37.31l-.24.16-.14.08,0,0,0,0-.07,0a1.83,1.83,0,0,1-.59.18l.07,0Z"/><path class="cls-65" d="M135,80.84a.29.29,0,0,1,0,.09c0,.06,0,.13-.07.2a2.29,2.29,0,0,1-.1.23.34.34,0,0,1-.06.12l-.06.11c0,.07-.1.14-.15.21a1,1,0,0,1-.18.17l0,0,.08-.15.06-.1.06-.12c0-.07.09-.16.13-.25s.17-.34.23-.48l.1-.22a1.45,1.45,0,0,1,0,.16A.31.31,0,0,1,135,80.84Z"/><path class="cls-66" d="M128.57,72.13l.13,0,.15,0,.29.08.12,0h-.14l-.15,0-.14,0-.12,0-.19-.07-.07,0h0Z"/><path class="cls-67" d="M129.5,86.75c0,.14,0,.33,0,.52v.22a.13.13,0,0,1,0,.06l0,.25,0,.1v.15a2,2,0,0,1,0-.54v-.13a.57.57,0,0,0,0-.13,1.57,1.57,0,0,1,0-.23c0-.15.05-.28.07-.37a1,1,0,0,1,0-.14v.24Z"/><path class="cls-68" d="M134.62,84.9l0,.06a2.66,2.66,0,0,1-.25.36.76.76,0,0,1-.08.11l-.09.1a1.89,1.89,0,0,1-.2.2,1.7,1.7,0,0,1-.47.3l.19-.18.09-.08.05,0,0,0,0,0,.22-.23.11-.11.1-.11.19-.21.07-.08.06-.07,0,0,0,0Z"/><path class="cls-69" d="M130.39,71.38a.19.19,0,0,0,0-.08v-.1a1.33,1.33,0,0,0-.09-.37,1.46,1.46,0,0,0-.07-.19l-.11-.18a.41.41,0,0,0,0-.09l-.06-.09L130,70.2l-.06-.09-.27-.29a1.49,1.49,0,0,0-.14-.12l-.12-.11-.11-.09-.09-.06,0-.08-.05-.08-.08-.11-.09-.14,0,0,0,0-.06-.07-.11-.16-.13-.15c-.17-.21-.36-.42-.5-.57L128,68l0,0-.08-.08-.07-.07.07.07.07.08,0,0L128,68l.11.12.12.14.12.15.06.08.06.08.12.16,0,0,0,0,.06.08.09.14.09.13.07.11.05.09,0,.08a2.53,2.53,0,0,0,0,.28,2,2,0,0,0,0,.27,3.37,3.37,0,0,0,.12.48,1.8,1.8,0,0,0,.08.21l0,.09,0,.1.1.17c0,.06.07.11.1.16a.35.35,0,0,1,0,.08l.06.07.1.12.18.21.18.17a.79.79,0,0,0,.19-.31A.58.58,0,0,0,130.39,71.38Zm-.08-.08-.05-.14a3.21,3.21,0,0,0-.12-.31l-.06-.17-.06-.15-.05-.1,0,0a.45.45,0,0,1,.06.08,1.83,1.83,0,0,1,.13.22l.07.14a.88.88,0,0,1,0,.15,1,1,0,0,1,0,.17S130.31,71.25,130.31,71.3Z"/><path class="cls-70" d="M130.5,89.49l-.07.1a1.48,1.48,0,0,0,.63.28,1.64,1.64,0,0,0,.66,0l.17,0,.17-.06.17-.08.09,0,.08,0,.33-.21.08-.06.08-.06.16-.13a6,6,0,0,0,1-1.2l.1-.15.09-.14.08-.14,0,0,0,0,0-.06a2.68,2.68,0,0,1,.12-.24l0-.1,0-.09.12-.12c.08-.07.19-.18.32-.32l.21-.22.06-.06.05-.06.12-.13.12-.14.06-.07.06-.07.25-.29.06-.08.06-.08.11-.15.12-.15.11-.15.2-.28.1-.14.08-.13.27-.4.09-.15-.1.14c-.06.1-.16.23-.27.39l-.09.12-.1.13c-.06.08-.14.17-.21.27l-.23.28-.12.15-.06.07-.06.07-.26.28-.12.13-.12.13-.23.24-.11.1-.11.1-.18.18-.14.12-.13.11-.27.06-.13,0-.12,0-.49.16-.11,0-.11,0-.22.09-.1,0-.05,0-.05,0-.2.1-.18.11-.09.06-.09.06-.17.11-.08.06-.08.06-.29.24-.27.24-.12.12a1.14,1.14,0,0,0-.11.11l-.11.12-.1.11c-.07.07-.12.14-.18.21l-.15.18-.11.16A.47.47,0,0,0,130.5,89.49Zm1,.22.07,0,.08,0,.11,0,.26-.14.07,0,.08,0,.15-.09.55-.34.18-.12.07,0-.14.14c-.09.08-.21.19-.37.31l-.24.16-.14.08,0,0,0,0-.07,0A1.83,1.83,0,0,1,131.51,89.71Z"/><path class="cls-71" d="M129.8,84.73l0,.12,0,.06,0,.07-.06.17,0,0v0a.49.49,0,0,1,0,.11l0,.11a.36.36,0,0,0,0,.11,8.49,8.49,0,0,0-.3,1.09l0,.15,0,.15a2.91,2.91,0,0,0,0,.31v.15a.38.38,0,0,0,0,.15v.16s0,.1,0,.15a2.16,2.16,0,0,0,.17.6,1.84,1.84,0,0,0,.4.55l.09-.08.1-.1.12-.14.13-.18a1.64,1.64,0,0,0,.14-.22.75.75,0,0,0,.07-.12.83.83,0,0,0,.07-.13l.07-.14a.88.88,0,0,0,0-.15,1.6,1.6,0,0,0,.1-.31c0-.11.05-.23.07-.35s0,0,0-.08,0-.06,0-.1v-.37l0-.19,0-.19v-.05l0,0,0-.1a1.46,1.46,0,0,0-.07-.19,2197894251072.46,2197894251072.46,0,0,0-.08-.2,4,4,0,0,0-.23-.39.61.61,0,0,1-.07-.1l-.08-.09a1.54,1.54,0,0,0-.17-.19l0-.12,0-.14,0-.18,0-.1,0-.11a1.87,1.87,0,0,0-.07-.22l0-.12a.56.56,0,0,0,0-.12l-.09-.24a.14.14,0,0,0,0-.06l0-.06-.05-.12a2.29,2.29,0,0,0-.1-.23l-.09-.21,0-.09,0-.09-.14-.26-.06-.1.05.1c0,.06.07.16.13.27l0,.09,0,.1.09.21a.76.76,0,0,0,0,.11l0,.12,0,.12s0,0,0,.06l0,.06c0,.08.05.16.07.24s0,0,0,.06l0,.06,0,.12,0,.12v.06a.09.09,0,0,1,0,0l.05.21C129.77,84.54,129.79,84.65,129.8,84.73Zm-.3,1.78v.24c0,.14,0,.33,0,.52v.22a.13.13,0,0,1,0,.06l0,.25,0,.1v.15a2,2,0,0,1,0-.54v-.13a.57.57,0,0,0,0-.13,1.57,1.57,0,0,1,0-.23c0-.15.05-.28.07-.37A1,1,0,0,1,129.5,86.51Z"/><path class="cls-72" d="M137,79.49v0l0,.12c0,.09-.08.23-.15.4s-.13.35-.22.55l-.13.31-.15.32-.15.31c-.06.1-.11.2-.16.3l-.08.14,0,.07,0,0,0,0-.14.22-.12.19-.05.08,0,.06-.09.12A4.34,4.34,0,0,0,135,83l-.1,0-.1.06-.19.13a5.67,5.67,0,0,0-.63.53l0,0,0,0a.46.46,0,0,1-.07.07.86.86,0,0,1-.13.14l-.11.15a.76.76,0,0,0-.11.14,1.71,1.71,0,0,0-.11.14l0,.07,0,0,0,0c-.06.09-.12.18-.17.27l0,.07,0,.07s-.05.08-.07.13a.75.75,0,0,1-.07.12s0,.09,0,.12l-.11.23a366315708512.24,366315708512.24,0,0,1-.08.2c0,.12-.08.22-.11.29s0,.07,0,.08v0a1.32,1.32,0,0,0,.61.09,1.59,1.59,0,0,0,.3-.06l.14-.06.07,0,.07,0,.27-.17.13-.11.06-.06.06-.06.24-.26.05-.07.06-.08.1-.15.1-.15.09-.16.09-.16,0-.09,0,0v0a6.62,6.62,0,0,0,.26-.64l.09-.3c0-.09.05-.18.07-.27s0-.16,0-.23l0-.18.08-.13.09-.15.12-.19.13-.24,0-.06,0,0,0,0,.07-.15,0-.07,0-.08.07-.16.15-.32.26-.66,0-.07,0-.08.05-.15q0-.15.09-.27c.06-.18.1-.32.13-.42Zm-2.36,5.32,0,0,0,.05,0,.06a2.66,2.66,0,0,1-.25.36.76.76,0,0,1-.08.11l-.09.1a1.89,1.89,0,0,1-.2.2,1.7,1.7,0,0,1-.47.3l.19-.18.09-.08.05,0,0,0,0,0,.22-.23.11-.11.1-.11.19-.21.07-.08.06-.07Z"/><path class="cls-73" d="M132.22,84.57c0-.1,0-.2,0-.3v-.08s0,0,0-.08a886454614032.94,886454614032.94,0,0,1,0-.32c0-.05,0-.11-.05-.16a1,1,0,0,0,0-.16l0-.09,0,0v0a2.61,2.61,0,0,0-.41-.63l-.14-.15a.46.46,0,0,1-.07-.07l-.08-.07-.36-.27-.05-.1,0-.05,0-.07-.08-.15-.09-.17,0,0v0l0,0-.06-.09-.12-.18-.14-.18c-.18-.24-.38-.47-.53-.64l-.18-.2-.06,0,0,0,.07.08.17.2c.14.18.33.42.49.67l.13.18,0,.1,0,0,0,0,.05.09,0,0v0l0,.05.09.18c0,.06.05.11.07.16l.05.12.05.1s0,.08,0,.13,0,.11,0,.17,0,.13,0,.2,0,.14,0,.22,0,.32,0,.49v.14a.57.57,0,0,0,0,.13v.14a.57.57,0,0,1,0,.13s0,.1,0,.14v.07a.2.2,0,0,1,0,.07,2.74,2.74,0,0,0,0,.28s0,0,0,.07l0,.06s0,.09,0,.14a2.77,2.77,0,0,0,.1.26l0,.06,0,.07a.75.75,0,0,0,.07.12,2,2,0,0,0,.17.23,1.83,1.83,0,0,0,.48.38l0,0,0-.06.13-.27a.36.36,0,0,1,0-.09l0-.1a1.42,1.42,0,0,0,.07-.22l0-.13,0-.13s0-.09,0-.14,0,0,0-.07Zm-1,.55a2.19,2.19,0,0,1-.18-.46c0-.08,0-.16-.05-.23s0-.07,0-.11,0-.07,0-.1,0-.26,0-.34V83.8l0,.07,0,.08.05.22,0,.12,0,.13,0,.25v.23Z"/><path class="cls-74" d="M135.82,75.71v0c0,.09,0,.22,0,.36-.05.3-.11.69-.19,1.08s-.18.76-.26,1l-.06.19a1.55,1.55,0,0,1,0,.15l0,.12a4.22,4.22,0,0,0-1,1.24,5,5,0,0,0-.45,1.19l0,.13a.59.59,0,0,0,0,.13c0,.09,0,.17-.05.25l0,.22v.1a.28.28,0,0,0,0,.09c0,.12,0,.21,0,.28v.1a1.38,1.38,0,0,0,.29,0,1.11,1.11,0,0,0,.26-.07,1.61,1.61,0,0,0,.45-.3l.05,0,0-.06.09-.11a2.4,2.4,0,0,0,.16-.27,2.89,2.89,0,0,0,.24-.6,1120986819265.52,1120986819265.52,0,0,1,.08-.32l.06-.33,0-.32c0-.1,0-.2,0-.3a1.31,1.31,0,0,0,0-.28,1.85,1.85,0,0,0,0-.24c0-.08,0-.15,0-.21s0-.12,0-.17l0-.13,0-.15,0-.19.06-.23a2.56,2.56,0,0,1,.05-.27l.06-.28c0-.1,0-.19,0-.29.07-.4.12-.8.15-1.1S135.81,75.8,135.82,75.71Zm-.76,4.89a1.45,1.45,0,0,1,0,.16.31.31,0,0,1,0,.08.29.29,0,0,1,0,.09c0,.06,0,.13-.07.2a2.29,2.29,0,0,1-.1.23.34.34,0,0,1-.06.12l-.06.11c0,.07-.1.14-.15.21a1,1,0,0,1-.18.17l0,0,.08-.15.06-.1.06-.12c0-.07.09-.16.13-.25s.17-.34.23-.48Z"/><path class="cls-75" d="M132.35,82.06a1.36,1.36,0,0,0,.24.13l.27.08v-.1c0-.06,0-.15,0-.26s0-.06,0-.09v-.3a2,2,0,0,0,0-.23s0-.08,0-.13l0-.12a2.27,2.27,0,0,0-.51-1,2.49,2.49,0,0,0-1.22-.76l-.07-.07-.08-.09L130.9,79c-.16-.16-.38-.37-.6-.56s-.45-.37-.62-.5l-.21-.16-.08-.05.07.06.21.16c.16.14.38.33.59.54l.15.15.15.16.14.15a.71.71,0,0,1,.12.13l.1.12.08.09.07.08,0,.12,0,.14a1.16,1.16,0,0,0,0,.18c0,.06,0,.13,0,.19a7.5,7.5,0,0,0,.28.89,4.54,4.54,0,0,0,.21.45,2.39,2.39,0,0,0,.13.21l.07.09,0,0,0,0A1.54,1.54,0,0,0,132.35,82.06Zm-.18-.31a1.07,1.07,0,0,1-.14-.16,1.88,1.88,0,0,1-.12-.18l-.06-.09,0-.09-.09-.17-.06-.16a.14.14,0,0,1,0-.07l0,0a.67.67,0,0,1,0-.12l.1.16.21.37.11.2.05.1,0,.08.06.13Z"/><path class="cls-76" d="M134.35,76.76a4.58,4.58,0,0,0-.12-1.08l0-.12,0-.11-.06-.21-.06-.17a1.12,1.12,0,0,1-.05-.13v-.87a.49.49,0,0,0,0-.12v-.26a.57.57,0,0,0,0-.13c0-.35-.06-.71-.09-1s0-.24,0-.32,0-.07,0-.09v0a.34.34,0,0,0,0,.09c0,.08,0,.19,0,.32s0,.61,0,1V74c0,.16,0,.31,0,.43s0,.23,0,.31v.11a4,4,0,0,0-.38.64l-.12.31-.09.31a4,4,0,0,0-.1,1.1c0,.17,0,.32.05.46s0,.25.06.36a.93.93,0,0,1,0,.13.62.62,0,0,0,0,.1.66.66,0,0,0,0,.09,1,1,0,0,0,.44-.22A.91.91,0,0,0,134,78a1.07,1.07,0,0,0,.13-.21A2.26,2.26,0,0,0,134.35,76.76Zm-.14.08s0,.12,0,.18a2.26,2.26,0,0,1-.07.43c0,.07,0,.14-.07.21l-.11.19v-.06l0-.14,0-.1v-.11l.05-.23a2.4,2.4,0,0,0,0-.24l0-.11,0-.1,0-.21s0,0,0,.14Z"/><path class="cls-77" d="M129,75.43l.14.08.07,0,.08,0,.17.09.17.1.08,0,.08.06.09,0,.08,0,.15.1.13.1.11.08.09.06.08.06,0,.1.06.12.08.15.08.17c.13.22.28.48.46.73a2.47,2.47,0,0,0,.65.64l.2.11.22.07a1.27,1.27,0,0,0,.48,0v-.09s0-.06,0-.1l0-.13c0-.1,0-.21-.09-.34a2.27,2.27,0,0,0-.18-.4,2.32,2.32,0,0,0-.68-.77,2.2,2.2,0,0,0-.26-.15,1.39,1.39,0,0,0-.28-.12,2.42,2.42,0,0,0-.68-.12l-.08-.06-.21-.13-.3-.18-.16-.1-.09,0-.09,0-.17-.09-.17-.08-.16-.08-.14-.06-.21-.09-.06,0h0l.05,0Zm2.27,2,.13.12.06.06.07.07.15.14.14.16,0,0,0,0,.06.06.09.1,0,0h0l-.17-.11-.15-.12a3,3,0,0,1-.25-.27l-.1-.13a.86.86,0,0,0-.07-.1Z"/><path class="cls-78" d="M132.6,73.77s0-.07,0-.11,0-.08,0-.12a2,2,0,0,0,0-.23l-.06-.24a4,4,0,0,0-.35-.88.41.41,0,0,1,0-.09l-.06-.09a.86.86,0,0,0-.1-.16,2.12,2.12,0,0,0-.16-.23l0-.1,0-.12,0-.07,0-.08,0-.17,0-.1,0-.1c0-.07-.05-.14-.07-.21l-.08-.22s0-.07,0-.11l0-.11-.09-.21-.08-.2a1.42,1.42,0,0,1-.08-.18l-.13-.26,0-.1,0,.1.12.26,0,.09,0,.09.07.2a.42.42,0,0,1,0,.1l0,.11,0,.11v0l0,.06.07.21.06.21a1.94,1.94,0,0,1,.05.2l.05.17,0,.15,0,.11,0,.1a3.22,3.22,0,0,0,0,2.15l0,.1a.42.42,0,0,1,0,.1c0,.06.05.12.07.17l.07.16,0,.06,0,.07a1.18,1.18,0,0,0,.11.18l0,.07a1,1,0,0,0,.32-.29,1,1,0,0,0,.16-.38A.78.78,0,0,0,132.6,73.77Zm-.11-.07a1.44,1.44,0,0,1-.05.37V73.9c0-.06,0-.12,0-.19l0-.2c0-.08,0-.15,0-.21l0-.19s0-.1,0-.13v0a.82.82,0,0,0,0,.11,2.84,2.84,0,0,1,.06.29.84.84,0,0,1,0,.18A1.15,1.15,0,0,1,132.49,73.7Z"/><path class="cls-79" d="M128.64,73.46l.08,0,.07,0,.14,0,.06,0,0,0,.09,0,.07,0,.14.16.1.11.05,0,0,.06a5.68,5.68,0,0,0,.56.51.61.61,0,0,0,.16.12l.17.11.09,0,.09,0,.18.07a1.14,1.14,0,0,0,.81,0l0-.07a1.13,1.13,0,0,0-.08-.19l0-.06,0-.06a.8.8,0,0,0-.09-.14l-.11-.15-.06-.07a.46.46,0,0,0-.07-.07,1.87,1.87,0,0,0-1.86-.54l-.08,0-.09,0-.11,0-.14,0-.15,0-.16,0-.17,0H128l-.14,0h-.33l.19,0,.13,0,.15,0,.15,0,.08,0,.08,0,.17,0Zm1.43.9,0,0,.1.05.14.08.16.09.16.09.13.09.14.09a1.61,1.61,0,0,1-.33-.12l-.14-.09-.13-.09a1.14,1.14,0,0,1-.19-.15Z"/><path class="cls-80" d="M127.43,71.75h.15l.15.09.1.06.11.07.27.14.07,0,.07,0,.08,0,.08,0,.16.06.16,0a1.26,1.26,0,0,0,.33.05h.17l.16,0a1,1,0,0,0,.33-.17,1.5,1.5,0,0,0-.15-.19l-.19-.17-.13-.1-.07,0-.07-.05-.16-.08-.18-.06-.09,0-.1,0-.2,0a1.7,1.7,0,0,0-.44,0l-.23.08-.24.12h-.63l-.13,0h-.07l-.07,0-.13,0-.12,0-.11,0h-.08l-.07,0-.06,0,.06,0h.16l.1,0h.12l.13,0h.14l.14,0h.48Zm1,.36h0l.09,0,.13,0,.15,0,.29.08.12,0h-.14l-.15,0-.14,0-.12,0-.19-.07Z"/><path class="cls-81" d="M128,70l.07.06.08.07.06.07a.79.79,0,0,1,.12.15,1.62,1.62,0,0,1,.1.18.3.3,0,0,1,0,.1l0,.1h-.19l-.21,0a1.45,1.45,0,0,1-.26-.07l-.15,0-.08,0-.09,0-.08,0,0,0,0,0-.18-.1-.19-.12-.2-.14-.22-.17-.12-.09-.06-.05,0,0,0,0-.07,0-.08,0,0,0-.06,0-.13,0-.07,0-.08,0-.16,0-.16,0-.08,0h-.09l-.16,0h-.28l-.28,0,.28,0h.28l.16,0h.17l.16,0,.16,0,.28.06.06,0h0l.09,0,.07,0h.18a2.07,2.07,0,0,1,.25,0h.31l.16,0,.18,0h0l0,0,.08,0,.09,0,.08,0,.17.1Z"/><path class="cls-82" d="M108.16,98.07l1.37-.18,1-.14,1.15-.16c.82-.13,1.74-.28,2.74-.48.5-.1,1-.22,1.55-.35s1.09-.27,1.65-.43a36.36,36.36,0,0,0,3.47-1.17c.59-.24,1.19-.49,1.78-.77l.06,0,0,0,.11-.06.22-.1.22-.11.23-.12.44-.23.21-.11.22-.13.87-.5.21-.14.11-.07,0,0,.05,0,.21-.14.11-.07.1-.07.21-.15.21-.14.41-.3.2-.16.2-.15.19-.16.1-.08.1-.08.19-.17.1-.08.09-.08.1-.09.09-.08.19-.17.09-.09.09-.09.18-.17.18-.18.08-.09,0,0,0,0,0-.05.17-.18,0,0,0,0,.08-.1.08-.09a.39.39,0,0,0,.08-.1l.17-.19.08-.1.07-.09.16-.2.15-.2.15-.2.14-.2,0,0,0,0,.07-.11.13-.2.13-.21.07-.11.06-.1.12-.22a.53.53,0,0,0,.06-.1l.06-.11.06-.11.06-.11a13,13,0,0,0,.76-1.76l0-.06s0,0,0,0l0-.12.07-.22a.49.49,0,0,0,0-.11l0-.11.06-.23.06-.22,0-.12a.36.36,0,0,0,0-.11l0-.22A1.89,1.89,0,0,0,133,83l0-.22,0-.11v-.12l0-.22,0-.11a.41.41,0,0,0,0-.11l0-.22v-.11s0-.07,0-.11,0-.15,0-.22v-.22a1.48,1.48,0,0,1,0-.21v-.64c0-.28,0-.56,0-.83s-.06-.54-.1-.8-.09-.52-.15-.77-.05-.24-.08-.37l-.09-.35c-.07-.24-.13-.47-.2-.69s-.15-.43-.23-.64-.15-.4-.23-.59a13.68,13.68,0,0,0-1-1.9,12,12,0,0,0-.8-1.13l-.23-.28L130,72l0,0,0,0,.06.07.25.27a12.81,12.81,0,0,1,1.89,3c.05.1.09.2.13.29l.06.15.07.16c.08.2.16.42.24.64s.15.45.22.69.07.23.1.36l.09.37c.06.25.12.51.16.77s.09.53.12.81.06.56.07.85v.11s0,.07,0,.1v.44c0,.08,0,.15,0,.23v.22c0,.07,0,.15,0,.22a.49.49,0,0,0,0,.12V82l0,.22s0,.08,0,.12l0,.11,0,.23v.11l0,.12,0,.23v.05a.13.13,0,0,0,0,.06l0,.12,0,.23a.52.52,0,0,1,0,.11l0,.12,0,.23-.07.23,0,.11,0,.12-.07.23,0,.12a.17.17,0,0,1,0,0l0,.06a13.5,13.5,0,0,1-.76,1.82l-.06.11,0,.11-.06.11-.06.11-.13.22-.06.11-.07.1-.13.22-.14.21-.07.11,0,0,0,0-.15.21c0,.07-.1.14-.15.21l-.15.2-.16.2-.08.1a.39.39,0,0,1-.08.1l-.16.2-.09.1-.08.09-.08.1-.05,0,0,0-.17.18-.18.19-.18.18-.19.19-.09.09-.09.08-.19.18-.1.09-.09.08-.1.09-.1.08-.19.17-.1.08-.1.08-.2.17-.21.15-.2.16-.42.3-.21.15-.21.15-.11.07-.1.07-.22.14,0,0-.06,0-.1.07-.22.13c-.29.18-.58.35-.88.51l-.22.13-.22.11-.45.24-.23.11-.22.11-.23.1-.11.06,0,0-.06,0c-.6.28-1.2.53-1.8.76-1.2.46-2.39.83-3.52,1.14-.57.15-1.12.29-1.66.41l-1.57.31c-1,.18-1.94.31-2.76.41l-1.16.14-1,.1-1.38.13-.49,0Z"/><path class="cls-83" d="M79.48,95.2l-1-.23-.36-.08-.39-.09-.88-.21c-.62-.17-1.33-.35-2.09-.58l-.58-.17-.6-.19-.3-.1-.31-.1-.32-.11-.16,0-.16-.06L71.63,93,71,92.74l-.33-.13-.33-.14-.68-.28L69.29,92,69,91.89l-.35-.16-.34-.16-.34-.17-.35-.17-.34-.17-.34-.18c-.92-.48-1.83-1-2.71-1.58s-1.74-1.18-2.55-1.82c-.4-.32-.8-.65-1.18-1-.19-.17-.38-.33-.56-.51l-.27-.25-.27-.25-.27-.26L58.83,85l-.26-.26-.24-.26c-.33-.34-.64-.69-.93-1-.59-.69-1.12-1.36-1.57-2l-.64-.94q-.3-.45-.54-.87c-.33-.55-.6-1-.8-1.46s-.36-.75-.46-1l-.14-.35s0,.13.11.36.19.59.37,1a16.8,16.8,0,0,0,.7,1.53c.29.58.65,1.22,1.08,1.9.22.34.45.68.7,1l.39.53c.13.18.28.35.42.54.29.35.59.72.91,1.08.15.18.32.36.49.54l.26.27.26.27A27.12,27.12,0,0,0,61.23,88a30.48,30.48,0,0,0,2.59,1.87c.9.58,1.83,1.12,2.77,1.6l.35.18.36.17.35.17.35.16.35.16.36.15.34.15.36.14c.93.37,1.84.69,2.72,1s1.71.5,2.49.68l.28.07.29.06.54.12,1,.2.89.16.4.06.36,0c.46.07.83.1,1.08.13l.37,0Z"/><path class="cls-84" d="M43.83,92.32l-.31-.25-.1-.07-.05,0-.06,0-.23-.16A13.24,13.24,0,0,0,41.83,91l-.38-.2L41,90.62l-.45-.19-.24-.09-.24-.09a13.79,13.79,0,0,0-2.16-.6l-.3-.06-.3,0c-.2,0-.41-.06-.61-.09l-.32,0-.31,0-.33,0-.32,0H32.77c-.91.06-1.83.17-2.74.32l-1.36.26-.67.16-.67.17c-.44.11-.87.23-1.29.37l-.32.09-.32.1-.62.21-1.19.44-.57.23-.28.11-.28.11-1.05.47c-.34.15-.66.31-1,.46-.62.3-1.18.6-1.67.87s-.91.52-1.25.72l-.79.5-.27.18.29-.14.36-.18.48-.22c.36-.17.8-.38,1.31-.6s1.08-.48,1.71-.74l1-.39.53-.2c.17-.07.35-.14.54-.2.73-.27,1.51-.54,2.32-.79l.62-.19.31-.09.31-.09.32-.08.32-.09.32-.08.32-.08c.43-.11.87-.21,1.31-.3s.89-.18,1.33-.25a3.43,3.43,0,0,1,.34-.06l.33,0,.33,0,.34,0,.33,0,.34,0,.33,0,.33,0a25.38,25.38,0,0,1,2.6-.07c.42,0,.84,0,1.24.08q.3,0,.6.06l.29,0,.29,0,.28,0,.28.05.28,0,.13,0,.14,0,.26.06.26.06.5.14a13.46,13.46,0,0,1,1.74.61,13.24,13.24,0,0,1,1.29.62l.47.26.33.2.28.18Z"/><path class="cls-85" d="M144.35,63.47l-.12-.22-.12-.21c-.07-.14-.13-.28-.19-.41s-.11-.25-.15-.36a1,1,0,0,1-.05-.16.69.69,0,0,1-.05-.13l-.09-.27.24.38c.14.23.33.55.5.87l.25.47.11.22.1.2.15.3,0,.12a3.17,3.17,0,0,1-.34-.39A3.81,3.81,0,0,1,144.35,63.47Z"/><path class="cls-86" d="M149.73,53.17a5.14,5.14,0,0,1-.17,1,3,3,0,0,1-.17.5,2.7,2.7,0,0,1-.24.44v0a.87.87,0,0,0,0-.1l.08-.33.05-.23,0-.12,0-.13.11-.56c0-.19.07-.38.1-.56l.05-.26,0-.23.07-.48s0,.12,0,.32v.35C149.75,52.87,149.74,53,149.73,53.17Z"/><path class="cls-87" d="M145.57,45.83c0-.12,0-.27,0-.42l0-.49c0-.17,0-.34-.05-.49l0-.44c0-.12,0-.23,0-.3l0-.12s0,.1.09.27.11.39.17.66,0,.28.06.42,0,.3,0,.45a2.84,2.84,0,0,1-.13.88Z"/><path class="cls-88" d="M142.23,70.55a2.34,2.34,0,0,1,0-.26l0-.24c0-.32,0-.6-.06-.79v-.32l0,.13.05.16,0,.2.12.5.06.29.07.3.11.6,0,.07v.07l0,.14,0,.25.08.52a3.94,3.94,0,0,1-.41-1.08A5.23,5.23,0,0,1,142.23,70.55Z"/><path class="cls-89" d="M140.37,47.09l.32.18.38.22.37.22.32.2.31.2a3,3,0,0,1-.76-.28,3.79,3.79,0,0,1-.34-.2l-.3-.2c-.19-.14-.34-.27-.45-.36l-.17-.15.09,0Z"/><path class="cls-90" d="M143.26,54.59l.16.16.35.35.34.36.08.08.08.08.14.16.2.22.06.07,0,0a3.26,3.26,0,0,1-.4-.24l-.35-.3a5.86,5.86,0,0,1-.6-.64l-.22-.29-.17-.23-.14-.22.3.28Z"/><path class="cls-91" d="M140.48,39.42c-.07-.21-.17-.47-.27-.74s-.1-.27-.16-.4l-.14-.34c0-.11-.08-.19-.1-.25l0-.09.14.19c.08.13.19.31.3.51l.15.34a3.82,3.82,0,0,1,.13.36,2.33,2.33,0,0,1,.08.38,1.56,1.56,0,0,1,0,.37Z"/><path class="cls-92" d="M143.78,82.76l.25-.13.61-.33.17-.09.17-.1.36-.2c.48-.28.94-.57,1.3-.8l.42-.28.16-.1-.32.32a9.94,9.94,0,0,1-.87.73,6.51,6.51,0,0,1-.58.39l-.31.19-.08,0-.09,0-.16.08a4.2,4.2,0,0,1-1.38.41l.16-.08Z"/><path class="cls-93" d="M151.62,62.12l-.06.21c-.05.15-.1.32-.17.49s-.14.35-.22.53-.09.18-.14.27l-.15.27a3.36,3.36,0,0,1-.35.49,3.25,3.25,0,0,1-.42.41l.08-.13.2-.35.13-.24.15-.27c.1-.18.2-.38.3-.58.21-.41.4-.82.54-1.13l.23-.52a3.71,3.71,0,0,1-.08.37C151.65,62,151.63,62.05,151.62,62.12Z"/><path class="cls-94" d="M136.53,41.69l.3.07.35.08c.24.06.49.12.67.18l.3.08h-.35a2.09,2.09,0,0,1-.34,0l-.32-.08-.29-.09a3.78,3.78,0,0,1-.45-.18l-.17-.08.08,0Z"/><path class="cls-95" d="M138.7,76c0,.33,0,.78-.07,1.23l0,.34v.16c0,.06,0,.11,0,.16l-.06.59,0,.23,0,.18,0,.16a4.89,4.89,0,0,1-.11-1.26.92.92,0,0,1,0-.16v-.15c0-.1,0-.2,0-.3s0-.38.08-.55a6.07,6.07,0,0,1,.18-.85c0-.21.09-.34.09-.34V76Z"/><path class="cls-96" d="M150.73,71.65a1.19,1.19,0,0,1-.09.15c-.13.22-.33.52-.57.85l-.19.24-.22.24a5.21,5.21,0,0,1-.47.47,4,4,0,0,1-1.1.71l.44-.42.22-.2.12-.12.06-.06.06-.06.51-.52.25-.27.25-.26.43-.48.17-.2.13-.15.11-.13a.69.69,0,0,0-.05.1Z"/><path class="cls-97" d="M140.8,39.94c0-.07,0-.14,0-.21s0-.14,0-.21a3.11,3.11,0,0,0-.2-.88,4.07,4.07,0,0,0-.18-.44c-.08-.15-.15-.29-.24-.43l-.13-.21-.15-.21-.14-.2c-.05-.06-.1-.13-.16-.19a7.15,7.15,0,0,0-.64-.69,4.11,4.11,0,0,0-.31-.29l-.29-.25c-.09-.08-.18-.14-.26-.2l-.2-.15-.12-.18-.13-.21-.17-.25-.22-.31-.06-.09-.06-.08-.13-.17-.27-.37-.3-.37c-.4-.49-.84-1-1.18-1.33l-.13-.12-.11-.12-.19-.18-.17-.16.16.16.18.19.1.11.12.14.26.29q.13.15.27.33l.29.35.15.19.14.18.27.38.07.09.06.09.12.18.23.34c.08.11.14.22.2.32l.16.26a1.51,1.51,0,0,1,.12.2l.11.18a4.94,4.94,0,0,0,0,.67c0,.22,0,.43.07.63a6.92,6.92,0,0,0,.28,1.11c.06.17.12.34.19.49a1.63,1.63,0,0,0,.11.23,2.4,2.4,0,0,0,.11.23c.07.14.15.28.23.41s.16.26.24.37l.12.18.12.16.24.3c.15.18.3.34.43.47a4.52,4.52,0,0,0,.43.4,1.93,1.93,0,0,0,.45-.73A2.59,2.59,0,0,0,140.8,39.94Zm-.21-.19-.11-.33c-.07-.21-.17-.47-.27-.74s-.1-.27-.16-.4l-.14-.34c0-.11-.08-.19-.1-.25l0-.09.14.19c.08.13.19.31.3.51l.15.34a3.82,3.82,0,0,1,.13.36,2.33,2.33,0,0,1,.08.38A1.56,1.56,0,0,1,140.59,39.75Z"/><path class="cls-98" d="M141.05,82.42c-.11.16-.16.25-.16.25a3.6,3.6,0,0,0,1.46.65,3.78,3.78,0,0,0,1.57,0,3,3,0,0,0,.4-.11l.4-.14.4-.17.19-.1.2-.11a7.11,7.11,0,0,0,.77-.49l.19-.13.19-.15.36-.3a13.86,13.86,0,0,0,2.44-2.81c.08-.11.16-.23.23-.35l.21-.34c.07-.11.13-.22.19-.33l0-.07,0-.08.08-.16c.11-.2.21-.38.29-.55l.12-.24.1-.21.28-.27c.18-.18.45-.43.75-.75l.49-.52.14-.14.13-.15.27-.31.28-.32.15-.16.14-.17c.19-.22.38-.46.57-.69l.14-.18.14-.17.28-.36.27-.36c.09-.11.18-.23.26-.35l.48-.67.22-.32.2-.3c.25-.38.47-.71.61-.94l.23-.36-.24.35c-.15.22-.37.53-.64.89l-.2.29c-.08.09-.15.19-.23.3l-.5.64c-.17.22-.36.44-.55.66l-.28.34-.14.17-.15.17-.58.65-.29.31-.29.3-.55.56-.26.25-.24.24-.43.4c-.12.12-.24.22-.33.3l-.29.26-.63.13-.31.07-.3.08c-.4.11-.78.23-1.13.36l-.27.1-.26.11-.5.22-.25.12-.11.06-.12,0-.46.25c-.15.08-.29.17-.43.26l-.22.13-.2.13-.39.27-.19.14-.19.14a8,8,0,0,0-.69.56c-.23.18-.43.37-.63.56l-.28.28a3.44,3.44,0,0,0-.27.27l-.25.27-.24.26c-.15.17-.29.33-.41.49s-.25.29-.35.43-.2.26-.28.37S141.1,82.34,141.05,82.42Zm2.38.52.16-.08.19-.1.25-.13.61-.33.17-.09.17-.1.36-.2c.48-.28.94-.57,1.3-.8l.42-.28.16-.1-.32.32a9.94,9.94,0,0,1-.87.73,6.51,6.51,0,0,1-.58.39l-.31.19-.08,0-.09,0-.16.08A4.2,4.2,0,0,1,143.43,82.94Z"/><path class="cls-99" d="M139.4,71.25l0,.29,0,.14-.07.17c0,.11-.09.24-.14.39l0,.11,0,.05,0,.06-.09.24-.09.26-.09.27a19.77,19.77,0,0,0-.7,2.55c0,.12,0,.23-.07.35l0,.36a5.47,5.47,0,0,0-.08.72c0,.06,0,.12,0,.18a1.09,1.09,0,0,0,0,.18v.36c0,.12,0,.24,0,.36s0,.24,0,.36a4.72,4.72,0,0,0,.4,1.41,4.47,4.47,0,0,0,.94,1.29l.2-.2.23-.23.28-.33.32-.42q.17-.24.33-.51l.17-.28c.05-.1.1-.21.16-.31l.15-.33c0-.11.09-.22.14-.34s.16-.49.23-.74.11-.53.15-.81l0-.21c0-.07,0-.14,0-.21s0-.29,0-.43v-.22a1.55,1.55,0,0,0,0-.22c0-.15,0-.3-.05-.45s0-.31-.09-.46l0-.11,0-.12a1.55,1.55,0,0,1-.07-.23c-.05-.15-.1-.3-.17-.46l-.09-.23-.11-.23a6.59,6.59,0,0,0-.54-.91l-.16-.23-.18-.22c-.12-.15-.26-.3-.39-.45l-.07-.28c0-.09,0-.2-.07-.33l-.11-.41-.07-.24c0-.08,0-.16-.07-.25s-.1-.35-.16-.53l-.09-.28-.1-.28-.21-.57a.58.58,0,0,0-.05-.14l-.06-.14-.11-.28a5,5,0,0,0-.23-.53c-.07-.17-.15-.33-.22-.48s-.07-.15-.1-.23l-.11-.2c-.13-.27-.24-.48-.32-.63l-.13-.23.12.24.28.64a2.2,2.2,0,0,1,.09.21l.09.22.2.5.09.26.1.27.1.28s0,.1,0,.15l0,.14c.06.19.12.38.17.58a.57.57,0,0,1,0,.14l0,.14.07.28.07.28,0,.13,0,.13.1.49C139.33,70.82,139.37,71.07,139.4,71.25Zm-.69,4.18V76c0,.33,0,.78-.07,1.23l0,.34v.16c0,.06,0,.11,0,.16l-.06.59,0,.23,0,.18,0,.16a4.89,4.89,0,0,1-.11-1.26.92.92,0,0,1,0-.16v-.15c0-.1,0-.2,0-.3s0-.38.08-.55a6.07,6.07,0,0,1,.18-.85C138.67,75.56,138.71,75.43,138.71,75.43Z"/><path class="cls-100" d="M156.37,59l0-.1,0,.1-.09.26c-.09.23-.2.55-.35.94s-.32.83-.52,1.31c-.1.23-.2.48-.31.72s-.23.5-.35.74l-.36.74q-.18.36-.36.69l-.19.33-.08.16,0,.08a.43.43,0,0,1,0,.07l-.33.53-.28.43-.11.18-.11.16-.19.28a10.8,10.8,0,0,0-1,.53l-.24.13-.23.15-.44.29a12.6,12.6,0,0,0-1.49,1.25l-.08.09-.08.08-.16.16-.29.33-.28.33-.26.34-.24.33-.11.16-.06.08,0,.09c-.15.21-.28.43-.41.64l-.09.16-.09.15c-.05.11-.11.21-.16.31a2.7,2.7,0,0,0-.15.29l-.14.29c-.09.18-.17.36-.25.53l-.1.24-.09.23a6.23,6.23,0,0,0-.25.69c0,.08,0,.14-.06.19l0,.06a3.17,3.17,0,0,0,1.44.2,3.38,3.38,0,0,0,.69-.14l.34-.13.16-.07.17-.09a5.75,5.75,0,0,0,.63-.42,3.31,3.31,0,0,0,.3-.25.93.93,0,0,0,.15-.13l.14-.14c.19-.2.38-.4.56-.62l.13-.17.12-.17.24-.35.24-.37.21-.37c.06-.13.13-.26.2-.38l.09-.19,0-.1a1,1,0,0,0,0-.1,15.26,15.26,0,0,0,.6-1.51c.07-.24.15-.47.21-.7s.12-.43.16-.63.09-.37.12-.54.06-.3.08-.43l.19-.3.21-.35.27-.46.31-.54.08-.15,0-.08A.56.56,0,0,1,154,65l.17-.35.09-.18.08-.18.18-.37c.11-.25.22-.51.34-.77.22-.51.43-1,.61-1.52l.07-.19.06-.18.13-.35.22-.64c.14-.41.24-.74.31-1Zm-5.53,12.47a.69.69,0,0,0-.05.1l-.06.11a1.19,1.19,0,0,1-.09.15c-.13.22-.33.52-.57.85l-.19.24-.22.24a5.21,5.21,0,0,1-.47.47,4,4,0,0,1-1.1.71l.44-.42.22-.2.12-.12.06-.06.06-.06.51-.52.25-.27.25-.26.43-.48.17-.2.13-.15Z"/><path class="cls-101" d="M145.09,70.88a5.4,5.4,0,0,0,0-.7V70a1.09,1.09,0,0,0,0-.18c0-.12,0-.25,0-.37s0-.26-.07-.38-.06-.26-.1-.39l-.12-.38-.07-.19,0-.1,0-.09a6,6,0,0,0-1-1.48,3.61,3.61,0,0,0-.33-.35l-.17-.17-.19-.17a6.88,6.88,0,0,0-.85-.62l-.12-.25-.06-.12-.08-.15-.19-.36-.23-.41,0,0,0-.05-.07-.1-.13-.2-.3-.43-.32-.43c-.43-.56-.89-1.1-1.25-1.49-.17-.2-.33-.36-.43-.47l-.12-.13,0,0,.16.18c.1.11.24.28.4.49a19,19,0,0,1,1.15,1.55c.1.14.2.29.29.44l.14.21.06.11.07.11.12.21,0,0,0,.06.05.11.21.42.17.37.12.28.11.25c0,.08,0,.19,0,.3s0,.25,0,.39,0,.3,0,.47,0,.33,0,.51c0,.37,0,.76,0,1.17v.31c0,.11,0,.21,0,.32s0,.21,0,.32,0,.21,0,.32a1.66,1.66,0,0,0,0,.32,1,1,0,0,0,0,.17.88.88,0,0,0,0,.16,4.9,4.9,0,0,0,.11.65,1.24,1.24,0,0,0,0,.16l0,.16.09.31a4.67,4.67,0,0,0,.24.62l.07.15a.91.91,0,0,0,.07.14,2.69,2.69,0,0,0,.16.29,4.19,4.19,0,0,0,.4.54,4,4,0,0,0,1.14.89l0-.06a.91.91,0,0,0,.1-.16,5.24,5.24,0,0,0,.3-.62l.09-.21c0-.08.06-.15.09-.24s.11-.33.16-.52a2.46,2.46,0,0,0,.07-.29l.06-.31c0-.1,0-.21.05-.32s0-.11,0-.17S145.09,70.94,145.09,70.88Zm-2.33,1.29a3.94,3.94,0,0,1-.41-1.08,5.23,5.23,0,0,1-.12-.54,2.34,2.34,0,0,1,0-.26l0-.24c0-.32,0-.6-.06-.79v-.32l0,.13.05.16,0,.2.12.5.06.29.07.3.11.6,0,.07v.07l0,.14,0,.25Z"/><path class="cls-102" d="M153.54,50.08l0-.33,0,.32c0,.21-.06.5-.11.85-.1.7-.26,1.62-.45,2.52s-.42,1.78-.61,2.43l-.13.45c0,.13-.07.24-.1.34L152,57a10.25,10.25,0,0,0-2.33,2.9,11.84,11.84,0,0,0-1,2.78c0,.11,0,.22-.07.32s-.05.21-.07.31-.07.39-.1.57,0,.36-.07.52l0,.12v.12c0,.07,0,.15,0,.21,0,.28,0,.5,0,.66v.24a3.79,3.79,0,0,0,.68,0,3.22,3.22,0,0,0,.61-.16,3.49,3.49,0,0,0,1.06-.7l.12-.12a.69.69,0,0,1,.11-.13l.21-.28a6.41,6.41,0,0,0,.38-.62,7.36,7.36,0,0,0,.56-1.42c0-.13.07-.25.1-.38a2.34,2.34,0,0,0,.09-.38c.05-.25.1-.5.13-.76s.06-.5.08-.74,0-.48,0-.71v-.65c0-.21,0-.4,0-.58s0-.34,0-.49a3.63,3.63,0,0,0,0-.39l.08-.3.1-.36.11-.45c0-.17.08-.36.12-.55s.09-.4.14-.61l.13-.67.12-.69c.16-.92.28-1.87.35-2.58C153.49,50.59,153.52,50.29,153.54,50.08Zm-1.8,11.49a3.71,3.71,0,0,1-.08.37c0,.05,0,.11,0,.18l-.06.21c-.05.15-.1.32-.17.49s-.14.35-.22.53-.09.18-.14.27l-.15.27a3.36,3.36,0,0,1-.35.49,3.25,3.25,0,0,1-.42.41l.08-.13.2-.35.13-.24.15-.27c.1-.18.2-.38.3-.58.21-.41.4-.82.54-1.13Z"/><path class="cls-103" d="M145.39,65a3.29,3.29,0,0,0,.56.29,4,4,0,0,0,.64.19l0-.06,0-.07,0-.09c0-.15.07-.36.1-.62l0-.2v-.23c0-.15,0-.31,0-.49s0-.35,0-.54,0-.19,0-.29l-.06-.3a5.4,5.4,0,0,0-1.2-2.42,5.75,5.75,0,0,0-2.86-1.76l-.17-.18-.19-.2-.25-.26c-.38-.38-.88-.87-1.41-1.32s-1.06-.88-1.46-1.18l-.49-.36-.19-.13.18.14.47.38c.39.33.9.78,1.39,1.26l.37.37.35.36.32.35.29.31.24.28.18.21.15.19.05.27c0,.11,0,.23.07.35l.09.41c0,.15.07.3.11.46a16.9,16.9,0,0,0,.65,2.08,7.6,7.6,0,0,0,.49,1c.09.17.2.34.3.5l.17.23.09.11.1.12A3.59,3.59,0,0,0,145.39,65Zm-.41-.73a3.17,3.17,0,0,1-.34-.39,3.81,3.81,0,0,1-.29-.41l-.12-.22-.12-.21c-.07-.14-.13-.28-.19-.41s-.11-.25-.15-.36a1,1,0,0,1-.05-.16.69.69,0,0,1-.05-.13l-.09-.27.24.38c.14.23.33.55.5.87l.25.47.11.22.1.2.15.3Z"/><path class="cls-104" d="M150.09,52.55a10.2,10.2,0,0,0-.3-2.53l-.06-.28c0-.09,0-.18-.08-.26s-.09-.33-.14-.48-.09-.28-.14-.4l-.11-.32v-2a2.71,2.71,0,0,1,0-.29v-.3l0-.3c0-.1,0-.21,0-.31,0-.82-.14-1.65-.22-2.28,0-.32-.08-.58-.11-.77s0-.16,0-.21l0-.08v.08a2.06,2.06,0,0,1,0,.21c0,.18,0,.44.07.75,0,.62.11,1.44.12,2.25,0,.1,0,.2,0,.3v.88c0,.37,0,.72,0,1s0,.54,0,.71l0,.27a8.65,8.65,0,0,0-.87,1.5,7.54,7.54,0,0,0-.29.74c-.08.24-.15.48-.21.71a9.29,9.29,0,0,0-.24,2.59,10.5,10.5,0,0,0,.11,1.06c.05.33.11.61.16.85s.05.22.08.32,0,.17.07.24a1.3,1.3,0,0,0,.06.2,2.57,2.57,0,0,0,1-.52,2.46,2.46,0,0,0,.39-.4,3.94,3.94,0,0,0,.31-.48A5.42,5.42,0,0,0,150.09,52.55Zm-.34.19c0,.13,0,.28,0,.43a5.14,5.14,0,0,1-.17,1,3,3,0,0,1-.17.5,2.7,2.7,0,0,1-.24.44v0a.87.87,0,0,0,0-.1l.08-.33.05-.23,0-.12,0-.13.11-.56c0-.19.07-.38.1-.56l.05-.26,0-.23.07-.48s0,.12,0,.32Z"/><path class="cls-105" d="M137.49,49.44l.32.17.18.09.18.11.38.21.4.24.2.12.19.12.2.13.19.12.35.24.32.22.26.19.2.15.18.13.11.24.14.29.17.35.2.38a14.2,14.2,0,0,0,1.08,1.73,6,6,0,0,0,1.53,1.49,2.77,2.77,0,0,0,1,.43,3.09,3.09,0,0,0,1.15.07s0-.07,0-.2,0-.15,0-.24,0-.2-.05-.31a7,7,0,0,0-.22-.79,5.45,5.45,0,0,0-2-2.75,4.87,4.87,0,0,0-.59-.36,5.86,5.86,0,0,0-.67-.28,6,6,0,0,0-1.6-.29l-.18-.12-.49-.31-.7-.43-.39-.22-.2-.11-.21-.11-.41-.22-.39-.19-.37-.17-.34-.15L137,49.2l-.14-.06-.05,0,0,0,.14.07Zm5.32,4.73.3.28.15.14.16.16.35.35.34.36.08.08.08.08.14.16.2.22.06.07,0,0a3.26,3.26,0,0,1-.4-.24l-.35-.3a5.86,5.86,0,0,1-.6-.64l-.22-.29-.17-.23Z"/><path class="cls-106" d="M146,45.54a2.17,2.17,0,0,0,0-.26,2.44,2.44,0,0,0,0-.27,5.62,5.62,0,0,0-.06-.56,5.41,5.41,0,0,0-.12-.55,9.15,9.15,0,0,0-.84-2.07l-.12-.22-.12-.2-.23-.38-.39-.55-.06-.23L144,40l0-.16-.06-.19-.12-.41c0-.07,0-.15-.07-.23l-.07-.23c-.06-.16-.11-.33-.17-.5l-.18-.51c0-.09-.07-.18-.1-.26l-.1-.26c-.07-.17-.13-.33-.2-.49l-.2-.47-.19-.42-.3-.62-.12-.24.11.24c.06.15.16.37.27.62a1.67,1.67,0,0,0,.08.2l.08.22.18.46.09.25.09.25.08.25.05.13,0,.13.16.51c.05.16.09.33.14.49l.12.46.1.41.09.34.05.27.05.23a7.6,7.6,0,0,0-.06,5c0,.08,0,.16.08.24a2,2,0,0,1,.08.22l.17.41c.06.13.12.25.17.37a1.19,1.19,0,0,1,.08.16l.08.14c.1.19.19.34.25.44l.11.15a2.29,2.29,0,0,0,.74-.67,2.57,2.57,0,0,0,.38-.9A2.73,2.73,0,0,0,146,45.54Zm-.26-.17a2.84,2.84,0,0,1-.13.88l0-.42c0-.12,0-.27,0-.42l0-.49c0-.17,0-.34-.05-.49l0-.44c0-.12,0-.23,0-.3l0-.12s0,.1.09.27.11.39.17.66,0,.28.06.42S145.72,45.22,145.72,45.37Z"/><path class="cls-107" d="M136.69,44.8l.18.06.17,0,.32.11.14,0,.12,0,.2.08.18.06.33.39.22.24.13.14.13.14a12.7,12.7,0,0,0,1.29,1.19,3.37,3.37,0,0,0,.38.28c.13.09.26.18.4.26l.21.11.21.1a3.2,3.2,0,0,0,.43.17,3.16,3.16,0,0,0,.92.14,2.7,2.7,0,0,0,1-.21l-.06-.17a4.63,4.63,0,0,0-.2-.44c0-.05-.05-.09-.07-.14l-.09-.15c-.06-.11-.13-.22-.2-.33l-.26-.34-.15-.18-.16-.17A4.45,4.45,0,0,0,138.06,45l-.18-.05-.2-.07-.28-.08-.31-.09-.36-.08c-.12,0-.25-.07-.38-.09l-.38-.08-.1,0-.1,0-.19,0-.19,0-.18,0-.34,0-.16,0h-.15l-.45,0h-.17l.17,0,.45.06.3,0,.34.06.36.08.19,0,.19,0,.38.1Zm3.36,2.12.09,0,.23.13.32.18.38.22.37.22.32.2.31.2a3,3,0,0,1-.76-.28,3.79,3.79,0,0,1-.34-.2l-.3-.2c-.19-.14-.34-.27-.45-.36Z"/><path class="cls-108" d="M133.85,40.81h.34l.35.22.24.14.27.15.62.33.17.08.17.08.18.07.18.08.38.13.38.11a3.4,3.4,0,0,0,.78.1h.2l.19,0a1.8,1.8,0,0,0,.39-.08,2.28,2.28,0,0,0,.75-.4,4.57,4.57,0,0,0-.35-.44c-.12-.12-.27-.27-.44-.42l-.29-.21-.16-.11-.18-.1a3.2,3.2,0,0,0-.37-.19,4.09,4.09,0,0,0-.42-.16l-.21-.06-.23,0-.48,0a3.78,3.78,0,0,0-1,.12,3.86,3.86,0,0,0-.54.19,4.86,4.86,0,0,0-.55.29h-.85l-.3,0-.16,0h-.16l-.33,0-.16,0-.16,0-.31.06-.28.07-.24.06-.11,0-.1,0-.16.05-.13,0,.13,0,.16,0,.1,0,.11,0,.25-.05.14,0,.14,0,.31,0h.32l.33,0h1.13Zm2.38.82.08,0,.22,0,.3.07.35.08c.24.06.49.12.67.18l.3.08h-.35a2.09,2.09,0,0,1-.34,0l-.32-.08-.29-.09a3.78,3.78,0,0,1-.45-.18Z"/><path class="cls-109" d="M135.23,36.67l.17.14.17.15.16.17a3.27,3.27,0,0,1,.28.37,2.38,2.38,0,0,1,.23.41,1.09,1.09,0,0,1,.09.23,1.55,1.55,0,0,1,.08.23.36.36,0,0,1-.12,0H136l-.49-.07c-.19,0-.4-.09-.63-.16l-.36-.12-.18-.08-.2-.08-.2-.09-.1,0-.1-.05-.43-.24-.45-.28-.47-.34q-.26-.18-.51-.39l-.27-.22-.14-.11-.07-.07-.07,0-.17-.06-.2-.06-.12,0-.14,0-.31-.08-.16,0-.18,0-.37-.09-.38-.08-.2,0-.19,0-.38-.06h-.09l-.09,0-.17,0-.31,0-.66-.06.65,0,.32,0,.17,0,.18,0,.38,0,.19,0,.2,0,.38.06.38.07c.24,0,.46.1.65.15l.14,0,.12,0,.2.06.18,0,.18,0,.22,0a5.34,5.34,0,0,1,.59,0l.35,0h.19l.19,0a2.7,2.7,0,0,1,.39.08,3.11,3.11,0,0,1,.41.11l.1,0,.11,0,.2.08.2.09a1.24,1.24,0,0,1,.2.1c.14.07.26.15.39.23Z"/><path class="cls-110" d="M88.62,102.57l3.22-.43,2.29-.32,2.7-.4c1.93-.29,4.1-.64,6.44-1.12,1.17-.23,2.39-.5,3.64-.81s2.55-.63,3.87-1c2.63-.75,5.37-1.66,8.15-2.76,1.39-.55,2.78-1.14,4.17-1.8l.13-.06.13-.06.26-.13.52-.25.52-.26.52-.26c.34-.18.69-.35,1-.54l.51-.28.51-.28c.69-.38,1.36-.79,2-1.2l.5-.31.25-.16.13-.08.12-.08.49-.32.25-.17.25-.16.49-.34.48-.34,1-.7.47-.36.47-.37.46-.37.23-.19.23-.19.45-.39.22-.19.23-.2.22-.2.22-.19.43-.41.22-.2.21-.21.43-.41.41-.42.21-.22.05,0,0-.05.1-.11.4-.43.1-.11.1-.11.2-.22.19-.22.19-.23.38-.45.19-.22.18-.23.37-.46c.11-.16.23-.32.35-.47l.34-.47.34-.48.08-.12a.83.83,0,0,0,.08-.12l.17-.24.31-.48.31-.5.15-.24.15-.25.29-.5.14-.25.14-.25.13-.25c0-.09.1-.17.14-.26a31.87,31.87,0,0,0,1.78-4.14l0-.13a.69.69,0,0,0,.05-.13l.08-.26.17-.53c0-.09.06-.18.08-.26l.08-.27.15-.53.13-.52.06-.27a2.5,2.5,0,0,0,.07-.26l.11-.53c0-.17.08-.35.11-.52l.1-.53.05-.26v-.13l0-.13.08-.53,0-.26,0-.26.06-.52,0-.25c0-.09,0-.18,0-.26s0-.34,0-.51l0-.26v-.25c0-.17,0-.34,0-.51v-1a2.18,2.18,0,0,0,0-.25v-.24q0-1-.12-2c-.06-.64-.14-1.27-.24-1.88s-.21-1.21-.33-1.79c-.07-.3-.13-.58-.2-.87s-.14-.56-.21-.84c-.15-.55-.31-1.08-.48-1.6s-.34-1-.52-1.5-.36-1-.55-1.4a31.78,31.78,0,0,0-2.32-4.46,25.93,25.93,0,0,0-1.88-2.65c-.23-.3-.42-.51-.54-.66l-.15-.17-.05,0,.06,0,.15.16.57.64a25.87,25.87,0,0,1,2,2.59A31.77,31.77,0,0,1,145,49.18l.3.69.15.35.15.36c.19.48.39,1,.56,1.5s.36,1.06.52,1.61l.24.85c.08.29.14.58.22.87.13.59.26,1.19.37,1.81s.21,1.26.28,1.91.13,1.31.16,2v1.53c0,.18,0,.35,0,.52v.27l0,.26c0,.17,0,.35,0,.52a2.45,2.45,0,0,0,0,.27l0,.26-.06.53,0,.27,0,.26-.08.54,0,.13v.14l0,.26-.1.54,0,.14,0,.13-.05.27-.11.54-.06.27-.07.27-.13.54-.14.55-.08.27c0,.09-.05.18-.07.27l-.17.54-.09.27a.65.65,0,0,1,0,.13l-.05.14A32,32,0,0,1,144.6,76l-.14.26-.14.26-.14.26c0,.09-.09.17-.14.26l-.29.51-.15.26-.15.25-.31.5-.33.5-.16.25a.57.57,0,0,0-.08.13l-.09.12-.34.49-.35.48-.36.48-.37.47-.19.24-.19.23-.38.46-.2.23-.2.23-.2.23-.1.11-.1.11-.41.44-.42.44-.42.43-.43.43-.22.21-.22.21-.44.41-.23.2-.22.2-.23.2-.23.2-.46.39-.23.2-.24.19-.47.38-.48.37c-.15.12-.31.25-.48.37s-.64.48-1,.71l-.49.35-.5.34-.25.17-.25.16-.5.33-.13.08-.13.08-.25.16-.51.32c-.68.41-1.37.82-2.06,1.2l-.52.29-.53.28c-.34.19-.7.36-1,.54l-.53.26-.53.26-.53.25-.26.13-.13.06-.13.06c-1.41.65-2.83,1.24-4.23,1.78a83,83,0,0,1-8.26,2.67q-2,.54-3.9,1c-1.27.28-2.5.52-3.68.74-2.37.42-4.55.72-6.48,1l-2.72.32-2.3.24-3.24.32-1.14.1Z"/><path class="cls-111" d="M92.63,95.2,93.68,95l.36-.08.39-.09.88-.21c.62-.17,1.32-.35,2.08-.58l.59-.17.6-.19.3-.1.31-.1.32-.11.16,0,.16-.06.64-.24.66-.25.34-.13.33-.14.68-.28.34-.15.34-.15.34-.16.35-.16.34-.17.34-.17.35-.17.34-.18c.92-.48,1.83-1,2.71-1.58s1.73-1.18,2.54-1.82c.41-.32.8-.65,1.19-1,.19-.17.38-.33.56-.51l.27-.25.27-.25.26-.26.26-.26.25-.26a3.07,3.07,0,0,0,.25-.26c.33-.34.64-.69.93-1,.59-.69,1.11-1.36,1.57-2l.64-.94q.3-.45.54-.87c.33-.55.6-1,.8-1.46s.36-.75.45-1,.14-.35.14-.35,0,.13-.1.36-.19.59-.37,1a16.8,16.8,0,0,1-.7,1.53,19.86,19.86,0,0,1-1.09,1.9c-.21.34-.44.68-.69,1l-.39.53c-.14.18-.28.35-.42.54-.29.35-.59.72-.91,1.08l-.49.54-.26.27-.26.27a27.28,27.28,0,0,1-2.3,2.08,30.31,30.31,0,0,1-2.58,1.87c-.91.58-1.83,1.12-2.77,1.6l-.35.18-.36.17-.35.17-.35.16-.35.16-.36.15-.35.15-.35.14c-.93.37-1.84.69-2.72,1s-1.71.5-2.49.68l-.29.07-.28.06-.55.12c-.35.08-.69.14-1,.2l-.89.16-.4.06-.37,0c-.46.07-.82.1-1.07.13l-.38,0Z"/><path class="cls-112" d="M128,93.16l.33-.25.1-.08.05,0,0,0,.25-.17a13.85,13.85,0,0,1,1.28-.77l.41-.21.43-.2.46-.19.24-.1.25-.09a16.11,16.11,0,0,1,2.24-.62l.31-.06.31,0,.63-.1.33,0,.32,0,.34,0,.33,0h2.77c.94.06,1.89.18,2.83.33.47.08.94.18,1.41.28l.69.15.69.18c.45.12.9.24,1.34.38l.33.1.32.1.64.22,1.23.45.6.24.29.11.28.12,1.09.48,1,.48c.64.31,1.22.61,1.72.89s.94.54,1.3.75l.81.52.28.18-.3-.15-.37-.17-.5-.24-1.35-.62L152,94.09l-1-.41-.54-.2-.56-.21q-1.14-.42-2.4-.81l-.64-.19-.32-.1-.32-.09L145.9,92l-.33-.09-.33-.09-.34-.08-1.35-.31-1.37-.26-.35-.06-.35,0-.34,0-.35,0-.34,0-.35,0-.34,0-.34,0a24.48,24.48,0,0,0-2.69-.07c-.43,0-.86,0-1.28.07l-.62.07-.3,0-.3,0-.29,0-.29,0-.28.06-.14,0-.14,0-.28.06-.26.06-.52.14a15.54,15.54,0,0,0-1.8.63c-.53.23-1,.45-1.33.64l-.48.27-.35.21-.29.18Z"/><text class="cls-113" transform="translate(37.48 70.92)">ehn</text></svg>