<?xml version="1.0" encoding="utf-8"?>
<!-- Generator: Adobe Illustrator 26.1.0, SVG Export Plug-In . SVG Version: 6.00 Build 0)  -->
<svg version="1.1" id="Layer_1" xmlns="http://www.w3.org/2000/svg" xmlns:xlink="http://www.w3.org/1999/xlink" x="0px" y="0px"
	 viewBox="0 0 167 128" style="enable-background:new 0 0 167 128;" xml:space="preserve">
<style type="text/css">
	.st0{fill:#BC9632;}
	.st1{fill:#EC1C24;}
	.st2{fill:#231F20;}
	.st3{fill:#FFFFFF;}
	.st4{fill:#125199;}
	.st5{fill:#F9F7F4;}
	.st6{fill:#0F173E;}
	.st7{fill:#73CDE0;}
	.st8{fill:#0B66B0;}
	.st9{fill:#EC4258;}
	.st10{fill:#DEA731;}
	.st11{fill:#D56840;}
	.st12{fill:#51C1DC;}
	.st13{fill:#E9445B;}
	.st14{fill:#FACD95;}
	.st15{fill:#E9A362;}
	.st16{fill:#F1BE55;}
	.st17{fill:#30251F;}
	.st18{fill:#DE9C34;}
	.st19{fill:#9A3529;}
	.st20{fill:#1D1465;}
	.st21{fill:#DC2526;}
	.st22{fill:url(#SVGID_1_);}
	.st23{fill:url(#SVGID_00000139981547390185478890000016082223709176272266_);}
	.st24{fill:#E20613;}
	.st25{fill:#39A940;}
	.st26{filter:url(#Adobe_OpacityMaskFilter);}
	.st27{enable-background:new    ;}
	.st28{clip-path:url(#SVGID_00000183946308863940740220000016116415292564700343_);fill:#1D1D1B;}
	.st29{mask:url(#SVGID_00000035528844042401611970000014862263791032617394_);}
	.st30{clip-path:url(#SVGID_00000023992151846425320830000001654155090967519893_);}
	
		.st31{clip-path:url(#SVGID_00000155120756573671429000000001787192286788760767_);fill-rule:evenodd;clip-rule:evenodd;fill:#26ABE1;}
	.st32{clip-path:url(#SVGID_00000155120756573671429000000001787192286788760767_);fill:#26ABE1;}
</style>
<path class="st1" d="M44.12,80.34c-0.14,0.96-0.75,1.73-1.5,2.39c-0.39,0.34-0.79,0.02-1.14-0.26c-1.13-0.87-1.12-0.85-1.94,0.2
	c-0.31,0.39-0.51,1.1-1.13,0.92c-0.76-0.21-1.35-0.8-1.81-1.45c-0.16-0.23-0.04-0.51,0.08-0.75c0.17-0.32,0.34-0.63,0.53-0.95
	c1.04-1.75,1.05-1.76,2.73-0.58c0.4,0.28,0.68,0.34,0.93-0.15c0.1-0.2,0.25-0.39,0.4-0.56c0.35-0.37,0.43-1.13,1.23-0.86
	C43.28,78.57,44.13,79.62,44.12,80.34z"/>
<path class="st1" d="M55.99,86.21c-0.35,0.83-0.87,1.85-1.54,2.77c-0.2,0.28-0.54,0-0.78-0.17c-0.91-0.64-1.81-1.31-2.75-1.92
	c-0.41-0.27-0.4-0.53-0.22-0.9c0.39-0.8,0.77-1.6,1.16-2.39c0.2-0.4,0.49-0.66,0.94-0.35c0.98,0.66,1.95,1.33,2.92,2.02
	C55.93,85.43,56.07,85.67,55.99,86.21z"/>
<path class="st1" d="M82.56,83.88l-0.09,0.03l-0.1-0.02C82.43,83.79,82.5,83.79,82.56,83.88z"/>
<path class="st1" d="M143.26,91.29c-0.23-0.24-0.49,0.02-0.72,0.1c-0.4,0.15-0.8,0.31-1.19,0.48c-2.84,1.23-5.6,2.64-8.51,3.7
	c-5.39,1.98-11.9-1.41-13.48-6.95c-0.16-0.54-0.04-0.86,0.34-1.2c0.88-0.79,1.91-1.29,3.06-1.53c1.93-0.41,3.86-0.82,5.8-1.19
	c3.99-0.76,7.05-2.81,8.99-6.43c0.22-0.42,0.62-1.01,0.13-1.34c-0.55-0.37-1,0.24-1.29,0.62c-1.32,1.71-3.18,2.38-5.17,2.81
	c-2.35,0.51-4.77,0.63-7.07,1.36c-3.07,0.97-5.41,2.72-6.33,5.94c-1.22,4.24,0.42,8.36,4.33,10.92c0.33,0.22,0.67,0.45,1.18,0.79
	c-2.72,0.75-5.21,1.5-7.72,2.12c-4.81,1.19-9.7,1.89-14.63,2.27c-1.28,0.5-2.63,0.27-3.95,0.31c-0.78,0-1.57,0-2.35,0
	c-2.4,0-4.8,0-7.2,0.01c-0.53,0-1.03-0.15-1.52-0.33c-2.34-0.35-4.69-0.68-7.03-1.07c-4.34-0.71-7.49-3.06-9.48-6.96
	c-0.1-0.2-0.21-0.41-0.32-0.61c-0.22-0.42-0.58-0.46-0.7-0.02c-0.45,1.64-1.4,3.26-0.49,5.03c1.16,2.26,2.05,4.62,2.52,7.13
	c0.17,0.89,0.02,1.54-0.63,2.22c-3.28,3.43-7.27,5.86-11.4,8.08c-1.48,0.8-3.09,1.31-4.73,1.68c-3,0.68-5.15-0.09-6.69-2.33
	c-0.39-0.57-0.43-0.9,0.23-1.31c1.7-1.08,3.35-2.23,4.88-3.54c1.89-1.61,2.94-3.68,3.34-6.1c0.33-1.96,0.33-3.94,0.36-5.91
	c0.01-0.52,0.03-0.85,0.74-0.76c1.41,0.18,2.56-0.38,3.49-1.45c1.82-2.12,2.2-4.65,2.05-7.31c-0.08-1.42-0.51-2.78-1.21-4.03
	c-0.1-0.19-0.29-0.44-0.46-0.46c-0.28-0.04-0.31,0.3-0.37,0.5c-0.61,1.9-1.41,3.82,0.08,5.7c0.13,0.17,0.18,0.42,0.25,0.64
	c0.09,0.3,0.04,0.56-0.19,0.81c-1.16,1.23-5.34,1.59-6.18-0.83c-0.14-0.4-0.37-0.77-0.6-1.13c-0.2-0.31-0.47-0.43-0.62,0.04
	c-0.56,1.77-1.34,3.47-0.32,5.4c1.1,2.07,1.69,4.34,1.91,6.7c0.06,0.63-0.02,1.14-0.4,1.65c-1.78,2.41-4.2,4.07-6.62,5.72
	c-0.49,0.33-0.95,0.75-1.65,0.91c0.31-2.28,0.73-4.43,1.3-6.56c0.47-1.8,0.74-3.6,0.34-5.46c-0.43-1.99-1.5-3.64-2.76-5.18
	c-0.44-0.55-0.51-0.98-0.07-1.57c0.7-0.96,1.31-1.97,1.96-2.96c1.67-2.54,2.78-5.3,3.18-8.32c0.09-0.67,0.35-1.58-0.44-1.97
	c-0.75-0.38-1.32,0.32-1.9,0.74c-2.14,1.57-3.52,3.8-5.12,5.84c-0.79,1.17-1.57,2.34-2.43,3.62c-0.47-0.57-0.87-1.05-1.29-1.57
	c0.73-0.32,1.44-0.17,2.24-0.36c-0.95-1.08-2.16-1.62-3.12-2.48c-0.57-0.32-1.16-0.6-1.71-0.97c-0.75-0.51-1.07-0.36-1.09,0.56
	c-0.01,0.45-0.12,0.91-0.24,1.35c-0.32,1.18-0.06,2.17,0.79,3.07c0.65,0.69,1.13,1.53,1.76,2.25c0.54,0.62,0.49,1.05-0.08,1.65
	c-1.53,1.64-3.42,2.87-4.99,4.46c0.02,0.34,0.02,0.71,0.53,0.67c2.54-0.87,4.45-2.57,6.12-4.67c0.37,0.39,0.65,0.77,1.01,1.05
	c0.69,0.54,0.63,1.07,0.21,1.77c-0.79,1.33-1.51,2.7-2.23,4.07c-1.32,2.51-1.61,5.19-1.22,7.96c0.22,1.54,1.25,2.37,2.81,2.3
	c1.36-0.06,2.54-0.63,3.66-1.35c0.79-0.5,1.55-1.04,2.46-1.67c-0.22,1.19-0.48,2.18-0.57,3.19c-0.09,1.05-0.65,1.58-1.52,2.08
	c-3.14,1.83-6.48,3.21-9.8,4.66c-3.92,1.71-7.84,3.41-11.76,5.12c-0.19,0.09-0.55,0.15-0.49,0.36c0.07,0.27,0.35,0.17,0.63,0.12
	c3.68-0.55,7.28-1.47,10.9-2.27c3.76-0.83,7.58-1.52,10.8-3.82c0.89-0.64,1.12-0.35,1.4,0.54c0.58,1.88,1.42,3.61,3.21,4.7
	c2.16,1.31,4.42,1.07,6.69,0.48c3.64-0.96,6.69-3.05,9.71-5.18c2.52-1.78,4.76-3.86,6.42-6.5c0.58-0.92,1.09-1.88,1.09-3.02
	c0-0.82-0.02-1.65-0.01-2.47c0-0.28-0.1-0.62,0.31-0.74c0.1-0.24-0.03-0.75,0.55-0.43c0.37,0.21,0.79,0.34,1.17,0.52
	c3.75,1.78,7.72,2.57,11.85,2.66c4.01,0,8.02,0,12.03,0c0.33,0,0.66,0.01,0.99-0.01c7.4-0.5,14.63-1.86,21.64-4.27
	c6.3-2.16,12.28-5.08,18.41-7.67c2.2-0.93,3.21-2.57,4.13-4.47C143.25,91.81,143.47,91.52,143.26,91.29z M41.51,90.37
	c1.5-1.92,2.98-3.87,4.87-5.44c0.23-0.19,0.45-0.42,0.78-0.33c0.08,0.02,0.13,0.2,0.21,0.33c-0.22,0.49-0.4,0.99-0.65,1.45
	c-1.13,2.05-2.49,3.96-3.77,5.91c-0.27,0.41-0.54,0.55-0.91,0.13c-0.09-0.1-0.19-0.18-0.31-0.25C40.82,91.67,40.9,91.16,41.51,90.37
	z M40.07,106.69c-2.38-0.01-2.87-0.78-2.14-2.39c0.97-2.12,2.06-4.17,3.42-6.08c0.5-0.7,0.79-0.64,1.33-0.09
	c1.17,1.2,2.28,2.45,3.17,3.88c0.39,0.63,0.4,1.08-0.2,1.61C43.86,105.22,41.95,106.55,40.07,106.69z"/>
<path class="st1" d="M67.43,107.01c-1.09,2.07-1.09,2.07-3.08,0.74c-0.52-0.35-1.04-0.69-1.54-1.02c-0.3,0-0.32,0.24-0.41,0.4
	c-0.3,0.55-0.58,1.11-0.87,1.66c-0.23,0.45-0.49,0.54-0.93,0.22c-0.91-0.65-1.83-1.28-2.77-1.89c-0.49-0.32-0.55-0.68-0.29-1.17
	c0.37-0.71,0.75-1.42,1.07-2.16c0.27-0.61,0.6-0.72,1.14-0.34c0.78,0.55,1.6,1.05,2.36,1.62c0.49,0.36,0.81,0.37,1.03-0.25
	c0.06-0.15,0.15-0.29,0.22-0.44c0.79-1.69,0.49-1.92,2.36-0.66c0.38,0.26,0.76,0.53,1.13,0.79
	C68.24,105.48,68.24,105.48,67.43,107.01z"/>
<path class="st1" d="M77.03,122.12c-1.47,0.33-2.98-0.67-3.36-2.33c-0.5-2.19,0.36-3.98,1.79-5.57c0.22-0.24,0.49-0.43,0.74-0.64
	c0.27-0.37,0.63-0.62,1.28-0.9c-0.46,0.62-0.54,1.2-1.04,1.54c-0.16,0.96-0.74,1.82-0.66,2.85c0.06,0.8,0.06,1.62,0.9,2.04
	c0.8,0.41,1.53,0.11,2.19-0.38c0.08-0.06,0.18-0.08,0.27-0.12C79.38,120.08,78.34,121.82,77.03,122.12z"/>
<path class="st1" d="M70.15,88.27c-0.44,0.91-0.92,1.8-1.39,2.7c-0.08,0.16-0.21,0.25-0.49,0.23c-0.1-0.05-0.28-0.12-0.44-0.23
	c-0.89-0.61-1.76-1.26-2.67-1.84c-0.5-0.32-0.55-0.62-0.27-1.12c0.4-0.71,0.75-1.46,1.09-2.2c0.27-0.58,0.61-0.71,1.15-0.32
	c0.88,0.63,1.77,1.25,2.66,1.86C70.13,87.59,70.34,87.88,70.15,88.27z"/>
<path class="st1" d="M97.99,108.44c-4.01,0.37-8.02,0.49-12.03,0C89.97,108.44,93.98,108.44,97.99,108.44z"/>
<path class="st1" d="M94.66,104.09c-2.4,0-4.8,0-7.2,0.01c-0.53,0-1.03-0.15-1.52-0.33C88.85,103.87,91.76,103.98,94.66,104.09z"/>
<path class="st1" d="M32.56,98.95c-0.42,0.39-1,0.39-1.53,0.62c0.21-0.54,0.48-1,1-1.28C32.05,98.63,32.05,98.99,32.56,98.95z"/>
<path class="st1" d="M72.38,105.68c-0.06,1.07,0.01,2.16-0.3,3.21c0-0.82-0.02-1.65-0.01-2.47
	C72.07,106.14,71.97,105.8,72.38,105.68z"/>
<path class="st1" d="M100.96,103.79c-1.28,0.5-2.63,0.27-3.95,0.31C98.33,103.99,99.65,103.89,100.96,103.79z"/>
<g>
	<path class="st1" d="M114.68,92.36c-0.13-4.19-2.57-6.93-5.83-9.14c-0.28-0.19-0.54-0.23-0.72,0.15c-0.32,0.67-0.71,1.29-0.57,2.13
		c0.29,1.69,0.53,3.38,0.68,5.09c0.1,1.14,0.42,2.28,0.08,3.43c-0.24,0.81-0.79,1.17-1.6,1.22c-0.76,0.05-1.15-0.34-1.31-1.05
		c-0.14-0.63-0.44-0.62-0.77-0.13c-0.26,0.38-0.5,0.78-0.89,1.05c-0.44,0.31-0.89,0.63-1.44,0.35c-0.52-0.27-0.69-0.76-0.7-1.32
		c0-0.15,0.09-0.32-0.1-0.5c-0.67,0.65-1.22,1.45-2.09,1.88c-1.74,0.86-2.85,0.19-2.82-1.71c0-0.04-0.07-0.08-0.15-0.15
		c-0.16,0.14-0.34,0.28-0.5,0.44c-0.28,0.28-0.54,0.58-0.8,0.87c0.21,0.33,1.47-0.76,0.87,0.65c0.09,0.81,0.22,1.61,1.11,1.93
		c0.92,0.33,1.72,0.06,2.44-0.61c0.43-0.39,0.77-0.9,1.33-1.14c1.25,2.27,1.99,2.22,3.83-0.3c0.13,0.21,0.25,0.4,0.36,0.59
		c0.77,1.27,2.08,1.35,2.96,0.17c0.41-0.56,0.71-1.18,0.88-1.86c0.42-1.63,0.2-3.28,0.08-4.91c-0.1-1.49-0.25-2.97-0.39-4.62
		c2.13,1.35,3.78,2.95,4.77,5.01c1.73,3.58,1.14,5.57-2.05,7.36c-0.95,0.54-1.99,0.96-2.84,1.78
		C112.74,98.7,114.81,96.47,114.68,92.36z M97.29,96.76c-0.19,0.18-0.25-0.04-0.36-0.13c-0.23-0.21-0.47-0.39-0.79-0.65
		c0.67-0.3,0.9,0.16,1.2,0.36C97.46,96.41,97.42,96.64,97.29,96.76z"/>
	<path class="st1" d="M96.02,95.61c-0.45-0.07-0.49,0.45-0.8,0.57c-0.19,0.01-0.41-0.02-0.53,0.17c-0.76,1.19-2.1,1.07-3.22,1.43
		c-0.37-0.6-0.75-1.2-1.13-1.8c-0.17-0.64-0.57-0.26-0.84-0.16c-1.42,0.53-2.82,1.1-4.23,1.64c-1.83,0.71-3.74,1.1-5.7,1.05
		c-3.16-0.08-4.6-1.75-4.28-4.91c0.11,0.06,0.21,0.12,0.32,0.19c0.46,1.79,1.38,2.54,3.34,2.79c3.57,0.44,6.8-0.74,10.01-2.05
		c0.09-0.04,0.18-0.09,0.27-0.13c0.48-0.2,1.01-0.63,1.44-0.55c0.64,0.11,0.22,0.87,0.39,1.33c0.32,0.84,0.92,1.07,1.71,0.96
		c0.69-0.09,1.29-0.44,1.9-0.76c0.23,0,0.38-0.1,0.39-0.35c0.01-0.06,0.05-0.09,0.11-0.09C95.36,95.29,96.62,94.2,96.02,95.61z"/>
	<path class="st1" d="M83.54,90.32c-0.29-0.08-0.35,0.08-0.41,0.27c-0.25,0.81-0.65,0.56-1.12,0.19c-0.31-0.24-0.74-0.66-1.02,0.01
		c-0.2,0.48-0.92,1.1,0.16,1.47c0.23,0.33,0.58,0.51,0.99,0.75c0.3-1.21,0.88-1.21,1.65-0.4c0.22,0.23,0.39,0.23,0.6-0.09
		C84.99,91.6,84.61,90.6,83.54,90.32z M81.94,91.96c0,0.01-0.01,0.02-0.01,0.04c-0.04,0.09-0.1,0.15-0.17,0.18
		c-0.01,0.01-0.02,0.01-0.03,0.01c-0.02,0.01-0.04,0.01-0.06,0.02c-0.02,0-0.04,0.01-0.06,0.01c-0.04,0.01-0.08,0.01-0.11,0.01
		c-0.02,0-0.04,0-0.05,0c-0.01,0-0.03,0-0.04,0c-0.05,0-0.09,0-0.14,0.01c-0.03,0-0.06,0-0.1,0.01v-1.06
		c0.3,0.22,0.79-0.11,0.81,0.5C81.98,91.8,81.96,91.89,81.94,91.96z"/>
	<path class="st1" d="M95.22,96.18c-1.13,1.59-2.27,2.08-3.76,1.6c1.13-0.36,2.47-0.23,3.22-1.43
		C94.8,96.16,95.02,96.19,95.22,96.18z"/>
	<path class="st1" d="M75.59,93.8c-0.11-0.06-0.21-0.12-0.32-0.19c-0.02-0.83,0.32-1.56,0.67-2.3
		C76.04,92.18,75.47,92.95,75.59,93.8z"/>
	<path class="st1" d="M91.46,97.79c-0.91-0.27-1.06-1.01-1.13-1.8C90.71,96.59,91.08,97.19,91.46,97.79
		C91.46,97.79,91.46,97.79,91.46,97.79z"/>
	<path class="st1" d="M95.04,95.05c-0.01,0.25-0.16,0.35-0.39,0.35C94.78,95.28,94.91,95.16,95.04,95.05z"/>
	<path class="st1" d="M96.14,95.97c0.67-0.31,0.9,0.16,1.2,0.36c0.12,0.08,0.08,0.31-0.05,0.43c-0.19,0.18-0.25-0.03-0.36-0.13
		C96.7,96.42,96.46,96.23,96.14,95.97z"/>
	<path class="st1" d="M81.16,92.25c0-0.33,0-0.66,0-1.07c0.29,0.22,0.79-0.11,0.81,0.5C81.99,92.33,81.52,92.21,81.16,92.25
		C81.15,92.25,81.16,92.25,81.16,92.25z"/>
</g>
<path class="st2" d="M85.98,77.58c-1.03,0-2.08-0.06-3.11-0.17l-0.36-0.01c-0.18,0.04-0.36,0.06-0.55,0.06
	c-0.5,0-0.93-0.13-1.31-0.24c-0.04-0.01-0.08-0.02-0.12-0.04c-5.44-0.83-10.38-2.95-14.7-6.32l-0.03-0.02l-0.03-0.02
	c-0.18-0.16-0.39-0.31-0.62-0.47c-0.35-0.25-0.74-0.53-1.09-0.89c-0.21-0.22-0.39-0.45-0.54-0.71c-0.4-0.19-0.78-0.46-1.14-0.82
	c-0.11-0.11-0.22-0.23-0.31-0.34c-0.1-0.12-0.19-0.22-0.28-0.34l-0.17-0.21c-0.14-0.18-0.28-0.35-0.41-0.5
	c-4.03-4.55-6.59-9.9-7.59-15.89c-1.21-7.23-0.07-14.17,3.39-20.63c2.18-4.07,5.2-7.62,8.98-10.54c0.51-0.4,1.05-0.75,1.57-1.08
	c0,0,0.26-0.17,0.33-0.21c0.42-1.65,0.99-3.11,1.72-4.45c0.18-0.33,0.37-0.65,0.56-0.95v-0.71c-0.04-0.08-0.07-0.17-0.1-0.25
	c-0.54-1.57,0.3-3.46,1.83-4.11c0.25-0.11,0.48-0.17,0.69-0.2c0.65-0.72,1.63-1.15,2.72-1.17c0.02,0,0.12-0.03,0.19-0.04
	c0.05-0.01,0.09-0.02,0.14-0.03c0.54-0.64,1.27-1.03,2.19-1.19c0.18-0.03,0.36-0.05,0.53-0.05c0.89,0,1.57,0.39,2.12,0.7
	c0,0,0,0,0.01,0c0.37-0.12,0.76-0.18,1.16-0.18c0.02,0,0.11-0.03,0.18-0.04c0.2-0.05,0.46-0.11,0.77-0.11c0.17,0,0.34,0.02,0.5,0.06
	c0.76-0.11,1.54-0.16,2.31-0.16c1.64,0,3.32,0.23,5.15,0.72c6.2,1.65,10.79,5.76,13.62,12.24c0.13,0.3,0.3,0.61,0.47,0.93
	c0.03,0.06,0.06,0.12,0.1,0.18c1.35,0.74,2.39,1.77,3.39,2.77c0.12,0.12,0.23,0.23,0.35,0.35c4.02,3.98,6.82,8.83,8.32,14.41
	c1.14,4.26,1.4,8.58,0.77,12.83c-0.51,3.39-1.49,6.65-2.93,9.69c-0.02,0.04-0.03,0.08-0.05,0.11c-0.1,0.23-0.24,0.55-0.52,0.83
	c-0.08,0.32-0.22,0.57-0.29,0.7c-4.03,6.98-9.82,11.89-17.21,14.58C93.06,76.92,89.48,77.58,85.98,77.58
	C85.98,77.58,85.98,77.58,85.98,77.58z"/>
<path class="st3" d="M78.39,6.12c0.7,0,1.24,0.37,1.82,0.69c0.11,0.06,0.12,0.13,0.1,0.2c0.41-0.24,0.89-0.36,1.38-0.37
	c0.29,0,0.61-0.16,0.94-0.16c0.1,0,0.2,0.01,0.29,0.05c0.15,0.05,0.29,0.1,0.42,0.15c-0.04-0.04-0.09-0.09-0.13-0.14
	c0.75-0.11,1.49-0.16,2.23-0.16c1.65,0,3.27,0.26,4.87,0.68c6.29,1.67,10.35,5.8,12.9,11.62c0.22,0.51,0.51,0.99,0.77,1.48
	c1.5,0.74,2.62,1.94,3.78,3.09c3.94,3.9,6.6,8.57,8.03,13.91c1.09,4.06,1.36,8.19,0.74,12.39c-0.49,3.28-1.42,6.4-2.84,9.38
	c-0.15,0.33-0.26,0.68-0.64,0.82c0.06,0.28-0.05,0.51-0.18,0.74c-3.86,6.69-9.36,11.45-16.64,14.1c-3.34,1.23-6.75,1.89-10.25,1.89
	c-1,0-2.01-0.05-3.03-0.17c-0.13,0-0.26-0.01-0.39-0.01c-0.03-0.05-0.06-0.07-0.1-0.07c-0.03,0-0.06,0.02-0.09,0.07
	c-0.14,0.04-0.27,0.05-0.4,0.05c-0.41,0-0.8-0.14-1.19-0.26c-5.29-0.79-10.05-2.82-14.26-6.11c-0.52-0.46-1.16-0.8-1.64-1.3
	c-0.22-0.23-0.41-0.49-0.53-0.81c-0.47-0.14-0.84-0.41-1.16-0.73c-0.09-0.09-0.18-0.19-0.27-0.28c-0.09-0.1-0.17-0.2-0.25-0.3
	c-0.2-0.25-0.4-0.51-0.61-0.75c-3.91-4.41-6.36-9.56-7.33-15.35c-1.17-6.99-0.09-13.65,3.28-19.94c2.16-4.04,5.08-7.4,8.69-10.19
	c0.52-0.4,1.08-0.76,1.63-1.12c0.19-0.12,0.37-0.24,0.55-0.37c0.38-1.62,0.93-3.16,1.72-4.6c0.21-0.39,0.45-0.78,0.7-1.15
	c0,0,0,0,0,0c0.17-0.25,0.34-0.5,0.52-0.74c-0.34-0.24-0.56-0.55-0.68-0.89c-0.35-1.02,0.2-2.32,1.23-2.76
	c0.19-0.08,0.35-0.13,0.47-0.13c0.12,0,0.21,0.04,0.27,0.13c0.41-0.83,1.31-1.28,2.25-1.29c0.29,0,0.6-0.15,0.93-0.15
	c0.02-0.03,0.03-0.06,0.05-0.08c0.34-0.52,0.87-0.9,1.71-1.04C78.16,6.13,78.28,6.12,78.39,6.12 M89.38,20.68
	c-0.01-0.02-0.02-0.04-0.04-0.06c0,0.01,0.01,0.02,0.01,0.03C89.36,20.65,89.37,20.66,89.38,20.68 M78.39,3.94L78.39,3.94
	c-0.24,0-0.48,0.02-0.72,0.06c-1.02,0.17-1.89,0.6-2.56,1.26c-1.17,0.06-2.25,0.51-3.04,1.25c-0.18,0.05-0.37,0.11-0.57,0.2
	c-2.07,0.89-3.16,3.34-2.43,5.47c0.01,0.04,0.03,0.08,0.04,0.12l0,0.18c-0.15,0.24-0.29,0.49-0.43,0.74
	c-0.71,1.31-1.28,2.72-1.71,4.28c-0.53,0.34-1.08,0.7-1.62,1.12c-3.9,3.01-7.02,6.68-9.27,10.89c-3.58,6.67-4.75,13.85-3.5,21.32
	c1.03,6.2,3.67,11.73,7.85,16.44c0.12,0.13,0.24,0.29,0.37,0.45c0.06,0.07,0.12,0.15,0.17,0.22c0.08,0.1,0.18,0.22,0.3,0.36
	l0.01,0.01l0.01,0.01c0.1,0.12,0.23,0.26,0.37,0.4c0.36,0.36,0.74,0.65,1.14,0.87c0.15,0.22,0.32,0.43,0.52,0.63
	c0.42,0.43,0.85,0.74,1.24,1.02c0.2,0.14,0.4,0.28,0.53,0.4l0.05,0.04l0.05,0.04c4.44,3.46,9.53,5.66,15.13,6.52
	c0.01,0,0.03,0.01,0.04,0.01c0.4,0.12,0.96,0.29,1.62,0.29c0.21,0,0.42-0.02,0.63-0.05c0.03,0,0.05,0,0.08,0c0.04,0,0.08,0,0.12,0
	c1.06,0.11,2.13,0.17,3.18,0.17c3.63,0,7.33-0.68,11-2.03c7.64-2.78,13.62-7.84,17.78-15.05c0.07-0.13,0.22-0.37,0.33-0.71
	c0.29-0.36,0.44-0.71,0.54-0.92c0.01-0.03,0.03-0.06,0.04-0.09c1.48-3.13,2.5-6.49,3.02-9.99c0.65-4.4,0.39-8.86-0.79-13.27
	c-1.55-5.77-4.44-10.78-8.6-14.9c-0.12-0.12-0.23-0.23-0.35-0.35c-0.95-0.94-2-2-3.35-2.8c-0.14-0.26-0.28-0.51-0.38-0.74
	c-2.97-6.8-7.8-11.12-14.34-12.85c-1.92-0.51-3.69-0.75-5.43-0.75c-0.76,0-1.53,0.05-2.27,0.15c-0.18-0.03-0.36-0.05-0.54-0.05
	c-0.44,0-0.79,0.09-1.03,0.14c-0.02,0-0.04,0.01-0.06,0.01c-0.3,0.01-0.59,0.05-0.88,0.11C80.09,4.26,79.35,3.94,78.39,3.94
	L78.39,3.94z"/>
<path class="st4" d="M82.95,76.32c-0.13,0-0.26-0.01-0.39-0.01c-0.07-0.09-0.13-0.09-0.19,0c-0.56,0.15-1.07-0.06-1.59-0.21
	c0.07-2.56,1.31-4.57,3.09-6.35c-0.34,1.02-0.75,2.03-1.01,3.07c-0.22,0.9-0.27,1.85-0.42,2.77C82.36,76.05,83.04,75.91,82.95,76.32
	z"/>
<path class="st5" d="M85.53,9.5c-1.4,0.11-1.94,1.1-2.61,1.94c-1.44,0.4-2.85-0.24-3.38-1.53c-0.12-0.28,0.04-0.65-0.35-0.84
	c-0.01-0.38,0.06-0.73,0.19-1.03c0.39-0.9,1.33-1.39,2.31-1.4c0.37-0.01,0.8-0.26,1.23-0.11C85.04,7.27,85.41,7.51,85.53,9.5z"/>
<path class="st5" d="M79.2,10.3c-1.4,0.11-1.94,1.1-2.61,1.94c-1.44,0.4-2.85-0.24-3.38-1.53c-0.12-0.28,0.04-0.65-0.35-0.84
	c-0.01-0.38,0.06-0.73,0.19-1.03c0.39-0.9,1.33-1.39,2.31-1.4c0.37-0.01,0.8-0.26,1.23-0.11C78.7,8.06,79.07,8.3,79.2,10.3z"/>
<path class="st3" d="M64.35,67.88L64.35,67.88c0.12,0.32,0.31,0.59,0.53,0.81C64.66,68.47,64.47,68.21,64.35,67.88z M68.7,18.96
	c0.06-0.04,0.11-0.08,0.17-0.11v0C68.82,18.89,68.76,18.92,68.7,18.96z M71.68,12.26c0.04,0.04,0.09,0.07,0.14,0.1l0,0
	C71.77,12.33,71.72,12.29,71.68,12.26z M75.69,9.06L75.69,9.06c0.01-0.04,0.02-0.09,0.03-0.13C75.71,8.98,75.7,9.02,75.69,9.06z"/>
<path class="st6" d="M112.87,60.5c-3.86,6.69-9.36,11.45-16.64,14.1c-0.31-0.53-0.35-1.13-0.34-1.71
	c0.04-5.39-0.59-10.74-0.89-16.12c0-0.07,0-0.15-0.01-0.22c0.05-0.46,0.14-0.92-0.11-1.36v0c-0.03-0.46-0.07-0.92-0.1-1.38
	c-0.03-0.33-0.1-0.65-0.1-0.98c-0.03-4.54-0.12-9.09-0.43-13.62c-0.11-1.6-0.14-3.21-0.42-4.8c0.09-1.09-0.04-2.16-0.17-3.24
	c-0.05-0.38-0.17-0.83,0.34-1.02c0.02-0.01,0.04-0.02,0.07-0.02c0.16-0.02,0.31-0.05,0.44-0.09c0.22-0.07,0.41-0.19,0.57-0.34
	c0.06-0.06,0.12-0.12,0.18-0.19c0.16-0.21,0.28-0.46,0.37-0.75c0.24-0.8-0.22-1.42-0.6-2.05c0.76-1.33,0.61-1.91-0.8-3.31
	c0.3-0.35,0.28-0.77,0.24-1.18c-0.08-0.75-0.67-1.19-1.09-1.73c0.39-1.49,0.04-2.21-1.52-3.03c0.48-1.62,0.04-2.38-1.87-3.2
	c0.36-1.73-0.56-2.78-2.44-2.8c-0.09-1.65-0.35-1.85-1.88-2.46c-0.48-0.19-0.95,0.41-1.28-0.17c0.47-1.14-0.52-1.56-1.14-2.27
	c2.44-0.36,4.78-0.09,7.09,0.52c6.29,1.67,10.35,5.8,12.9,11.62c0.22,0.51,0.51,0.99,0.77,1.48c0.33,0.99,0.65,1.98,0.98,2.97
	c1.18,3.52,1.37,7.19,1.77,10.84c0.73,6.8,2.3,13.43,4.3,19.95c0.6,1.96,1.12,3.96,2.04,5.82C113.11,60.03,113,60.26,112.87,60.5z"
	/>
<path class="st7" d="M70.84,44.9c0.1,0.18,0.14,0.5-0.17,0.57c-0.65,0.13-0.6,0.6-0.55,1.06c0.06,0.63,0.61,0.46,0.98,0.58
	c-0.38,2.87-0.87,5.72-1.11,8.6c-0.2,2.37-0.9,4.49-2.14,6.49c-0.88,1.43-1.72,2.89-2.59,4.32c-0.28,0.47-0.4,1.05-0.91,1.37h0
	c-0.47-0.14-0.84-0.41-1.16-0.73c-0.09-0.09-0.18-0.19-0.27-0.28c-0.09-0.1-0.17-0.2-0.25-0.3c-0.2-0.25-0.4-0.51-0.61-0.75
	c-3.91-4.41-6.36-9.56-7.33-15.35c-1.17-6.99-0.09-13.65,3.28-19.94c2.16-4.04,5.08-7.4,8.69-10.19c0.52-0.4,1.08-0.76,1.63-1.12
	c0.19-0.12,0.37-0.24,0.55-0.37v0c0.16,0.87-0.28,1.74,0.01,2.61c-0.18,0.76-0.12,1.52,0.04,2.27c0.14,1-0.59,1.88-0.39,2.88
	c-0.27,0.38-0.25,0.76-0.04,1.16c-0.2,0.95,0.75,1.39,0.98,2.15v0c0.09,0.17,0.18,0.35,0.28,0.53c0.02,0.74-0.43,1.34-0.61,2.01
	c-0.32,1.25-0.53,2.52,0.16,3.74c0.05,0.18,0.07,0.38,0.15,0.55c0.67,1.45,1.8,2.66,2.31,4.21C70.59,42.06,69.98,43.3,70.84,44.9z"
	/>
<path class="st8" d="M96.23,74.6c-4.29,1.58-8.71,2.23-13.27,1.73c0.08-0.41-0.59-0.27-0.51-0.72c0.16-0.92,0.2-1.87,0.42-2.77
	c0.26-1.04,0.67-2.05,1.01-3.07c-1.78,1.78-3.02,3.79-3.09,6.35c-5.29-0.79-10.05-2.82-14.26-6.11c-0.02-0.33,0.1-0.58,0.26-0.8
	c0.04-0.06,0.09-0.11,0.14-0.17c0.07-0.09,0.15-0.17,0.22-0.25c0.1-0.11,0.2-0.22,0.28-0.34c1.28,0.95,2.82,1.01,4.31,1.17
	c2.24,0.24,3.98-0.98,5.65-2.22c4.08-3.01,8.12-6.07,12.69-8.34c1.62-0.8,3.28-1.51,4.93-2.26c0.3,5.37,0.93,10.73,0.89,16.12
	C95.88,73.47,95.92,74.07,96.23,74.6z"/>
<path class="st7" d="M116.53,49.55c-0.49,3.28-1.42,6.4-2.84,9.38c-0.15,0.33-0.26,0.68-0.64,0.82c-0.91-1.86-1.43-3.86-2.04-5.82
	c-2-6.53-3.56-13.16-4.3-19.95c-0.39-3.65-0.59-7.32-1.77-10.84c-0.33-0.99-0.65-1.98-0.98-2.97c1.5,0.74,2.62,1.94,3.78,3.09
	c3.94,3.9,6.6,8.57,8.03,13.91C116.88,41.23,117.15,45.35,116.53,49.55z"/>
<path class="st6" d="M78.34,55.56c-0.12,0.11-0.21,0.25-0.32,0.38c-3,3.51-5.99,7.01-8.99,10.52c-0.53,0.66-1.07,1.32-1.61,1.98
	c-0.08,0.12-0.17,0.24-0.27,0.34c-0.08,0.08-0.15,0.16-0.22,0.25c-0.05,0.06-0.1,0.11-0.14,0.17c-0.16,0.22-0.28,0.47-0.26,0.8
	c-0.52-0.46-1.16-0.8-1.64-1.3c-0.22-0.23-0.41-0.49-0.53-0.81h0c0.5-0.33,0.62-0.9,0.91-1.37c0.87-1.43,1.71-2.89,2.59-4.32
	c1.24-2,1.94-4.12,2.14-6.49c0.24-2.88,0.73-5.74,1.11-8.6c0.09-0.09,0.17-0.18,0.25-0.27c0.12-0.02,0.26-0.13,0.34,0.06
	c0.13,0.65,0.34,1.18,1.17,0.74c0.39,0.34,0.78,0.36,1.18,0.02c0.25-0.2,0.51-0.35,0.83-0.4c1.13,1.41,2.6,1.73,4.54,1
	c0.14,0.07,0.29,0.14,0.43,0.21c-0.11,0.66-0.05,1.32,0.07,1.97C80.25,52.4,79.79,54.13,78.34,55.56z"/>
<path class="st9" d="M91.48,26.5L91.48,26.5c0,0.53,0,1.05-0.01,1.58c-0.49-0.15-0.78,0.29-1.19,0.4
	c-2.44-3.71-5.06-7.28-8.12-10.51c-1.35-1.42-2.9-2.46-4.73-3.09c-3.74-1.29-6.61,0.18-7.75,3.95c-0.27,0.88-0.53,1.75-0.8,2.63
	c-0.29-0.87,0.15-1.74-0.01-2.61v0c0.38-1.62,0.93-3.16,1.72-4.6c0.21-0.39,0.45-0.78,0.7-1.15c0,0,0,0,0,0
	c0.17-0.25,0.34-0.5,0.52-0.74l0,0c0.65-0.65,1.31-1.29,1.82-2.06c0.66-0.45,1.29-0.97,2.06-1.24h0c0.09,0.05,0.21,0.08,0.24,0.14
	c0.9,2.09,2.3,2.57,4.24,1.43c1.19,0.92,1.89,1.03,2.77,0.44c0.28,0.16,0.17,0.46,0.25,0.7c0.38,1.07,1.4,1.6,2.43,1.27
	c0.21,1.93,0.56,2.4,2.06,2.78c0.03,1.96,0.28,2.41,1.63,2.85c-0.25,0.86-0.27,1.44,0.03,1.96c0.04,0.08,0.09,0.15,0.15,0.22
	c0.09,0.11,0.18,0.22,0.3,0.33c0.12,0.11,0.25,0.23,0.4,0.34c0.05,0.04,0.1,0.08,0.15,0.12c-0.02,0.5-0.04,1-0.06,1.51
	c0.18,1.14,0.98,2.09,1,3.28C91.3,26.47,91.42,26.48,91.48,26.5L91.48,26.5z"/>
<path class="st10" d="M87.52,11.44c-1.01,0.09-1.39,0.91-1.88,1.61c-1.04,0.33-2.05-0.2-2.43-1.27c-0.08-0.23,0.03-0.54-0.25-0.7
	c-0.03-1.06,0.58-1.73,1.4-2.27c0.33,0.57,0.81-0.03,1.28,0.17C87.16,9.59,87.42,9.79,87.52,11.44z"/>
<path class="st10" d="M73.63,10.3c-0.51,0.77-1.17,1.41-1.82,2.06l0,0c-0.34-0.24-0.56-0.55-0.68-0.89
	c-0.35-1.02,0.2-2.32,1.23-2.76c0.54-0.23,0.83-0.18,0.82,0.44C73.18,9.61,73.4,9.95,73.63,10.3z"/>
<path class="st11" d="M94.68,52.83c-0.03-4.54-0.12-9.09-0.43-13.62c-0.11-1.6-0.14-3.21-0.42-4.8c-0.07,0-0.14,0.01-0.21,0.01
	c0.01,0.05,0.02,0.1,0.03,0.16c0.01,0.05,0.02,0.1,0.03,0.15c0.02,0.1,0.04,0.19,0.06,0.27c0.02,0.12,0.04,0.23,0.05,0.33
	c0.01,0.05,0.01,0.1,0.02,0.14c0.02,0.2,0.02,0.36,0,0.51c0,0.03-0.01,0.07-0.02,0.09c-0.01,0.03-0.02,0.07-0.03,0.1
	c-0.03,0.1-0.09,0.19-0.15,0.27c-0.02,0.02-0.04,0.05-0.06,0.07c-0.07,0.07-0.14,0.13-0.24,0.19c-0.03,0.02-0.07,0.04-0.1,0.06
	c-0.04,0.02-0.08,0.04-0.11,0.06c-0.08,0.04-0.17,0.08-0.26,0.12c-0.05,0.02-0.1,0.04-0.15,0.06c-0.1,0.38-0.17,0.77-0.31,1.13
	c-0.13,0.37-0.04,0.58,0.28,0.82c1.47,1.16,1.79,2.48,1.03,3.93c-0.71,1.35-2.07,1.82-3.79,1.3c-0.12-0.04-0.25-0.07-0.38-0.11
	l-0.04,0.04c-0.02,0.29,0.04,0.61-0.06,0.86c-0.2,0.5-0.67,0.59-1.14,0.5c-0.48-0.09-0.54-0.5-0.55-0.91
	c-0.02-0.51,0.29-0.67,0.75-0.68c0.2,0,0.57,0.09,0.54-0.22c-0.03-0.36-0.38-0.58-0.7-0.76c-1.62,1.89-3.77,3.05-5.96,4.1
	c-0.63,0.3-1.24,0.76-2,0.78c-0.31,0.14-0.63,0.29-0.94,0.43c0.14,0.07,0.29,0.14,0.43,0.21c0.41,0.13,0.76-0.15,1.14-0.18
	c2.22-0.84,5.54,0.27,6.03,2.99c0.35,1.92,1.09,3.77,1.51,5.69h0c1.6-0.54,3.04-1.42,4.54-2.18c0.58-0.29,1.29-0.37,1.71-0.95
	C94.74,53.49,94.68,53.16,94.68,52.83z M90.7,46.46c-0.57,0.01-0.93-0.31-0.98-0.88c-0.05-0.5,0.24-0.79,0.72-0.88
	c0.65,0.04,0.92,0.51,1,1.03C91.5,46.17,91.14,46.45,90.7,46.46z M92.67,46.09c-0.55,0.05-0.76-0.31-0.79-0.83
	c-0.04-0.58,0.36-0.7,0.81-0.75c0.65-0.07,0.91,0.4,0.92,0.89C93.63,45.88,93.21,46.1,92.67,46.09z"/>
<path class="st12" d="M88.52,56.95c1.61-0.54,3.04-1.42,4.54-2.18c0.58-0.29,1.29-0.37,1.71-0.95c0.03,0.46,0.07,0.92,0.1,1.38
	c-0.03,0.46-0.11,0.92,0.11,1.36c0,0.07,0,0.14,0,0.22c-1.64,0.75-3.31,1.46-4.93,2.26c-4.57,2.27-8.61,5.32-12.69,8.34
	c-1.68,1.24-3.42,2.46-5.65,2.22c-1.48-0.16-3.03-0.22-4.31-1.17c0.54-0.66,1.07-1.32,1.61-1.98c0.42,0.45,1.03,0.35,1.54,0.54
	c1.59,0.61,2.98,0.15,4.29-0.77c0.65-0.46,1.31-0.9,1.96-1.35c0.61,0.05,1.03-0.17,1.16-0.81c1.62-1.42,3.46-2.57,5.15-3.9
	c0.82-0.64,1.78-1.1,2.46-1.92C86.73,58.17,87.59,57.48,88.52,56.95z"/>
<path class="st5" d="M85.64,13.05c0.49-0.7,0.87-1.52,1.88-1.61c1.88,0.02,2.8,1.07,2.44,2.8c-0.96,0.23-1.84,0.58-2.26,1.58
	C86.19,15.45,85.84,14.98,85.64,13.05z"/>
<path class="st10" d="M87.7,15.82c0.42-1,1.3-1.35,2.26-1.58c1.91,0.82,2.35,1.59,1.87,3.2c-1.06-0.05-1.92,0.32-2.5,1.23
	C87.98,18.24,87.73,17.79,87.7,15.82z"/>
<path class="st5" d="M89.33,18.68c0.58-0.92,1.44-1.29,2.5-1.23c1.55,0.82,1.91,1.54,1.52,3.03c-1.16-0.01-2.29,0.04-2.98,1.19
	C89.13,20.74,88.91,20.1,89.33,18.68z"/>
<path class="st5" d="M94.2,23.39c1.42,1.4,1.56,1.99,0.8,3.31c-1.01-0.34-1.96-0.41-2.74,0.5c-0.26-0.23-0.52-0.46-0.78-0.69
	c0,0,0,0,0,0c-0.38-0.75-0.06-1.51-0.02-2.27C92.28,23.63,93.13,23.16,94.2,23.39z"/>
<path class="st10" d="M94.2,23.39c-1.07-0.23-1.93,0.25-2.75,0.84c-0.61-0.11-0.74-0.75-1.16-1.06c0.02-0.5,0.04-1,0.06-1.51
	c0.7-1.15,1.83-1.2,2.98-1.19c0.42,0.54,1.01,0.99,1.09,1.73C94.48,22.62,94.51,23.04,94.2,23.39z"/>
<path class="st10" d="M92.26,27.2c0.78-0.91,1.74-0.83,2.74-0.5c0.38,0.63,0.84,1.25,0.6,2.05c-0.23,0.77-0.7,1.29-1.55,1.38
	c-1.04,0.12-1.71-0.39-2.17-1.26c-0.01-0.26-0.02-0.52-0.04-0.78C91.89,27.74,92.3,27.57,92.26,27.2z"/>
<path class="st13" d="M91.89,28.87c0.46,0.88,1.13,1.39,2.17,1.26c-0.58,0.18-0.46,0.65-0.41,1.05c0.14,1.08,0.26,2.15,0.17,3.24
	c-0.07,0-0.14,0.01-0.21,0.01c-0.3-0.21-0.45-0.52-0.6-0.85c-0.37-0.82-0.7-1.67-1.36-2.33c0.03-0.62-0.54-0.99-0.64-1.55
	C91.47,29.59,91.75,29.3,91.89,28.87z"/>
<path class="st8" d="M94.99,56.56c-0.23-0.44-0.14-0.9-0.11-1.36C95.13,55.63,95.03,56.1,94.99,56.56z"/>
<path class="st14" d="M69.31,36.2c-0.7-1.22-0.49-2.49-0.16-3.74c0.18-0.67,0.63-1.27,0.61-2.01c0.24-0.02,0.37,0.09,0.4,0.32
	c0.23,0.5,0.21,1.16,0.76,1.46c0.82,0.45,1.61,0.09,2.3-0.31c0.64-0.37,0.54-1.03,0.3-1.64c-0.1-0.33-0.21-0.65-0.31-0.98
	c0.07-0.64-0.15-1.17-0.63-1.6c-0.93-1.52-2.44-1.92-4.04-1.08c-0.19-1,0.53-1.88,0.39-2.88c0.42-0.08,0.3-0.43,0.36-0.7
	c0.37-1.71,0.8-3.38,2.4-4.43c1.83-1.2,3.67-0.86,5.54-0.11c2.52,1.01,4.25,3.02,6.15,4.82c-0.28,0.21-0.17,0.53-0.23,0.8
	c-0.14,0.61-0.12,1.31-0.8,1.65c-0.92-0.53-1.86-1.03-2.97-0.8c-1.03,0.21-2.04,0.52-3.07,0.71c-1.07,0.2-1.47,0.77-1.23,1.81
	c-0.68,0.96-0.55,1.9,0.1,2.81c1.43,2,3.11,2.7,5.74,1.82c0.71-0.24,1.45-0.41,2.19-0.53c1.45-0.23,2.9,0.95,2.59,2.16
	c-0.35,1.36-1.17,2.41-2.58,2.86c-1.54,0.48-3.03,0.17-4.48-0.41l0,0c-0.04-0.39-0.26-0.6-0.69-0.76c0.13,0.37,0.27,0.6,0.5,0.78
	c-0.02,0.58-0.21,1.16-0.84,1.13c-1.22-0.05-2.26,0.32-3.23,0.98c-0.19,0.13-0.63-0.07-0.6,0.33c0.02,0.23,0.24,0.47,0.44,0.63
	c0.39,0.33,0.84,0.32,1.29,0.08c0.55-0.29,1.09-0.56,1.73-0.66c1.12-0.18,1.5-0.69,1.6-1.9c0.79,0.63,1.48,1.36,2.36,1.89
	c0.55,0.33,1.2,0.53,1.6,1.08c0,0-0.07,0.06-0.07,0.06c-0.63,0.05-1.26,0.1-1.9,0.14c-2.18-0.51-4.36,0.26-6.54,0.03
	c-0.91,0.04-0.45-0.88-0.86-1.22c-0.93-0.78-1.68-1.66-1.14-3.09C71.31,36.56,70.33,36.54,69.31,36.2z"/>
<path class="st5" d="M83.38,23.31c-1.89-1.8-3.63-3.8-6.15-4.82c-1.87-0.75-3.71-1.09-5.54,0.11c-1.6,1.05-2.03,2.72-2.4,4.43
	c-0.06,0.27,0.06,0.62-0.36,0.7c-0.16-0.75-0.22-1.51-0.04-2.27c0.27-0.88,0.53-1.76,0.8-2.63c1.14-3.76,4.01-5.24,7.75-3.95
	c1.83,0.63,3.39,1.68,4.73,3.09c3.06,3.23,5.68,6.8,8.12,10.51c0.01,0.28,0.19,0.45,0.38,0.62c0.04,0.24,0.12,0.46,0.35,0.59
	c0.1,0.56,0.67,0.93,0.64,1.55c-0.94-0.33-1.38-1.21-2.04-1.86C87.56,27.34,85.46,25.33,83.38,23.31z"/>
<path class="st15" d="M69.31,36.2c1.03,0.35,2,0.36,2.96-0.51c-0.54,1.43,0.21,2.31,1.14,3.09c0.4,0.34-0.05,1.26,0.86,1.22
	c-0.08,0.12-0.37,0.24-0.25,0.35c0.6,0.55,0.36,1.34,0.63,1.98c-0.38,0.46-0.12,1.01-0.2,1.51c-0.05,0.33,0.15,0.76-0.39,0.88
	c-0.02-0.39-0.52-0.58-0.42-1.02c-0.33-0.64-0.59-1.33-1.12-1.86c-0.08-0.44-0.28-0.78-0.76-0.89c-0.51-1.54-1.63-2.75-2.31-4.21
	C69.37,36.57,69.35,36.38,69.31,36.2z"/>
<path class="st16" d="M71.76,40.95c0.48,0.11,0.67,0.45,0.76,0.89c-0.01,0.05-0.03,0.08-0.08,0.1c-0.28-0.02-0.67-0.09-0.7,0.27
	c-0.04,0.41-0.34,0.94,0.26,1.24c0.41,1,1.01,0.68,1.63,0.24c-0.1,0.44,0.4,0.63,0.42,1.02c0.05,0.26,0.1,0.53,0.15,0.79
	c-0.86,0.57-1.76,0.56-2.67,0.13c-0.07,0.45-0.13,0.82-0.19,1.19c-0.08,0.09-0.17,0.18-0.25,0.27c-0.37-0.12-0.92,0.05-0.98-0.58
	c-0.04-0.46-0.1-0.93,0.55-1.06c0.32-0.06,0.27-0.38,0.18-0.57C69.98,43.3,70.59,42.06,71.76,40.95z"/>
<path class="st17" d="M73.2,29.3c-0.45-0.31-0.85-0.69-1.38-0.89c-1.58-0.61-2.26-0.18-2.34,1.52v0c0.09,0.17,0.18,0.35,0.28,0.53
	c0.24-0.02,0.37,0.09,0.4,0.32c0.56,0.36,1.12,0.37,1.73,0.09c0.52-0.24,1.09-0.39,1.63-0.58C73.41,29.95,73.3,29.63,73.2,29.3z
	 M70.08,29.75c-0.06-0.76,0.56-0.8,1.22-0.99c-0.27,0.72-0.16,1.29,0.28,1.89C70.76,30.65,70.14,30.56,70.08,29.75z"/>
<path class="st15" d="M73.2,29.3c-0.45-0.32-0.85-0.69-1.38-0.89c-1.58-0.61-2.26-0.18-2.34,1.52c-0.22-0.77-1.17-1.2-0.98-2.15
	c0.79-0.53,1.65-0.52,2.54-0.32c0.5,0.11,0.99,0.38,1.53,0.24C73.05,28.13,73.27,28.65,73.2,29.3z"/>
<path class="st17" d="M72.57,27.69c-0.55,0.14-1.03-0.13-1.53-0.24c-0.9-0.2-1.75-0.21-2.54,0.32c-0.21-0.39-0.23-0.78,0.04-1.16
	C70.13,25.77,71.64,26.18,72.57,27.69z"/>
<path class="st14" d="M76.82,64.87c-0.65,0.45-1.31,0.9-1.96,1.35c-1.31,0.92-2.71,1.38-4.29,0.77c-0.51-0.19-1.12-0.09-1.54-0.54
	c3-3.51,5.99-7.01,8.99-10.52c0.11-0.13,0.2-0.26,0.32-0.38c1.46-1.43,1.91-3.16,1.57-5.15c-0.11-0.65-0.18-1.31-0.07-1.97
	c0.41,0.13,0.76-0.15,1.14-0.19c0.16,0.23,0.43,0.28,0.66,0.39c1.19,0.59,2.14,1.42,2.3,2.83c0.18,1.58,0.23,3.18,0.44,4.76
	c0.11,0.79,0.12,1.75,1.22,1.99c-0.68,0.82-1.65,1.28-2.46,1.92c-1.69,1.33-3.53,2.48-5.15,3.9C77.39,64.05,77.02,64.34,76.82,64.87
	z"/>
<path class="st14" d="M74.2,45.51c-0.05-0.26-0.1-0.53-0.15-0.79c0.53-0.11,0.34-0.55,0.39-0.88c0.08-0.5-0.18-1.05,0.2-1.51
	c0.14,0.26,0.28,0.52,0.42,0.79c0.06,0.07,0.11,0.14,0.17,0.21l0,0.01c0.01,0.6-0.17,1.42,0.87,1.14c0.87-0.23,1.68-0.14,2.51,0.07
	c0.26,0.07,0.52,0.19,0.7-0.11c0.38-0.67,1.03-1.21,1.11-2.05c0.56-0.45,1.12-0.91,1.55-1.49c0.37-0.27,0.62-0.62,0.73-1.07
	l0.07-0.06c0.59,0.45,0.07,1.16,0.36,1.74c0.54-0.4,0.39-0.92,0.44-1.39c0.03-0.29-0.22-0.76,0.23-0.83
	c0.34-0.05,0.49,0.38,0.64,0.67c0.7,1.36-0.05,2.5-0.66,3.6c-0.9,1.61-2.2,2.91-3.43,4.27c-0.31,0.14-0.63,0.29-0.94,0.43
	c-1.94,0.73-3.42,0.41-4.54-1c0.08-0.54-0.47-0.86-0.46-1.37C74.34,45.75,74.27,45.63,74.2,45.51z"/>
<path class="st17" d="M74.2,45.51c0.07,0.12,0.13,0.24,0.2,0.37c-0.68,0.13-1.1,0.46-0.98,1.23c-0.25,0.3-0.03,0.34,0.21,0.36
	c0.08,0.19,0.24,0.2,0.41,0.18c-0.4,0.34-0.79,0.33-1.18-0.02c0.03-0.45,0.3-1.01-0.2-1.29c-0.49-0.28-0.74,0.19-0.97,0.56
	c-0.08-0.19-0.22-0.08-0.34-0.06c0.06-0.37,0.12-0.74,0.19-1.19C72.45,46.07,73.35,46.08,74.2,45.51z"/>
<path class="st16" d="M74.03,47.64c-0.17,0.02-0.33,0.01-0.41-0.18c-0.07-0.12-0.14-0.24-0.21-0.36c-0.12-0.77,0.3-1.1,0.98-1.23
	c0,0.51,0.55,0.83,0.46,1.37C74.55,47.29,74.28,47.44,74.03,47.64z"/>
<path class="st16" d="M71.68,46.89c0.22-0.37,0.48-0.83,0.97-0.56c0.5,0.29,0.23,0.84,0.2,1.29C72.03,48.06,71.82,47.54,71.68,46.89
	z"/>
<path class="st13" d="M90.3,23.17c0.42,0.32,0.55,0.95,1.16,1.06c-0.04,0.76-0.36,1.52,0.02,2.27c-0.06-0.02-0.18-0.03-0.18-0.05
	C91.28,25.26,90.48,24.31,90.3,23.17z"/>
<path class="st13" d="M92.26,27.2c0.04,0.38-0.38,0.54-0.41,0.89c-0.12,0-0.25,0-0.37,0l0,0c0-0.53,0-1.05,0-1.58
	C91.74,26.74,92,26.97,92.26,27.2z"/>
<path class="st13" d="M90.67,29.11c-0.19-0.17-0.37-0.35-0.38-0.62c0.41-0.1,0.7-0.55,1.19-0.4c0,0,0,0,0,0
	C91.4,28.58,90.9,28.74,90.67,29.11z"/>
<path class="st15" d="M80.35,47.81c1.23-1.36,2.54-2.66,3.43-4.27c0.61-1.1,1.36-2.23,0.66-3.6c-0.15-0.29-0.31-0.72-0.64-0.67
	c-0.45,0.07-0.2,0.54-0.23,0.83c-0.05,0.47,0.09,0.99-0.44,1.39c-0.29-0.58,0.23-1.29-0.36-1.74c-0.4-0.55-1.05-0.75-1.6-1.08
	c-0.87-0.53-1.57-1.26-2.36-1.89c-0.24-0.15-0.22-0.38-0.19-0.61c1.45,0.57,2.94,0.89,4.48,0.41c1.41-0.44,2.24-1.5,2.58-2.86
	c0.31-1.21-1.15-2.39-2.59-2.16c-0.74,0.12-1.48,0.29-2.19,0.53c-2.62,0.87-4.3,0.18-5.74-1.82c-0.65-0.91-0.78-1.85-0.1-2.81
	c0.06-0.01,0.11,0.01,0.16,0.05c0,0.58-0.02,1.16,0.23,1.71c0.14,0.31,0.33,0.56,0.69,0.61c0.39,0.06,0.6-0.17,0.73-0.5
	c0.13-0.33,0.35-0.54,0.74-0.48c0.29,0.38-0.63,0.88,0.12,1.22c-0.03,0.44,0.3,0.33,0.54,0.33c0.51,0.01,1.02-0.01,1.5,0.22
	c1.06,0.45,2.06,0.27,2.89-0.48c0.38-0.34,0.65-0.8,1.23-0.92c-2.16-2.2-3.72-2.34-6.07-0.61c-0.37-0.54,0.08-0.72,0.41-0.96
	c0.48-0.35,0.96-0.7,0.56-1.4c1.66-0.83,3.08,0.38,4.53,0.7c-0.34-0.43-0.65-0.83-0.96-1.23c0.68-0.35,0.66-1.05,0.8-1.65
	c0.06-0.27-0.04-0.59,0.23-0.8c2.09,2.02,4.19,4.03,6.25,6.07c0.66,0.65,1.09,1.53,2.04,1.86c0.66,0.66,0.99,1.51,1.36,2.33
	c0.15,0.34,0.3,0.64,0.6,0.85c0.4,1.75,0.27,2.1-0.94,2.58c0.02-0.56-0.11-1.03-0.76-1.28c-0.02,0.32-0.04,0.61-0.06,0.89
	c-0.35-0.09-0.63-0.14-0.59,0.4c0.03,0.45-0.02,0.91-0.03,1.36c-0.78-0.03-1.59,0.19-2.08,0.69c-1.03,1.06-1.38,2.39-0.84,3.85
	c-1.62,1.89-3.77,3.05-5.96,4.1C81.71,47.33,81.11,47.79,80.35,47.81z"/>
<path class="st15" d="M85.59,58.23c-1.09-0.24-1.11-1.2-1.22-1.99c-0.21-1.58-0.26-3.18-0.44-4.76c-0.16-1.4-1.1-2.23-2.3-2.83
	c-0.23-0.11-0.5-0.16-0.66-0.39c2.22-0.84,5.54,0.27,6.03,3c0.35,1.92,1.09,3.77,1.51,5.69C87.59,57.48,86.73,58.17,85.59,58.23z"/>
<path class="st16" d="M92.65,38.96c-0.31-0.25-0.41-0.45-0.28-0.82c0.13-0.37,0.21-0.75,0.31-1.13v0c0.02-0.56-0.11-1.03-0.76-1.28
	c-0.02,0.32-0.04,0.61-0.06,0.89c0.39,0.62,0,1.18-0.14,1.75c-0.06,0.22-0.31,0.17-0.48,0.01h0c-0.78-0.03-1.59,0.19-2.08,0.69
	c-1.03,1.06-1.38,2.39-0.84,3.85c0.32,0.18,0.66,0.4,0.7,0.76c0.03,0.31-0.34,0.22-0.54,0.22c-0.46,0.01-0.76,0.17-0.75,0.68
	c0.01,0.4,0.07,0.81,0.55,0.91c0.48,0.09,0.94,0.01,1.14-0.5c0.1-0.26,0.05-0.57,0.06-0.86c-0.02-0.04-0.05-0.07-0.07-0.11
	c0.04,0.03,0.07,0.05,0.11,0.07c0.13,0.04,0.25,0.07,0.38,0.11c1.71,0.51,3.07,0.05,3.79-1.3C94.44,41.44,94.11,40.13,92.65,38.96z
	 M91.67,42.1c-0.8,0.28-1.54-0.02-1.77-0.74c0.08-0.73-0.44-1.78,0.96-1.81c0.85-0.43,1.28,0.06,1.55,0.75
	C92.69,41.03,92.31,41.87,91.67,42.1z"/>
<path class="st16" d="M90.44,44.7c0.65,0.04,0.92,0.51,1,1.03c0.07,0.44-0.29,0.72-0.74,0.73c-0.57,0.01-0.93-0.31-0.98-0.88
	C89.67,45.09,89.95,44.8,90.44,44.7z"/>
<path class="st16" d="M92.67,46.09c-0.55,0.05-0.76-0.31-0.79-0.83c-0.04-0.58,0.36-0.7,0.81-0.75c0.65-0.07,0.91,0.39,0.92,0.89
	C93.63,45.88,93.21,46.1,92.67,46.09z"/>
<path class="st7" d="M76.82,64.87c0.21-0.53,0.58-0.82,1.16-0.81C77.85,64.7,77.43,64.92,76.82,64.87z"/>
<path class="st9" d="M90.67,29.11c0.23-0.37,0.73-0.53,0.81-1.02c0.12,0,0.25,0,0.37,0c0.01,0.26,0.02,0.52,0.04,0.78
	c-0.14,0.44-0.42,0.72-0.87,0.83C90.79,29.57,90.71,29.35,90.67,29.11z"/>
<path class="st13" d="M75.06,43.11c-0.14-0.26-0.28-0.52-0.42-0.79c-0.27-0.64-0.03-1.43-0.63-1.98c-0.12-0.11,0.17-0.23,0.25-0.35
	c2.18,0.23,4.36-0.54,6.54-0.03c0,0.12,0,0.24,0,0.36c-1.91,0.5-3.88,0.4-5.86,0.49c0.42,1.17,1.43,1.58,2.88,1.23
	c1.32-0.32,2.53-0.92,3.74-1.5c0.23,0,0.39,0.09,0.41,0.35c-0.43,0.58-0.99,1.04-1.55,1.49c-0.19,0.12-0.38,0.24-0.57,0.36
	c-1.45,0.91-2.91,1.71-4.62,0.58c0,0,0-0.01,0-0.01C75.17,43.25,75.11,43.18,75.06,43.11z"/>
<path class="st17" d="M75.22,27.53c-0.04-0.04-0.1-0.06-0.16-0.05c-0.24-1.04,0.16-1.62,1.23-1.81c1.03-0.19,2.04-0.49,3.07-0.71
	c1.11-0.23,2.05,0.27,2.97,0.8c0.31,0.4,0.63,0.8,0.96,1.23c-1.45-0.33-2.87-1.53-4.53-0.7C77.55,26.57,76.37,27.02,75.22,27.53z"/>
<path class="st11" d="M78.62,36.19c-0.03,0.23-0.04,0.46,0.19,0.61c-0.09,1.2-0.48,1.72-1.6,1.9c-0.64,0.1-1.18,0.38-1.73,0.66
	c-0.45,0.23-0.9,0.25-1.29-0.08c-0.19-0.16-0.42-0.41-0.44-0.63c-0.04-0.4,0.4-0.19,0.6-0.33c0.97-0.66,2.01-1.03,3.23-0.98
	c0.63,0.03,0.83-0.55,0.84-1.13C78.49,36.2,78.55,36.2,78.62,36.19L78.62,36.19z"/>
<path class="st15" d="M70.15,30.77c0.56,0.36,1.12,0.37,1.73,0.08c0.52-0.24,1.09-0.39,1.63-0.58c0.24,0.61,0.33,1.28-0.3,1.64
	c-0.69,0.4-1.48,0.75-2.3,0.31C70.36,31.93,70.38,31.27,70.15,30.77z"/>
<path class="st11" d="M80.8,40.33c0-0.12,0-0.24,0-0.36c0.63-0.05,1.27-0.1,1.9-0.14c-0.11,0.45-0.36,0.8-0.73,1.07
	c-0.02-0.25-0.18-0.35-0.41-0.35C81.4,40.11,81.04,40.44,80.8,40.33z"/>
<path class="st15" d="M78.61,36.18c-0.06,0.01-0.13,0.02-0.19,0.02c-0.23-0.18-0.37-0.41-0.5-0.78
	C78.35,35.58,78.58,35.79,78.61,36.18z"/>
<path class="st6" d="M72.44,41.94c0.04-0.02,0.07-0.06,0.08-0.1c0.53,0.53,0.79,1.21,1.12,1.86c-0.62,0.44-1.22,0.76-1.63-0.24
	C72.15,42.95,72.29,42.45,72.44,41.94z"/>
<path class="st7" d="M72.44,41.94c-0.15,0.51-0.29,1.01-0.44,1.51c-0.6-0.3-0.3-0.83-0.26-1.24C71.77,41.85,72.16,41.92,72.44,41.94
	z"/>
<path class="st5" d="M71.59,30.65c-0.82,0-1.44-0.09-1.5-0.9c-0.06-0.76,0.56-0.8,1.22-0.99C71.04,29.48,71.14,30.05,71.59,30.65z"
	/>
<path class="st15" d="M75.23,43.33c1.71,1.13,3.17,0.33,4.62-0.58c0.19-0.12,0.38-0.24,0.57-0.36c-0.08,0.84-0.73,1.37-1.11,2.05
	c-0.17,0.3-0.43,0.18-0.7,0.11c-0.83-0.22-1.64-0.3-2.51-0.07C75.06,44.74,75.24,43.93,75.23,43.33z"/>
<path class="st15" d="M75.06,43.11c0.06,0.07,0.11,0.14,0.17,0.21C75.17,43.25,75.11,43.18,75.06,43.11z"/>
<path class="st6" d="M73.42,47.1c0.07,0.12,0.14,0.24,0.21,0.36C73.39,47.44,73.17,47.4,73.42,47.1z"/>
<path class="st17" d="M77.81,28.65c2.35-1.73,3.91-1.59,6.07,0.61c-0.58,0.11-0.85,0.57-1.23,0.92c-0.83,0.75-1.82,0.93-2.89,0.48
	c0.12-0.22,0.63-0.26,0.27-0.71c-0.22-0.28-0.28-0.66-0.2-1.02c0.13-0.61-0.23-0.49-0.55-0.36c-0.72,0.3-1.2,0.86-1.56,1.54
	c-0.75-0.34,0.17-0.84-0.12-1.22C77.67,28.81,77.74,28.73,77.81,28.65z"/>
<path class="st11" d="M77.81,28.65c-0.07,0.08-0.14,0.16-0.2,0.24c-0.39-0.07-0.61,0.14-0.74,0.48c-0.13,0.33-0.34,0.56-0.73,0.5
	c-0.36-0.05-0.55-0.3-0.69-0.61c-0.24-0.55-0.22-1.13-0.23-1.71c1.15-0.51,2.32-0.96,3.55-1.25c0.4,0.7-0.08,1.05-0.56,1.4
	C77.89,27.93,77.43,28.11,77.81,28.65z"/>
<path class="st5" d="M77.72,30.1c0.35-0.68,0.83-1.24,1.56-1.54c0.31-0.13,0.68-0.25,0.55,0.36c-0.08,0.36-0.02,0.75,0.2,1.02
	c0.36,0.45-0.15,0.49-0.27,0.71c-0.48-0.23-0.99-0.21-1.5-0.22C78.03,30.43,77.7,30.55,77.72,30.1z"/>
<path class="st11" d="M91.86,36.62c0.39,0.62,0,1.18-0.15,1.75c-0.05,0.22-0.31,0.17-0.48,0.01c0.01-0.46,0.07-0.91,0.03-1.36
	C91.23,36.48,91.51,36.53,91.86,36.62z"/>
<path class="st11" d="M90.87,39.55c0.85-0.43,1.28,0.06,1.55,0.75c0.28,0.72-0.11,1.57-0.74,1.79c-0.8,0.28-1.54-0.02-1.77-0.74
	C90.72,41.02,90.69,40.23,90.87,39.55z"/>
<path class="st15" d="M90.87,39.55c-0.18,0.68-0.14,1.47-0.96,1.81C89.98,40.63,89.47,39.59,90.87,39.55z"/>
<path class="st11" d="M89.47,44.13c-0.02-0.04-0.05-0.07-0.07-0.11c0.04,0.02,0.07,0.05,0.11,0.07
	C89.51,44.09,89.47,44.13,89.47,44.13z"/>
<path class="st5" d="M80.8,40.33c0.24,0.11,0.61-0.22,0.76,0.21c-1.22,0.58-2.42,1.18-3.74,1.5c-1.45,0.35-2.45-0.06-2.88-1.23
	C76.92,40.73,78.89,40.83,80.8,40.33z"/>
<path class="st10" d="M80.18,10.64c-1.94,1.14-3.35,0.66-4.24-1.43c-0.03-0.07-0.16-0.1-0.24-0.14h0c0.01-0.04,0.02-0.09,0.03-0.13
	c0.01-0.04,0.02-0.09,0.03-0.13c0.02-0.09,0.04-0.17,0.06-0.25c0.03-0.12,0.06-0.25,0.1-0.37c0.02-0.08,0.05-0.16,0.08-0.24
	c0.01-0.04,0.03-0.08,0.04-0.12c0.06-0.15,0.12-0.3,0.2-0.44c0.04-0.07,0.08-0.14,0.12-0.2c0.34-0.52,0.87-0.9,1.71-1.04
	c0.88-0.15,1.5,0.29,2.17,0.66c0.21,0.12,0.08,0.25-0.03,0.39C79.24,8.34,79.57,9.49,80.18,10.64z"/>
</svg>
