<svg xmlns="http://www.w3.org/2000/svg" xmlns:xlink="http://www.w3.org/1999/xlink" viewBox="0 0 167 128"><defs><style>.cls-1{mask:url(#mask);filter:url(#luminosity-noclip-2);}.cls-2,.cls-6{mix-blend-mode:multiply;}.cls-2{fill:url(#linear-gradient);}.cls-3{isolation:isolate;}.cls-4{fill:url(#radial-gradient);}.cls-5{mask:url(#mask-2);}.cls-6{fill:url(#linear-gradient-2);}.cls-7,.cls-8{fill:url(#New_Gradient_35);}.cls-116,.cls-8{mix-blend-mode:screen;}.cls-8{opacity:0.44;}.cls-9{fill:url(#New_Gradient_35-3);}.cls-10{fill:url(#New_Gradient_35-4);}.cls-11{fill:url(#New_Gradient_35-5);}.cls-12{fill:url(#New_Gradient_35-6);}.cls-13{fill:url(#New_Gradient_35-7);}.cls-14{fill:url(#New_Gradient_35-8);}.cls-15{fill:url(#New_Gradient_35-9);}.cls-16{fill:url(#New_Gradient_35-10);}.cls-17{fill:url(#New_Gradient_35-11);}.cls-18{fill:url(#New_Gradient_35-12);}.cls-19{fill:url(#New_Gradient_35-13);}.cls-20{fill:url(#New_Gradient_35-14);}.cls-21{fill:url(#New_Gradient_35-15);}.cls-22{fill:url(#New_Gradient_35-16);}.cls-23{fill:url(#New_Gradient_35-17);}.cls-24{fill:url(#New_Gradient_35-18);}.cls-25{fill:url(#New_Gradient_35-19);}.cls-26{fill:url(#New_Gradient_35-20);}.cls-27{fill:url(#New_Gradient_35-21);}.cls-28{fill:url(#New_Gradient_35-22);}.cls-29{fill:url(#New_Gradient_35-23);}.cls-30{fill:url(#New_Gradient_35-24);}.cls-31{fill:url(#New_Gradient_35-25);}.cls-32{fill:url(#New_Gradient_35-26);}.cls-33{fill:url(#New_Gradient_35-27);}.cls-34{fill:url(#New_Gradient_35-28);}.cls-35{fill:url(#New_Gradient_35-29);}.cls-36{fill:url(#New_Gradient_35-30);}.cls-37{fill:url(#New_Gradient_35-31);}.cls-38{fill:url(#New_Gradient_35-32);}.cls-39{fill:url(#New_Gradient_35-33);}.cls-40{fill:url(#New_Gradient_35-34);}.cls-41{fill:url(#New_Gradient_35-35);}.cls-42{fill:url(#New_Gradient_35-36);}.cls-43{fill:url(#New_Gradient_35-37);}.cls-44{fill:url(#New_Gradient_35-38);}.cls-45{fill:url(#New_Gradient_35-39);}.cls-46{fill:url(#New_Gradient_35-40);}.cls-47{fill:url(#New_Gradient_35-41);}.cls-48{fill:url(#New_Gradient_35-42);}.cls-49{fill:url(#New_Gradient_35-43);}.cls-50{fill:url(#New_Gradient_35-44);}.cls-51{fill:url(#New_Gradient_35-45);}.cls-52{fill:url(#New_Gradient_35-46);}.cls-53{fill:url(#New_Gradient_35-47);}.cls-54{fill:url(#New_Gradient_35-48);}.cls-55{fill:url(#New_Gradient_35-49);}.cls-56{fill:url(#New_Gradient_35-50);}.cls-57{fill:url(#New_Gradient_35-51);}.cls-58{fill:url(#New_Gradient_35-52);}.cls-59{fill:url(#New_Gradient_35-53);}.cls-60{fill:url(#New_Gradient_35-54);}.cls-61{fill:url(#New_Gradient_35-55);}.cls-62{fill:url(#New_Gradient_35-56);}.cls-63{fill:url(#New_Gradient_35-57);}.cls-64{fill:url(#New_Gradient_35-58);}.cls-65{fill:url(#New_Gradient_35-59);}.cls-66{fill:url(#New_Gradient_35-60);}.cls-67{fill:url(#New_Gradient_35-61);}.cls-68{fill:url(#New_Gradient_35-62);}.cls-69{fill:url(#New_Gradient_35-63);}.cls-70{fill:url(#New_Gradient_35-64);}.cls-71{fill:url(#New_Gradient_35-65);}.cls-72{fill:url(#New_Gradient_35-66);}.cls-73{fill:url(#New_Gradient_35-67);}.cls-74{fill:url(#New_Gradient_35-68);}.cls-75{fill:url(#New_Gradient_35-69);}.cls-76{fill:url(#New_Gradient_35-70);}.cls-77{fill:url(#New_Gradient_35-71);}.cls-78{fill:url(#New_Gradient_35-72);}.cls-79{fill:url(#New_Gradient_35-73);}.cls-80{fill:url(#New_Gradient_35-74);}.cls-81{fill:url(#New_Gradient_35-75);}.cls-82{fill:url(#New_Gradient_35-76);}.cls-83{fill:url(#New_Gradient_35-77);}.cls-84{fill:url(#New_Gradient_35-78);}.cls-85{fill:url(#New_Gradient_35-79);}.cls-86{fill:url(#New_Gradient_35-80);}.cls-87{fill:url(#New_Gradient_35-81);}.cls-88{fill:url(#New_Gradient_35-82);}.cls-89{fill:url(#New_Gradient_35-83);}.cls-90{fill:url(#New_Gradient_35-84);}.cls-91{fill:url(#New_Gradient_35-85);}.cls-92{fill:url(#New_Gradient_35-86);}.cls-93{fill:url(#New_Gradient_35-87);}.cls-94{fill:url(#New_Gradient_35-88);}.cls-95{fill:url(#New_Gradient_35-89);}.cls-96{fill:url(#New_Gradient_35-90);}.cls-97{fill:url(#New_Gradient_35-91);}.cls-98{fill:url(#New_Gradient_35-92);}.cls-99{fill:url(#New_Gradient_35-93);}.cls-100{fill:url(#New_Gradient_35-94);}.cls-101{fill:url(#New_Gradient_35-95);}.cls-102{fill:url(#New_Gradient_35-96);}.cls-103{fill:url(#New_Gradient_35-97);}.cls-104{fill:url(#New_Gradient_35-98);}.cls-105{fill:url(#New_Gradient_35-99);}.cls-106{fill:url(#New_Gradient_35-100);}.cls-107{fill:url(#New_Gradient_35-101);}.cls-108{fill:url(#New_Gradient_35-102);}.cls-109{fill:url(#New_Gradient_35-103);}.cls-110{fill:url(#New_Gradient_35-104);}.cls-111{fill:url(#New_Gradient_35-105);}.cls-112{fill:url(#New_Gradient_35-106);}.cls-113{fill:url(#New_Gradient_35-107);}.cls-114{fill:url(#New_Gradient_35-108);}.cls-115{fill:url(#New_Gradient_35-109);}.cls-116{opacity:0.4;}.cls-117{fill:#fff;}.cls-118{filter:url(#luminosity-noclip);}</style><filter id="luminosity-noclip" x="22.89" y="-8256" width="127.66" height="32766" filterUnits="userSpaceOnUse" color-interpolation-filters="sRGB"><feFlood flood-color="#fff" result="bg"/><feBlend in="SourceGraphic" in2="bg"/></filter><mask id="mask" x="22.89" y="-8256" width="127.66" height="32766" maskUnits="userSpaceOnUse"><g class="cls-118"/></mask><linearGradient id="linear-gradient" x1="86.4" y1="38.16" x2="87.32" y2="103.81" gradientUnits="userSpaceOnUse"><stop offset="0.33"/><stop offset="0.89" stop-color="#4d4d4d"/></linearGradient><radialGradient id="radial-gradient" cx="96.1" cy="46.75" r="293.29" gradientUnits="userSpaceOnUse"><stop offset="0.07" stop-color="#ec1c24"/><stop offset="0.93" stop-color="#c3161c"/></radialGradient><filter id="luminosity-noclip-2" x="22.89" y="39.06" width="127.66" height="63.42" filterUnits="userSpaceOnUse" color-interpolation-filters="sRGB"><feFlood flood-color="#fff" result="bg"/><feBlend in="SourceGraphic" in2="bg"/></filter><mask id="mask-2" x="22.89" y="39.06" width="127.66" height="63.42" maskUnits="userSpaceOnUse"><g class="cls-1"><path class="cls-2" d="M137.07,102.48a1.93,1.93,0,0,1-.49-.07l-.13,0A192.64,192.64,0,0,0,86.72,95.7,192.64,192.64,0,0,0,37,102.38l-.15,0a1.73,1.73,0,0,1-.47.06,1.78,1.78,0,0,1-1.75-1.36l-11.69-40a1.45,1.45,0,0,1,.21-1.1,4,4,0,0,1,2.38-1.78,236.35,236.35,0,0,1,45.2-7.73A6.25,6.25,0,0,0,75.26,48a6.13,6.13,0,0,0,1-2.15,6.39,6.39,0,0,0,1.93.31,6.26,6.26,0,0,0,6.13-5.11,29.37,29.37,0,0,1,2.36-2,29.37,29.37,0,0,1,2.36,2,6.26,6.26,0,0,0,6.13,5.11,6.29,6.29,0,0,0,1.93-.31,6.13,6.13,0,0,0,1,2.15,6.25,6.25,0,0,0,4.55,2.48,236.25,236.25,0,0,1,45.19,7.73A4,4,0,0,1,150.3,60a1.45,1.45,0,0,1,.21,1.1l-11.68,40a1.8,1.8,0,0,1-1.76,1.36Z"/></g></mask><linearGradient id="linear-gradient-2" x1="86.56" y1="49.54" x2="87.32" y2="103.7" gradientUnits="userSpaceOnUse"><stop offset="0.33" stop-color="#fff"/><stop offset="0.89" stop-color="#b01117"/></linearGradient><linearGradient id="New_Gradient_35" x1="87.43" y1="27.03" x2="83.91" y2="192.27" gradientUnits="userSpaceOnUse"><stop offset="0.04" stop-color="#e7c868"/><stop offset="0.96" stop-color="#704c27"/></linearGradient><linearGradient id="New_Gradient_35-3" x1="86.44" y1="9.83" x2="86.44" y2="123.58" xlink:href="#New_Gradient_35"/><linearGradient id="New_Gradient_35-4" x1="86.42" y1="9.83" x2="86.42" y2="123.58" xlink:href="#New_Gradient_35"/><linearGradient id="New_Gradient_35-5" x1="85.3" y1="9.83" x2="85.3" y2="123.58" xlink:href="#New_Gradient_35"/><linearGradient id="New_Gradient_35-6" x1="83.86" y1="9.83" x2="83.86" y2="123.58" xlink:href="#New_Gradient_35"/><linearGradient id="New_Gradient_35-7" x1="87.59" y1="9.83" x2="87.59" y2="123.58" xlink:href="#New_Gradient_35"/><linearGradient id="New_Gradient_35-8" x1="89.03" y1="9.83" x2="89.03" y2="123.58" xlink:href="#New_Gradient_35"/><linearGradient id="New_Gradient_35-9" x1="85.1" y1="9.83" x2="85.1" y2="123.58" xlink:href="#New_Gradient_35"/><linearGradient id="New_Gradient_35-10" x1="83.42" y1="9.83" x2="83.42" y2="123.58" xlink:href="#New_Gradient_35"/><linearGradient id="New_Gradient_35-11" x1="87.78" y1="9.83" x2="87.78" y2="123.58" xlink:href="#New_Gradient_35"/><linearGradient id="New_Gradient_35-12" x1="89.46" y1="9.83" x2="89.46" y2="123.58" xlink:href="#New_Gradient_35"/><linearGradient id="New_Gradient_35-13" x1="85.01" y1="9.83" x2="85.01" y2="123.58" xlink:href="#New_Gradient_35"/><linearGradient id="New_Gradient_35-14" x1="83.2" y1="9.83" x2="83.2" y2="123.58" xlink:href="#New_Gradient_35"/><linearGradient id="New_Gradient_35-15" x1="87.88" y1="9.83" x2="87.88" y2="123.58" xlink:href="#New_Gradient_35"/><linearGradient id="New_Gradient_35-16" x1="89.68" y1="9.83" x2="89.68" y2="123.58" xlink:href="#New_Gradient_35"/><linearGradient id="New_Gradient_35-17" x1="84.96" y1="9.83" x2="84.96" y2="123.58" xlink:href="#New_Gradient_35"/><linearGradient id="New_Gradient_35-18" x1="83.09" y1="9.83" x2="83.09" y2="123.58" xlink:href="#New_Gradient_35"/><linearGradient id="New_Gradient_35-19" x1="87.93" y1="9.83" x2="87.93" y2="123.58" xlink:href="#New_Gradient_35"/><linearGradient id="New_Gradient_35-20" x1="89.79" y1="9.83" x2="89.79" y2="123.58" xlink:href="#New_Gradient_35"/><linearGradient id="New_Gradient_35-21" x1="84.88" y1="9.83" x2="84.88" y2="123.58" xlink:href="#New_Gradient_35"/><linearGradient id="New_Gradient_35-22" x1="82.93" y1="9.83" x2="82.93" y2="123.58" xlink:href="#New_Gradient_35"/><linearGradient id="New_Gradient_35-23" x1="88" y1="9.83" x2="88" y2="123.58" xlink:href="#New_Gradient_35"/><linearGradient id="New_Gradient_35-24" x1="89.95" y1="9.83" x2="89.95" y2="123.58" xlink:href="#New_Gradient_35"/><linearGradient id="New_Gradient_35-25" x1="84.62" y1="9.83" x2="84.62" y2="123.58" xlink:href="#New_Gradient_35"/><linearGradient id="New_Gradient_35-26" x1="82.34" y1="9.83" x2="82.34" y2="123.58" xlink:href="#New_Gradient_35"/><linearGradient id="New_Gradient_35-27" x1="88.26" y1="9.83" x2="88.26" y2="123.58" xlink:href="#New_Gradient_35"/><linearGradient id="New_Gradient_35-28" x1="90.54" y1="9.83" x2="90.54" y2="123.58" xlink:href="#New_Gradient_35"/><linearGradient id="New_Gradient_35-29" x1="84.49" y1="9.83" x2="84.49" y2="123.58" xlink:href="#New_Gradient_35"/><linearGradient id="New_Gradient_35-30" x1="82.04" y1="9.83" x2="82.04" y2="123.58" xlink:href="#New_Gradient_35"/><linearGradient id="New_Gradient_35-31" x1="88.39" y1="9.83" x2="88.39" y2="123.58" xlink:href="#New_Gradient_35"/><linearGradient id="New_Gradient_35-32" x1="90.85" y1="9.83" x2="90.85" y2="123.58" xlink:href="#New_Gradient_35"/><linearGradient id="New_Gradient_35-33" x1="84.42" y1="9.83" x2="84.42" y2="123.58" xlink:href="#New_Gradient_35"/><linearGradient id="New_Gradient_35-34" x1="81.89" y1="9.83" x2="81.89" y2="123.58" xlink:href="#New_Gradient_35"/><linearGradient id="New_Gradient_35-35" x1="88.46" y1="9.83" x2="88.46" y2="123.58" xlink:href="#New_Gradient_35"/><linearGradient id="New_Gradient_35-36" x1="90.99" y1="9.83" x2="90.99" y2="123.58" xlink:href="#New_Gradient_35"/><linearGradient id="New_Gradient_35-37" x1="86.45" y1="9.83" x2="86.45" y2="123.58" xlink:href="#New_Gradient_35"/><linearGradient id="New_Gradient_35-38" x1="118.69" y1="9.83" x2="118.69" y2="123.58" xlink:href="#New_Gradient_35"/><linearGradient id="New_Gradient_35-39" x1="122.17" y1="9.83" x2="122.17" y2="123.58" xlink:href="#New_Gradient_35"/><linearGradient id="New_Gradient_35-40" x1="116.2" y1="9.83" x2="116.2" y2="123.58" xlink:href="#New_Gradient_35"/><linearGradient id="New_Gradient_35-41" x1="118.72" y1="9.83" x2="118.72" y2="123.58" xlink:href="#New_Gradient_35"/><linearGradient id="New_Gradient_35-42" x1="117.07" y1="9.83" x2="117.07" y2="123.58" xlink:href="#New_Gradient_35"/><linearGradient id="New_Gradient_35-43" x1="120.92" y1="9.83" x2="120.92" y2="123.58" xlink:href="#New_Gradient_35"/><linearGradient id="New_Gradient_35-44" x1="113.25" y1="9.83" x2="113.25" y2="123.58" xlink:href="#New_Gradient_35"/><linearGradient id="New_Gradient_35-45" x1="116.06" y1="9.83" x2="116.06" y2="123.58" xlink:href="#New_Gradient_35"/><linearGradient id="New_Gradient_35-46" x1="114.35" y1="9.83" x2="114.35" y2="123.58" xlink:href="#New_Gradient_35"/><linearGradient id="New_Gradient_35-47" x1="118.84" y1="9.83" x2="118.84" y2="123.58" xlink:href="#New_Gradient_35"/><linearGradient id="New_Gradient_35-48" x1="110.12" y1="9.83" x2="110.12" y2="123.58" xlink:href="#New_Gradient_35"/><linearGradient id="New_Gradient_35-49" x1="112.97" y1="9.83" x2="112.97" y2="123.58" xlink:href="#New_Gradient_35"/><linearGradient id="New_Gradient_35-50" x1="111.31" y1="9.83" x2="111.31" y2="123.58" xlink:href="#New_Gradient_35"/><linearGradient id="New_Gradient_35-51" x1="116.12" y1="9.83" x2="116.12" y2="123.58" xlink:href="#New_Gradient_35"/><linearGradient id="New_Gradient_35-52" x1="106.55" y1="9.83" x2="106.55" y2="123.58" xlink:href="#New_Gradient_35"/><linearGradient id="New_Gradient_35-53" x1="109.55" y1="9.83" x2="109.55" y2="123.58" xlink:href="#New_Gradient_35"/><linearGradient id="New_Gradient_35-54" x1="107.88" y1="9.83" x2="107.88" y2="123.58" xlink:href="#New_Gradient_35"/><linearGradient id="New_Gradient_35-55" x1="113.21" y1="9.83" x2="113.21" y2="123.58" xlink:href="#New_Gradient_35"/><linearGradient id="New_Gradient_35-56" x1="102.77" y1="9.83" x2="102.77" y2="123.58" xlink:href="#New_Gradient_35"/><linearGradient id="New_Gradient_35-57" x1="105.09" y1="9.83" x2="105.09" y2="123.58" xlink:href="#New_Gradient_35"/><linearGradient id="New_Gradient_35-58" x1="105.01" y1="9.83" x2="105.01" y2="123.58" xlink:href="#New_Gradient_35"/><linearGradient id="New_Gradient_35-59" x1="110.45" y1="9.83" x2="110.45" y2="123.58" xlink:href="#New_Gradient_35"/><linearGradient id="New_Gradient_35-60" x1="99.26" y1="9.83" x2="99.26" y2="123.58" xlink:href="#New_Gradient_35"/><linearGradient id="New_Gradient_35-61" x1="101.6" y1="9.83" x2="101.6" y2="123.58" xlink:href="#New_Gradient_35"/><linearGradient id="New_Gradient_35-62" x1="101.8" y1="9.83" x2="101.8" y2="123.58" xlink:href="#New_Gradient_35"/><linearGradient id="New_Gradient_35-63" x1="107.93" y1="9.83" x2="107.93" y2="123.58" xlink:href="#New_Gradient_35"/><linearGradient id="New_Gradient_35-64" x1="95.69" y1="9.83" x2="95.69" y2="123.58" xlink:href="#New_Gradient_35"/><linearGradient id="New_Gradient_35-65" x1="97.31" y1="9.83" x2="97.31" y2="123.58" xlink:href="#New_Gradient_35"/><linearGradient id="New_Gradient_35-66" x1="98.77" y1="9.83" x2="98.77" y2="123.58" xlink:href="#New_Gradient_35"/><linearGradient id="New_Gradient_35-67" x1="104.93" y1="9.83" x2="104.93" y2="123.58" xlink:href="#New_Gradient_35"/><linearGradient id="New_Gradient_35-68" x1="92.12" y1="9.83" x2="92.12" y2="123.58" xlink:href="#New_Gradient_35"/><linearGradient id="New_Gradient_35-69" x1="93.79" y1="9.83" x2="93.79" y2="123.58" xlink:href="#New_Gradient_35"/><linearGradient id="New_Gradient_35-70" x1="95.3" y1="9.83" x2="95.3" y2="123.58" xlink:href="#New_Gradient_35"/><linearGradient id="New_Gradient_35-71" x1="101.66" y1="9.83" x2="101.66" y2="123.58" xlink:href="#New_Gradient_35"/><linearGradient id="New_Gradient_35-72" x1="89.05" y1="9.83" x2="89.05" y2="123.58" xlink:href="#New_Gradient_35"/><linearGradient id="New_Gradient_35-73" x1="54.21" y1="9.83" x2="54.21" y2="123.58" xlink:href="#New_Gradient_35"/><linearGradient id="New_Gradient_35-74" x1="50.72" y1="9.83" x2="50.72" y2="123.58" xlink:href="#New_Gradient_35"/><linearGradient id="New_Gradient_35-75" x1="56.69" y1="9.83" x2="56.69" y2="123.58" xlink:href="#New_Gradient_35"/><linearGradient id="New_Gradient_35-76" x1="54.17" y1="9.83" x2="54.17" y2="123.58" xlink:href="#New_Gradient_35"/><linearGradient id="New_Gradient_35-77" x1="55.82" y1="9.83" x2="55.82" y2="123.58" xlink:href="#New_Gradient_35"/><linearGradient id="New_Gradient_35-78" x1="51.97" y1="9.83" x2="51.97" y2="123.58" xlink:href="#New_Gradient_35"/><linearGradient id="New_Gradient_35-79" x1="59.64" y1="9.83" x2="59.64" y2="123.58" xlink:href="#New_Gradient_35"/><linearGradient id="New_Gradient_35-80" x1="56.83" y1="9.83" x2="56.83" y2="123.58" xlink:href="#New_Gradient_35"/><linearGradient id="New_Gradient_35-81" x1="58.54" y1="9.83" x2="58.54" y2="123.58" xlink:href="#New_Gradient_35"/><linearGradient id="New_Gradient_35-82" x1="54.05" y1="9.83" x2="54.05" y2="123.58" xlink:href="#New_Gradient_35"/><linearGradient id="New_Gradient_35-83" x1="62.77" y1="9.83" x2="62.77" y2="123.58" xlink:href="#New_Gradient_35"/><linearGradient id="New_Gradient_35-84" x1="59.92" y1="9.83" x2="59.92" y2="123.58" xlink:href="#New_Gradient_35"/><linearGradient id="New_Gradient_35-85" x1="61.58" y1="9.83" x2="61.58" y2="123.58" xlink:href="#New_Gradient_35"/><linearGradient id="New_Gradient_35-86" x1="56.77" y1="9.83" x2="56.77" y2="123.58" xlink:href="#New_Gradient_35"/><linearGradient id="New_Gradient_35-87" x1="66.34" y1="9.83" x2="66.34" y2="123.58" xlink:href="#New_Gradient_35"/><linearGradient id="New_Gradient_35-88" x1="63.34" y1="9.83" x2="63.34" y2="123.58" xlink:href="#New_Gradient_35"/><linearGradient id="New_Gradient_35-89" x1="65.01" y1="9.83" x2="65.01" y2="123.58" xlink:href="#New_Gradient_35"/><linearGradient id="New_Gradient_35-90" x1="59.68" y1="9.83" x2="59.68" y2="123.58" xlink:href="#New_Gradient_35"/><linearGradient id="New_Gradient_35-91" x1="70.12" y1="9.83" x2="70.12" y2="123.58" xlink:href="#New_Gradient_35"/><linearGradient id="New_Gradient_35-92" x1="67.8" y1="9.83" x2="67.8" y2="123.58" xlink:href="#New_Gradient_35"/><linearGradient id="New_Gradient_35-93" x1="67.89" y1="9.83" x2="67.89" y2="123.58" xlink:href="#New_Gradient_35"/><linearGradient id="New_Gradient_35-94" x1="62.44" y1="9.83" x2="62.44" y2="123.58" xlink:href="#New_Gradient_35"/><linearGradient id="New_Gradient_35-95" x1="73.63" y1="9.83" x2="73.63" y2="123.58" xlink:href="#New_Gradient_35"/><linearGradient id="New_Gradient_35-96" x1="71.29" y1="9.83" x2="71.29" y2="123.58" xlink:href="#New_Gradient_35"/><linearGradient id="New_Gradient_35-97" x1="71.09" y1="9.83" x2="71.09" y2="123.58" xlink:href="#New_Gradient_35"/><linearGradient id="New_Gradient_35-98" x1="64.96" y1="9.83" x2="64.96" y2="123.58" xlink:href="#New_Gradient_35"/><linearGradient id="New_Gradient_35-99" x1="77.2" y1="9.83" x2="77.2" y2="123.58" xlink:href="#New_Gradient_35"/><linearGradient id="New_Gradient_35-100" x1="75.59" y1="9.83" x2="75.59" y2="123.58" xlink:href="#New_Gradient_35"/><linearGradient id="New_Gradient_35-101" x1="74.12" y1="9.83" x2="74.12" y2="123.58" xlink:href="#New_Gradient_35"/><linearGradient id="New_Gradient_35-102" x1="67.96" y1="9.83" x2="67.96" y2="123.58" xlink:href="#New_Gradient_35"/><linearGradient id="New_Gradient_35-103" x1="80.77" y1="9.83" x2="80.77" y2="123.58" xlink:href="#New_Gradient_35"/><linearGradient id="New_Gradient_35-104" x1="79.11" y1="9.83" x2="79.11" y2="123.58" xlink:href="#New_Gradient_35"/><linearGradient id="New_Gradient_35-105" x1="77.6" y1="9.83" x2="77.6" y2="123.58" xlink:href="#New_Gradient_35"/><linearGradient id="New_Gradient_35-106" x1="71.23" y1="9.83" x2="71.23" y2="123.58" xlink:href="#New_Gradient_35"/><linearGradient id="New_Gradient_35-107" x1="83.84" y1="9.83" x2="83.84" y2="123.58" xlink:href="#New_Gradient_35"/><linearGradient id="New_Gradient_35-108" x1="78.78" y1="9.83" x2="78.78" y2="123.58" xlink:href="#New_Gradient_35"/><linearGradient id="New_Gradient_35-109" x1="94.11" y1="9.83" x2="94.11" y2="123.58" xlink:href="#New_Gradient_35"/></defs><g class="cls-3"><g id="Layer_1" data-name="Layer 1"><path class="cls-4" d="M70.27,43.92a242.63,242.63,0,0,0-46.41,7.94h-.07a10.26,10.26,0,0,0-6.12,4.78,7.61,7.61,0,0,0-.73,5.85l11.69,40a8,8,0,0,0,10,5.53h0a186.46,186.46,0,0,1,48.12-6.47A186.35,186.35,0,0,1,134.84,108h0a8.21,8.21,0,0,0,2.22.31h0a8,8,0,0,0,7.74-5.84l11.69-40a7.61,7.61,0,0,0-.73-5.85,10.26,10.26,0,0,0-6.12-4.78h-.06a242.73,242.73,0,0,0-46.42-7.94S83.17,43.07,70.27,43.92Z"/><g class="cls-5"><path class="cls-6" d="M102.73,50.51a236.25,236.25,0,0,1,45.19,7.73A4,4,0,0,1,150.3,60a1.45,1.45,0,0,1,.21,1.1l-11.68,40a1.8,1.8,0,0,1-1.76,1.36h0a1.93,1.93,0,0,1-.49-.07l-.13,0A192.64,192.64,0,0,0,86.72,95.7,192.64,192.64,0,0,0,37,102.38l-.15,0a1.73,1.73,0,0,1-.47.06,1.78,1.78,0,0,1-1.75-1.36l-11.69-40a1.45,1.45,0,0,1,.21-1.1,4,4,0,0,1,2.38-1.78,236.35,236.35,0,0,1,45.2-7.73"/></g><path class="cls-7" d="M153,58.05a7.06,7.06,0,0,0-4.24-3.25,240.48,240.48,0,0,0-46-7.82.42.42,0,0,0-.45.32l-.27,1a.42.42,0,0,0,.06.36.45.45,0,0,0,.33.19,237.56,237.56,0,0,1,45.84,7.77A5.14,5.14,0,0,1,151.32,59a2.66,2.66,0,0,1,.31,2L140,101a3,3,0,0,1-2.87,2.19,2.79,2.79,0,0,1-.81-.12l-.07,0a191.89,191.89,0,0,0-49.35-6.6h-.12a191.66,191.66,0,0,0-49.5,6.64l-.07,0a3,3,0,0,1-.81.11A3,3,0,0,1,33.5,101L21.81,61a2.65,2.65,0,0,1,.31-2,5.13,5.13,0,0,1,3.07-2.34,238.83,238.83,0,0,1,45.87-7.8.42.42,0,0,0,.32-.19.42.42,0,0,0,.07-.36q-.14-.49-.27-1a.44.44,0,0,0-.45-.32,240.09,240.09,0,0,0-46.06,7.86,7,7,0,0,0-4.22,3.25A4.48,4.48,0,0,0,20,61.53l11.69,40a4.88,4.88,0,0,0,4.7,3.56,4.5,4.5,0,0,0,1.33-.19h0a189.87,189.87,0,0,1,49-6.58h.15a189.64,189.64,0,0,1,48.84,6.54l.06,0a4.86,4.86,0,0,0,6-3.38l11.66-40A4.51,4.51,0,0,0,153,58.05Z"/><path class="cls-8" d="M153,58.05a7.06,7.06,0,0,0-4.24-3.25,240.48,240.48,0,0,0-46-7.82.42.42,0,0,0-.45.32l-.27,1a.42.42,0,0,0,.06.36.45.45,0,0,0,.33.19,237.56,237.56,0,0,1,45.84,7.77A5.14,5.14,0,0,1,151.32,59a2.66,2.66,0,0,1,.31,2L140,101a3,3,0,0,1-2.87,2.19,2.79,2.79,0,0,1-.81-.12l-.07,0a191.89,191.89,0,0,0-49.35-6.6h-.12a191.66,191.66,0,0,0-49.5,6.64l-.07,0a3,3,0,0,1-.81.11A3,3,0,0,1,33.5,101L21.81,61a2.65,2.65,0,0,1,.31-2,5.13,5.13,0,0,1,3.07-2.34,238.83,238.83,0,0,1,45.87-7.8.42.42,0,0,0,.32-.19.42.42,0,0,0,.07-.36q-.14-.49-.27-1a.44.44,0,0,0-.45-.32,240.09,240.09,0,0,0-46.06,7.86,7,7,0,0,0-4.22,3.25A4.48,4.48,0,0,0,20,61.53l11.69,40a4.88,4.88,0,0,0,4.7,3.56,4.5,4.5,0,0,0,1.33-.19h0a189.87,189.87,0,0,1,49-6.58h.15a189.64,189.64,0,0,1,48.84,6.54l.06,0a4.86,4.86,0,0,0,6-3.38l11.66-40A4.51,4.51,0,0,0,153,58.05Z"/><path class="cls-9" d="M87.25,7.09c0,1.63-.81,2-.81,2s-.8-.28-.8-2,.8-2,.8-2A2.18,2.18,0,0,1,87.25,7.09Z"/><path class="cls-10" d="M86.44,0s0,1.68.06,3.9a3,3,0,0,0,.38,1.68c.24.49-1,.28-.94.08a3.08,3.08,0,0,0,.43-1.76C86.44,1.74,86.39,2,86.44,0Z"/><path class="cls-11" d="M84.54,9.82c.64,1.5,1.51,1.51,1.51,1.51s.63-.58,0-2.14-1.51-1.5-1.51-1.5A2.17,2.17,0,0,0,84.54,9.82Z"/><path class="cls-12" d="M82.51,3S83.17,4.53,84,6.59a3.1,3.1,0,0,1,.31,1.7c0,.55,1-.15.9-.3A3.07,3.07,0,0,1,84.1,6.54C83.19,4.58,83.35,4.83,82.51,3Z"/><path class="cls-13" d="M88.34,9.82c-.63,1.5-1.51,1.51-1.51,1.51s-.63-.58,0-2.14,1.51-1.5,1.51-1.5A2.14,2.14,0,0,1,88.34,9.82Z"/><path class="cls-14" d="M90.37,3s-.66,1.55-1.47,3.61a3.2,3.2,0,0,0-.31,1.7c0,.55-1-.15-.89-.3a3.07,3.07,0,0,0,1.08-1.45C89.69,4.58,89.53,4.83,90.37,3Z"/><path class="cls-15" d="M84.22,13.1C85,14.85,86,14.86,86,14.86s.73-.67,0-2.49-1.76-1.76-1.76-1.76A2.53,2.53,0,0,0,84.22,13.1Z"/><path class="cls-16" d="M81.86,5.11s.76,1.81,1.71,4.22a3.6,3.6,0,0,1,.36,2c0,.64,1.23-.17,1-.35a3.57,3.57,0,0,1-1.27-1.69C82.65,7,82.83,7.27,81.86,5.11Z"/><path class="cls-17" d="M88.66,13.1c-.74,1.75-1.77,1.76-1.77,1.76s-.73-.67,0-2.49,1.77-1.76,1.77-1.76A2.55,2.55,0,0,1,88.66,13.1Z"/><path class="cls-18" d="M91,5.11s-.77,1.81-1.72,4.22a3.6,3.6,0,0,0-.36,2c0,.64-1.22-.17-1-.35a3.57,3.57,0,0,0,1.26-1.69C90.23,7,90.05,7.27,91,5.11Z"/><path class="cls-19" d="M84.06,16.9c.8,1.88,1.89,1.89,1.89,1.89s.8-.72,0-2.68S84,14.22,84,14.22A2.71,2.71,0,0,0,84.06,16.9Z"/><path class="cls-20" d="M81.52,8.31s.82,1.95,1.84,4.54A4,4,0,0,1,83.75,15c0,.69,1.31-.18,1.12-.37a3.75,3.75,0,0,1-1.36-1.82C82.37,10.32,82.56,10.63,81.52,8.31Z"/><path class="cls-21" d="M88.83,16.9c-.8,1.88-1.9,1.89-1.9,1.89s-.79-.72,0-2.68,1.89-1.89,1.89-1.89A2.73,2.73,0,0,1,88.83,16.9Z"/><path class="cls-22" d="M91.36,8.31s-.82,1.95-1.83,4.54A3.82,3.82,0,0,0,89.14,15c0,.69-1.32-.18-1.12-.37a3.82,3.82,0,0,0,1.35-1.82C90.51,10.32,90.32,10.63,91.36,8.31Z"/><path class="cls-23" d="M84,21.23c.82,1.94,2,1.95,2,1.95s.81-.74,0-2.77-2-1.95-2-1.95S83.21,19.41,84,21.23Z"/><path class="cls-24" d="M81.35,12.36s.86,2,1.9,4.68a4,4,0,0,1,.41,2.2c0,.71,1.36-.19,1.15-.38A4.09,4.09,0,0,1,83.41,17C82.23,14.44,82.44,14.76,81.35,12.36Z"/><path class="cls-25" d="M88.9,21.23c-.82,1.94-2,1.95-2,1.95s-.81-.74,0-2.77,2-1.95,2-1.95S89.67,19.41,88.9,21.23Z"/><path class="cls-26" d="M91.53,12.36s-.85,2-1.9,4.68a4,4,0,0,0-.4,2.2c0,.71-1.36-.19-1.16-.38A4,4,0,0,0,89.47,17C90.65,14.44,90.45,14.76,91.53,12.36Z"/><path class="cls-27" d="M83.86,25.55c.86,2,2,2.05,2,2.05s.86-.78,0-2.9-2.06-2.05-2.06-2.05S83.05,23.65,83.86,25.55Z"/><path class="cls-28" d="M81.1,16.24s.89,2.11,2,4.92a4.31,4.31,0,0,1,.42,2.31c0,.74,1.43-.2,1.21-.41a4.09,4.09,0,0,1-1.47-2C82,18.42,82.24,18.76,81.1,16.24Z"/><path class="cls-29" d="M89,25.55c-.87,2-2.06,2.05-2.06,2.05s-.86-.78,0-2.9,2.06-2.05,2.06-2.05S89.83,23.65,89,25.55Z"/><path class="cls-30" d="M91.78,16.24s-.89,2.11-2,4.92a4.26,4.26,0,0,0-.43,2.31c0,.74-1.42-.2-1.21-.41a4.09,4.09,0,0,0,1.47-2C90.86,18.42,90.65,18.76,91.78,16.24Z"/><path class="cls-31" d="M83.42,30c1,2.39,2.4,2.4,2.4,2.4s1-.92,0-3.39-2.4-2.4-2.4-2.4S82.48,27.79,83.42,30Z"/><path class="cls-32" d="M80.21,19.15s1,2.46,2.33,5.74A4.93,4.93,0,0,1,83,27.58c0,.87,1.67-.24,1.42-.47a4.86,4.86,0,0,1-1.72-2.31C81.28,21.69,81.53,22.08,80.21,19.15Z"/><path class="cls-33" d="M89.46,30c-1,2.39-2.4,2.4-2.4,2.4s-1-.92,0-3.39,2.4-2.4,2.4-2.4S90.4,27.79,89.46,30Z"/><path class="cls-34" d="M92.68,19.15s-1.05,2.46-2.33,5.74a5,5,0,0,0-.5,2.69c.06.87-1.66-.24-1.41-.47a4.93,4.93,0,0,0,1.71-2.31C91.6,21.69,91.35,22.08,92.68,19.15Z"/><path class="cls-35" d="M83.2,35.17c1.08,2.56,2.58,2.57,2.58,2.57s1.07-1,0-3.64-2.58-2.57-2.58-2.57S82.19,32.78,83.2,35.17Z"/><path class="cls-36" d="M79.75,23.5s1.12,2.65,2.5,6.17a5.41,5.41,0,0,1,.53,2.89c-.06.93,1.79-.25,1.52-.51a5.18,5.18,0,0,1-1.84-2.47C80.9,26.23,81.17,26.66,79.75,23.5Z"/><path class="cls-37" d="M89.68,35.17c-1.08,2.56-2.58,2.57-2.58,2.57s-1.07-1,.06-3.64,2.58-2.57,2.58-2.57S90.7,32.78,89.68,35.17Z"/><path class="cls-38" d="M93.14,23.5s-1.12,2.65-2.5,6.17a5.21,5.21,0,0,0-.53,2.89c0,.93-1.79-.25-1.53-.51a5.24,5.24,0,0,0,1.85-2.47C92,26.23,91.71,26.66,93.14,23.5Z"/><path class="cls-39" d="M83.09,41.06c1.12,2.65,2.67,2.66,2.67,2.66s1.11-1-.06-3.76S83,37.3,83,37.3,82.05,38.59,83.09,41.06Z"/><path class="cls-40" d="M79.52,29s1.16,2.73,2.59,6.36a5.57,5.57,0,0,1,.55,3c-.06,1,1.84-.26,1.57-.52a5.36,5.36,0,0,1-1.9-2.56C80.72,31.83,81,32.26,79.52,29Z"/><path class="cls-41" d="M89.79,41.06c-1.12,2.65-2.66,2.66-2.66,2.66s-1.11-1,.05-3.76,2.67-2.66,2.67-2.66S90.84,38.59,89.79,41.06Z"/><path class="cls-42" d="M93.36,29s-1.16,2.73-2.58,6.36a5.47,5.47,0,0,0-.55,3c.06,1-1.85-.26-1.58-.52a5.3,5.3,0,0,0,1.91-2.56C92.17,31.83,91.89,32.26,93.36,29Z"/><path class="cls-43" d="M86.8,57.64h-.72V45.18a.71.71,0,0,0-.27-.52,1.34,1.34,0,0,0,.35-.52l.28-.64s.21.48.3.64a1.66,1.66,0,0,0,.35.52.75.75,0,0,0-.29.52Z"/><path class="cls-44" d="M119,22c-1.39.61-2,.06-2,.06s-.06-.79,1.38-1.43,2-.06,2-.06S120.28,21.45,119,22Z"/><path class="cls-45" d="M124.7,18.68s-1.43.63-3.29,1.51a2.85,2.85,0,0,0-1.28.95c-.33.39-.62-.77-.42-.77a2.85,2.85,0,0,0,1.65-.3C123.23,19.33,123,19.4,124.7,18.68Z"/><path class="cls-46" d="M115.66,20.75c-1,1.1-.71,1.84-.71,1.84s.72.32,1.8-.82.71-1.85.71-1.85A2,2,0,0,0,115.66,20.75Z"/><path class="cls-47" d="M120.7,16.46s-1.06,1.14-2.51,2.6a3,3,0,0,1-1.32.9c-.48.18.52.83.58.65a2.83,2.83,0,0,1,.83-1.46C119.6,17.64,119.45,17.86,120.7,16.46Z"/><path class="cls-48" d="M117.08,24c-1.51,0-1.84-.72-1.84-.72s.25-.75,1.82-.77,1.85.72,1.85.72A2,2,0,0,1,117.08,24Z"/><path class="cls-49" d="M123.65,23.12s-1.56,0-3.62.11a3,3,0,0,0-1.55.37c-.45.24-.27-.94-.09-.86a2.84,2.84,0,0,0,1.64.37C122,23.15,121.77,23.11,123.65,23.12Z"/><path class="cls-50" d="M112.6,21.92c-1.16,1.33-.75,2.19-.75,2.19s.85.34,2.06-1.05.75-2.18.75-2.18S113.68,20.68,112.6,21.92Z"/><path class="cls-51" d="M118.3,16.71s-1.2,1.37-2.82,3.14A3.41,3.41,0,0,1,114,21c-.55.23.64.95.71.73a3.39,3.39,0,0,1,.9-1.74C117.06,18.12,116.89,18.39,118.3,16.71Z"/><path class="cls-52" d="M114.4,25.62c-1.76.09-2.18-.76-2.18-.76s.25-.88,2.09-1,2.18.76,2.18.76A2.34,2.34,0,0,1,114.4,25.62Z"/><path class="cls-53" d="M122,24.35s-1.82.1-4.21.29a3.28,3.28,0,0,0-1.8.5c-.52.29-.36-1.1-.14-1a3.39,3.39,0,0,0,1.93.36C120.14,24.45,119.83,24.41,122,24.35Z"/><path class="cls-54" d="M109.39,23.65c-1.18,1.48-.7,2.38-.7,2.38s.93.33,2.16-1.21.71-2.38.71-2.38S110.5,22.27,109.39,23.65Z"/><path class="cls-55" d="M115.27,17.79s-1.22,1.53-2.88,3.5a3.68,3.68,0,0,1-1.56,1.26c-.58.27.73,1,.79.75a3.6,3.6,0,0,1,.89-1.91C114,19.37,113.84,19.67,115.27,17.79Z"/><path class="cls-56" d="M111.4,27.52c-1.89.18-2.38-.71-2.38-.71s.24-1,2.2-1.15,2.38.71,2.38.71S113.16,27.35,111.4,27.52Z"/><path class="cls-57" d="M119.52,25.81s-2,.18-4.51.49a3.65,3.65,0,0,0-1.9.62c-.55.34-.43-1.15-.19-1.07a3.57,3.57,0,0,0,2.08.3C117.51,26,117.17,26,119.52,25.81Z"/><path class="cls-58" d="M105.71,25.5c-1.25,1.7-.67,2.68-.67,2.68s1,.32,2.35-1.45.68-2.68.68-2.68S106.88,23.91,105.71,25.5Z"/><path class="cls-59" d="M112,18.71s-1.3,1.76-3.06,4a4,4,0,0,1-1.68,1.46c-.63.33.86,1.08.92.8a3.9,3.9,0,0,1,.9-2.16C110.66,20.53,110.49,20.86,112,18.71Z"/><path class="cls-60" d="M108,29.7c-2.09.29-2.68-.68-2.68-.68s.22-1.09,2.4-1.38,2.68.68,2.68.68S110,29.44,108,29.7Z"/><path class="cls-61" d="M117,27.43s-2.16.29-5,.76a4,4,0,0,0-2.1.77c-.59.4-.53-1.26-.26-1.19A4,4,0,0,0,112,28C114.75,27.73,114.37,27.72,117,27.43Z"/><path class="cls-62" d="M101.8,28.38c-1,2-.25,2.89-.25,2.89s1.15.16,2.2-1.9.24-2.89.24-2.89S102.73,26.54,101.8,28.38Z"/><path class="cls-63" d="M107.13,20.27s-1,2.05-2.47,4.7a4.2,4.2,0,0,1-1.49,1.81c-.6.44,1.07,1,1.09.67a4.26,4.26,0,0,1,.56-2.4C106.06,22.38,105.94,22.76,107.13,20.27Z"/><path class="cls-64" d="M105.28,32.22c-2.14.56-2.88-.38-2.88-.38s.1-1.15,2.33-1.74,2.88.37,2.88.37S107.29,31.69,105.28,32.22Z"/><path class="cls-65" d="M114.33,28.7s-2.21.58-5.11,1.43a4.26,4.26,0,0,0-2.08,1.07c-.56.5-.72-1.25-.42-1.2a4.09,4.09,0,0,0,2.46-.05C112,29.3,111.65,29.34,114.33,28.7Z"/><path class="cls-66" d="M98.09,31.24c-1,2.37-.08,3.38-.08,3.38s1.35.1,2.42-2.37.08-3.39.08-3.39S99.05,29,98.09,31.24Z"/><path class="cls-67" d="M103.75,21.42s-1.06,2.45-2.55,5.64a5,5,0,0,1-1.61,2.21c-.67.56,1.31,1.05,1.31.71a4.89,4.89,0,0,1,.49-2.84C102.65,24,102.54,24.4,103.75,21.42Z"/><path class="cls-68" d="M102.25,35.61c-2.42.91-3.39-.09-3.39-.09s0-1.35,2.49-2.3,3.39.09,3.39.09S104.51,34.76,102.25,35.61Z"/><path class="cls-69" d="M112.34,30.46s-2.5.94-5.76,2.26a5,5,0,0,0-2.29,1.5c-.6.64-1-1.37-.64-1.35a4.82,4.82,0,0,0,2.85-.35C109.76,31.43,109.3,31.52,112.34,30.46Z"/><path class="cls-70" d="M94.38,35.62c-.77,2.67.38,3.62.38,3.62s1.45-.08,2.25-2.86-.38-3.62-.38-3.62S95.09,33.13,94.38,35.62Z"/><path class="cls-71" d="M99,24.38s-.79,2.76-1.93,6.36a5.27,5.27,0,0,1-1.41,2.58c-.63.69,1.55.94,1.5.57a5.27,5.27,0,0,1,.13-3.08C98.21,27.23,98.16,27.73,99,24.38Z"/><path class="cls-72" d="M99.41,39.7c-2.45,1.31-3.62.38-3.62.38s-.22-1.44,2.33-2.8,3.63-.37,3.63-.37S101.7,38.48,99.41,39.7Z"/><path class="cls-73" d="M109.44,32.81s-2.53,1.35-5.82,3.21a5.28,5.28,0,0,0-2.23,1.92c-.54.76-1.23-1.32-.87-1.36a5.12,5.12,0,0,0,3-.76C106.82,34.2,106.35,34.36,109.44,32.81Z"/><path class="cls-74" d="M90.76,40c-.8,2.76.4,3.74.4,3.74s1.5-.09,2.32-3-.4-3.74-.4-3.74S91.5,37.37,90.76,40Z"/><path class="cls-75" d="M95.57,28.34s-.82,2.85-2,6.57a5.46,5.46,0,0,1-1.45,2.67c-.65.71,1.6,1,1.55.58A5.34,5.34,0,0,1,93.8,35C94.72,31.28,94.66,31.79,95.57,28.34Z"/><path class="cls-76" d="M96,44.17c-2.53,1.35-3.74.38-3.74.38s-.22-1.48,2.41-2.89,3.74-.38,3.74-.38S98.33,42.91,96,44.17Z"/><path class="cls-77" d="M106.32,37s-2.61,1.4-6,3.32a5.48,5.48,0,0,0-2.31,2c-.56.79-1.27-1.36-.89-1.4a5.26,5.26,0,0,0,3.09-.78C103.62,38.48,103.13,38.65,106.32,37Z"/><path class="cls-78" d="M86.81,57.82l-.73-.16a45.56,45.56,0,0,1,4.5-12.75c.32-.6,0-.69,0-.69a3.47,3.47,0,0,0,.63-.12,6.39,6.39,0,0,0,.78-.35,2.09,2.09,0,0,0-.23.77,1.8,1.8,0,0,0,0,.67.35.35,0,0,0-.51.11A44.44,44.44,0,0,0,86.81,57.82Z"/><path class="cls-79" d="M53.9,22c1.39.61,2,.06,2,.06s.06-.79-1.37-1.43-2-.06-2-.06S52.61,21.45,53.9,22Z"/><path class="cls-80" d="M48.19,18.68s1.43.63,3.29,1.51a2.85,2.85,0,0,1,1.28.95c.33.39.62-.77.42-.77a2.85,2.85,0,0,1-1.65-.3C49.67,19.33,49.93,19.4,48.19,18.68Z"/><path class="cls-81" d="M57.23,20.75c1,1.1.71,1.84.71,1.84s-.72.32-1.79-.82-.72-1.85-.72-1.85A2,2,0,0,1,57.23,20.75Z"/><path class="cls-82" d="M52.19,16.46s1.07,1.14,2.51,2.6A3,3,0,0,0,56,20c.48.18-.51.83-.58.65a2.83,2.83,0,0,0-.83-1.46C53.29,17.64,53.44,17.86,52.19,16.46Z"/><path class="cls-83" d="M55.81,24c1.51,0,1.84-.72,1.84-.72s-.25-.75-1.82-.77S54,23.2,54,23.2A2,2,0,0,0,55.81,24Z"/><path class="cls-84" d="M49.24,23.12s1.56,0,3.62.11a3,3,0,0,1,1.55.37c.46.24.27-.94.09-.86a2.81,2.81,0,0,1-1.64.37C50.86,23.15,51.12,23.11,49.24,23.12Z"/><path class="cls-85" d="M60.29,21.92c1.16,1.33.76,2.19.76,2.19s-.86.34-2.07-1.05-.75-2.18-.75-2.18S59.21,20.68,60.29,21.92Z"/><path class="cls-86" d="M54.59,16.71s1.2,1.37,2.83,3.14a3.35,3.35,0,0,0,1.5,1.1c.55.23-.64.95-.71.73a3.39,3.39,0,0,0-.9-1.74C55.83,18.12,56,18.39,54.59,16.71Z"/><path class="cls-87" d="M58.49,25.62c1.77.09,2.19-.76,2.19-.76s-.26-.88-2.1-1-2.18.76-2.18.76A2.34,2.34,0,0,0,58.49,25.62Z"/><path class="cls-88" d="M50.87,24.35s1.82.1,4.21.29a3.28,3.28,0,0,1,1.8.5c.52.29.36-1.1.14-1a3.35,3.35,0,0,1-1.93.36C52.75,24.45,53.07,24.41,50.87,24.35Z"/><path class="cls-89" d="M63.5,23.65c1.18,1.48.7,2.38.7,2.38s-.93.33-2.16-1.21-.71-2.38-.71-2.38S62.39,22.27,63.5,23.65Z"/><path class="cls-90" d="M57.62,17.79s1.22,1.53,2.89,3.5a3.68,3.68,0,0,0,1.56,1.26c.58.27-.73,1-.8.75a3.45,3.45,0,0,0-.89-1.91C58.88,19.37,59.05,19.67,57.62,17.79Z"/><path class="cls-91" d="M61.49,27.52c1.89.18,2.38-.71,2.38-.71s-.24-1-2.2-1.15-2.38.71-2.38.71S59.73,27.35,61.49,27.52Z"/><path class="cls-92" d="M53.37,25.81s2,.18,4.51.49a3.65,3.65,0,0,1,1.9.62c.55.34.44-1.15.2-1.07a3.62,3.62,0,0,1-2.09.3C55.38,26,55.72,26,53.37,25.81Z"/><path class="cls-93" d="M67.18,25.5c1.25,1.7.68,2.68.68,2.68s-1.06.32-2.36-1.45-.68-2.68-.68-2.68S66,23.91,67.18,25.5Z"/><path class="cls-94" d="M60.9,18.71s1.29,1.76,3.05,4a4,4,0,0,0,1.68,1.46c.64.33-.85,1.08-.92.8a3.9,3.9,0,0,0-.9-2.16C62.23,20.53,62.4,20.86,60.9,18.71Z"/><path class="cls-95" d="M64.87,29.7C67,30,67.55,29,67.55,29s-.22-1.09-2.4-1.38-2.68.68-2.68.68S62.92,29.44,64.87,29.7Z"/><path class="cls-96" d="M55.91,27.43s2.16.29,5,.76A4,4,0,0,1,63,29c.59.4.53-1.26.26-1.19a4,4,0,0,1-2.33.25C58.14,27.73,58.52,27.72,55.91,27.43Z"/><path class="cls-97" d="M71.1,28.38c1,2,.24,2.89.24,2.89s-1.15.16-2.19-1.9-.25-2.89-.25-2.89S70.16,26.54,71.1,28.38Z"/><path class="cls-98" d="M65.76,20.27s1,2.05,2.47,4.7a4.27,4.27,0,0,0,1.49,1.81c.6.44-1.07,1-1.09.67a4.17,4.17,0,0,0-.56-2.4C66.83,22.38,67,22.76,65.76,20.27Z"/><path class="cls-99" d="M67.61,32.22c2.14.56,2.88-.38,2.88-.38s-.1-1.15-2.32-1.74-2.89.37-2.89.37S65.61,31.69,67.61,32.22Z"/><path class="cls-100" d="M58.56,28.7s2.21.58,5.11,1.43a4.26,4.26,0,0,1,2.08,1.07c.56.5.72-1.25.43-1.2A4.1,4.1,0,0,1,63.72,30C60.85,29.3,61.24,29.34,58.56,28.7Z"/><path class="cls-101" d="M74.8,31.24c1,2.37.08,3.38.08,3.38s-1.35.1-2.42-2.37-.08-3.39-.08-3.39S73.84,29,74.8,31.24Z"/><path class="cls-102" d="M69.14,21.42s1.07,2.45,2.56,5.64a4.86,4.86,0,0,0,1.61,2.21C74,29.83,72,30.32,72,30a4.89,4.89,0,0,0-.49-2.84C70.24,24,70.35,24.4,69.14,21.42Z"/><path class="cls-103" d="M70.64,35.61c2.42.91,3.39-.09,3.39-.09s0-1.35-2.49-2.3-3.39.09-3.39.09S68.38,34.76,70.64,35.61Z"/><path class="cls-104" d="M60.55,30.46s2.5.94,5.76,2.26a4.9,4.9,0,0,1,2.29,1.5c.6.64,1-1.37.64-1.35a4.82,4.82,0,0,1-2.85-.35C63.13,31.43,63.59,31.52,60.55,30.46Z"/><path class="cls-105" d="M78.52,35.62c.76,2.67-.39,3.62-.39,3.62s-1.45-.08-2.25-2.86.39-3.62.39-3.62S77.8,33.13,78.52,35.62Z"/><path class="cls-106" d="M73.86,24.38s.79,2.76,1.93,6.36a5.27,5.27,0,0,0,1.41,2.58c.63.69-1.55.94-1.5.57a5.27,5.27,0,0,0-.13-3.08C74.68,27.23,74.74,27.73,73.86,24.38Z"/><path class="cls-107" d="M73.48,39.7c2.45,1.31,3.62.38,3.62.38s.22-1.44-2.33-2.8-3.63-.37-3.63-.37S71.19,38.48,73.48,39.7Z"/><path class="cls-108" d="M63.45,32.81S66,34.16,69.27,36a5.15,5.15,0,0,1,2.23,1.92c.55.76,1.24-1.32.87-1.36a5.12,5.12,0,0,1-3-.76C66.07,34.2,66.54,34.36,63.45,32.81Z"/><path class="cls-109" d="M82.13,40c.8,2.76-.4,3.74-.4,3.74s-1.5-.09-2.32-3,.4-3.74.4-3.74S81.39,37.37,82.13,40Z"/><path class="cls-110" d="M77.32,28.34s.82,2.85,2,6.57a5.46,5.46,0,0,0,1.45,2.67c.66.71-1.6,1-1.55.58A5.34,5.34,0,0,0,79.09,35C78.17,31.28,78.23,31.79,77.32,28.34Z"/><path class="cls-111" d="M76.93,44.17c2.53,1.35,3.74.38,3.74.38s.23-1.48-2.41-2.89-3.74-.38-3.74-.38S74.56,42.91,76.93,44.17Z"/><path class="cls-112" d="M66.57,37s2.62,1.4,6,3.32a5.48,5.48,0,0,1,2.31,2c.56.79,1.27-1.36.89-1.4a5.26,5.26,0,0,1-3.09-.78C69.27,38.48,69.76,38.65,66.57,37Z"/><path class="cls-113" d="M86.08,57.82l.73-.16a45.56,45.56,0,0,0-4.5-12.75c-.32-.6,0-.69,0-.69a3.47,3.47,0,0,1-.63-.12,6.39,6.39,0,0,1-.78-.35,2.2,2.2,0,0,1,.24.77,1.91,1.91,0,0,1,0,.67.36.36,0,0,1,.52.11A44.65,44.65,0,0,1,86.08,57.82Z"/><path class="cls-114" d="M79.84,48.49a69.16,69.16,0,0,1,6.3,6.32,41.71,41.71,0,0,1-7.39-5.16,24.54,24.54,0,0,0-7.33-4.51A14.58,14.58,0,0,1,79.84,48.49Z"/><path class="cls-115" d="M93.05,48.49a69.16,69.16,0,0,0-6.3,6.32,41.71,41.71,0,0,0,7.39-5.16,24.54,24.54,0,0,1,7.33-4.51A14.6,14.6,0,0,0,93.05,48.49Z"/><g class="cls-116"><path class="cls-9" d="M87.25,7.09c0,1.63-.81,2-.81,2s-.8-.28-.8-2,.8-2,.8-2A2.18,2.18,0,0,1,87.25,7.09Z"/><path class="cls-10" d="M86.44,0s0,1.68.06,3.9a3,3,0,0,0,.38,1.68c.24.49-1,.28-.94.08a3.08,3.08,0,0,0,.43-1.76C86.44,1.74,86.39,2,86.44,0Z"/><path class="cls-11" d="M84.54,9.82c.64,1.5,1.51,1.51,1.51,1.51s.63-.58,0-2.14-1.51-1.5-1.51-1.5A2.17,2.17,0,0,0,84.54,9.82Z"/><path class="cls-12" d="M82.51,3S83.17,4.53,84,6.59a3.1,3.1,0,0,1,.31,1.7c0,.55,1-.15.9-.3A3.07,3.07,0,0,1,84.1,6.54C83.19,4.58,83.35,4.83,82.51,3Z"/><path class="cls-13" d="M88.34,9.82c-.63,1.5-1.51,1.51-1.51,1.51s-.63-.58,0-2.14,1.51-1.5,1.51-1.5A2.14,2.14,0,0,1,88.34,9.82Z"/><path class="cls-14" d="M90.37,3s-.66,1.55-1.47,3.61a3.2,3.2,0,0,0-.31,1.7c0,.55-1-.15-.89-.3a3.07,3.07,0,0,0,1.08-1.45C89.69,4.58,89.53,4.83,90.37,3Z"/><path class="cls-15" d="M84.22,13.1C85,14.85,86,14.86,86,14.86s.73-.67,0-2.49-1.76-1.76-1.76-1.76A2.53,2.53,0,0,0,84.22,13.1Z"/><path class="cls-16" d="M81.86,5.11s.76,1.81,1.71,4.22a3.6,3.6,0,0,1,.36,2c0,.64,1.23-.17,1-.35a3.57,3.57,0,0,1-1.27-1.69C82.65,7,82.83,7.27,81.86,5.11Z"/><path class="cls-17" d="M88.66,13.1c-.74,1.75-1.77,1.76-1.77,1.76s-.73-.67,0-2.49,1.77-1.76,1.77-1.76A2.55,2.55,0,0,1,88.66,13.1Z"/><path class="cls-18" d="M91,5.11s-.77,1.81-1.72,4.22a3.6,3.6,0,0,0-.36,2c0,.64-1.22-.17-1-.35a3.57,3.57,0,0,0,1.26-1.69C90.23,7,90.05,7.27,91,5.11Z"/><path class="cls-19" d="M84.06,16.9c.8,1.88,1.89,1.89,1.89,1.89s.8-.72,0-2.68S84,14.22,84,14.22A2.71,2.71,0,0,0,84.06,16.9Z"/><path class="cls-20" d="M81.52,8.31s.82,1.95,1.84,4.54A4,4,0,0,1,83.75,15c0,.69,1.31-.18,1.12-.37a3.75,3.75,0,0,1-1.36-1.82C82.37,10.32,82.56,10.63,81.52,8.31Z"/><path class="cls-21" d="M88.83,16.9c-.8,1.88-1.9,1.89-1.9,1.89s-.79-.72,0-2.68,1.89-1.89,1.89-1.89A2.73,2.73,0,0,1,88.83,16.9Z"/><path class="cls-22" d="M91.36,8.31s-.82,1.95-1.83,4.54A3.82,3.82,0,0,0,89.14,15c0,.69-1.32-.18-1.12-.37a3.82,3.82,0,0,0,1.35-1.82C90.51,10.32,90.32,10.63,91.36,8.31Z"/><path class="cls-23" d="M84,21.23c.82,1.94,2,1.95,2,1.95s.81-.74,0-2.77-2-1.95-2-1.95S83.21,19.41,84,21.23Z"/><path class="cls-24" d="M81.35,12.36s.86,2,1.9,4.68a4,4,0,0,1,.41,2.2c0,.71,1.36-.19,1.15-.38A4.09,4.09,0,0,1,83.41,17C82.23,14.44,82.44,14.76,81.35,12.36Z"/><path class="cls-25" d="M88.9,21.23c-.82,1.94-2,1.95-2,1.95s-.81-.74,0-2.77,2-1.95,2-1.95S89.67,19.41,88.9,21.23Z"/><path class="cls-26" d="M91.53,12.36s-.85,2-1.9,4.68a4,4,0,0,0-.4,2.2c0,.71-1.36-.19-1.16-.38A4,4,0,0,0,89.47,17C90.65,14.44,90.45,14.76,91.53,12.36Z"/><path class="cls-27" d="M83.86,25.55c.86,2,2,2.05,2,2.05s.86-.78,0-2.9-2.06-2.05-2.06-2.05S83.05,23.65,83.86,25.55Z"/><path class="cls-28" d="M81.1,16.24s.89,2.11,2,4.92a4.31,4.31,0,0,1,.42,2.31c0,.74,1.43-.2,1.21-.41a4.09,4.09,0,0,1-1.47-2C82,18.42,82.24,18.76,81.1,16.24Z"/><path class="cls-29" d="M89,25.55c-.87,2-2.06,2.05-2.06,2.05s-.86-.78,0-2.9,2.06-2.05,2.06-2.05S89.83,23.65,89,25.55Z"/><path class="cls-30" d="M91.78,16.24s-.89,2.11-2,4.92a4.26,4.26,0,0,0-.43,2.31c0,.74-1.42-.2-1.21-.41a4.09,4.09,0,0,0,1.47-2C90.86,18.42,90.65,18.76,91.78,16.24Z"/><path class="cls-31" d="M83.42,30c1,2.39,2.4,2.4,2.4,2.4s1-.92,0-3.39-2.4-2.4-2.4-2.4S82.48,27.79,83.42,30Z"/><path class="cls-32" d="M80.21,19.15s1,2.46,2.33,5.74A4.93,4.93,0,0,1,83,27.58c0,.87,1.67-.24,1.42-.47a4.86,4.86,0,0,1-1.72-2.31C81.28,21.69,81.53,22.08,80.21,19.15Z"/><path class="cls-33" d="M89.46,30c-1,2.39-2.4,2.4-2.4,2.4s-1-.92,0-3.39,2.4-2.4,2.4-2.4S90.4,27.79,89.46,30Z"/><path class="cls-34" d="M92.68,19.15s-1.05,2.46-2.33,5.74a5,5,0,0,0-.5,2.69c.06.87-1.66-.24-1.41-.47a4.93,4.93,0,0,0,1.71-2.31C91.6,21.69,91.35,22.08,92.68,19.15Z"/><path class="cls-35" d="M83.2,35.17c1.08,2.56,2.58,2.57,2.58,2.57s1.07-1,0-3.64-2.58-2.57-2.58-2.57S82.19,32.78,83.2,35.17Z"/><path class="cls-36" d="M79.75,23.5s1.12,2.65,2.5,6.17a5.41,5.41,0,0,1,.53,2.89c-.06.93,1.79-.25,1.52-.51a5.18,5.18,0,0,1-1.84-2.47C80.9,26.23,81.17,26.66,79.75,23.5Z"/><path class="cls-37" d="M89.68,35.17c-1.08,2.56-2.58,2.57-2.58,2.57s-1.07-1,.06-3.64,2.58-2.57,2.58-2.57S90.7,32.78,89.68,35.17Z"/><path class="cls-38" d="M93.14,23.5s-1.12,2.65-2.5,6.17a5.21,5.21,0,0,0-.53,2.89c0,.93-1.79-.25-1.53-.51a5.24,5.24,0,0,0,1.85-2.47C92,26.23,91.71,26.66,93.14,23.5Z"/><path class="cls-39" d="M83.09,41.06c1.12,2.65,2.67,2.66,2.67,2.66s1.11-1-.06-3.76S83,37.3,83,37.3,82.05,38.59,83.09,41.06Z"/><path class="cls-40" d="M79.52,29s1.16,2.73,2.59,6.36a5.57,5.57,0,0,1,.55,3c-.06,1,1.84-.26,1.57-.52a5.36,5.36,0,0,1-1.9-2.56C80.72,31.83,81,32.26,79.52,29Z"/><path class="cls-41" d="M89.79,41.06c-1.12,2.65-2.66,2.66-2.66,2.66s-1.11-1,.05-3.76,2.67-2.66,2.67-2.66S90.84,38.59,89.79,41.06Z"/><path class="cls-42" d="M93.36,29s-1.16,2.73-2.58,6.36a5.47,5.47,0,0,0-.55,3c.06,1-1.85-.26-1.58-.52a5.3,5.3,0,0,0,1.91-2.56C92.17,31.83,91.89,32.26,93.36,29Z"/><path class="cls-43" d="M86.8,57.64h-.72V45.18a.71.71,0,0,0-.27-.52,1.34,1.34,0,0,0,.35-.52l.28-.64s.21.48.3.64a1.66,1.66,0,0,0,.35.52.75.75,0,0,0-.29.52Z"/><path class="cls-44" d="M119,22c-1.39.61-2,.06-2,.06s-.06-.79,1.38-1.43,2-.06,2-.06S120.28,21.45,119,22Z"/><path class="cls-45" d="M124.7,18.68s-1.43.63-3.29,1.51a2.85,2.85,0,0,0-1.28.95c-.33.39-.62-.77-.42-.77a2.85,2.85,0,0,0,1.65-.3C123.23,19.33,123,19.4,124.7,18.68Z"/><path class="cls-46" d="M115.66,20.75c-1,1.1-.71,1.84-.71,1.84s.72.32,1.8-.82.71-1.85.71-1.85A2,2,0,0,0,115.66,20.75Z"/><path class="cls-47" d="M120.7,16.46s-1.06,1.14-2.51,2.6a3,3,0,0,1-1.32.9c-.48.18.52.83.58.65a2.83,2.83,0,0,1,.83-1.46C119.6,17.64,119.45,17.86,120.7,16.46Z"/><path class="cls-48" d="M117.08,24c-1.51,0-1.84-.72-1.84-.72s.25-.75,1.82-.77,1.85.72,1.85.72A2,2,0,0,1,117.08,24Z"/><path class="cls-49" d="M123.65,23.12s-1.56,0-3.62.11a3,3,0,0,0-1.55.37c-.45.24-.27-.94-.09-.86a2.84,2.84,0,0,0,1.64.37C122,23.15,121.77,23.11,123.65,23.12Z"/><path class="cls-50" d="M112.6,21.92c-1.16,1.33-.75,2.19-.75,2.19s.85.34,2.06-1.05.75-2.18.75-2.18S113.68,20.68,112.6,21.92Z"/><path class="cls-51" d="M118.3,16.71s-1.2,1.37-2.82,3.14A3.41,3.41,0,0,1,114,21c-.55.23.64.95.71.73a3.39,3.39,0,0,1,.9-1.74C117.06,18.12,116.89,18.39,118.3,16.71Z"/><path class="cls-52" d="M114.4,25.62c-1.76.09-2.18-.76-2.18-.76s.25-.88,2.09-1,2.18.76,2.18.76A2.34,2.34,0,0,1,114.4,25.62Z"/><path class="cls-53" d="M122,24.35s-1.82.1-4.21.29a3.28,3.28,0,0,0-1.8.5c-.52.29-.36-1.1-.14-1a3.39,3.39,0,0,0,1.93.36C120.14,24.45,119.83,24.41,122,24.35Z"/><path class="cls-54" d="M109.39,23.65c-1.18,1.48-.7,2.38-.7,2.38s.93.33,2.16-1.21.71-2.38.71-2.38S110.5,22.27,109.39,23.65Z"/><path class="cls-55" d="M115.27,17.79s-1.22,1.53-2.88,3.5a3.68,3.68,0,0,1-1.56,1.26c-.58.27.73,1,.79.75a3.6,3.6,0,0,1,.89-1.91C114,19.37,113.84,19.67,115.27,17.79Z"/><path class="cls-56" d="M111.4,27.52c-1.89.18-2.38-.71-2.38-.71s.24-1,2.2-1.15,2.38.71,2.38.71S113.16,27.35,111.4,27.52Z"/><path class="cls-57" d="M119.52,25.81s-2,.18-4.51.49a3.65,3.65,0,0,0-1.9.62c-.55.34-.43-1.15-.19-1.07a3.57,3.57,0,0,0,2.08.3C117.51,26,117.17,26,119.52,25.81Z"/><path class="cls-58" d="M105.71,25.5c-1.25,1.7-.67,2.68-.67,2.68s1,.32,2.35-1.45.68-2.68.68-2.68S106.88,23.91,105.71,25.5Z"/><path class="cls-59" d="M112,18.71s-1.3,1.76-3.06,4a4,4,0,0,1-1.68,1.46c-.63.33.86,1.08.92.8a3.9,3.9,0,0,1,.9-2.16C110.66,20.53,110.49,20.86,112,18.71Z"/><path class="cls-60" d="M108,29.7c-2.09.29-2.68-.68-2.68-.68s.22-1.09,2.4-1.38,2.68.68,2.68.68S110,29.44,108,29.7Z"/><path class="cls-61" d="M117,27.43s-2.16.29-5,.76a4,4,0,0,0-2.1.77c-.59.4-.53-1.26-.26-1.19A4,4,0,0,0,112,28C114.75,27.73,114.37,27.72,117,27.43Z"/><path class="cls-62" d="M101.8,28.38c-1,2-.25,2.89-.25,2.89s1.15.16,2.2-1.9.24-2.89.24-2.89S102.73,26.54,101.8,28.38Z"/><path class="cls-63" d="M107.13,20.27s-1,2.05-2.47,4.7a4.2,4.2,0,0,1-1.49,1.81c-.6.44,1.07,1,1.09.67a4.26,4.26,0,0,1,.56-2.4C106.06,22.38,105.94,22.76,107.13,20.27Z"/><path class="cls-64" d="M105.28,32.22c-2.14.56-2.88-.38-2.88-.38s.1-1.15,2.33-1.74,2.88.37,2.88.37S107.29,31.69,105.28,32.22Z"/><path class="cls-65" d="M114.33,28.7s-2.21.58-5.11,1.43a4.26,4.26,0,0,0-2.08,1.07c-.56.5-.72-1.25-.42-1.2a4.09,4.09,0,0,0,2.46-.05C112,29.3,111.65,29.34,114.33,28.7Z"/><path class="cls-66" d="M98.09,31.24c-1,2.37-.08,3.38-.08,3.38s1.35.1,2.42-2.37.08-3.39.08-3.39S99.05,29,98.09,31.24Z"/><path class="cls-67" d="M103.75,21.42s-1.06,2.45-2.55,5.64a5,5,0,0,1-1.61,2.21c-.67.56,1.31,1.05,1.31.71a4.89,4.89,0,0,1,.49-2.84C102.65,24,102.54,24.4,103.75,21.42Z"/><path class="cls-68" d="M102.25,35.61c-2.42.91-3.39-.09-3.39-.09s0-1.35,2.49-2.3,3.39.09,3.39.09S104.51,34.76,102.25,35.61Z"/><path class="cls-69" d="M112.34,30.46s-2.5.94-5.76,2.26a5,5,0,0,0-2.29,1.5c-.6.64-1-1.37-.64-1.35a4.82,4.82,0,0,0,2.85-.35C109.76,31.43,109.3,31.52,112.34,30.46Z"/><path class="cls-70" d="M94.38,35.62c-.77,2.67.38,3.62.38,3.62s1.45-.08,2.25-2.86-.38-3.62-.38-3.62S95.09,33.13,94.38,35.62Z"/><path class="cls-71" d="M99,24.38s-.79,2.76-1.93,6.36a5.27,5.27,0,0,1-1.41,2.58c-.63.69,1.55.94,1.5.57a5.27,5.27,0,0,1,.13-3.08C98.21,27.23,98.16,27.73,99,24.38Z"/><path class="cls-72" d="M99.41,39.7c-2.45,1.31-3.62.38-3.62.38s-.22-1.44,2.33-2.8,3.63-.37,3.63-.37S101.7,38.48,99.41,39.7Z"/><path class="cls-73" d="M109.44,32.81s-2.53,1.35-5.82,3.21a5.28,5.28,0,0,0-2.23,1.92c-.54.76-1.23-1.32-.87-1.36a5.12,5.12,0,0,0,3-.76C106.82,34.2,106.35,34.36,109.44,32.81Z"/><path class="cls-74" d="M90.76,40c-.8,2.76.4,3.74.4,3.74s1.5-.09,2.32-3-.4-3.74-.4-3.74S91.5,37.37,90.76,40Z"/><path class="cls-75" d="M95.57,28.34s-.82,2.85-2,6.57a5.46,5.46,0,0,1-1.45,2.67c-.65.71,1.6,1,1.55.58A5.34,5.34,0,0,1,93.8,35C94.72,31.28,94.66,31.79,95.57,28.34Z"/><path class="cls-76" d="M96,44.17c-2.53,1.35-3.74.38-3.74.38s-.22-1.48,2.41-2.89,3.74-.38,3.74-.38S98.33,42.91,96,44.17Z"/><path class="cls-77" d="M106.32,37s-2.61,1.4-6,3.32a5.48,5.48,0,0,0-2.31,2c-.56.79-1.27-1.36-.89-1.4a5.26,5.26,0,0,0,3.09-.78C103.62,38.48,103.13,38.65,106.32,37Z"/><path class="cls-78" d="M86.81,57.82l-.73-.16a45.56,45.56,0,0,1,4.5-12.75c.32-.6,0-.69,0-.69a3.47,3.47,0,0,0,.63-.12,6.39,6.39,0,0,0,.78-.35,2.09,2.09,0,0,0-.23.77,1.8,1.8,0,0,0,0,.67.35.35,0,0,0-.51.11A44.44,44.44,0,0,0,86.81,57.82Z"/><path class="cls-79" d="M53.9,22c1.39.61,2,.06,2,.06s.06-.79-1.37-1.43-2-.06-2-.06S52.61,21.45,53.9,22Z"/><path class="cls-80" d="M48.19,18.68s1.43.63,3.29,1.51a2.85,2.85,0,0,1,1.28.95c.33.39.62-.77.42-.77a2.85,2.85,0,0,1-1.65-.3C49.67,19.33,49.93,19.4,48.19,18.68Z"/><path class="cls-81" d="M57.23,20.75c1,1.1.71,1.84.71,1.84s-.72.32-1.79-.82-.72-1.85-.72-1.85A2,2,0,0,1,57.23,20.75Z"/><path class="cls-82" d="M52.19,16.46s1.07,1.14,2.51,2.6A3,3,0,0,0,56,20c.48.18-.51.83-.58.65a2.83,2.83,0,0,0-.83-1.46C53.29,17.64,53.44,17.86,52.19,16.46Z"/><path class="cls-83" d="M55.81,24c1.51,0,1.84-.72,1.84-.72s-.25-.75-1.82-.77S54,23.2,54,23.2A2,2,0,0,0,55.81,24Z"/><path class="cls-84" d="M49.24,23.12s1.56,0,3.62.11a3,3,0,0,1,1.55.37c.46.24.27-.94.09-.86a2.81,2.81,0,0,1-1.64.37C50.86,23.15,51.12,23.11,49.24,23.12Z"/><path class="cls-85" d="M60.29,21.92c1.16,1.33.76,2.19.76,2.19s-.86.34-2.07-1.05-.75-2.18-.75-2.18S59.21,20.68,60.29,21.92Z"/><path class="cls-86" d="M54.59,16.71s1.2,1.37,2.83,3.14a3.35,3.35,0,0,0,1.5,1.1c.55.23-.64.95-.71.73a3.39,3.39,0,0,0-.9-1.74C55.83,18.12,56,18.39,54.59,16.71Z"/><path class="cls-87" d="M58.49,25.62c1.77.09,2.19-.76,2.19-.76s-.26-.88-2.1-1-2.18.76-2.18.76A2.34,2.34,0,0,0,58.49,25.62Z"/><path class="cls-88" d="M50.87,24.35s1.82.1,4.21.29a3.28,3.28,0,0,1,1.8.5c.52.29.36-1.1.14-1a3.35,3.35,0,0,1-1.93.36C52.75,24.45,53.07,24.41,50.87,24.35Z"/><path class="cls-89" d="M63.5,23.65c1.18,1.48.7,2.38.7,2.38s-.93.33-2.16-1.21-.71-2.38-.71-2.38S62.39,22.27,63.5,23.65Z"/><path class="cls-90" d="M57.62,17.79s1.22,1.53,2.89,3.5a3.68,3.68,0,0,0,1.56,1.26c.58.27-.73,1-.8.75a3.45,3.45,0,0,0-.89-1.91C58.88,19.37,59.05,19.67,57.62,17.79Z"/><path class="cls-91" d="M61.49,27.52c1.89.18,2.38-.71,2.38-.71s-.24-1-2.2-1.15-2.38.71-2.38.71S59.73,27.35,61.49,27.52Z"/><path class="cls-92" d="M53.37,25.81s2,.18,4.51.49a3.65,3.65,0,0,1,1.9.62c.55.34.44-1.15.2-1.07a3.62,3.62,0,0,1-2.09.3C55.38,26,55.72,26,53.37,25.81Z"/><path class="cls-93" d="M67.18,25.5c1.25,1.7.68,2.68.68,2.68s-1.06.32-2.36-1.45-.68-2.68-.68-2.68S66,23.91,67.18,25.5Z"/><path class="cls-94" d="M60.9,18.71s1.29,1.76,3.05,4a4,4,0,0,0,1.68,1.46c.64.33-.85,1.08-.92.8a3.9,3.9,0,0,0-.9-2.16C62.23,20.53,62.4,20.86,60.9,18.71Z"/><path class="cls-95" d="M64.87,29.7C67,30,67.55,29,67.55,29s-.22-1.09-2.4-1.38-2.68.68-2.68.68S62.92,29.44,64.87,29.7Z"/><path class="cls-96" d="M55.91,27.43s2.16.29,5,.76A4,4,0,0,1,63,29c.59.4.53-1.26.26-1.19a4,4,0,0,1-2.33.25C58.14,27.73,58.52,27.72,55.91,27.43Z"/><path class="cls-97" d="M71.1,28.38c1,2,.24,2.89.24,2.89s-1.15.16-2.19-1.9-.25-2.89-.25-2.89S70.16,26.54,71.1,28.38Z"/><path class="cls-98" d="M65.76,20.27s1,2.05,2.47,4.7a4.27,4.27,0,0,0,1.49,1.81c.6.44-1.07,1-1.09.67a4.17,4.17,0,0,0-.56-2.4C66.83,22.38,67,22.76,65.76,20.27Z"/><path class="cls-99" d="M67.61,32.22c2.14.56,2.88-.38,2.88-.38s-.1-1.15-2.32-1.74-2.89.37-2.89.37S65.61,31.69,67.61,32.22Z"/><path class="cls-100" d="M58.56,28.7s2.21.58,5.11,1.43a4.26,4.26,0,0,1,2.08,1.07c.56.5.72-1.25.43-1.2A4.1,4.1,0,0,1,63.72,30C60.85,29.3,61.24,29.34,58.56,28.7Z"/><path class="cls-101" d="M74.8,31.24c1,2.37.08,3.38.08,3.38s-1.35.1-2.42-2.37-.08-3.39-.08-3.39S73.84,29,74.8,31.24Z"/><path class="cls-102" d="M69.14,21.42s1.07,2.45,2.56,5.64a4.86,4.86,0,0,0,1.61,2.21C74,29.83,72,30.32,72,30a4.89,4.89,0,0,0-.49-2.84C70.24,24,70.35,24.4,69.14,21.42Z"/><path class="cls-103" d="M70.64,35.61c2.42.91,3.39-.09,3.39-.09s0-1.35-2.49-2.3-3.39.09-3.39.09S68.38,34.76,70.64,35.61Z"/><path class="cls-104" d="M60.55,30.46s2.5.94,5.76,2.26a4.9,4.9,0,0,1,2.29,1.5c.6.64,1-1.37.64-1.35a4.82,4.82,0,0,1-2.85-.35C63.13,31.43,63.59,31.52,60.55,30.46Z"/><path class="cls-105" d="M78.52,35.62c.76,2.67-.39,3.62-.39,3.62s-1.45-.08-2.25-2.86.39-3.62.39-3.62S77.8,33.13,78.52,35.62Z"/><path class="cls-106" d="M73.86,24.38s.79,2.76,1.93,6.36a5.27,5.27,0,0,0,1.41,2.58c.63.69-1.55.94-1.5.57a5.27,5.27,0,0,0-.13-3.08C74.68,27.23,74.74,27.73,73.86,24.38Z"/><path class="cls-107" d="M73.48,39.7c2.45,1.31,3.62.38,3.62.38s.22-1.44-2.33-2.8-3.63-.37-3.63-.37S71.19,38.48,73.48,39.7Z"/><path class="cls-108" d="M63.45,32.81S66,34.16,69.27,36a5.15,5.15,0,0,1,2.23,1.92c.55.76,1.24-1.32.87-1.36a5.12,5.12,0,0,1-3-.76C66.07,34.2,66.54,34.36,63.45,32.81Z"/><path class="cls-109" d="M82.13,40c.8,2.76-.4,3.74-.4,3.74s-1.5-.09-2.32-3,.4-3.74.4-3.74S81.39,37.37,82.13,40Z"/><path class="cls-110" d="M77.32,28.34s.82,2.85,2,6.57a5.46,5.46,0,0,0,1.45,2.67c.66.71-1.6,1-1.55.58A5.34,5.34,0,0,0,79.09,35C78.17,31.28,78.23,31.79,77.32,28.34Z"/><path class="cls-111" d="M76.93,44.17c2.53,1.35,3.74.38,3.74.38s.23-1.48-2.41-2.89-3.74-.38-3.74-.38S74.56,42.91,76.93,44.17Z"/><path class="cls-112" d="M66.57,37s2.62,1.4,6,3.32a5.48,5.48,0,0,1,2.31,2c.56.79,1.27-1.36.89-1.4a5.26,5.26,0,0,1-3.09-.78C69.27,38.48,69.76,38.65,66.57,37Z"/><path class="cls-113" d="M86.08,57.82l.73-.16a45.56,45.56,0,0,0-4.5-12.75c-.32-.6,0-.69,0-.69a3.47,3.47,0,0,1-.63-.12,6.39,6.39,0,0,1-.78-.35,2.2,2.2,0,0,1,.24.77,1.91,1.91,0,0,1,0,.67.36.36,0,0,1,.52.11A44.65,44.65,0,0,1,86.08,57.82Z"/><path class="cls-114" d="M79.84,48.49a69.16,69.16,0,0,1,6.3,6.32,41.71,41.71,0,0,1-7.39-5.16,24.54,24.54,0,0,0-7.33-4.51A14.58,14.58,0,0,1,79.84,48.49Z"/><path class="cls-115" d="M93.05,48.49a69.16,69.16,0,0,0-6.3,6.32,41.71,41.71,0,0,0,7.39-5.16,24.54,24.54,0,0,1,7.33-4.51A14.6,14.6,0,0,0,93.05,48.49Z"/></g><path class="cls-117" d="M59.38,85.43c-2,.24-2.94.37-4.9.65-1.08-7.59-1.62-11.38-2.71-19-3.18.45-4.78.7-8,1.26-.33-1.89-.5-2.84-.83-4.72A217,217,0,0,1,64.62,60.8c.17,1.91.26,2.86.43,4.77-3.19.29-4.79.46-8,.85C58,74,58.46,77.83,59.38,85.43Z"/><path class="cls-117" d="M72,84.24c-1.88.13-2.82.2-4.7.37-.63-7.13-.94-10.69-1.57-17.82l1.22-.11c.74.79,1.1,1.19,1.83,2a8.71,8.71,0,0,1,2.65-1.74,9.4,9.4,0,0,1,3.19-.74c1.78-.09,2.68-.13,4.46-.19.07,1.81.1,2.72.17,4.54-1.76.06-2.64.1-4.39.19a4.17,4.17,0,0,0-1.46.35,3.67,3.67,0,0,0-1.15.81A3.2,3.2,0,0,0,71.5,73a3.15,3.15,0,0,0-.2,1.37C71.57,78.34,71.7,80.31,72,84.24Z"/><path class="cls-117" d="M87.36,60.94a2.69,2.69,0,0,1-.27,1.19,3.1,3.1,0,0,1-.73,1,3.76,3.76,0,0,1-2.42.92,3.69,3.69,0,0,1-1.34-.21,3.59,3.59,0,0,1-1.1-.63,3,3,0,0,1-.76-.94,2.5,2.5,0,0,1-.31-1.18,2.68,2.68,0,0,1,.24-1.18,3,3,0,0,1,.71-1,3.66,3.66,0,0,1,1.09-.68,3.88,3.88,0,0,1,1.36-.27,3.83,3.83,0,0,1,1.37.23,3.57,3.57,0,0,1,1.13.64,2.91,2.91,0,0,1,.75,1A2.59,2.59,0,0,1,87.36,60.94Zm-.73,22.75c-1.9,0-2.85,0-4.74.08-.2-7.15-.29-10.73-.48-17.88,2-.06,3.06-.07,5.1-.09C86.56,73,86.58,76.53,86.63,83.69Z"/><path class="cls-117" d="M108.28,82.26a8.59,8.59,0,0,1-1,3.47A9.32,9.32,0,0,1,105,88.46,10.1,10.1,0,0,1,102,90.22a9.29,9.29,0,0,1-3.61.53l-2.29-.12.15-4.56,2.31.12a5.63,5.63,0,0,0,1.87-.18,4.18,4.18,0,0,0,1.35-.68,4.08,4.08,0,0,0,.91-1,7.33,7.33,0,0,0,.59-1.27,2.17,2.17,0,0,1-.84.66,5.73,5.73,0,0,1-1.17.38,8.22,8.22,0,0,1-1.32.18c-.46,0-.88,0-1.27,0A10.43,10.43,0,0,1,95,83.46a9.22,9.22,0,0,1-3-1.93,9,9,0,0,1-2-3,10.25,10.25,0,0,1-.74-4,9,9,0,0,1,3-6.73,9.93,9.93,0,0,1,3.26-1.92,10.45,10.45,0,0,1,4-.57,8.75,8.75,0,0,1,1.9.3,10.43,10.43,0,0,1,1.81.7,12.32,12.32,0,0,1,1.63,1,13,13,0,0,1,1.43,1.22c.83-.79,1.26-1.19,2.11-2l1.22.1Zm-4.34-7.18a4.3,4.3,0,0,0-.28-1.84,5.06,5.06,0,0,0-2.48-2.78,4.54,4.54,0,0,0-1.9-.5,5.65,5.65,0,0,0-1.94.24,4.28,4.28,0,0,0-1.59.89,4.15,4.15,0,0,0-1.09,1.49,5.7,5.7,0,0,0-.1,4.09,4.68,4.68,0,0,0,1,1.56,4.57,4.57,0,0,0,1.49,1,5.1,5.1,0,0,0,1.84.41,4.39,4.39,0,0,0,1.87-.32,5.11,5.11,0,0,0,1.58-1,5.34,5.34,0,0,0,1.13-1.49A4.53,4.53,0,0,0,103.94,75.08Z"/><path class="cls-117" d="M131,78.28a9.14,9.14,0,0,1-1.39,3.55,9.5,9.5,0,0,1-2.52,2.61,9.91,9.91,0,0,1-7,1.7,10.06,10.06,0,0,1-6.34-3.5,9.47,9.47,0,0,1-1.75-3.18,9.37,9.37,0,0,1-.41-3.79,9,9,0,0,1,3.58-6.45,9.79,9.79,0,0,1,3.42-1.6,10.33,10.33,0,0,1,4-.22,11,11,0,0,1,3.84,1.23A9.37,9.37,0,0,1,129.24,71a8.8,8.8,0,0,1,1.63,3.3A9.22,9.22,0,0,1,131,78.28Zm-4.87-.8a5.07,5.07,0,0,0-.08-2,4.56,4.56,0,0,0-.83-1.68,4.48,4.48,0,0,0-1.42-1.2,5.22,5.22,0,0,0-1.86-.6,5.35,5.35,0,0,0-2,.09,4.54,4.54,0,0,0-1.68.78,4.72,4.72,0,0,0-1.21,1.41,5,5,0,0,0-.6,1.94,4.88,4.88,0,0,0,.15,2,5,5,0,0,0,.83,1.64,4.78,4.78,0,0,0,3.18,1.82,5,5,0,0,0,1.89-.09,4.61,4.61,0,0,0,1.65-.76,4.84,4.84,0,0,0,1.26-1.36A5.12,5.12,0,0,0,126.1,77.48Z"/></g></g></svg>