<?xml version="1.0" encoding="utf-8"?>
<!-- Generator: Adobe Illustrator 26.1.0, SVG Export Plug-In . SVG Version: 6.00 Build 0)  -->
<svg version="1.1" id="Layer_1" xmlns="http://www.w3.org/2000/svg" xmlns:xlink="http://www.w3.org/1999/xlink" x="0px" y="0px"
	 viewBox="0 0 167 128" style="enable-background:new 0 0 167 128;" xml:space="preserve">
<style type="text/css">
	.st0{fill:#BC9632;}
	.st1{fill:#EC1C24;}
	.st2{fill:#231F20;}
	.st3{fill:#FFFFFF;}
	.st4{fill:#125199;}
	.st5{fill:#F9F7F4;}
	.st6{fill:#0F173E;}
	.st7{fill:#73CDE0;}
	.st8{fill:#0B66B0;}
	.st9{fill:#EC4258;}
	.st10{fill:#DEA731;}
	.st11{fill:#D56840;}
	.st12{fill:#51C1DC;}
	.st13{fill:#E9445B;}
	.st14{fill:#FACD95;}
	.st15{fill:#E9A362;}
	.st16{fill:#F1BE55;}
	.st17{fill:#30251F;}
	.st18{fill:#DE9C34;}
	.st19{fill:#9A3529;}
	.st20{fill:#1D1465;}
	.st21{fill:#DC2526;}
	.st22{fill:url(#SVGID_1_);}
	.st23{fill:url(#SVGID_00000062185806065304047700000006102233910363981725_);}
	.st24{fill:#E20613;}
	.st25{fill:#39A940;}
	.st26{filter:url(#Adobe_OpacityMaskFilter);}
	.st27{enable-background:new    ;}
	.st28{clip-path:url(#SVGID_00000133488264994490609570000003501611068791146923_);fill:#1D1D1B;}
	.st29{mask:url(#SVGID_00000150796109102868492170000003538725108965053107_);}
	.st30{clip-path:url(#SVGID_00000146484130177008338970000012262429329555221905_);}
	
		.st31{clip-path:url(#SVGID_00000109014562637358400540000002067482506958577061_);fill-rule:evenodd;clip-rule:evenodd;fill:#26ABE1;}
	.st32{clip-path:url(#SVGID_00000109014562637358400540000002067482506958577061_);fill:#26ABE1;}
</style>
<path class="st24" d="M136.59,62.55c-0.46-2.56-1.33-4.37-2.07-5.86c-0.81-1.64-2.13-3.93-4.28-6.35c-0.7,0.29-1.42,0.6-2.15,0.95
	c-1.9,0.91-3.57,1.89-5.03,2.86c0.01,0,0.02,0,0.02,0c-3.27,2.14-6.89,5.55-7.42,10.35c-0.46,3.97,1.62,5.91,4.2,6.79
	c2.91,0.99,6.11,0.51,8.65-1.23l1.54-1.06c0,0,0.24-0.16,0.61-0.45c0.02,0.76-0.03,1.52-0.17,2.27c-0.02,0.09-0.03,0.17-0.05,0.26
	c-0.18,0.56-0.42,0.95-0.58,1.17c-1.51,2.13-4.62,2.27-5.52,2.31h-0.69c-0.28-0.01-0.62-0.02-1.3,0h-11.8
	c1.26-1.26,2.02-2.56,2.45-3.46c0.34-0.67,0.61-1.38,0.79-2.12c0.08-0.31,0.14-0.62,0.19-0.94c0.43-2.17,0.1-4.01-0.17-5.52
	c-0.46-2.56-1.33-4.37-2.07-5.86c-0.66-1.33-1.66-3.09-3.16-5.01c-0.59-0.77-1.23-1.54-1.94-2.31c-0.11-0.13-0.23-0.25-0.35-0.37h0
	c0,0,0,0,0,0c-0.02-0.05-0.71-0.76-1.43-1.42c-0.43-0.4-0.78-0.7-0.95-0.85c-0.41-0.35-0.75-0.62-1.07-0.87
	c-1.09-0.85-2.3-1.74-2.79-2.1c-2.3,0.9-5.68,2.58-8.81,5.75c-1.32,1.34-2.34,2.68-3.12,3.89l0,0c-0.16,0.23-0.31,0.48-0.46,0.72
	c-0.05,0.08-0.09,0.14-0.11,0.19c-0.03,0.04-0.04,0.07-0.05,0.09c-0.02,0.03-0.03,0.06-0.05,0.09c-0.03,0.05-0.06,0.1-0.08,0.15
	c-0.01,0.01-0.02,0.03-0.03,0.04c-0.01,0.02-0.02,0.03-0.03,0.05c-0.02,0.04-0.04,0.08-0.06,0.11c-0.01,0.01-0.02,0.03-0.02,0.04
	c-0.01,0.01-0.01,0.03-0.02,0.04c-0.01,0.01-0.02,0.03-0.02,0.04c0,0.01-0.01,0.02-0.01,0.02c0,0.01-0.01,0.01-0.01,0.02
	c0,0.01-0.01,0.01-0.01,0.02c0,0,0,0.01,0,0.01c0,0.01-0.01,0.02-0.01,0.02c0,0.01-0.01,0.02-0.01,0.02
	c-0.01,0.01-0.02,0.03-0.02,0.04c-0.04,0.08-0.07,0.13-0.07,0.13c-0.09,0.19-0.18,0.38-0.27,0.58c-0.01,0.03-0.03,0.07-0.04,0.1
	c-0.91,2.1-1.43,4.55-1.35,6.92c-0.4-0.7-0.82-1.52-1.21-2.46c-3.35-8.13-0.67-16.11,0.53-19.66c3.99-11.84,12.82-18.27,16.3-20.73
	c5-3.54,9.75-5.43,12.96-6.47c-1.7-1.01-3.74-2.06-6.11-3.01c-2.08-0.84-4.03-1.44-5.76-1.89h0l0,0c-0.04,0.01-0.07,0.03-0.11,0.05
	c0,0-0.01,0.01-0.03,0.01c-7.31,3.38-13.91,7.2-13.91,7.2c-3.27,1.9-8.32,4.65-16.01,8.35c6.34-2.13,12.67-4.27,19.01-6.4
	c-3.78,4.21-8.39,10.46-11.43,18.71c-2.22,6.02-2.7,10.39-2.82,11.73c-0.93,10.49,2.66,16.7,3.75,18.05
	c1.4,1.74,3.11,2.95,3.11,2.95c1.33,0.94,2.48,1.42,3.21,1.72c4.25,1.74,7.42,1.38,7.42,1.38c1.46-0.14,4.87-0.47,7.13-3.26
	c1.32-1.63,1.68-3.41,1.8-4.36c-0.21,0.65-0.92,2.52-2.8,3.65c-0.36,0.19-0.74,0.35-1.13,0.47h0c-0.04,0.01-0.08,0.02-0.11,0.03
	c-0.07,0.02-0.13,0.04-0.2,0.06c-0.05,0.01-0.1,0.02-0.15,0.04c-0.06,0.01-0.12,0.03-0.18,0.04c-0.05,0.01-0.1,0.02-0.15,0.03
	c-0.06,0.01-0.12,0.02-0.19,0.03c-0.05,0.01-0.1,0.02-0.15,0.02c-0.07,0.01-0.13,0.02-0.2,0.03c-0.05,0.01-0.09,0.01-0.14,0.02
	c-0.08,0.01-0.16,0.01-0.24,0.02c-0.03,0-0.07,0.01-0.1,0.01c-0.23,0.01-0.47,0.01-0.7,0c-0.01,0-0.03,0-0.04,0
	c-0.1,0-0.21-0.01-0.31-0.02c-0.02,0-0.04,0-0.05-0.01h0c-1.08-0.14-1.92-0.47-2.24-0.61l0,0c-0.34-0.16-0.66-0.34-0.97-0.55
	c-0.01-0.01-0.03-0.02-0.04-0.03c-0.04-0.03-0.08-0.06-0.12-0.09c-0.02-0.02-0.05-0.04-0.07-0.05c-0.04-0.03-0.07-0.05-0.1-0.08
	c-0.03-0.02-0.06-0.05-0.09-0.07c-0.03-0.02-0.06-0.05-0.09-0.07c-0.03-0.03-0.06-0.05-0.1-0.08c-0.03-0.02-0.06-0.05-0.08-0.07
	c-0.03-0.03-0.07-0.06-0.1-0.09c-0.03-0.02-0.05-0.05-0.08-0.07c-0.03-0.03-0.07-0.06-0.1-0.1c-0.02-0.02-0.05-0.05-0.07-0.07
	c-0.03-0.03-0.07-0.07-0.1-0.1c-0.02-0.02-0.05-0.05-0.07-0.07c-0.03-0.04-0.07-0.07-0.1-0.11c-0.02-0.02-0.04-0.05-0.06-0.07
	c-0.03-0.04-0.06-0.08-0.1-0.11c-0.02-0.02-0.04-0.05-0.06-0.07c-0.03-0.04-0.06-0.08-0.09-0.12c-0.02-0.02-0.04-0.05-0.06-0.07
	c-0.03-0.04-0.06-0.08-0.09-0.12c-0.02-0.02-0.03-0.04-0.05-0.07l0,0v0c-0.01-0.01-0.02-0.02-0.02-0.03
	c-0.02-0.02-0.04-0.04-0.05-0.07c-0.21-0.29-0.4-0.6-0.57-0.92c-0.01-0.02-0.02-0.04-0.03-0.06c-0.03-0.06-0.05-0.11-0.08-0.17
	c0,0,0,0,0-0.01c0-0.01-0.01-0.02-0.01-0.03c-0.03-0.06-0.05-0.12-0.07-0.19c0-0.01-0.01-0.02-0.01-0.03
	c-0.01-0.03-0.02-0.06-0.03-0.09c-0.02-0.05-0.04-0.11-0.05-0.16c-0.01-0.04-0.02-0.07-0.03-0.11c-0.01-0.05-0.03-0.11-0.04-0.17
	c-0.01-0.04-0.02-0.08-0.02-0.11c-0.01-0.06-0.02-0.12-0.03-0.18c-0.01-0.04-0.01-0.07-0.02-0.11c-0.01-0.07-0.02-0.13-0.03-0.2
	c0-0.02,0-0.04-0.01-0.06c0-0.01,0-0.03,0-0.04c-0.01-0.1-0.02-0.19-0.02-0.29c-0.01-0.47,0.02-0.93,0.08-1.38
	c0.01-0.1,0.02-0.19,0.04-0.28v0c0.27-1.27,0.68-2.3,1.1-3.12c0.42-0.82,0.86-1.42,1.2-1.84c0.03-0.03,0.05-0.07,0.08-0.1
	c0.01-0.01,0.02-0.02,0.02-0.03c0.15-0.17,0.3-0.34,0.46-0.51c0.05-0.05,0.1-0.1,0.15-0.15c0.03-0.03,0.05-0.05,0.08-0.08
	c0.01-0.01,0.01-0.01,0.02-0.02c0,0,0.01-0.01,0.01-0.01l0.04-0.04c0.03-0.03,0.07-0.06,0.1-0.1c0.05-0.05,0.1-0.1,0.15-0.14
	c0,0,0,0,0,0c0.92-0.86,1.89-1.55,2.53-2.01c0.01,0,0.01-0.01,0.02-0.01c0.51-0.37,0.96-0.65,1.27-0.85h0
	c0.36,0.21,0.74,0.43,1.13,0.67c0.02,0.02,0.05,0.03,0.07,0.05c0.01,0.01,0.02,0.01,0.03,0.02c0.39,0.25,0.79,0.51,1.19,0.79
	c0.08,0.05,0.15,0.11,0.23,0.16c0.19,0.14,0.37,0.27,0.55,0.41c1.4,1.07,3.29,2.82,4.79,5.42c1.6,2.78,4.3,9.19,1.52,12.21
	c-1.55,1.69-4.83,2.28-5.52,2.31h-0.69c-0.28-0.01-0.62-0.02-1.3,0H72.76c0.18-0.18,0.37-0.37,0.55-0.57
	c0.03-0.01,0.06-0.03,0.08-0.04c0.49-0.5,1.17-1.27,1.78-2.31c0.12-0.18,0.25-0.36,0.37-0.55c-0.02-0.01-0.03-0.01-0.05-0.02
	c0.32-0.62,0.62-1.32,0.84-2.1c0.75-2.58,0.36-4.73,0.06-6.45c-0.46-2.56-1.33-4.37-2.07-5.86c-0.81-1.64-2.13-3.93-4.28-6.35
	c-0.7,0.29-1.42,0.6-2.15,0.95c-1.73,0.83-3.28,1.72-4.65,2.62c-3.36,2.12-7.26,5.61-7.81,10.6c-0.46,3.97,1.62,5.91,4.2,6.79
	c2.91,0.99,6.12,0.51,8.65-1.23l1.54-1.06c0,0,0.25-0.17,0.64-0.48c0.02,0.72-0.02,1.44-0.14,2.15c-0.12,0.52-0.33,1.07-0.69,1.58
	c-1.41,1.98-4.24,2.19-6.1,2.27c-2.22-0.02-4.44-0.05-6.66-0.07c-0.9-0.04-4.02-0.18-5.52-2.31c-0.16-0.22-0.4-0.61-0.58-1.17
	c-0.02-0.09-0.04-0.18-0.05-0.26c-0.14-0.75-0.18-1.5-0.17-2.26c0-0.22,0.02-0.44,0.03-0.65c0.08-1.23,0.32-2.45,0.6-3.63
	c0.08-0.32,0.17-0.65,0.26-0.96c0.35-1.07,0.84-2.23,1.52-3.41c0.44-0.77,0.92-1.46,1.39-2.08c0.36-0.49,0.8-1.01,1.34-1.55
	c0.88-0.88,1.75-1.52,2.5-1.99c0,0,0,0,0,0c-0.01,0-0.01,0-0.01,0c0,0,0-0.01,0-0.01c0,0,0.01,0,0.01,0
	c-0.06-0.03-0.13-0.06-0.19-0.09c-0.45-0.22-0.89-0.41-1.31-0.59c-1.95-0.81-3.7-1.23-5.09-1.46c-0.33-0.06-0.64-0.1-0.93-0.14
	c-0.19-0.02-0.45-0.05-0.76-0.08c-0.07-0.01-0.14-0.01-0.22-0.02c-2.91-0.24-9.96-0.28-15.32,4.36c-0.6,0.52-1.06,0.99-1.37,1.33v0
	c-0.16,0.17-0.31,0.34-0.46,0.52c0,0,0,0,0,0.01c-1.52,1.79-2.69,3.96-2.97,6.52c-0.44,3.85,1.48,5.78,3.95,6.7
	c0.08,0.03,0.17,0.06,0.25,0.09c2.73,0.93,5.73,0.56,8.19-0.94c0.16-0.09,0.31-0.19,0.46-0.3l1.54-1.05c0,0,0.25-0.16,0.63-0.46
	c0.01,0,0.01-0.01,0.02-0.01c0.01,0.03,0.01,0.07,0.02,0.1c0.03,0.12,0.05,0.24,0.08,0.36c0.03,0.1,0.05,0.19,0.08,0.29
	c0,0,0,0.01,0,0.01c0.03,0.09,0.06,0.19,0.09,0.28c0,0,0,0.01,0,0.01c0.02,0.07,0.04,0.14,0.07,0.21c0.01,0.02,0.01,0.04,0.02,0.06
	c0.02,0.05,0.03,0.1,0.05,0.15c0.02,0.05,0.04,0.1,0.06,0.15c0.03,0.07,0.05,0.14,0.08,0.2c0.1,0.25,0.22,0.5,0.34,0.75
	c0.29,0.6,0.72,1.38,1.35,2.21c0.18,0.23,0.37,0.46,0.57,0.7c0.28,0.32,0.6,0.64,0.94,0.95c0,0,0.01,0.01,0.01,0.01
	c0.17,0.16,0.36,0.31,0.55,0.47c0,0,0,0,0.01,0c4.91,4.56,11.21,5.44,14.96,5.44h56.96c1.43-0.07,3.23-0.34,5.18-1.07
	c3.34-1.26,5.7-3.35,7.24-5.15c1.32-1.28,2.1-2.63,2.54-3.55c0.34-0.67,0.6-1.38,0.79-2.11c0.08-0.3,0.14-0.61,0.19-0.91
	C137.19,65.9,136.86,64.06,136.59,62.55 M128.74,68.59c0,0-0.54,0.05-1.12,0.05c-3.44,0-6.75-2-6.88-5.44
	c-0.06-3.38,1.69-6.19,3.57-8.07c1.13,0.98,2.66,2.53,3.95,4.78c0.69,1.21,1.19,2.39,1.55,3.48c0.02,0.09,0.05,0.18,0.07,0.27
	c0.36,1.37,0.66,2.81,0.76,4.25C130.22,68.16,129.57,68.46,128.74,68.59 M68.5,68.59c0,0-0.54,0.05-1.12,0.05
	c-3.44,0-6.75-2-6.88-5.44c-0.06-3.38,1.69-6.19,3.56-8.07c1.13,0.98,2.66,2.53,3.95,4.78c0.92,1.6,1.49,3.16,1.85,4.53
	c0.27,1.12,0.48,2.28,0.57,3.45C70.01,68.14,69.35,68.45,68.5,68.59 M34.99,64.96c0.05,0.11,0.1,0.22,0.15,0.32
	C35.09,65.18,35.04,65.08,34.99,64.96 M47.12,56.41c-0.09,0.01-0.19,0.03-0.28,0.04c-0.04,0.08-0.08,0.16-0.12,0.24
	c-0.07,0.14-0.14,0.29-0.21,0.43c-0.01,0.01-0.01,0.03-0.02,0.04c-0.04,0.08-0.07,0.15-0.11,0.23c-0.02,0.03-0.03,0.07-0.05,0.1
	c-0.03,0.06-0.06,0.12-0.08,0.18c-0.03,0.05-0.05,0.11-0.08,0.16c-0.03,0.06-0.05,0.12-0.08,0.18c-0.03,0.06-0.05,0.12-0.08,0.18
	c-0.03,0.06-0.05,0.12-0.08,0.18c-0.13,0.31-0.27,0.63-0.39,0.97c-0.03,0.07-0.05,0.14-0.08,0.2c-0.05,0.12-0.09,0.25-0.13,0.38
	c-0.13,0.39-0.26,0.8-0.37,1.24c-0.11,0.44-0.22,0.9-0.3,1.38c-0.17,0.96-0.37,2.05-0.37,3.28v0.06c0,0.65,0.05,1.33,0.18,2.06
	c0,0.02,0.01,0.05,0.01,0.07C44.47,68,44.46,68,44.45,68h0c-0.01-0.01-0.02-0.01-0.05-0.03c-0.42,0.23-1.03,0.5-1.8,0.62
	c0,0-0.54,0.05-1.12,0.05c-0.03,0-0.06,0-0.09,0c-0.99-0.01-1.96-0.19-2.85-0.51c0,0,0,0,0,0c-0.03-0.01-0.07-0.02-0.1-0.04
	c0.03,0.01,0.05,0.02,0.07,0.03c-0.03-0.01-0.05-0.02-0.08-0.03c-0.44-0.15-1.05-0.42-1.67-0.91c0,0,0,0,0,0c0,0,0,0,0,0
	c0,0,0,0-0.01,0c-0.12-0.09-1.36-1.13-1.98-2.87c-0.02-0.07-0.05-0.14-0.07-0.21c0.02,0.11,0.05,0.23,0.08,0.34
	c-0.03-0.11-0.06-0.22-0.08-0.34c-0.51-1.91,0.33-5.91,2.66-8.1c0,0,0,0,0,0c0.26-0.31,0.53-0.6,0.79-0.86h0
	c-0.27,0.27-0.54,0.56-0.79,0.86c0.29-0.27,0.6-0.52,0.94-0.74c0.23-0.15,0.47-0.28,0.72-0.41c1.68-0.84,3.82-1.13,6.16-0.85
	c0.73,0.06,1.63,0.19,2.64,0.44c0.03,0.01,0.05,0.01,0.08,0.02c0.4,0.1,0.82,0.23,1.25,0.38c0.1,0.03,0.46,0.16,0.83,0.32
	c0.48,0.2,1.21,0.54,2.1,1.11C50.51,56.14,48.84,56.16,47.12,56.41"/>
<path class="st24" d="M110.36,50.75c0.23,0.23,0.46,0.47,0.68,0.73c2,2.25,3.2,4.65,3.92,6.71c0,0,0,0,0,0
	c0.8-1.08,1.55-1.91,2.16-2.52c1.16-1.17,2.36-2.12,3.51-2.9c0,0,0,0,0,0c-0.08-0.22-0.16-0.44-0.24-0.66l-0.91-2.46
	c0.86,0.78,1.67,1.55,2.41,2.31c0,0,0,0,0,0c0.8-0.49,1.57-0.91,2.26-1.28c0.02-0.01,0.04-0.02,0.06-0.03
	c0.17-0.09,0.35-0.19,0.53-0.28c1.62-0.86,3.05-1.46,4.09-1.87c0,0,0,0,0,0c-0.57-0.62-1.19-1.25-1.84-1.89
	c-1.46-1.42-2.9-2.64-4.27-3.69c-1.57,0.55-3.27,1.28-5.01,2.25c-0.08,0.05-0.17,0.09-0.25,0.14c-0.65,0.37-1.27,0.75-1.86,1.14
	C113.55,47.8,111.82,49.27,110.36,50.75C110.36,50.75,110.36,50.75,110.36,50.75"/>
<path class="st24" d="M32.93,53.61c0.96-0.57,2.32-1.32,3.99-2.07c0.18-0.08,0.37-0.17,0.55-0.24c0.02-0.01,0.04-0.02,0.06-0.03
	c0.72-0.32,1.51-0.66,2.4-0.99c0,0,0,0,0,0c-0.14-1.08-0.26-2.23-0.34-3.44h0c0.44,0.78,0.9,1.56,1.39,2.35
	c0.12,0.2,0.25,0.4,0.37,0.59c1.33-0.42,2.81-0.78,4.45-0.98c0.86-0.1,1.98-0.19,3.32-0.15c0,0,0,0,0,0
	c-1.17-1.84-2.33-4.26-2.87-7.23c-0.06-0.34-0.11-0.67-0.15-0.99c-2.06,0.24-4.3,0.7-6.61,1.47c-0.68,0.23-1.36,0.48-2.05,0.76
	c-0.09,0.04-0.18,0.07-0.26,0.11c-1.84,0.78-3.46,1.66-4.87,2.56c-0.02,1.73,0.06,3.62,0.28,5.64
	C32.67,51.9,32.79,52.77,32.93,53.61"/>
<path class="st24" d="M57.83,50.49c1.17,0.61,2.16,1.26,2.97,1.88c1.35-0.79,2.87-1.59,4.57-2.34c1.08-0.48,2.13-0.9,3.13-1.27
	c0,0,0,0,0,0c-0.9-0.88-1.96-1.8-3.18-2.71c-2.09-1.56-4.11-2.68-5.85-3.49c-1.4,0.9-2.93,2-4.5,3.37c-1.03,0.9-1.95,1.79-2.76,2.64
	c0,0,0,0,0,0C53.73,48.85,55.71,49.39,57.83,50.49"/>
<path class="st25" d="M74.55,107.24c0.01,7.34-8.35,11-18.74,5.33c-5.57-3.06-8.49-7-12.6-7.13c-8.71-0.03-14.03-4.62-14.03-12.36
	c0-7.77,5.35-12.36,14.11-12.36c8.76,0,14.11,4.59,14.11,12.36c0,5.83-3.01,9.87-8.21,11.52c3.3,0.53,5.43,1.32,9.91,2.95
	c6.79,2.48,11.72,2.11,15.21-0.41L74.55,107.24z M43.29,103.74c4.16,0,6.62-3.96,6.62-10.67s-2.46-10.67-6.62-10.67
	c-4.16,0-6.62,3.96-6.62,10.67S39.13,103.74,43.29,103.74z"/>
<path class="st25" d="M77.32,102.89c0.63,1.26,1.72,1.73,2.65,1.73h0.25v0.34H68.29v-0.34h0.26c0.78,0,1.65-0.59,1.15-1.73
	l-0.98-2.25h-6.31l-1.02,2.33c-0.42,1.08,0.43,1.65,1.19,1.65h0.26v0.34h-7.01v-0.34h0.27c0.85,0,1.97-0.45,2.58-1.65l6.99-15.11
	c0.39-0.86,1.64-3.51,1.77-4.52h0.27L77.32,102.89z M68.05,99.11l-2.48-5.68l-2.48,5.68H68.05z"/>
<path class="st25" d="M94.22,84.55c1.22-0.01,3.06-0.31,3.39-0.51v6.4h-0.34v-0.18c0.02-2.57-1.42-4.09-4.02-4.13h-2.48v16.71
	c0,1.03,0.82,1.78,1.8,1.78h0.34v0.34H81.98v-0.34h0.34c0.98,0,1.76-0.75,1.8-1.78V86.13h-2.48c-2.6,0.04-4.02,1.56-4.02,4.13v0.18
	h-0.34v-6.4c0.54,0.2,2.18,0.51,3.39,0.51H94.22z"/>
<path class="st25" d="M112.31,84.59c1.22,0,2.87-0.31,3.38-0.51v6.47h-0.34v-0.18c0-2.61-1.42-4.17-4.05-4.2h-3.42v7.97h2.6
	c2.02-0.04,3.38-1.49,3.38-3.49v-0.08h0.34v8.75h-0.34V99.2c0-2-1.36-3.45-3.38-3.49h-2.6v7.13c0.04,1.03,0.82,1.78,1.8,1.78h0.37
	v0.34H99.08v-0.34h0.37c0.94,0,1.76-0.75,1.76-1.78V86.71c0-1.03-0.82-1.78-1.76-1.78h-0.37v-0.34L112.31,84.59z"/>
<path class="st25" d="M134.92,102.89c0.63,1.26,1.72,1.73,2.65,1.73h0.25v0.34H125.9v-0.34h0.26c0.78,0,1.65-0.59,1.15-1.73
	l-0.98-2.25h-6.31l-1.02,2.33c-0.42,1.08,0.43,1.65,1.19,1.65h0.26v0.34h-7.01v-0.34h0.27c0.85,0,1.97-0.45,2.58-1.65l6.99-15.11
	c0.39-0.86,1.64-3.51,1.77-4.52h0.27L134.92,102.89z M125.66,99.11l-2.48-5.68l-2.48,5.68H125.66z"/>
<g>
	<path class="st24" d="M82.48,107.37v0.07h-0.06c-0.21,0-0.46,0.12-0.6,0.42l-1.65,3.69c0,0-0.25,0.55-0.25,0.7h-0.06l-1.92-4.39
		c-0.14-0.3-0.39-0.43-0.6-0.43h-0.05v-0.07h1.54v0.07h-0.06c-0.18,0-0.36,0.15-0.26,0.43l1.43,3.59l1.49-3.58
		c0.1-0.27-0.08-0.43-0.26-0.43H81.1v-0.07L82.48,107.37z"/>
</g>
<g>
	<path class="st24" d="M85.65,112.16h-2.84l0-0.07h0.09c0.24,0,0.43-0.19,0.44-0.43v-3.83c-0.02-0.22-0.21-0.39-0.44-0.39h-0.09
		l0-0.07h2c0.29,0,0.69-0.07,0.82-0.12v0.2v0.11v0.55l-0.07,0v-0.12c0-0.22-0.17-0.39-0.38-0.41h-1.4v2.12h1.16
		c0.18,0,0.33-0.15,0.33-0.34v-0.1l0.07,0v1.08l-0.07,0v-0.1c0-0.18-0.14-0.33-0.32-0.34h-1.16v2.05h0.98c0.73,0,1-0.38,1.21-0.9
		h0.07L85.65,112.16z"/>
</g>
<g>
	<path class="st24" d="M88.54,107.37c0.83,0,1.34,0.49,1.34,1.29c0,0.66-0.5,1.3-1.16,1.3c0.15,0.07,0.36,0.29,0.49,0.48
		c0,0,0.59,0.84,0.85,1.13c0.28,0.3,0.53,0.51,0.93,0.52v0.07h-0.38c-0.64,0-0.98-0.34-1.19-0.6c-0.08-0.09-0.85-1.22-0.9-1.28
		c-0.18-0.22-0.38-0.46-0.63-0.46v-0.06c0,0,0.16,0,0.36,0c0.35-0.01,0.87-0.09,1.07-0.71c0.03-0.1,0.05-0.26,0.04-0.41
		c-0.02-0.62-0.34-1.02-0.85-1.04c-0.35-0.02-0.76,0-0.85-0.01v4.08c0,0.24,0.2,0.43,0.44,0.43h0.09l0,0.07H86.7l0-0.07h0.09
		c0.24,0,0.43-0.19,0.44-0.43v-3.8c0-0.24-0.2-0.43-0.44-0.43H86.7l0-0.07H88.54z"/>
</g>
<g>
	<path class="st24" d="M96.01,109.76c0,1.49-1,2.49-2.46,2.49c-1.46,0-2.46-1-2.46-2.49c0-1.49,1-2.49,2.46-2.49
		C95,107.27,96.01,108.27,96.01,109.76z M95.48,109.76c0-1.37-0.77-2.29-1.94-2.29s-1.94,0.91-1.94,2.29c0,1.37,0.77,2.29,1.94,2.29
		S95.48,111.13,95.48,109.76z"/>
</g>
<g>
	<path class="st24" d="M101.28,107.44v0.12v0.45l-0.07,0v-0.1c0-0.18-0.15-0.33-0.33-0.34h-1.45v2.12h1.16
		c0.18,0,0.33-0.15,0.33-0.34v-0.1l0.07,0v1.08l-0.07,0v-0.1c0-0.18-0.14-0.33-0.32-0.34h-1.16v1.76c0,0.24,0.2,0.43,0.44,0.43h0.09
		l0,0.07h-1.5l0-0.07h0.09c0.24,0,0.43-0.19,0.44-0.43v-3.83c0-0.22-0.21-0.39-0.44-0.39h-0.09l0-0.07h2c0.29,0,0.69-0.07,0.82-0.12
		L101.28,107.44z"/>
</g>
<g>
	<path class="st24" d="M107.02,109.76c0,1.49-1,2.49-2.46,2.49c-1.46,0-2.46-1-2.46-2.49c0-1.49,1-2.49,2.46-2.49
		C106.01,107.27,107.02,108.27,107.02,109.76z M106.49,109.76c0-1.37-0.77-2.29-1.94-2.29c-1.16,0-1.94,0.91-1.94,2.29
		c0,1.37,0.77,2.29,1.94,2.29C105.72,112.05,106.49,111.13,106.49,109.76z"/>
</g>
<g>
	<path class="st24" d="M112.75,109.76c0,1.49-1,2.49-2.46,2.49c-1.46,0-2.46-1-2.46-2.49c0-1.49,1-2.49,2.46-2.49
		C111.75,107.27,112.75,108.27,112.75,109.76z M112.23,109.76c0-1.37-0.77-2.29-1.94-2.29c-1.16,0-1.94,0.91-1.94,2.29
		c0,1.37,0.77,2.29,1.94,2.29C111.45,112.05,112.23,111.13,112.23,109.76z"/>
</g>
<g>
	<path class="st24" d="M115.68,107.37c1.46,0,2.46,0.96,2.46,2.4c0,1.44-1,2.39-2.46,2.39h-2.32l0-0.07h0.09
		c0.24,0,0.43-0.19,0.44-0.43v-3.83c0-0.22-0.21-0.39-0.44-0.39h-0.09l0-0.07L115.68,107.37z M114.33,111.95h1.35
		c1.17,0,1.94-0.87,1.94-2.18c0-1.31-0.78-2.19-1.94-2.19h-1.35V111.95z"/>
</g>
<g>
	<path class="st24" d="M120.99,110.14c0.27,0.25,0.34,0.56,0.34,0.83c0,0.76-0.49,1.28-1.28,1.28c-0.34,0-0.89-0.1-1.16-0.37
		c-0.05-0.21-0.03-0.65,0.08-0.95h0.06c-0.07,0.7,0.38,1.16,0.99,1.12c0.5-0.03,0.92-0.37,0.92-0.92c0-0.27-0.1-0.48-0.27-0.64
		l-1.31-1.22c-0.28-0.25-0.37-0.58-0.37-0.85c0-0.58,0.42-1.16,1.2-1.16c0.18,0,0.41,0.03,0.59,0.07h0.27v0.08v0.76h-0.07
		c0-0.44-0.34-0.7-0.77-0.7c-0.5,0-0.84,0.37-0.84,0.79c0,0.18,0.06,0.43,0.28,0.63L120.99,110.14z"/>
</g>
</svg>
