<?xml version="1.0" encoding="utf-8"?>
<!-- Generator: Adobe Illustrator 26.1.0, SVG Export Plug-In . SVG Version: 6.00 Build 0)  -->
<svg version="1.1" id="Layer_1" xmlns="http://www.w3.org/2000/svg" xmlns:xlink="http://www.w3.org/1999/xlink" x="0px" y="0px"
	 viewBox="0 0 167 128" style="enable-background:new 0 0 167 128;" xml:space="preserve">
<style type="text/css">
	.st0{fill:#BC9632;}
	.st1{fill:#EC1C24;}
	.st2{fill:#231F20;}
	.st3{fill:#FFFFFF;}
	.st4{fill:#125199;}
	.st5{fill:#F9F7F4;}
	.st6{fill:#0F173E;}
	.st7{fill:#73CDE0;}
	.st8{fill:#0B66B0;}
	.st9{fill:#EC4258;}
	.st10{fill:#DEA731;}
	.st11{fill:#D56840;}
	.st12{fill:#51C1DC;}
	.st13{fill:#E9445B;}
	.st14{fill:#FACD95;}
	.st15{fill:#E9A362;}
	.st16{fill:#F1BE55;}
	.st17{fill:#30251F;}
	.st18{fill:#DE9C34;}
	.st19{fill:#9A3529;}
	.st20{fill:#1D1465;}
	.st21{fill:#DC2526;}
	.st22{fill:url(#SVGID_1_);}
	.st23{fill:url(#SVGID_00000157291191288375499910000008258659571199390882_);}
	.st24{fill:#E20613;}
	.st25{fill:#39A940;}
	.st26{filter:url(#Adobe_OpacityMaskFilter);}
	.st27{enable-background:new    ;}
	.st28{clip-path:url(#SVGID_00000132082575676009198570000018098778470357574335_);fill:#1D1D1B;}
	.st29{mask:url(#SVGID_00000159450212893144176760000017545568631290608315_);}
	.st30{clip-path:url(#SVGID_00000021822801000022485350000014070651742603095939_);}
	
		.st31{clip-path:url(#SVGID_00000127011761963517316720000013523351327878539940_);fill-rule:evenodd;clip-rule:evenodd;fill:#26ABE1;}
	.st32{clip-path:url(#SVGID_00000127011761963517316720000013523351327878539940_);fill:#26ABE1;}
</style>
<g>
	<path class="st21" d="M162.92,55.73L162.92,55.73c-5.68,12.19-6.09,6.52-1.12,19.02l1.21,3.04l0,0
		c-49.8,27.3-110.38,25.96-158.93-3.52l0,0l0.45-0.98c5.39-11.57,5.77-5.18,1.06-17.04l-1.6-4.04l0,0
		C53.79,24.91,114.38,26.25,162.92,55.73L162.92,55.73z"/>
	<linearGradient id="SVGID_1_" gradientUnits="userSpaceOnUse" x1="6.5538" y1="51.6884" x2="158.1163" y2="51.6884">
		<stop  offset="5.327789e-09" style="stop-color:#FDE18F"/>
		<stop  offset="1" style="stop-color:#E8B250"/>
	</linearGradient>
	<path class="st22" d="M10.89,69.4c-0.45-5.05-2.26-9.79-4.33-14.36c0,0,0.65-0.46,0.65-0.46c27.98-18.39,63.06-23.92,95.6-18.76
		c19.5,3.28,38.62,10.15,55.31,21.07c-11.15-7.21-23.5-12.34-36.13-16.1C84.41,29.85,41.39,34.09,8.39,56.23
		c0,0,0.32-1.26,0.32-1.26c2.2,4.42,3.98,9.16,4.6,14.14C13.3,69.11,10.89,69.4,10.89,69.4L10.89,69.4z"/>
	
		<linearGradient id="SVGID_00000055679635926242120250000013393511261372774028_" gradientUnits="userSpaceOnUse" x1="8.9308" y1="77.4118" x2="159.7025" y2="77.4118">
		<stop  offset="5.327789e-09" style="stop-color:#FDE18F"/>
		<stop  offset="1" style="stop-color:#E8B250"/>
	</linearGradient>
	<path style="fill:url(#SVGID_00000055679635926242120250000013393511261372774028_);" d="M155.39,60.12
		c0.45,4.93,2.25,9.56,4.31,14.03c0,0-0.65,0.45-0.65,0.45c-27.84,17.96-62.73,23.36-95.1,18.32C44.56,89.71,25.53,83,8.93,72.34
		c11.09,7.04,23.38,12.06,35.94,15.72c37.37,10.68,80.17,6.55,113-15.08c0,0-0.31,1.23-0.31,1.23c-2.19-4.32-3.96-8.95-4.57-13.81
		C152.99,60.4,155.39,60.12,155.39,60.12L155.39,60.12z"/>
	<g>
		<path class="st3" d="M53.77,55.14c0,0.75-0.22,1.51-0.65,2.28c-0.43,0.77-1.02,1.5-1.77,2.19c-0.74,0.7-1.59,1.37-2.55,2.01
			c-0.96,0.64-1.97,1.21-3.02,1.71c0.43,0.32,0.86,0.68,1.29,1.08c0.42,0.4,0.79,0.84,1.1,1.32c0.31,0.48,0.56,0.99,0.75,1.54
			c0.19,0.55,0.29,1.11,0.29,1.68c0,0.64-0.21,1.37-0.62,2.19c-0.41,0.82-0.96,1.66-1.65,2.5c-0.69,0.85-1.49,1.67-2.42,2.48
			c-0.93,0.81-1.9,1.53-2.93,2.16c-1.03,0.63-2.09,1.14-3.17,1.53c-1.09,0.39-2.13,0.58-3.14,0.58c-1.03,0-1.93-0.15-2.71-0.45
			c-0.78-0.3-1.46-0.68-2.04-1.15c-0.58-0.47-1.07-0.99-1.47-1.58c-0.4-0.58-0.72-1.15-0.96-1.71c-0.24-0.56-0.41-1.07-0.51-1.54
			c-0.1-0.47-0.15-0.83-0.15-1.08c0-0.37,0.07-0.65,0.22-0.86c0.15-0.21,0.32-0.34,0.51-0.39c0.19-0.06,0.39-0.06,0.58,0
			c0.19,0.06,0.35,0.14,0.46,0.26c0.07,0.09,0.08,0.15,0.03,0.17c-0.05,0.02-0.1,0.05-0.17,0.09c-0.07,0.03-0.14,0.1-0.21,0.19
			c-0.07,0.09-0.1,0.25-0.1,0.48c0,0.53,0.19,1,0.57,1.42c0.38,0.42,1.14,0.63,2.28,0.63c0.73,0,1.58-0.11,2.54-0.33
			c0.96-0.22,1.95-0.51,2.98-0.87c1.03-0.37,2.03-0.8,3.02-1.3c0.98-0.5,1.86-1.04,2.64-1.61c0.78-0.57,1.41-1.17,1.89-1.78
			c0.48-0.62,0.72-1.22,0.72-1.82c0-0.73-0.28-1.29-0.84-1.66c-0.56-0.38-1.35-0.57-2.38-0.57h-0.34c-0.94,0.32-1.82,0.56-2.66,0.72
			c-0.83,0.16-1.58,0.24-2.25,0.24c-0.41,0-0.78-0.09-1.1-0.27c-0.32-0.18-0.61-0.41-0.86-0.69c-0.55,1.03-1,2.07-1.35,3.12
			c-0.35,1.05-0.53,2.1-0.53,3.15c0,0.34-0.15,0.54-0.46,0.6c-0.31,0.06-0.69,0.02-1.15-0.1c-0.46-0.13-0.95-0.33-1.49-0.6
			c-0.54-0.27-1.03-0.57-1.49-0.89c-0.46-0.32-0.84-0.65-1.15-0.98c-0.31-0.33-0.46-0.62-0.46-0.87c0-0.25,0.21-0.73,0.62-1.44
			c0.41-0.71,0.92-1.55,1.53-2.54c0.61-0.98,1.27-2.06,1.99-3.22c0.72-1.17,1.38-2.33,1.99-3.5c0.61-1.17,1.11-2.27,1.53-3.32
			c0.41-1.05,0.62-1.95,0.62-2.71c0-0.21,0.14-0.3,0.43-0.29c0.29,0.01,0.65,0.09,1.08,0.24c0.43,0.15,0.9,0.37,1.39,0.65
			c0.49,0.29,0.95,0.6,1.39,0.94c0.43,0.34,0.79,0.71,1.08,1.1c0.29,0.39,0.43,0.75,0.43,1.1c0,0.25-0.11,0.58-0.33,0.98
			c-0.22,0.4-0.51,0.87-0.87,1.41c-0.37,0.54-0.78,1.12-1.23,1.75c-0.46,0.63-0.93,1.3-1.41,2.01c1.14-0.02,2.33-0.26,3.56-0.7
			c1.23-0.45,2.37-1.06,3.39-1.83c1.03-0.78,1.87-1.7,2.54-2.76c0.66-1.06,0.99-2.22,0.99-3.48c0-0.75-0.17-1.41-0.51-1.95
			c-0.34-0.55-0.75-0.99-1.23-1.34c-0.48-0.34-0.99-0.6-1.53-0.77c-0.54-0.17-1.01-0.26-1.42-0.26c-1.67,0-3.19,0.2-4.56,0.6
			c-1.37,0.4-2.6,0.94-3.68,1.61c-1.09,0.67-2.02,1.43-2.81,2.28c-0.79,0.85-1.45,1.72-1.97,2.62c-0.53,0.9-0.92,1.79-1.18,2.66
			c-0.26,0.87-0.39,1.66-0.39,2.37c0,0.25-0.11,0.34-0.33,0.26c-0.22-0.08-0.49-0.26-0.82-0.55c-0.33-0.29-0.69-0.65-1.06-1.08
			c-0.38-0.43-0.73-0.89-1.06-1.35c-0.33-0.47-0.61-0.92-0.82-1.35c-0.22-0.43-0.33-0.8-0.33-1.1c0-0.23,0.15-0.63,0.46-1.2
			c0.31-0.57,0.78-1.22,1.42-1.94c0.64-0.72,1.45-1.47,2.43-2.26c0.98-0.79,2.15-1.5,3.5-2.14c1.35-0.64,2.88-1.17,4.61-1.59
			c1.72-0.42,3.65-0.63,5.78-0.63c1.46,0,2.9,0.19,4.3,0.58c1.41,0.39,2.66,0.98,3.75,1.77c1.1,0.79,1.98,1.78,2.64,2.98
			C53.44,52.14,53.77,53.54,53.77,55.14z"/>
		<path class="st3" d="M70.46,68.75c-0.39,0.64-0.9,1.26-1.53,1.87c-0.63,0.61-1.33,1.14-2.09,1.61c-0.77,0.46-1.57,0.84-2.42,1.13
			c-0.85,0.29-1.68,0.43-2.5,0.43c-0.23,0-0.49-0.05-0.77-0.14c-0.29-0.09-0.55-0.22-0.81-0.4c-0.25-0.17-0.46-0.4-0.63-0.68
			c-0.17-0.28-0.26-0.61-0.26-1.01c-0.55,0.58-1.1,1.09-1.65,1.54c-0.55,0.45-1.19,0.68-1.92,0.68c-0.91,0-1.66-0.21-2.23-0.63
			c-0.57-0.42-1-0.97-1.29-1.63c-0.29-0.66-0.45-1.4-0.5-2.21c-0.05-0.81,0-1.59,0.14-2.35c0.25-1.39,0.69-2.61,1.32-3.65
			c0.63-1.04,1.37-1.9,2.23-2.59c0.86-0.69,1.78-1.2,2.78-1.54c0.99-0.34,1.99-0.51,3-0.51c1.37,0,2.43,0.18,3.19,0.55
			c0.75,0.36,1.33,0.76,1.71,1.2c0.43,0.55,0.7,1.12,0.79,1.71l-2.23,7.86c-0.02,0.16,0.01,0.31,0.09,0.44
			c0.08,0.14,0.26,0.21,0.53,0.21c0.55,0,1.21-0.28,1.97-0.84c0.77-0.56,1.47-1.25,2.11-2.07c0.14-0.18,0.31-0.3,0.51-0.34
			c0.21-0.05,0.38-0.02,0.51,0.07c0.14,0.09,0.22,0.25,0.24,0.46C70.79,68.12,70.69,68.4,70.46,68.75z M56.34,57.23
			c-0.14-0.14-0.23-0.35-0.27-0.63c-0.05-0.29,0-0.57,0.14-0.86c0.14-0.29,0.38-0.53,0.74-0.74c0.35-0.21,0.84-0.31,1.46-0.31
			c0.62,0,1.29,0.03,2.01,0.09c0.72,0.06,1.45,0.09,2.19,0.1c0.74,0.01,1.47-0.01,2.19-0.05c0.72-0.05,1.39-0.17,2.01-0.38
			c0.14,0.14,0.22,0.37,0.24,0.69c0.02,0.32-0.05,0.63-0.22,0.94c-0.17,0.31-0.44,0.58-0.81,0.82c-0.37,0.24-0.87,0.36-1.51,0.36
			c-0.62,0-1.28-0.02-1.99-0.05c-0.71-0.03-1.42-0.07-2.14-0.1c-0.72-0.03-1.43-0.05-2.12-0.03C57.55,57.09,56.91,57.14,56.34,57.23
			z M57.99,69.7c0.32,0.11,0.61,0.07,0.87-0.14c0.26-0.21,0.59-0.47,0.98-0.79l1.47-5.21c0.18-0.75,0.3-1.34,0.36-1.77
			c0.06-0.42-0.17-0.59-0.67-0.5c-0.25,0.05-0.54,0.15-0.87,0.31c-0.33,0.16-0.67,0.42-1.01,0.79c-0.34,0.37-0.67,0.85-0.98,1.46
			c-0.31,0.61-0.57,1.37-0.77,2.28c-0.25,1.17-0.3,2.02-0.15,2.55C57.36,69.23,57.62,69.57,57.99,69.7z"/>
		<path class="st3" d="M78.79,63.74c-0.5,0-0.91-0.14-1.23-0.43c-0.32-0.29-0.48-0.62-0.48-1.01c0-0.21,0.06-0.37,0.19-0.5
			c0.13-0.13,0.26-0.24,0.39-0.34c0.14-0.1,0.27-0.19,0.39-0.27c0.13-0.08,0.19-0.17,0.19-0.26c0-0.09-0.05-0.23-0.15-0.43
			c-0.1-0.19-0.41-0.29-0.91-0.29c-0.18,0-0.38,0.04-0.6,0.12c-0.22,0.08-0.42,0.2-0.6,0.36c-0.18,0.16-0.34,0.36-0.46,0.6
			c-0.13,0.24-0.19,0.51-0.19,0.81c0,0.5,0.25,0.98,0.74,1.44c0.49,0.46,1.04,0.94,1.65,1.46c0.61,0.51,1.15,1.09,1.65,1.73
			c0.49,0.64,0.74,1.38,0.74,2.23c0,0.73-0.2,1.41-0.6,2.04c-0.4,0.63-0.94,1.17-1.63,1.63c-0.69,0.46-1.47,0.82-2.35,1.08
			c-0.88,0.26-1.8,0.39-2.76,0.39c-0.73,0-1.41-0.12-2.02-0.35c-0.62-0.24-1.14-0.55-1.58-0.93c-0.43-0.38-0.77-0.83-1.01-1.34
			c-0.24-0.51-0.36-1.03-0.36-1.55c0-0.87,0.22-1.5,0.65-1.89c0.43-0.39,0.93-0.58,1.47-0.58c0.57,0,0.98,0.18,1.23,0.53
			c0.25,0.35,0.38,0.7,0.38,1.05c0,0.34-0.08,0.59-0.24,0.75c-0.16,0.16-0.24,0.33-0.24,0.51c0,0.3,0.14,0.57,0.41,0.82
			c0.27,0.25,0.54,0.38,0.79,0.38c0.39,0,0.74-0.14,1.06-0.43c0.32-0.29,0.48-0.66,0.48-1.12c0-0.32-0.22-0.66-0.65-1.03
			c-0.43-0.37-0.91-0.8-1.44-1.31c-0.53-0.5-1.01-1.09-1.44-1.75c-0.43-0.66-0.65-1.45-0.65-2.37c0-0.6,0.17-1.19,0.51-1.77
			c0.34-0.58,0.81-1.11,1.39-1.56s1.26-0.83,2.04-1.12c0.78-0.29,1.61-0.43,2.5-0.43c0.89,0,1.66,0.09,2.3,0.27
			c0.64,0.18,1.17,0.42,1.59,0.72c0.42,0.3,0.74,0.63,0.94,1.01c0.21,0.38,0.31,0.76,0.31,1.15c0,0.39-0.09,0.71-0.27,0.98
			c-0.18,0.26-0.41,0.47-0.67,0.62c-0.26,0.15-0.53,0.25-0.81,0.31C79.17,63.71,78.95,63.74,78.79,63.74z"/>
		<path class="st3" d="M96,67.96c0.11-0.18,0.27-0.3,0.46-0.34c0.19-0.05,0.37-0.02,0.51,0.07c0.15,0.09,0.24,0.25,0.27,0.46
			c0.03,0.22-0.06,0.5-0.29,0.84c-0.11,0.18-0.42,0.56-0.91,1.13c-0.49,0.57-1.14,1.16-1.95,1.77c-0.81,0.61-1.77,1.13-2.88,1.58
			c-1.11,0.45-2.35,0.63-3.72,0.57c-1.14-0.07-2.11-0.32-2.9-0.75c-0.79-0.43-1.41-0.98-1.87-1.63c-0.46-0.65-0.76-1.37-0.91-2.14
			c-0.15-0.78-0.15-1.54-0.02-2.3c0.25-1.39,0.66-2.61,1.22-3.65c0.56-1.04,1.23-1.9,2.01-2.59c0.78-0.69,1.63-1.2,2.55-1.54
			c0.93-0.34,1.89-0.51,2.9-0.51c0.78,0,1.44,0.14,1.99,0.43c0.55,0.29,0.99,0.64,1.32,1.06c0.33,0.42,0.54,0.89,0.63,1.39
			c0.09,0.5,0.08,0.97-0.03,1.41c-0.23,0.89-0.58,1.58-1.05,2.06c-0.47,0.48-1.11,0.72-1.94,0.72c-0.41,0-0.72-0.09-0.93-0.27
			c-0.21-0.18-0.34-0.39-0.39-0.63c-0.06-0.24-0.05-0.48,0.03-0.72c0.08-0.24,0.2-0.42,0.36-0.53c0.21-0.16,0.38-0.39,0.51-0.69
			c0.14-0.3,0.23-0.59,0.29-0.87c0.06-0.29,0.07-0.54,0.03-0.75c-0.03-0.22-0.13-0.33-0.29-0.33c-0.16,0-0.38,0.07-0.65,0.22
			c-0.27,0.15-0.58,0.41-0.91,0.79c-0.33,0.38-0.67,0.9-1.01,1.56c-0.34,0.66-0.66,1.52-0.96,2.57c-0.27,1.05-0.32,1.91-0.14,2.57
			c0.18,0.66,0.46,1.18,0.82,1.56c0.37,0.38,0.76,0.63,1.18,0.77c0.42,0.14,0.74,0.21,0.94,0.21c0.57,0,1.12-0.1,1.65-0.29
			c0.53-0.19,1.03-0.45,1.51-0.77c0.48-0.32,0.93-0.69,1.35-1.1C95.24,68.85,95.63,68.41,96,67.96z"/>
		<path class="st3" d="M105.97,58.46c1.21,0,2.26,0.22,3.14,0.65c0.88,0.43,1.58,1.01,2.11,1.73c0.53,0.72,0.86,1.55,1.01,2.5
			c0.15,0.95,0.1,1.94-0.15,2.96c-0.25,1.03-0.69,2.02-1.3,2.96c-0.62,0.95-1.35,1.78-2.21,2.5c-0.86,0.72-1.81,1.29-2.86,1.71
			c-1.05,0.42-2.13,0.63-3.22,0.63c-1.1,0-2.08-0.21-2.95-0.63c-0.87-0.42-1.58-0.99-2.13-1.71c-0.55-0.72-0.92-1.55-1.11-2.5
			c-0.19-0.95-0.17-1.94,0.09-2.96c0.23-1.03,0.65-2.02,1.27-2.96c0.62-0.95,1.36-1.78,2.25-2.5c0.88-0.72,1.84-1.3,2.88-1.73
			C103.81,58.68,104.88,58.46,105.97,58.46z M106.18,66.52c0.16-0.66,0.26-1.3,0.29-1.9c0.03-0.61,0.01-1.15-0.07-1.63
			s-0.22-0.87-0.41-1.18c-0.19-0.31-0.43-0.49-0.7-0.53c-0.27-0.02-0.57,0.1-0.89,0.36c-0.32,0.26-0.63,0.62-0.94,1.06
			c-0.31,0.45-0.59,0.97-0.86,1.56c-0.26,0.59-0.47,1.21-0.63,1.85c-0.18,0.62-0.29,1.23-0.31,1.85c-0.02,0.62,0.01,1.17,0.09,1.66
			c0.08,0.49,0.22,0.89,0.41,1.2c0.19,0.31,0.42,0.47,0.67,0.5c0.3,0.05,0.61-0.06,0.93-0.33c0.32-0.26,0.63-0.62,0.93-1.06
			c0.3-0.45,0.58-0.97,0.84-1.56C105.77,67.77,105.99,67.16,106.18,66.52z"/>
		<path class="st3" d="M124.69,67.79c0.14-0.18,0.3-0.3,0.5-0.34c0.19-0.05,0.37-0.02,0.51,0.07c0.15,0.09,0.23,0.25,0.26,0.46
			c0.02,0.22-0.07,0.5-0.27,0.84c-0.11,0.21-0.42,0.57-0.93,1.1c-0.5,0.53-1.13,1.07-1.87,1.63c-0.74,0.56-1.58,1.06-2.5,1.51
			c-0.93,0.45-1.87,0.7-2.83,0.77c-0.75,0.05-1.43-0.1-2.02-0.43c-0.59-0.33-1.07-0.78-1.42-1.34c-0.35-0.56-0.59-1.2-0.7-1.92
			c-0.11-0.72-0.07-1.44,0.14-2.18l2.4-8.53c-0.25,0.02-0.5,0.06-0.75,0.12c-0.25,0.06-0.5,0.13-0.75,0.22
			c-0.14-0.14-0.22-0.37-0.24-0.69c-0.02-0.32,0.05-0.65,0.21-0.99c0.16-0.34,0.42-0.63,0.79-0.89c0.37-0.25,0.86-0.38,1.47-0.38
			l1.23-4.32c0.11-0.39,0.06-0.71-0.17-0.96l-0.34-0.31c0.3-0.23,0.64-0.47,1.03-0.72c0.32-0.18,0.71-0.35,1.18-0.5
			c0.47-0.15,1-0.22,1.59-0.22c0.96,0,1.69,0.27,2.19,0.81c0.5,0.54,0.66,1.15,0.48,1.83l-1.44,5.14c0.21,0.07,0.45,0.11,0.74,0.12
			c0.29,0.01,0.57,0,0.84-0.03c0.27-0.03,0.53-0.09,0.77-0.17c0.24-0.08,0.43-0.17,0.57-0.26c0.14,0.14,0.22,0.38,0.26,0.72
			c0.03,0.34-0.02,0.69-0.15,1.05c-0.14,0.35-0.38,0.66-0.72,0.93c-0.34,0.26-0.81,0.39-1.41,0.39c-0.3,0-0.61-0.02-0.93-0.05
			c-0.32-0.03-0.55-0.09-0.69-0.15l-2.61,9.29c-0.05,0.25-0.03,0.46,0.05,0.63c0.08,0.17,0.19,0.3,0.34,0.39
			c0.15,0.09,0.32,0.15,0.51,0.17c0.19,0.02,0.38,0.01,0.57-0.03c0.27-0.09,0.6-0.23,0.98-0.41c0.38-0.18,0.75-0.39,1.13-0.63
			c0.38-0.24,0.74-0.51,1.1-0.81C124.13,68.41,124.44,68.11,124.69,67.79z"/>
		<path class="st3" d="M143.37,68.75c-0.39,0.64-0.9,1.26-1.53,1.87c-0.63,0.61-1.33,1.14-2.09,1.61c-0.77,0.46-1.57,0.84-2.42,1.13
			c-0.85,0.29-1.68,0.43-2.5,0.43c-0.23,0-0.49-0.05-0.77-0.14c-0.29-0.09-0.55-0.22-0.81-0.4c-0.25-0.17-0.46-0.4-0.63-0.68
			c-0.17-0.28-0.26-0.61-0.26-1.01c-0.55,0.58-1.1,1.09-1.65,1.54c-0.55,0.45-1.19,0.68-1.92,0.68c-0.91,0-1.66-0.21-2.23-0.63
			c-0.57-0.42-1-0.97-1.29-1.63c-0.29-0.66-0.45-1.4-0.5-2.21c-0.05-0.81,0-1.59,0.14-2.35c0.25-1.39,0.69-2.61,1.32-3.65
			c0.63-1.04,1.37-1.9,2.23-2.59c0.86-0.69,1.78-1.2,2.78-1.54c0.99-0.34,1.99-0.51,3-0.51c1.37,0,2.43,0.18,3.19,0.55
			c0.75,0.36,1.33,0.76,1.71,1.2c0.43,0.55,0.7,1.12,0.79,1.71l-2.23,7.86c-0.02,0.16,0.01,0.31,0.09,0.44
			c0.08,0.14,0.26,0.21,0.53,0.21c0.55,0,1.21-0.28,1.97-0.84c0.77-0.56,1.47-1.25,2.11-2.07c0.14-0.18,0.31-0.3,0.51-0.34
			c0.21-0.05,0.38-0.02,0.51,0.07c0.14,0.09,0.22,0.25,0.24,0.46C143.7,68.12,143.6,68.4,143.37,68.75z M130.89,69.7
			c0.32,0.11,0.61,0.07,0.87-0.14c0.26-0.21,0.59-0.47,0.98-0.79l1.47-5.21c0.18-0.75,0.3-1.34,0.36-1.77
			c0.06-0.42-0.17-0.59-0.67-0.5c-0.25,0.05-0.54,0.15-0.87,0.31c-0.33,0.16-0.67,0.42-1.01,0.79c-0.34,0.37-0.67,0.85-0.98,1.46
			c-0.31,0.61-0.57,1.37-0.77,2.28c-0.25,1.17-0.3,2.02-0.15,2.55C130.27,69.23,130.53,69.57,130.89,69.7z"/>
	</g>
	<path class="st3" d="M45.66,84.5c0,0-2.6-3.65,2.57-4.27c5.17-0.62,89.12-3.94,89.12-3.94"/>
</g>
</svg>
