<?xml version="1.0" encoding="utf-8"?>
<!-- Generator: Adobe Illustrator 26.1.0, SVG Export Plug-In . SVG Version: 6.00 Build 0)  -->
<svg version="1.1" id="Layer_1" xmlns="http://www.w3.org/2000/svg" xmlns:xlink="http://www.w3.org/1999/xlink" x="0px" y="0px"
	 viewBox="0 0 167 128" style="enable-background:new 0 0 167 128;" xml:space="preserve">
<style type="text/css">
	.st0{fill:#BC9632;}
	.st1{fill:#EC1C24;}
	.st2{fill:#231F20;}
	.st3{fill:#FFFFFF;}
	.st4{fill:#125199;}
	.st5{fill:#F9F7F4;}
	.st6{fill:#0F173E;}
	.st7{fill:#73CDE0;}
	.st8{fill:#0B66B0;}
	.st9{fill:#EC4258;}
	.st10{fill:#DEA731;}
	.st11{fill:#D56840;}
	.st12{fill:#51C1DC;}
	.st13{fill:#E9445B;}
	.st14{fill:#FACD95;}
	.st15{fill:#E9A362;}
	.st16{fill:#F1BE55;}
	.st17{fill:#30251F;}
	.st18{fill:#DE9C34;}
	.st19{fill:#9A3529;}
	.st20{fill:#1D1465;}
	.st21{fill:#DC2526;}
	.st22{fill:url(#SVGID_1_);}
	.st23{fill:url(#SVGID_00000034774119562909779340000008089856450950074044_);}
	.st24{fill:#E20613;}
	.st25{fill:#39A940;}
	.st26{filter:url(#Adobe_OpacityMaskFilter);}
	.st27{enable-background:new    ;}
	.st28{clip-path:url(#SVGID_00000056414291596263516060000000038652932511426238_);fill:#1D1D1B;}
	.st29{mask:url(#SVGID_00000073701165264630412040000014277906356547605674_);}
	.st30{clip-path:url(#SVGID_00000092420955116330672040000003517462508707127737_);}
	
		.st31{clip-path:url(#SVGID_00000092440619991008163260000016696288825502530972_);fill-rule:evenodd;clip-rule:evenodd;fill:#26ABE1;}
	.st32{clip-path:url(#SVGID_00000092440619991008163260000016696288825502530972_);fill:#26ABE1;}
</style>
<g>
	<path class="st0" d="M107.74,16.52c-0.21-1.14-4.48,0.57-4.18,2.17c1.43,7.71-2.25,15.8-8.32,20.48c-2.52,1.94,0.34,2.48,2.02,1.18
		C104.57,34.72,109.51,26.02,107.74,16.52z"/>
	<path class="st0" d="M100,24.18c0.16-0.38-1.41-0.18-2.71,0.33c0.06-0.81,0.09-1.63,0.07-2.46c-0.23-6.72-9.16-2.59-11.66,0
		c-3.37,3.49-5.38,12.38,2.12,11.06c1.29-0.23,2.61-0.64,3.88-1.2c-1.43,4.34-3.99,8.14-7.04,11.51c-0.72,0.8,0.84,0.66,1.18,0.59
		c1.03-0.24,2.13-0.74,2.85-1.53c3.52-3.88,6.47-8.55,7.85-13.64C98.01,27.52,99.24,25.94,100,24.18z M88.35,30.71
		c-3.81-1.49-0.34-10.98,2.99-9.83c2.76,0.95,1.84,5.89,0.98,8.97C91.1,30.76,89.7,31.24,88.35,30.71z"/>
	<path class="st0" d="M67.3,33.76c-0.71,0.41-0.61,0.7,0.2,0.57c1.07-0.17,2.2-0.56,3.15-1.1c3.92-2.24,7.82,1.8,7.55,5.6
		c-0.4,5.75-6.55,6.36-10.14,3.15c-2.43-2.17-2.63-5.61-3.05-8.6c-0.39-2.72-0.75-5.45-1.02-8.19c-0.03-0.3-4.54,0.61-4.45,1.55
		c0.42,4.34,0.81,8.87,1.85,13.1c1.47,5.98,8.04,6.81,12.97,5.25c4.56-1.44,10.13-5.55,7.75-10.98
		C79.59,28.36,71.07,31.6,67.3,33.76z"/>
	<path class="st0" d="M85.94,17.84c0.31-0.12-1.02-3.2-1.48-3.02c-6.97,2.76-13.51,8.11-17.1,14.77c-0.43,0.8,1.59,2.81,1.48,3.02
		C72.42,25.95,78.97,20.59,85.94,17.84z"/>
	<path class="st0" d="M87.54,123.31c-15.77,0-30.12-6.22-40.71-16.33c-0.58,0.08-1.17,0.13-1.76,0.16
		c10.91,10.82,25.93,17.52,42.47,17.52c27.63,0,50.99-18.67,58.12-44.05c-0.52,0.21-1.04,0.4-1.57,0.58
		C136.8,105.52,114.21,123.31,87.54,123.31z"/>
	<path class="st0" d="M146.19,50.04c-6.42-26.42-30.28-46.1-58.65-46.1c-22.49,0-42.14,12.36-52.52,30.64
		c0.49,0.02,0.97,0.07,1.46,0.16C46.7,17.15,65.76,5.29,87.54,5.29c28.33,0,52.05,20.06,57.72,46.73
		C145.62,51.38,145.92,50.72,146.19,50.04z"/>
	<path class="st0" d="M42.6,46.74c-0.29-0.91-0.68-1.3-0.95-1.4c-1.46-0.21-3.18-0.12-5.11,0.28c-1.55,0.32-3.23,0.85-4.98,1.58
		c1.05,0.23,2.08,0.57,3.05,0.88c0.13,0.04,0.25,0.09,0.37,0.13C37.73,47.23,40.34,46.72,42.6,46.74z"/>
	<path class="st0" d="M38.27,82.34c0.19,3.43,1.2,7.3,2.43,10.33c-0.82-2.72-1.37-5.68-1.43-8.29c9.63-4.42,19.21-23.5,15.54-32.08
		c-0.15-0.35-0.31-0.68-0.48-1.02C56.06,60.71,47.68,77.33,38.27,82.34z"/>
	<path class="st0" d="M38.96,54.41c0.16-0.56-0.01-1.02-0.41-1.4c-0.06-0.09-0.14-0.17-0.22-0.25c-0.06-0.09-0.14-0.17-0.22-0.25
		c-0.06-0.08-0.14-0.17-0.22-0.25c-0.03-0.03-0.06-0.07-0.08-0.1c-1.67,4.38-4.25,13.24-6.26,22.59c0.69-0.47,1.35-1.01,1.99-1.62
		C35.37,65.35,37.48,58.25,38.96,54.41z"/>
	<path class="st0" d="M13.61,66.28c2.63-4.68,6.27-8.66,10.24-11.79c0.37-1.34,0.73-2.59,1.08-3.71c-4.74,3.17-9.34,7.65-12.51,13.3
		c-0.65,1.15-1.51,1.54-2.13,1.67c-0.1,0.02-0.2,0.03-0.3,0.04c0.01,0.01,0.01,0.01,0.02,0.02c0,0,0,0.01,0,0.01
		c0.07,0.08,0.14,0.16,0.21,0.24c0,0,0,0,0.01,0.01c0.07,0.08,0.14,0.16,0.21,0.24c0,0,0,0,0.01,0.01
		C11.28,67.35,12.69,67.91,13.61,66.28z"/>
	<path class="st0" d="M30.05,102.81c-0.32-1.8-0.39-4.11-0.25-6.75c-0.39-0.7-0.74-1.44-1.06-2.24c-0.11,2.46-0.02,4.49,0.26,6.03
		c0.19,1.06,0.42,1.59,0.59,1.98c0.17,0.4,0.35,0.81,0.29,1.38c-0.08,0.72-0.71,1.68-2.22,1.99c-0.4,0.08-0.84,0.11-1.31,0.09
		c-0.84-0.03-1.81-0.18-2.76-0.45c1.2,1.18,3.33,1.87,5.27,1.95c1.5,0.07,2.01-0.58,2.05-0.94
		C30.98,105.22,30.43,104.95,30.05,102.81z"/>
	<path class="st0" d="M60.86,72.05c-0.06-0.07-0.12-0.14-0.19-0.21c-0.01,0.06-0.02,0.12-0.03,0.19
		c-2.22,9.56-8.92,28.16-18.45,30.14l0,0c-0.19,0.04-0.39,0.07-0.58,0.1c-1.87,0.25-3.6,0.12-5.19-0.38
		c1.93,1.54,4.39,2.3,7.43,1.89c8.06-1.08,15.05-17.15,17.85-29.23C61.92,73.6,61.5,72.71,60.86,72.05z"/>
	<path class="st0" d="M77.43,60.08c0.07,0.8,0.03,1.72-0.21,2.77c0.05,0.12,0.08,0.24,0.12,0.35c0.33,1.19,0.34,3.6,0.06,6.52
		c0.38-0.78,0.76-1.71,1.15-2.76c-0.03-0.28-0.08-0.51-0.13-0.7c-0.05-0.2-0.13-0.37-0.21-0.54C78.88,63.06,78.24,61.13,77.43,60.08
		z"/>
	<path class="st0" d="M70.06,61.29c0.16-0.77,0.21-1.42,0.19-1.9c-0.48,0.6-1.07,1.62-1.71,3.05
		C68.98,62.01,69.48,61.62,70.06,61.29z"/>
	<path class="st0" d="M64.92,87.05c-0.01-4.3,0.96-10.19,2.37-15.35c-0.29-1.22-0.44-2.42-0.54-3.43c-0.02-0.26-0.04-0.51-0.04-0.76
		c-0.35,1.15-0.69,2.41-1.02,3.78c-1.9,7.87-2.17,14.12-1.42,16.71C64.47,87.73,64.69,87.41,64.92,87.05z"/>
	<path class="st0" d="M87.1,64.25c-0.07-0.08-0.14-0.17-0.22-0.25c-0.07-0.09-0.14-0.17-0.22-0.25c-0.03-0.04-0.07-0.08-0.1-0.12
		c-0.82,5.54-5.2,14.21-9.49,15.11c0,0-0.09,0.02-0.14,0.03c-0.37,0.06-0.74,0.11-1.1,0.13c-1.6,6.55-4.58,14.15-9.87,15.42
		c-0.08,0.02-0.16,0.04-0.24,0.05c-1.8,0.37-3.83,0.18-5.76-0.51c2.43,1.86,5.68,2.57,8.09,1.99c4.49-1.08,7.46-8.33,9.08-15.45
		c0.61,0.03,1.26,0,1.99-0.12c3.58-0.62,8.08-9.38,8.58-14.76C87.73,65.08,87.48,64.63,87.1,64.25z"/>
	<path class="st0" d="M102.24,56.32c-0.56,2.1-2.25,3.73-4.51,4.37c-0.12,0.03-0.24,0.06-0.35,0.09c-0.27,0.06-0.53,0.08-0.79,0.1
		c0.05,0.08,0.11,0.16,0.2,0.22c0.05,0.09,0.12,0.18,0.22,0.25c0.05,0.09,0.12,0.18,0.22,0.25c0.05,0.09,0.12,0.18,0.22,0.25
		c0.25,0.51,1.29,0.7,2.31,0.41c1.41-0.4,3.02-1.45,3.56-3.45c0.75-2.78,0.11-4.8-0.74-5.94C102.67,53.82,102.6,54.97,102.24,56.32z
		"/>
	<path class="st0" d="M91.1,80.59c-0.7-5.21,0.82-14.28,2.91-20.6c-0.49-0.57-0.55-1.33-0.16-2.03c1.27-2.27,1.55-4.55,1.47-5.8
		c-1.07,1.51-2.7,5.37-4.03,11.41c-1.53,6.99-1.84,13.29-0.79,16.05C90.71,80.16,90.91,80.45,91.1,80.59z"/>
	<path class="st0" d="M113.2,59.24c-0.16-0.49-0.44-0.91-0.78-1.26c-0.04-0.06-0.09-0.1-0.14-0.15c-0.13,3.47-2.4,9.51-4.89,14.24
		c-2.52,4.79-7.79,13.11-14.69,15.06c-0.18,0.05-0.36,0.1-0.55,0.13c-1.84,0.38-3.96,0.19-5.96-0.52c2.57,1.96,6.05,2.64,8.54,1.94
		C105.68,85.6,114.51,63.22,113.2,59.24z"/>
	<path class="st0" d="M135.17,46.23c-0.06-0.09-0.13-0.17-0.22-0.25c-0.06-0.09-0.13-0.17-0.22-0.25
		c-1.62,6.36-5.57,22.13-2.39,26.21c0.01,0.02,0.03,0.03,0.04,0.05c-0.98-6.67,2.14-18.77,3.56-24.34c0.09-0.36-0.04-0.66-0.33-0.93
		c-0.06-0.09-0.13-0.17-0.22-0.25C135.33,46.39,135.26,46.31,135.17,46.23z"/>
	<path class="st0" d="M122.93,46.89c0.03-0.14,0.07-0.27,0.11-0.41c0.09-0.32,0.16-0.63,0.24-0.93c-0.01-0.07-0.02-0.14-0.02-0.22
		c-0.03-0.88-0.25-1.76-0.48-2.29c-1.18,1.4-3.33,5.92-5.06,12.33c-1.54,5.72-2.16,10.82-1.8,14.42c0.36-0.7,0.72-1.48,1.08-2.32
		C117.66,60.13,120.51,51.25,122.93,46.89z"/>
	<path class="st0" d="M122.77,73.01c-1.64,3.25-3.55,5.14-5.82,5.76c-0.17,0.05-0.35,0.09-0.53,0.13c-1.97,0.41-4.27,0.16-6.28-0.52
		c1.89,1.64,5.81,2.77,8.85,1.94c2.14-0.58,3.85-2.74,5.2-5.62C123.67,74.2,123.19,73.63,122.77,73.01z"/>
	<path class="st0" d="M158.71,40.24c-0.09-0.23-0.19-0.45-0.3-0.67c1.68,9.29,1.77,14.77-2.48,23.34
		c-4.22,8.51-11.76,13.54-18.45,14.93h0c-1.75,0.36-3.5,0.46-5.22,0.28c-1.37-0.14-2.62-0.41-3.76-0.81
		c1.58,1.21,3.66,2.04,6.37,2.31C152.69,81.44,165.32,56.71,158.71,40.24z"/>
	<path class="st0" d="M156.29,37.51c-1.9-4.74-7.43-8.51-13.11-7.54c-1.77,0.3-1.72,1.21-0.82,1.72c14.98,8.41,2.97,43.49-8.98,42.2
		c-7.12-0.77-1.83-21.21,0.15-28.97c0.32-1.27-2.13-1.95-5.09-2.16c-0.3-0.02-0.62-0.05-0.94-0.06c-0.66-2.17-2.67-3.46-5.23-3.56
		c-2.94-0.11-6.86,0.27-8.96,2.94c-3.77,4.79-6.8,12.19-7.81,19.22c-2.91,8.59-9.18,19.37-13.39,20.56
		c-7.82,2.2-1.19-30.26,3.5-31.58c1.43-0.4,1.68,4.23-0.53,8.2c-0.52,0.93,0.89,1.41,2.25,1.03c1.41-0.4,3.02-1.45,3.56-3.45
		c0.81-3.02-0.01-5.13-0.95-6.21c-1.92-2.19-7.19-3.19-10.42-1.34c-4.4,2.52-8.23,10.21-9.47,18.3c-1.07,3.06-2.61,6.33-4.63,7.25
		c0.81-4.8,0.98-9.02,0.56-10.52c-0.05-0.2-0.13-0.37-0.21-0.54c0.69-2.68,0.03-4.63-0.8-5.68c-1.8-2.27-7.02-3.46-10.33-1.74
		c-3.49,1.82-6.79,6.74-8.86,12.6c-0.36,0.08-0.62,0.33-0.66,0.79c-0.61,6.79-7.1,22.57-13.26,28.65
		c-2.37-2.87-4.89-10.24-5.01-15.96c9.63-4.42,19.2-23.5,15.54-32.08c-2.81-6.6-10.46-11.78-17.92-11.29
		C17.94,39.37,1.31,55.15,8.04,63.58c0.83,1.04,2.23,1.59,3.15-0.04c7.31-13.05,22.52-20.69,30.8-19.41
		c5.99,1.43,0.31,28.21-12.35,33.02c2.05-10.21,4.99-20.55,6.9-25.48c0.34-1.2-0.82-1.91-2.4-2.42c-1.66-0.53-3.51-1.13-5.11-1.13
		c-1.16,0-1.88,0.26-2.27,1.42c-4.57,13.66-10.64,44.82-6.12,51.92c1.01,1.58,3.53,2.49,5.8,2.59c1.5,0.07,2.01-0.58,2.05-0.94
		c0.07-0.64-0.48-0.9-0.86-3.05c-0.65-3.6-0.26-9.2,0.68-15.41c0.45,9.06,4.35,17.55,13.12,16.37c4.95-0.67,9.5-6.99,12.92-14.57
		c0.01,0.06,0.03,0.11,0.04,0.17c1.4,5.06,7.39,7.42,11.23,6.5c4.49-1.08,7.46-8.33,9.08-15.46c0.61,0.03,1.26,0.01,1.99-0.12
		c1-0.17,2.08-0.99,3.12-2.18c0.18,1.58,0.49,3.1,0.96,4.53c1.64,5,7.75,7.12,11.54,6.05c5.33-1.5,10.16-7.58,13.56-13.89
		c0.24,0.87,0.55,1.7,0.92,2.46c1.06,2.17,6.08,4.07,9.77,3.06c2.64-0.72,4.63-3.85,6.11-7.76c1.38,3.75,4.3,6.51,9.77,7.07
		C150.27,78.71,162.9,53.98,156.29,37.51z M71.28,62.08c-2.18,0.99-3.44,2.96-3.15,6.05c0.24,2.47,0.77,5.56,2.43,7.55
		c-1.61,6.59-3.96,12.74-6.63,14.39c-4.27-3.48,1.96-31.34,6.71-32.48C71.63,57.34,71.96,59.46,71.28,62.08z M122.38,55.37
		c-1.73,7.25-4.62,14.86-7.05,17.98c-3.49-8.41,4.2-30.97,7.43-31.85c1.16-0.31,1.84,2.17,1.89,3.78c0,0.11,0.02,0.19,0.05,0.27
		C124.07,47.94,123.07,51.5,122.38,55.37z"/>
	<path class="st0" d="M104.57,108.58c-3.57,0.03-6.37,0.8-6.6,0.82c-0.48-0.07,0.99,2.25,4.36,2.81c2.79,0.4,4.52-0.66,7.47-2.29
		c0.28-0.16,0.65-0.2,0.6-0.26C110.32,109.58,107.53,108.59,104.57,108.58z"/>
	<path class="st0" d="M96.58,106c0.14-0.01,3.51,0.27,6.84-2.31c2.71-2.1,2.98-4.41,2.98-4.47c-0.01-0.06-0.13,0.08-0.2,0.14
		c-2.83,2.23-4.32,1.65-6.49,3.25C97.07,104.53,96.09,106.16,96.58,106z"/>
	<path class="st0" d="M105.63,103.58c3.16,0.63,7.14-2.29,9.86-5.77c0.22-0.28-0.4-0.12-0.81,0.13c-1.7,1.05-2.54,0.84-4.17,1.54
		c-0.72,0.3-1.45,0.63-2.2,1.12c-0.8,0.52-1.15,0.99-1.81,1.88C106.34,102.71,105.54,103.57,105.63,103.58z"/>
	<path class="st0" d="M77.12,110.05c-0.42-0.28-0.32,2.79,2.62,4.88c2.47,1.66,5.1,1.34,8.7,0.67c0.16-0.03,0.44,0.05,0.43-0.04
		c-0.01-0.12-2.5-1.79-5.01-3.7C81.05,109.76,77.35,110.16,77.12,110.05z"/>
	<path class="st0" d="M80.3,102.64c-1.15,0.4-1.71,0.89-2.72,1.84c-0.25,0.24-1.45,1.09-1.33,1.14c4.43,1.88,10.13-0.94,14.21-4.31
		c0.34-0.27-0.62-0.27-1.23-0.1c-2.56,0.73-3.41,0.47-5.76,0.76C82.43,102.1,81.39,102.26,80.3,102.64z"/>
	<path class="st0" d="M94.22,111.21c-3.52-0.24-5.72-0.79-5.92-0.83c-0.41-0.19-0.43,2.75,2.38,4.21c2.35,1.15,4.54,0.48,7.68-0.58
		c0.26-0.09,0.65-0.12,0.58-0.19C98.86,113.73,96.49,111.37,94.22,111.21z"/>
	<path class="st0" d="M115.75,103.82c-4.01,0.29-6.09,0.72-8.5,2.19c-0.07,0.05,0.63,0.65,1.14,0.94c0.9,0.51,1.26,0.49,2.21,0.47
		c3.54-0.26,4.2-2.63,5.84-3.36C116.83,103.86,116.07,103.8,115.75,103.82z"/>
	<path class="st0" d="M92.41,106.43c3.26-1.22,4.69-3.22,7.21-5.58c0.07-0.07,0.25-0.2,0.15-0.19c-0.17,0.02-3.56,0.52-6.68,1.7
		c-3.77,1.51-6.24,3.46-6.49,3.61C86.06,106.22,88.41,107.89,92.41,106.43z"/>
	<path class="st0" d="M67.35,107.38c-0.28-0.35-1.69,2.07,0.18,4.61c1.6,2.06,4.39,2.98,7.65,3.08c0.35,0.01,0.53,0.16,0.54,0.08
		c0.02-0.13-0.68-3.09-2.76-4.82C70.43,108.27,67.51,107.52,67.35,107.38z"/>
	<path class="st0" d="M74.45,103.9c3.33-0.93,5.16-3,7.77-5c0.13-0.1,0.3-0.18,0.2-0.2c-0.18,0.04-4.11,0.35-7.2,1.22
		c-3.76,1.13-5.34,3.16-5.59,3.28C69.07,103.42,70.37,105.01,74.45,103.9z"/>
	<path class="st0" d="M121.28,97.72c-0.07,0.01-2.04,0.26-3.87,1.17c-2.21,1.13-3.79,2.75-3.93,2.85c-0.3,0.16,0.91,1.36,3.16,0.41
		c1.85-0.8,3.06-2.54,4.6-4.33C121.28,97.77,121.33,97.73,121.28,97.72z"/>
	<path class="st0" d="M108.55,104.08c-1.23,0.46-2.48,0.89-3.74,1.28c-2.52,0.79-5.09,1.4-7.68,1.87c-1.29,0.23-2.59,0.41-3.9,0.57
		c-1.3,0.13-2.6,0.23-3.91,0.3c-1.3,0.04-2.6,0.06-3.9,0.05c-1.29-0.05-2.58-0.12-3.87-0.22c-2.26-0.2-4.48-0.54-6.66-1
		c0.32,0.55,0.59,1.13,1.01,1.62c1.73,0.29,3.49,0.51,5.27,0.63c5.28,0.38,10.7-0.02,15.95-1.16c5.26-1.17,10.34-3.01,15.1-5.38
		C111.01,103.15,109.79,103.63,108.55,104.08z"/>
	<path class="st0" d="M133.91,86.11l-0.09,0.02c-0.05,0.01-0.05,0.01-0.59,0.57c-1.51,1.57-6.09,6.34-9.14,8.07
		c-0.76,0.43-0.88,1.05-0.78,1.36c0.06,0.18,0.19,0.24,0.28,0.23l0.03-0.01c0.44-0.12,6.1-4.08,10.31-10.03l0.06-0.09L133.91,86.11z
		"/>
	<path class="st0" d="M131.55,92.52l-0.07,0.05c-0.79,0.77-7.76,7.53-10.99,8.87c-0.98,0.41-0.96,0.78-0.91,0.92
		c0.1,0.27,0.54,0.38,0.98,0.24l0.04-0.02c0,0,0.47-0.25,0.62-0.34c4.66-2.77,7.56-6.18,9.29-8.22c0.48-0.56,0.85-1,1.15-1.3
		l0.08-0.08l-0.1-0.16L131.55,92.52z M120.52,102.48C120.52,102.48,120.52,102.48,120.52,102.48L120.52,102.48L120.52,102.48z"/>
	<path class="st0" d="M117.94,96.39c0.1-0.03,0.2-0.06,0.3-0.1c2-0.83,8.03-6.64,8.88-7.75c0.01-0.01,0.03-0.02,0.04-0.03
		l-0.01-0.01c0.05-0.07,0.07-0.11,0.06-0.13l-0.04-0.11l-0.12,0.03L127,88.32c-1.14,0.92-2.19,1.77-3.16,2.57
		c-2.95,2.41-5.08,4.15-6.76,5.06c-0.09,0.05-0.12,0.14-0.08,0.24C117.07,96.35,117.38,96.54,117.94,96.39z"/>
	<path class="st0" d="M52.24,93.95c3.47,2.41,6.27,5.58,9.62,8.15c4.34,3.33,9.39,5.55,14.93,6.55c0.55,0.1,3.1-0.52,1.84-0.74
		c-5.78-1.04-10.75-3.48-15.2-7c-2.98-2.35-5.51-5.21-8.64-7.38C54.17,93.1,51.93,93.74,52.24,93.95L52.24,93.95z"/>
	<path class="st0" d="M52.91,106.59c3.82-2.96,13.53-6.37,18.48,0.12c-0.05-0.09-1.57,0.17-1.81-0.14
		C65.27,101.23,53.16,106.47,52.91,106.59L52.91,106.59z"/>
</g>
</svg>
