<?xml version="1.0" encoding="utf-8"?>
<!-- Generator: Adobe Illustrator 26.1.0, SVG Export Plug-In . SVG Version: 6.00 Build 0)  -->
<svg version="1.1" id="Layer_1" xmlns="http://www.w3.org/2000/svg" xmlns:xlink="http://www.w3.org/1999/xlink" x="0px" y="0px"
	 viewBox="0 0 167 128" style="enable-background:new 0 0 167 128;" xml:space="preserve">
<style type="text/css">
	.st0{fill:#BC9632;}
	.st1{fill:#EC1C24;}
	.st2{fill:#231F20;}
	.st3{fill:#FFFFFF;}
	.st4{fill:#125199;}
	.st5{fill:#F9F7F4;}
	.st6{fill:#0F173E;}
	.st7{fill:#73CDE0;}
	.st8{fill:#0B66B0;}
	.st9{fill:#EC4258;}
	.st10{fill:#DEA731;}
	.st11{fill:#D56840;}
	.st12{fill:#51C1DC;}
	.st13{fill:#E9445B;}
	.st14{fill:#FACD95;}
	.st15{fill:#E9A362;}
	.st16{fill:#F1BE55;}
	.st17{fill:#30251F;}
	.st18{fill:#DE9C34;}
	.st19{fill:#9A3529;}
	.st20{fill:#1D1465;}
	.st21{fill:#DC2526;}
	.st22{fill:url(#SVGID_1_);}
	.st23{fill:url(#SVGID_00000099647040163443712130000010953093896037048741_);}
	.st24{fill:#E20613;}
	.st25{fill:#39A940;}
	.st26{filter:url(#Adobe_OpacityMaskFilter);}
	.st27{enable-background:new    ;}
	.st28{clip-path:url(#SVGID_00000077304326694415532130000007258435685032782472_);fill:#1D1D1B;}
	.st29{mask:url(#SVGID_00000101062865667518083270000007046685901961381776_);}
	.st30{clip-path:url(#SVGID_00000008844593343098004490000004650470995995296163_);}
	
		.st31{clip-path:url(#SVGID_00000059306473362490036740000006154494933146762674_);fill-rule:evenodd;clip-rule:evenodd;fill:#26ABE1;}
	.st32{clip-path:url(#SVGID_00000059306473362490036740000006154494933146762674_);fill:#26ABE1;}
</style>
<g>
	<path class="st20" d="M59.65,77.36l-14.34,1.87c-3.22-4.67-6.45-9.33-9.67-13.99c-2.9,5.46-5.8,10.92-8.7,16.38l-14.7,1.91
		c1.51-18.63,3.03-37.26,4.54-55.89H28.3c-1.66,14.95-3.32,29.89-4.98,44.84c2.74-7.3,5.49-14.6,8.24-21.91
		c2.12-0.15,4.24-0.31,6.37-0.46c3.52,6.13,7.04,12.26,10.55,18.39c-2.61-13.62-5.21-27.24-7.82-40.86h11.42
		C54.6,44.21,57.12,60.79,59.65,77.36z"/>
	<path class="st20" d="M70.44,39.1c-0.29-3.39-0.58-8.08-0.87-11.47c-3.62,0.25-7.24-0.25-10.86,0c0.59,3.3,1.18,8.66,1.77,11.97
		C63.8,39.44,67.12,39.27,70.44,39.1z"/>
	<path class="st20" d="M60.86,43.44c1.86,11.01,3.73,22.02,5.59,33.04l8.94-1.16c-1.24-10.93-2.47-21.86-3.71-32.78
		C68.07,42.83,64.47,43.14,60.86,43.44z"/>
	<path class="st20" d="M156.23,55.35c1.76-8.91,3.53-17.83,5.29-26.74c-2.97-0.32-5.93-0.65-8.9-0.97c-1.9,9-3.8,17.99-5.7,26.99
		C150.02,54.86,153.13,55.11,156.23,55.35z"/>
	<path class="st20" d="M156.5,58.09c-3.32-0.13-6.64-0.27-9.96-0.4c-0.52,2.33-1.04,5.93-1.56,8.57l10.88-1.42
		C156.08,62.58,156.29,60.06,156.5,58.09z"/>
	<path class="st20" d="M95.94,27.63c-1.45,12.27-2.89,25.91-4.34,38.17c-0.29,0.02-0.58,0.05-0.87,0.07
		c-0.53-12.75-1.07-25.5-1.6-38.24H76.16c1.92,15.5,3.84,31.31,5.76,46.83l18.11-2.36c2.45-14.49,4.9-29.99,7.35-44.47
		C103.57,27.74,99.75,27.53,95.94,27.63z"/>
	<path class="st20" d="M113.45,27.63l-5.15,43.4l31.52-4.1l7.18-39.3H113.45z M133.88,59.23l-16.98,1.63l3.67-22.3l16.68,0.26
		L133.88,59.23z"/>
	<polygon class="st20" points="122.19,54.65 130.3,54 131.84,44.2 123.99,44.2 	"/>
	<g>
		<path class="st20" d="M108.1,77.65c0,0.59,0.12,1.14,0.34,1.63c-32.16,2.96-64.31,5.92-96.47,8.88l0.06-0.49l96.3-11.42
			C108.18,76.69,108.1,77.16,108.1,77.65z"/>
		<path class="st20" d="M156.52,70.53c-1.04,1.54-2.08,3.08-3.12,4.61c-12.83,1.18-25.67,2.36-38.5,3.54
			c0.19-0.49,0.28-1.01,0.28-1.56c0-0.6-0.12-1.15-0.35-1.65L156.52,70.53z"/>
	</g>
</g>
<path class="st20" d="M26.82,85.94c2.97-4.85,5.93-9.7,8.9-14.56c4.58,4.57,7.12,7.99,11.7,12.56
	C39.88,84.23,34.36,85.66,26.82,85.94z"/>
<g>
	<path class="st20" d="M20.98,107.33L18.54,92.6l3.77-0.39c0.29,2.78,0.71,7.64,0.84,10.35l0.08,0c0.47-3,1.24-7.35,1.8-10.63
		l3.02-0.31c0.35,2.83,0.88,7.48,1.14,10.62l0.11,0c0.36-3.13,1.14-8.44,1.49-10.9l3.48-0.36l-3.45,16.35l-3.41,0.01
		c-0.35-2.75-0.88-6.19-1.17-9.28l-0.09,0.01c-0.46,3.08-1.24,6.64-1.73,9.28L20.98,107.33z"/>
	<path class="st20" d="M37.13,103.72l-0.72,3.58l-3.39,0.01l3.87-16.62l5.03-0.52l1.73,17.12l-3.52,0.01l-0.27-3.64L37.13,103.72z
		 M39.62,100.39c-0.18-2.45-0.33-5.18-0.43-6.72l-0.12,0.01c-0.25,1.63-0.8,4.32-1.31,6.79L39.62,100.39z"/>
	<path class="st20" d="M46.2,89.72l8.42-0.87l-0.35,3.45l-4.83,0.41l-0.35,3.86l4.47-0.29l-0.35,3.42l-4.43,0.2l-0.67,7.37
		l-3.36,0.01L46.2,89.72z"/>
	<path class="st20" d="M62.98,99.02l-4.57,0.21l-0.51,4.51l5.11-0.11l-0.85,3.61l-7.99,0.02l1.96-18.57l8.43-0.88l-0.45,3.65
		l-4.88,0.42l-0.43,3.81l4.62-0.3L62.98,99.02z"/>
	<path class="st20" d="M68.41,99.06l-1.1,8.18l-3.35,0.01l2.5-19.62l5.26-0.55c3-0.31,4.24,1.51,3.7,5.24
		c-0.42,2.85-1.65,4.25-2.63,4.79c1.08,0.65,1.45,1.95,1.02,4.91l-0.1,0.72c-0.33,2.29-0.46,3.59-0.5,4.49l-3.29,0.01
		c-0.06-0.78,0.13-2.58,0.4-4.56l0.1-0.7c0.33-2.39,0.06-3.01-1.26-2.95L68.41,99.06z M68.88,95.62l0.81-0.05
		c1.31-0.08,1.9-0.74,2.18-2.72c0.23-1.67-0.11-2.36-1.28-2.26l-1.05,0.09L68.88,95.62z"/>
	<path class="st20" d="M78.78,101.1c-0.18,1.73-0.02,2.92,1,2.9c0.99-0.02,1.46-0.99,1.66-2.2c0.24-1.48-0.15-2.33-1.72-3.54
		c-2.34-1.75-3.1-3.27-2.65-6.32c0.53-3.56,2.51-6.06,5.59-6.39c3.63-0.38,4.15,2.67,3.63,6.01l-3.39,0.26
		c0.18-1.49,0.19-2.75-0.82-2.66c-0.79,0.07-1.25,0.8-1.43,1.98c-0.19,1.21,0.06,1.81,1.54,2.85c2.5,1.83,3.41,3.48,2.8,7.14
		c-0.6,3.6-2.49,6.47-5.8,6.47c-3.58,0-4.25-2.88-3.8-6.4L78.78,101.1z"/>
</g>
<g>
	<path class="st20" d="M95.64,107.53c1.35-0.47,2.12-1.42,2.29-2.84l-5.83,0.65l-2.12-5.11l-0.03,0c-0.43-1.05-0.64-2.2-0.64-3.47
		c0-1.16,0.16-2.25,0.47-3.28c0.32-1.03,0.8-1.97,1.45-2.82c0.63-0.86,1.35-1.55,2.17-2.06c0.8-0.51,1.69-0.84,2.69-0.99
		c1.3-0.2,2.46-0.03,3.46,0.51c1,0.54,1.82,1.47,2.48,2.78c0.22,0.46,0.39,0.93,0.52,1.41l-0.01,6.3l2.29-0.28v5.6l-2.41,0.27
		c-0.11,3.35-1.71,5.74-4.81,7.15L95.64,107.53z M97.94,93.82l-0.05-0.06c-0.45-0.45-1.05-0.63-1.8-0.52
		c-0.77,0.11-1.39,0.47-1.86,1.08c-0.47,0.63-0.71,1.39-0.71,2.28c0,1.1,0.39,2.09,1.16,2.97l3.27-0.4V93.82z"/>
	<path class="st20" d="M103.93,104.02v-5.59l2.07-0.25c-0.19-0.74-0.28-1.5-0.28-2.29c0-2.16,0.65-4.09,1.94-5.81
		c1.33-1.77,2.98-2.8,4.94-3.08c1-0.14,1.91-0.07,2.72,0.22c0.84,0.3,1.58,0.81,2.22,1.52c0.65,0.71,1.14,1.49,1.46,2.35
		c0.32,0.85,0.48,1.88,0.48,3.09c0,0.88-0.09,1.68-0.26,2.41l1.82-0.21v5.77L103.93,104.02z M114.74,80.51
		c-0.63,0.1-1.17,0.45-1.61,1.05c-0.44,0.6-0.67,1.28-0.67,2.03c0,0.77,0.22,1.38,0.67,1.85c0.44,0.47,0.97,0.67,1.61,0.57
		c0.62-0.09,1.16-0.43,1.6-1.04c0.44-0.6,0.67-1.29,0.67-2.06c0-0.76-0.22-1.37-0.67-1.85C115.9,80.6,115.37,80.41,114.74,80.51z
		 M109.12,81.44c-0.63,0.1-1.17,0.46-1.61,1.07c-0.44,0.61-0.67,1.3-0.67,2.07c0,0.78,0.22,1.41,0.67,1.88
		c0.44,0.48,0.97,0.67,1.61,0.58c0.62-0.09,1.16-0.44,1.6-1.06c0.44-0.61,0.67-1.31,0.67-2.09c0-0.77-0.22-1.4-0.67-1.88
		C110.27,81.53,109.74,81.34,109.12,81.44z M114.18,96.86c0.39-0.48,0.59-1.18,0.59-2.1c0-0.92-0.2-1.57-0.59-1.97
		c-0.39-0.4-0.92-0.56-1.57-0.48c-0.64,0.08-1.17,0.38-1.57,0.88c-0.41,0.5-0.61,1.2-0.61,2.1c0,0.91,0.2,1.55,0.61,1.94
		c0.39,0.39,0.92,0.55,1.57,0.47C113.27,97.63,113.8,97.35,114.18,96.86z M111.54,74.82c-0.62,0.09-1.16,0.44-1.6,1.06
		c-0.44,0.62-0.67,1.32-0.67,2.09c0,0.8,0.22,1.44,0.67,1.93c0.44,0.5,0.97,0.71,1.6,0.63c0.63-0.08,1.17-0.43,1.61-1.05
		c0.44-0.62,0.67-1.32,0.67-2.12c0-0.79-0.22-1.43-0.67-1.93C112.7,74.94,112.17,74.73,111.54,74.82z"/>
	<path class="st20" d="M120.18,102.24v-5.76l5.06-0.59c0.9-0.11,1.42-0.47,1.55-1.06c0.12-0.35,0.18-1.07,0.18-2.16v-6.58l4.63-0.6
		v9.35c0,0.56-0.01,0.97-0.03,1.22c-0.02,0.36-0.06,0.68-0.11,0.97c-0.05,0.29-0.11,0.56-0.19,0.8c-0.09,0.29-0.19,0.54-0.28,0.73
		c-0.4,0.85-0.93,1.52-1.58,2.02c-0.66,0.52-1.4,0.82-2.22,0.91L120.18,102.24z M124.95,107.65c0.44-0.6,0.66-1.3,0.66-2.09
		c0-0.8-0.22-1.45-0.66-1.97c-0.45-0.51-0.99-0.74-1.61-0.67c-0.63,0.07-1.16,0.4-1.6,1.01c-0.44,0.6-0.67,1.3-0.67,2.09
		c0,0.79,0.22,1.44,0.67,1.94c0.44,0.52,0.97,0.74,1.6,0.68C123.97,108.59,124.5,108.25,124.95,107.65z M130.76,107.08
		c0.44-0.61,0.66-1.31,0.66-2.11c0-0.8-0.22-1.47-0.66-1.99c-0.45-0.52-0.99-0.75-1.61-0.68c-0.63,0.07-1.16,0.4-1.6,1.01
		c-0.45,0.61-0.68,1.31-0.68,2.11c0,0.8,0.23,1.45,0.68,1.96c0.44,0.52,0.97,0.75,1.6,0.69
		C129.77,108.03,130.31,107.69,130.76,107.08z"/>
	<path class="st20" d="M139.7,102.97c1.35-0.49,2.12-1.5,2.29-3.04l-5.83,0.61l-2.12-5.61l-0.03,0c-0.43-1.15-0.64-2.42-0.64-3.8
		c0-1.26,0.16-2.45,0.47-3.56c0.32-1.11,0.8-2.12,1.45-3.02c0.63-0.92,1.35-1.63,2.17-2.15c0.8-0.52,1.69-0.84,2.69-0.96
		c1.3-0.16,2.46,0.06,3.46,0.68c1,0.62,1.82,1.65,2.48,3.07c0.22,0.5,0.39,1.01,0.52,1.53v12.73c-0.19,3.6-1.84,6.15-4.94,7.65
		L139.7,102.97z M142,88.21l-0.05-0.06c-0.45-0.5-1.05-0.71-1.8-0.62c-0.77,0.09-1.39,0.46-1.86,1.11
		c-0.47,0.66-0.71,1.48-0.71,2.45c0,1.2,0.39,2.28,1.16,3.25l3.27-0.35V88.21z"/>
</g>
</svg>
