<svg enable-background="new 0 0 180 138" viewBox="0 0 180 138" xmlns="http://www.w3.org/2000/svg"><circle cx="94.55" cy="69" fill="#fff" r="66.32"/><path d="m168.65 43.58c-.13-.31-.94-2-1.35-2.67-3.31-5.46-9.29-9.84-15.44-9.84-.79 0-1.59.07-2.37.2-3.23.55-3.92 2.62-4.07 3.48-.29 1.66.58 3.33 2.21 4.24 6.22 3.49 6.15 13.42 4.2 20.86-2.18 8.34-6.35 13.92-9.59 15.26-.41-6.25 2.35-17.07 3.57-21.86l.05-.21c.36-1.39-.02-2.81-1.03-3.87-.07-.09-.14-.17-.22-.25-.07-.09-.15-.17-.22-.25-.07-.09-.15-.17-.22-.25-.15-.19-.32-.36-.51-.53l-.55-.49c-.09-.18-.2-.36-.32-.52-.51-.71-1.24-1.27-2.2-1.7l-.89-.78-.1.41c-.91-.29-2-.49-3.28-.62-1.5-2.23-4.09-3.6-7.2-3.73-.33-.01-.66-.02-1.01-.02-4.88 0-8.47 1.42-10.66 4.21-2.29 2.91-4.31 6.65-5.84 10.68l-6.75-9.13.35 3.62c-.17-.07-.35-.13-.53-.19l-.14-2.24-1.3 1.84c-.99-.22-2.03-.33-3.1-.33-2.13 0-4.09.48-5.69 1.4-3.76 2.15-6.7 6.65-8.66 11.64l-4.17-4-1.63-.79c-.09-.04-.18-.07-.27-.1l-.69-.14-.57-.27c-1.18-.32-2.43-.49-3.71-.49-1.92 0-3.72.41-5.21 1.19-1.52.79-2.99 2-4.37 3.55-.05-1.89-.39-3.66-1.05-5.22-.17-.4-.36-.81-.59-1.26l-1.21.42c-.16-.67-.37-1.31-.63-1.92-3.3-7.74-11.71-13.35-20-13.35-.4 0-.81.01-1.21.04-12.29.81-25.7 9.22-29.9 18.74-1.5 3.4-1.64 6.68-.46 9.49l1.62 2.52 1.99 2.38c.05.06.1.12.16.17.07.08.14.16.22.25 1.11 1.33 2.61 2.1 4.14 2.1 1.76 0 3.31-.98 4.27-2.68.98-1.74 2.15-3.42 3.48-5.03-3.35 14.8-6.09 34.07-1.94 40.59.92 1.45 1.23 2.03 2.36 3.11l1.06.85c1.7 1.68 4.48 2.76 7.43 2.89.12.01.24.01.36.01 3.19 0 4.86-1.98 5.06-3.83.12-1.13.07-1.51-.26-2.24 1.59 1.56 5.5 3.13 8.47 3.13.66 0 1.34-.05 2.03-.14 4.76-.64 9.24-4.71 13.3-12.11.35.18.7.35 1.06.5l-.55 1.02c2.39 1.82 5.42 2.86 8.33 2.86.88 0 1.72-.1 2.51-.29 5.61-1.35 8.88-8.29 10.74-14.87 1.41 1.85 3.31 3.23 5.36 4.11l-.56 1.03c2.4 1.83 5.48 2.88 8.46 2.88 1.05 0 2.05-.13 2.97-.39 5.37-1.51 9.74-6.39 12.76-10.84 2.14 1.72 5.44 2.83 8.55 2.83 1.08 0 2.11-.13 3.07-.39 2.34-.64 4.39-2.38 6.11-5.17.38.21.78.4 1.19.57l-.55 1.02c2.15 1.65 4.86 2.66 8.05 2.98.73.07 1.46.11 2.19.11 7.87 0 15.4-4.46 20.67-12.25 6.54-9.76 8.29-22.28 4.42-31.93z" fill="#fff"/><path d="m117.94 19.4c-.15-1.23-4.83.3-4.62 2.04 1.01 8.34-3.47 16.73-10.27 21.32-2.83 1.91.2 2.67 2.09 1.4 8.19-5.53 14.04-14.49 12.8-24.76" fill="#ec1c24"/><path d="m109.14 27.07c.2-.39-1.5-.28-2.92.17.12-.86.21-1.74.24-2.62.21-7.2-9.61-3.38-12.46-.78-3.83 3.5-6.58 12.87 1.52 11.97 1.39-.15 2.83-.5 4.23-1.01-1.82 4.54-4.82 8.43-8.3 11.82-.82.8.85.77 1.22.7 1.12-.19 2.32-.65 3.15-1.45 4.02-3.91 7.49-8.71 9.31-14.05 1.67-1.33 3.08-2.93 4.01-4.75m-12.88 6.19c-3.97-1.84.37-11.76 3.86-10.31 2.89 1.2 1.57 6.42.45 9.66-1.38.89-2.91 1.31-4.31.65" fill="#ec1c24"/><path d="m73.55 35.1c-.79.39-.7.71.17.63 1.16-.11 2.39-.45 3.44-.96 4.34-2.13 8.23 2.45 7.69 6.49-.82 6.12-7.43 6.36-11.05 2.69-2.45-2.48-2.43-6.18-2.68-9.4-.23-2.93-.44-5.88-.54-8.82-.01-.32-4.89.35-4.86 1.36.16 4.66.27 9.53 1.09 14.13 1.17 6.49 8.14 7.81 13.51 6.49 4.97-1.23 11.2-5.25 9.03-11.22-2.3-6.34-11.62-3.44-15.8-1.39" fill="#ec1c24"/><path d="m94.59 20.93c.34-.09-1.09-4.65-1.6-4.51-7.74 2.13-14.73 7.53-19.29 14.43-.54.82.75 2.49.6 2.71 4.59-6.68 12.55-10.5 20.29-12.63" fill="#ec1c24"/><path d="m153.06 52.49c-7.2-25.49-30.66-44.23-58.43-44.23-22.62 0-42.39 12.43-52.83 30.83.49.01.98.07 1.47.16 10.28-17.7 29.45-29.63 51.36-29.63 28.33 0 52.07 19.94 57.95 46.52.01-.18.38-3.2.48-3.65z" fill="#bb9532"/><g fill="#bc9632"><path d="m49.42 51.32c-.29-.92-.68-1.31-.96-1.41-1.47-.22-3.2-.12-5.14.28-1.55.32-3.25.85-5.01 1.58 1.05.24 2.09.57 3.07.88.13.04.25.09.38.13 2.76-.97 5.39-1.48 7.66-1.46"/><path d="m45.07 87.13c.19 3.45 1.21 7.34 2.44 10.39-.82-2.73-1.38-5.71-1.43-8.34 9.69-4.45 19.32-23.64 15.64-32.27-.15-.35-.31-.69-.49-1.02 1.73 9.47-6.69 26.19-16.16 31.24"/><path d="m45.76 59.03c.16-.57-.01-1.02-.41-1.41-.06-.09-.14-.17-.22-.25-.06-.09-.14-.17-.22-.25-.06-.09-.14-.17-.22-.25-.03-.03-.06-.07-.08-.11-1.68 4.41-4.28 13.32-6.29 22.72.69-.47 1.36-1.02 2-1.63 1.83-7.81 3.95-14.96 5.44-18.82"/><path d="m20.26 70.97c2.64-4.71 6.31-8.72 10.3-11.86.37-1.35.74-2.6 1.09-3.73-4.77 3.19-9.4 7.69-12.58 13.38-.65 1.16-1.52 1.55-2.14 1.68-.1.02-.2.03-.3.04.01.01.01.01.02.02v.01c.07.08.14.16.22.24 0 0 0 0 .01.01.07.09.14.17.22.24h-.01c.83 1.05 2.25 1.61 3.17-.03"/><path d="m36.8 107.71c-.33-1.81-.39-4.13-.25-6.79-.39-.7-.75-1.45-1.06-2.25-.11 2.48-.02 4.52.26 6.06.2 1.07.42 1.6.59 1.99.17.4.35.82.29 1.39-.08.73-.71 1.68-2.24 2-.4.08-.84.11-1.32.09-.85-.03-1.82-.18-2.77-.45 1.21 1.19 3.35 1.88 5.3 1.96 1.51.07 2.02-.58 2.06-.94.07-.63-.47-.91-.86-3.06"/><path d="m60.95 94.95c-3.15 6.04-7.19 11.12-11.93 12.11-.19.04-.39.08-.58.1-1.88.25-3.63.12-5.22-.38 1.94 1.55 4.41 2.31 7.48 1.9 4.34-.58 8.37-5.49 11.61-11.78-.6-.52-1.06-1.2-1.36-1.95z"/><path d="m84.46 64.73c.07.8.03 1.73-.21 2.78.05.12.09.24.12.36.33 1.2.34 3.62.06 6.56.38-.79.77-1.72 1.15-2.77-.03-.28-.08-.52-.13-.71-.05-.2-.13-.38-.21-.54.68-2.68.04-4.62-.78-5.68"/><path d="m77.04 65.95c.16-.77.21-1.43.2-1.91-.48.6-1.08 1.63-1.72 3.07.44-.44.94-.83 1.52-1.16"/><path d="m71.88 91.86c-.01-4.33.97-10.25 2.38-15.44-.29-1.23-.44-2.44-.54-3.45-.03-.26-.04-.52-.04-.76-.35 1.16-.7 2.42-1.03 3.81-1.91 7.92-2.19 14.2-1.43 16.81.21-.29.43-.61.66-.97"/><path d="m86.05 82.59c-.65.46-1.3.78-1.96.91 0 0-.09.02-.14.03-.37.06-.74.11-1.11.13-1.61 6.59-4.6 14.23-9.93 15.51-.08.02-.16.04-.24.05-1.81.38-3.86.18-5.79-.51 2.45 1.87 5.71 2.59 8.13 2 4.52-1.09 7.51-8.38 9.14-15.55.61.03 1.27 0 2-.12.09-.02.18-.04.26-.06-.24-.74-.33-1.6-.36-2.39z"/><path d="m109.42 60.95c-.57 2.11-2.27 3.75-4.54 4.4-.12.03-.24.06-.36.09-.27.06-.53.08-.79.1.05.08.11.16.2.22.05.1.12.18.22.25.05.1.12.18.22.25.05.09.12.18.22.25.25.51 1.3.7 2.32.41 1.42-.4 3.04-1.46 3.58-3.47.75-2.8.11-4.83-.74-5.98.1.97.03 2.13-.33 3.48"/><path d="m98.21 85.36c-.71-5.24.82-14.37 2.92-20.72-.49-.58-.55-1.34-.16-2.05 1.28-2.28 1.56-4.57 1.48-5.84-1.07 1.52-2.72 5.4-4.05 11.48-1.54 7.03-1.85 13.37-.8 16.14.22.56.43.85.61.99"/><path d="m112.52 80.41c-2.88 4.6-7.28 10.01-12.69 11.53-.18.05-.37.1-.56.14-1.85.39-3.98.19-5.99-.52 2.58 1.97 6.08 2.66 8.59 1.95 4.62-1.3 8.86-6.02 12.13-11.35-.6-.1-1.31-.89-1.48-1.75z"/><path d="m142.54 50.8c-.06-.09-.13-.17-.22-.25-.06-.09-.13-.17-.22-.25-1.63 6.4-5.61 22.26-2.41 26.36.01.02.03.03.04.05-.99-6.71 2.15-18.88 3.58-24.48.09-.36-.04-.67-.34-.93-.06-.09-.14-.17-.22-.25-.04-.09-.12-.17-.21-.25"/><path d="m130.23 51.47c.03-.14.07-.28.11-.41.08-.32.16-.63.24-.93-.01-.07-.02-.14-.02-.22-.03-.88-.25-1.77-.48-2.31-1.18 1.41-3.35 5.96-5.09 12.4-1.55 5.75-2.17 10.89-1.81 14.51.36-.71.72-1.49 1.08-2.33.67-7.39 3.54-16.32 5.97-20.71"/><path d="m130.07 77.74c-1.65 3.27-3.58 5.18-5.86 5.8-.17.05-.35.09-.53.13-1.98.41-4.3.16-6.32-.52 1.91 1.65 5.85 2.79 8.9 1.96 2.15-.59 3.87-2.76 5.23-5.65-.52-.52-1-1.09-1.42-1.72"/><path d="m166.23 44.78c-.09-.23-.19-.45-.3-.67 1.69 9.35 1.78 14.86-2.5 23.48-4.25 8.56-11.83 13.62-18.56 15.02-1.76.36-3.52.46-5.25.28-1.38-.14-2.64-.41-3.79-.81 1.59 1.22 3.68 2.05 6.41 2.32 17.93 1.82 30.63-23.06 23.99-39.62"/></g><path d="m163.79 42.03c-1.91-4.77-7.47-8.56-13.18-7.58-1.78.3-1.73 1.22-.83 1.73 15.07 8.46 2.99 43.75-9.04 42.45-7.16-.77-1.84-21.34.15-29.14.33-1.28-2.14-1.96-5.12-2.18-.3-.02-.62-.05-.94-.06-.66-2.19-2.68-3.48-5.26-3.58-2.96-.11-6.9.28-9.01 2.96-3.79 4.82-6.84 12.26-7.86 19.33-2.93 8.64-9.23 19.49-13.47 20.68-7.86 2.22-1.2-30.43 3.52-31.77 1.44-.4 1.69 4.26-.53 8.25-.53.94.9 1.42 2.27 1.03 1.42-.4 3.04-1.46 3.58-3.47.82-3.03-.01-5.16-.96-6.25-1.93-2.2-7.23-3.2-10.48-1.35-4.43 2.53-8.28 10.27-9.53 18.41-1.08 3.08-2.63 6.37-4.65 7.29.82-4.83.99-9.08.57-10.59-.05-.2-.13-.38-.21-.54.69-2.7.03-4.66-.81-5.71-1.81-2.28-7.06-3.48-10.39-1.75-3.51 1.83-6.83 6.78-8.91 12.68-.36.08-.62.33-.67.79-.61 6.83-7.14 22.7-13.34 28.81-2.38-2.89-4.92-10.3-5.04-16.05 9.69-4.45 19.32-23.64 15.64-32.27-2.84-6.63-10.53-11.85-18.03-11.35-16.64 1.1-33.37 16.98-26.6 25.46.83 1.04 2.25 1.6 3.17-.04 7.35-13.12 22.65-20.81 30.98-19.52 6.03 1.44.31 28.38-12.42 33.21 2.06-10.27 5.02-20.67 6.94-25.63.34-1.21-.83-1.92-2.42-2.43-1.67-.54-3.53-1.14-5.14-1.13-1.17.01-1.89.26-2.28 1.42-4.59 13.74-10.7 45.09-6.16 52.23 1.01 1.59 3.55 2.51 5.84 2.61 1.51.07 2.03-.58 2.07-.94.07-.64-.48-.91-.87-3.06-.65-3.62-.26-9.26.69-15.5.45 9.11 4.37 17.65 13.2 16.46 4.98-.67 9.56-7.03 13-14.66.01.06.03.11.04.17 1.41 5.09 7.43 7.47 11.3 6.54 4.52-1.09 7.51-8.38 9.14-15.55.61.03 1.27.01 2-.12 1.01-.17 2.09-.99 3.13-2.2.18 1.59.49 3.12.96 4.56 1.65 5.03 7.79 7.17 11.61 6.09 5.37-1.51 10.22-7.63 13.64-13.97.25.87.55 1.71.93 2.48 1.07 2.19 6.12 4.1 9.83 3.08 2.66-.72 4.66-3.87 6.14-7.81 1.39 3.77 4.33 6.55 9.83 7.11 17.93 1.81 30.63-23.06 23.98-39.63m-85.51 24.71c-2.19 1-3.46 2.98-3.17 6.08.24 2.48.77 5.59 2.45 7.59-1.62 6.63-3.98 12.81-6.67 14.47-4.3-3.5 1.97-31.53 6.75-32.67.99-.24 1.32 1.9.64 4.53m51.4-6.75c-1.74 7.29-4.65 14.95-7.1 18.09-3.51-8.46 4.22-31.15 7.47-32.04 1.16-.32 1.85 2.18 1.91 3.8 0 .11.02.19.05.27-.63 2.41-1.64 5.99-2.33 9.88" fill="#ec1c24"/><path d="m151.46 86.12c-7.38 24.4-30.06 42.22-56.83 42.22-15.73 0-30.05-6.16-40.69-16.18l-.92-.93-1.47.48.36.36h-.01c.08.08.16.15.23.23 10.97 10.75 25.97 17.4 42.5 17.4 27.78 0 51.26-18.76 58.45-44.27-.06.03-1.13.56-1.62.69z" fill="#bb9532"/><g fill="#ec1c24"><path d="m63.43 107.61 2.56 1.9-.49.66-1.75-1.3-.91 1.22 1.63 1.21-.49.66-1.63-1.21-1.4 1.88-.81-.6z"/><path d="m69.45 114.83c-.96 1.59-2.46 1.91-3.77 1.12-1.33-.8-1.56-2.33-.72-3.72.88-1.45 2.41-1.93 3.74-1.12 1.38.84 1.56 2.37.75 3.72zm-3.57-2.06c-.58.96-.56 2.02.27 2.52s1.77.01 2.37-.97c.54-.89.6-2-.26-2.52s-1.79 0-2.38.97z"/><path d="m74.75 117.31c-.77 1.68-2.24 2.17-3.62 1.54-1.41-.65-1.81-2.14-1.13-3.62.71-1.54 2.18-2.18 3.59-1.53 1.46.67 1.82 2.18 1.16 3.61zm-3.78-1.65c-.47 1.02-.33 2.07.55 2.47.89.41 1.76-.18 2.24-1.23.44-.94.38-2.05-.54-2.48-.9-.41-1.77.2-2.25 1.24z"/><path d="m76.48 115.15c.44.07.99.21 1.56.4.98.33 1.59.75 1.94 1.32.37.58.47 1.31.17 2.2-.31.93-.86 1.53-1.51 1.81-.68.3-1.59.26-2.61-.08-.56-.19-.97-.36-1.27-.5zm-.53 4.75c.12.07.33.13.52.2 1.24.42 2.21-.02 2.65-1.34.39-1.16-.05-2.04-1.25-2.44-.3-.1-.53-.15-.67-.16z"/><path d="m83.22 117.18c.37 0 .87.05 1.53.18.72.14 1.23.39 1.52.75.27.33.4.79.3 1.3s-.34.91-.7 1.14c-.47.32-1.12.38-1.82.25-.18-.04-.35-.08-.48-.12l-.39 2.04-.98-.19zm.5 2.72c.11.06.27.09.48.13.74.14 1.26-.13 1.38-.77.12-.6-.24-1.01-.92-1.14-.27-.05-.47-.07-.58-.06z"/><path d="m87.56 117.97c.38-.03.95-.02 1.53.04.79.08 1.32.27 1.65.61.28.28.41.68.36 1.15-.07.71-.6 1.14-1.13 1.28v.02c.38.19.57.59.66 1.14.1.7.18 1.35.28 1.58l-1.04-.1c-.06-.17-.15-.63-.24-1.33-.08-.73-.32-.99-.89-1.06l-.51-.05-.23 2.26-.99-.1zm.75 2.53.59.06c.68.07 1.14-.25 1.19-.79.06-.6-.34-.92-.99-.99-.32-.03-.52-.03-.62-.01z"/><path d="m95.09 121.42-2.08-.03-.03 1.62 2.33.04-.01.83-3.33-.05.09-5.52 3.21.05-.01.83-2.2-.03-.02 1.43 2.08.03z"/><path d="m101.01 121.22c-.09-.71-.21-1.56-.27-2.3h-.02c-.12.68-.28 1.45-.47 2.16l-.59 2.45-.77.07-.94-2.28c-.27-.68-.54-1.42-.74-2.09h-.02c.04.72.08 1.6.11 2.35l.07 2.22-.94.08-.12-5.53 1.32-.12.91 2.15c.25.63.48 1.26.67 1.86h.02c.09-.61.22-1.3.38-1.97l.56-2.27 1.31-.12.8 5.47-.98.09z"/><path d="m103.64 117.48.95 5.44-.99.17-.95-5.44z"/><path d="m105.61 117.08.79 3.12c.27 1.05.82 1.42 1.48 1.26.71-.18 1-.77.74-1.82l-.79-3.12.98-.25.77 3.06c.42 1.65-.25 2.6-1.53 2.92-1.24.31-2.22-.17-2.64-1.86l-.78-3.07z"/><path d="m115.22 117.41c-.29-.65-.63-1.44-.89-2.14l-.02.01c.07.69.12 1.47.14 2.21l.11 2.52-.73.28-1.53-1.94c-.45-.58-.9-1.21-1.29-1.8l-.02.01c.24.68.52 1.51.75 2.23l.68 2.12-.88.34-1.63-5.29 1.24-.48 1.47 1.81c.42.53.81 1.08 1.16 1.61l.02-.01c-.08-.61-.14-1.31-.18-1.99l-.08-2.34 1.22-.47 2.28 5.04-.92.35z"/><path d="m124.47 116.12c-.77.2-1.48.34-2.22.45-.13.03-.24.05-.35.11-1.14.58-2.6.33-3.49-1.23-.85-1.48-.53-3.04.84-3.83 1.38-.8 2.82-.2 3.6 1.15.66 1.16.58 2.24.03 2.92l.02.03c.48-.12 1-.29 1.43-.43zm-2.53-2.77c-.53-.92-1.45-1.5-2.32-1s-.87 1.6-.31 2.56c.54.96 1.49 1.47 2.32.99.85-.49.89-1.55.31-2.55z"/><path d="m122.85 109.47 1.89 2.6c.64.87 1.29 1.01 1.84.61.59-.43.65-1.09.01-1.96l-1.89-2.6.81-.59 1.86 2.55c1 1.38.74 2.5-.34 3.28-1.03.75-2.12.66-3.14-.74l-1.86-2.56z"/><path d="m129.52 109.3.68 1.49-.78.69-2.34-5.31.96-.85 5.01 2.94-.81.72-1.41-.84zm.68-1.62-1.23-.73c-.3-.18-.62-.4-.89-.59l-.01.01c.15.29.35.64.49.95l.58 1.3z"/><path d="m129.79 103.69.69-.73 3.4 3.21 1.56-1.65.61.58-2.25 2.38z"/><path d="m133.08 100.02 4.23 3.55-.65.77-4.23-3.55z"/><path d="m135.06 98.88-.93 1.27-.68-.5 2.47-3.36.68.5-.94 1.28 3.76 2.77-.6.81z"/><path d="m141.62 97.56-1.97-1.2-3.65-.18.6-.98 1.56.17c.45.05.79.09 1.19.16l.01-.01c-.23-.3-.44-.61-.69-.98l-.87-1.3.59-.97 1.78 3.23 1.99 1.21z"/></g><path d="m134.28 87.89c-7.15 14.91-22.39 25.2-40.03 25.2-10.97 0-21.02-3.98-28.76-10.58" fill="none" stroke="#bc9632" stroke-miterlimit="10" stroke-width=".9441"/></svg>