<?xml version="1.0" encoding="utf-8"?>
<!-- Generator: Adobe Illustrator 26.1.0, SVG Export Plug-In . SVG Version: 6.00 Build 0)  -->
<svg version="1.1" id="Layer_1" xmlns="http://www.w3.org/2000/svg" xmlns:xlink="http://www.w3.org/1999/xlink" x="0px" y="0px"
	 viewBox="0 0 116 90" style="enable-background:new 0 0 116 90;" xml:space="preserve">
<style type="text/css">
	.st0{fill:#0081AF;}
	.st1{fill:#FFFFFF;}
	
		.st2{clip-path:url(#SVGID_00000170961723953557129070000007773278470955245724_);fill:url(#SVGID_00000036229083100431307530000001768534223175061666_);}
	
		.st3{clip-path:url(#SVGID_00000023962156321414662090000009605516931228980624_);fill:url(#SVGID_00000003094788148577404660000013980555359621396629_);}
	.st4{fill:#079347;}
	.st5{fill:#8EC441;}
	.st6{fill:#28B574;}
</style>
<g>
	<path class="st0" d="M58,87.63c-9.02,0-17.76-1.71-23.97-4.7c-3.47-1.67-6.96-2.51-10.39-2.51H17.2c-2.12,0-3.71-2.14-3.71-4.98
		v-3.32c0-1.82-0.91-3.03-1.52-3.03c-2.89,0-4.84-3.59-5.97-6.6C4.29,57.94,3.31,51.56,3.31,45c0-6.56,0.98-12.94,2.69-17.49
		c1.13-3.01,3.08-6.6,5.97-6.6c0.6,0,1.52-1.21,1.52-3.02v-3.32c0-2.84,1.6-4.98,3.71-4.98h6.44c3.42,0,6.92-0.85,10.39-2.52
		c6.21-2.98,14.94-4.7,23.96-4.7c9.02,0,17.75,1.71,23.96,4.7c3.47,1.67,6.97,2.52,10.39,2.52h6.44c2.12,0,3.71,2.14,3.71,4.98v3.32
		c0,1.82,0.91,3.02,1.52,3.02c2.89,0,4.84,3.59,5.97,6.6c1.71,4.56,2.69,10.93,2.69,17.49c0,6.56-0.98,12.94-2.69,17.49
		c-1.13,3.01-3.08,6.6-5.97,6.6c-0.6,0-1.52,1.21-1.52,3.03v3.32c0,2.84-1.6,4.98-3.71,4.98h-6.44c-3.42,0-6.92,0.85-10.39,2.51
		C75.76,85.91,67.02,87.63,58,87.63 M17.36,76.96h6.28c3.94,0,7.94,0.96,11.89,2.86c5.76,2.77,13.95,4.35,22.47,4.35
		c8.52,0,16.71-1.59,22.47-4.36c3.94-1.89,7.94-2.86,11.89-2.86h6.28c0.15-0.17,0.41-0.69,0.41-1.52v-3.32
		c0-3.64,2.19-6.48,4.98-6.48c0.23-0.05,1.45-0.94,2.73-4.35c1.57-4.18,2.47-10.11,2.47-16.28c0-6.16-0.9-12.1-2.47-16.28
		c-1.28-3.41-2.5-4.3-2.75-4.36h0c-2.76,0-4.95-2.85-4.95-6.48l0-3.32c0-0.83-0.26-1.35-0.41-1.52h-6.28
		c-3.94,0-7.94-0.96-11.89-2.86C74.71,7.42,66.52,5.83,58,5.83c-8.52,0-16.71,1.59-22.47,4.36c-3.94,1.9-7.94,2.86-11.89,2.86h-6.28
		c-0.15,0.18-0.42,0.7-0.42,1.52v3.32c0,3.63-2.19,6.48-4.98,6.48c-0.23,0.05-1.45,0.94-2.73,4.35C7.67,32.9,6.77,38.84,6.77,45
		c0,6.16,0.9,12.09,2.47,16.28c1.28,3.41,2.5,4.3,2.75,4.35h0c2.77,0,4.95,2.85,4.95,6.48v3.32C16.95,76.26,17.21,76.78,17.36,76.96
		"/>
	<path class="st1" d="M58,87c-8.93,0-17.57-1.69-23.7-4.63c-3.56-1.71-7.14-2.58-10.66-2.58H17.2c-1.73,0-3.08-1.91-3.08-4.35v-3.32
		c0-2.15-1.13-3.65-2.15-3.65c-1.97,0-3.88-2.2-5.38-6.19C4.91,57.78,3.94,51.49,3.94,45c0-6.49,0.96-12.78,2.65-17.27
		c1.5-3.99,3.41-6.19,5.38-6.19c1.02,0,2.15-1.5,2.15-3.65v-3.32c0-2.44,1.36-4.36,3.08-4.36h6.44c3.52,0,7.1-0.87,10.66-2.58
		C40.44,4.69,49.07,3,58,3c8.93,0,17.56,1.69,23.69,4.63c3.56,1.71,7.14,2.58,10.66,2.58h6.44c1.73,0,3.08,1.91,3.08,4.36v3.32
		c0,2.15,1.13,3.65,2.15,3.65c1.97,0,3.88,2.2,5.38,6.19c1.68,4.49,2.65,10.78,2.65,17.27c0,6.49-0.97,12.78-2.65,17.27
		c-1.5,3.99-3.41,6.19-5.38,6.19c-1.02,0-2.15,1.5-2.15,3.65v3.32c0,2.44-1.36,4.35-3.08,4.35h-6.44c-3.52,0-7.1,0.87-10.66,2.58
		C75.57,85.31,66.93,87,58,87 M17.2,12.42c-0.27,0-0.88,0.81-0.88,2.15v3.32c0,3.28-1.91,5.86-4.35,5.86
		c-0.62,0-2.01,1.27-3.32,4.76C7.06,32.75,6.14,38.76,6.14,45c0,6.24,0.92,12.25,2.51,16.5c1.31,3.49,2.7,4.76,3.32,4.76
		c2.44,0,4.35,2.57,4.35,5.86v3.32c0,1.34,0.61,2.15,0.88,2.15h6.44c3.85,0,7.76,0.94,11.61,2.79C41.1,83.19,49.39,84.8,58,84.8
		c8.61,0,16.9-1.61,22.74-4.42c3.86-1.85,7.77-2.79,11.61-2.79h6.44c0.27,0,0.88-0.81,0.88-2.15v-3.32c0-3.28,1.91-5.86,4.35-5.86
		c0.61,0,2.01-1.27,3.32-4.76c1.59-4.25,2.51-10.26,2.51-16.5c0-6.24-0.92-12.25-2.51-16.5c-1.31-3.49-2.7-4.76-3.32-4.76
		c-2.44,0-4.35-2.57-4.35-5.86v-3.32c0-1.34-0.61-2.15-0.88-2.15h-6.44c-3.85,0-7.76-0.94-11.61-2.79C74.9,6.81,66.61,5.2,58,5.2
		c-8.61,0-16.9,1.61-22.74,4.42c-3.86,1.85-7.77,2.79-11.61,2.79H17.2z"/>
	<g>
		<defs>
			<path id="SVGID_1_" d="M34.78,8.63c-3.71,1.78-7.45,2.69-11.14,2.69H17.2c-1.09,0-1.98,1.46-1.98,3.25v3.32
				c0,2.63-1.45,4.76-3.25,4.76c-1.44,0-3.06,2.05-4.35,5.47C5.98,32.48,5.04,38.64,5.04,45s0.94,12.52,2.58,16.88
				c1.29,3.43,2.91,5.48,4.35,5.48c1.79,0,3.25,2.13,3.25,4.75v3.32c0,1.79,0.89,3.25,1.98,3.25h6.44c3.68,0,7.43,0.9,11.14,2.68
				C40.77,84.25,49.23,85.9,58,85.9c8.77,0,17.23-1.65,23.22-4.53c3.71-1.78,7.45-2.68,11.14-2.68h6.44c1.09,0,1.98-1.46,1.98-3.25
				v-3.32c0-2.62,1.46-4.75,3.25-4.75c1.44,0,3.06-2.05,4.35-5.48c1.64-4.37,2.58-10.52,2.58-16.88s-0.94-12.52-2.58-16.89
				c-1.29-3.43-2.91-5.47-4.35-5.47c-1.79,0-3.25-2.13-3.25-4.76v-3.32c0-1.79-0.89-3.25-1.98-3.25h-6.44
				c-3.68,0-7.43-0.9-11.14-2.69C75.23,5.75,66.77,4.1,58,4.1C49.23,4.1,40.77,5.75,34.78,8.63"/>
		</defs>
		<clipPath id="SVGID_00000088117581982992966790000009770510736216363653_">
			<use xlink:href="#SVGID_1_"  style="overflow:visible;"/>
		</clipPath>
		
			<linearGradient id="SVGID_00000137098355852997066070000014308925190436080318_" gradientUnits="userSpaceOnUse" x1="-643.7009" y1="755.1717" x2="-642.0175" y2="755.1717" gradientTransform="matrix(62.915 0 0 -62.915 40503.457 47556.5938)">
			<stop  offset="0" style="stop-color:#3372B8"/>
			<stop  offset="0.5138" style="stop-color:#1E4698"/>
			<stop  offset="0.66" style="stop-color:#1D489C"/>
			<stop  offset="0.7862" style="stop-color:#2352A3"/>
			<stop  offset="0.9045" style="stop-color:#2C61AD"/>
			<stop  offset="1" style="stop-color:#3372B8"/>
		</linearGradient>
		
			<rect x="5.04" y="4.1" style="clip-path:url(#SVGID_00000088117581982992966790000009770510736216363653_);fill:url(#SVGID_00000137098355852997066070000014308925190436080318_);" width="105.92" height="81.79"/>
	</g>
	<g>
		<defs>
			<path id="SVGID_00000036961620132357628760000006139376428645771442_" d="M18.47,72.11c0-5.16-2.82-9.37-6.32-9.5
				c-0.26-0.22-0.94-1.07-1.67-3.02C9.08,55.91,8.29,50.59,8.29,45c0-5.59,0.79-10.91,2.18-14.6c0.73-1.95,1.41-2.79,1.67-3.01
				c3.5-0.13,6.32-4.35,6.32-9.5v-1.82h5.18c4.03,0,8.12-0.98,12.15-2.92c5.67-2.73,13.76-4.29,22.2-4.29
				c8.44,0,16.53,1.56,22.2,4.29c4.04,1.94,8.12,2.92,12.15,2.92h5.18v1.82c0,5.16,2.82,9.37,6.32,9.51
				c0.27,0.22,0.95,1.07,1.68,3.01c1.38,3.69,2.18,9.01,2.18,14.6c0,5.59-0.79,10.91-2.18,14.59c-0.73,1.94-1.41,2.79-1.68,3.02
				c-3.5,0.13-6.32,4.35-6.32,9.5v1.82h-5.18c-4.03,0-8.12,0.98-12.15,2.92c-5.67,2.73-13.76,4.29-22.2,4.29
				c-8.44,0-16.53-1.56-22.2-4.29c-4.04-1.94-8.12-2.92-12.15-2.92h-5.18V72.11z M35.39,11.34c-3.91,1.88-7.86,2.83-11.75,2.83
				h-6.39c-0.03,0.05-0.09,0.19-0.09,0.4v3.32c0,4.19-2.33,7.61-5.2,7.61c-0.37,0-1.51,0.98-2.64,3.99C7.84,33.45,6.99,39.1,6.99,45
				s0.85,11.55,2.34,15.51c1.13,3.02,2.27,3.99,2.64,3.99c2.87,0,5.2,3.41,5.2,7.61v3.32c0,0.22,0.06,0.35,0.09,0.4h6.39
				c3.89,0,7.84,0.95,11.75,2.83c5.79,2.79,14.04,4.39,22.61,4.39c8.57,0,16.81-1.6,22.61-4.38c3.9-1.88,7.86-2.83,11.74-2.83h6.39
				c0.03-0.05,0.09-0.19,0.09-0.4v-3.32c0-4.19,2.33-7.61,5.2-7.61c0.37,0,1.51-0.97,2.64-3.99c1.49-3.96,2.34-9.61,2.34-15.51
				s-0.85-11.55-2.34-15.51c-1.13-3.02-2.27-3.99-2.64-3.99c-2.87,0-5.2-3.41-5.2-7.61v-3.32c0-0.22-0.06-0.35-0.09-0.4h-6.39
				c-3.89,0-7.84-0.95-11.75-2.83C74.81,8.55,66.57,6.95,58,6.95C49.43,6.95,41.19,8.55,35.39,11.34"/>
		</defs>
		<clipPath id="SVGID_00000172439860784940802650000013999261356897810071_">
			<use xlink:href="#SVGID_00000036961620132357628760000006139376428645771442_"  style="overflow:visible;"/>
		</clipPath>
		
			<linearGradient id="SVGID_00000093163479624125402370000008345006241012273585_" gradientUnits="userSpaceOnUse" x1="-653.2629" y1="754.8138" x2="-651.5794" y2="754.8138" gradientTransform="matrix(-90.584 0 0 -90.584 -59040.1953 68419.0859)">
			<stop  offset="0" style="stop-color:#1C180F"/>
			<stop  offset="0.1352" style="stop-color:#73663A"/>
			<stop  offset="0.2677" style="stop-color:#C3AD61"/>
			<stop  offset="0.328" style="stop-color:#E2C970"/>
			<stop  offset="0.524" style="stop-color:#EADE96"/>
			<stop  offset="0.7298" style="stop-color:#E2C970"/>
			<stop  offset="1" style="stop-color:#1C180F"/>
		</linearGradient>
		
			<rect x="6.99" y="6.95" style="clip-path:url(#SVGID_00000172439860784940802650000013999261356897810071_);fill:url(#SVGID_00000093163479624125402370000008345006241012273585_);" width="102.02" height="76.09"/>
	</g>
	<path class="st4" d="M67.63,24.2c1.07,8.28-4.65,14.13-9.34,15.86C57.27,30.35,65.55,29.03,67.63,24.2"/>
	<path class="st5" d="M63.17,18.39c4.46,7.82-3.02,9.36-4.88,12.98C58.14,25.99,62.42,22.42,63.17,18.39"/>
	<path class="st6" d="M49.54,29.69c1.26,4.07,5.17,4.65,7.79,6.36C55.3,32.3,52.89,30.36,49.54,29.69"/>
	<path class="st1" d="M36.57,45.5c-0.02-0.35-0.09-0.7-0.22-1.05s-0.28-0.64-0.46-0.91c-0.18-0.26-0.38-0.51-0.61-0.75
		c-0.23-0.24-0.44-0.44-0.63-0.59c-0.19-0.15-0.38-0.29-0.59-0.43c-0.21-0.14-0.35-0.23-0.42-0.27c-0.07-0.04-0.13-0.06-0.17-0.08
		c-0.06,0-0.36,0.28-0.92,0.84c-0.93-0.65-1.82-0.98-2.68-0.98c-2.01,0-3.63,0.63-4.86,1.9c-1.21,1.26-1.81,3-1.81,5.22
		c0,2.22,0.6,3.95,1.79,5.22c1.23,1.25,2.86,1.87,4.88,1.87c0.86,0,1.71-0.3,2.57-0.89v1.73c-0.02,1.43-0.27,2.47-0.75,3.13
		c-0.48,0.69-1.34,1.03-2.57,1.03c-1.43,0-2.8-0.39-4.1-1.17l-0.14,0.25c1.38,0.78,2.79,1.17,4.24,1.17c2.32,0,4.15-0.62,5.47-1.87
		c1.32-1.23,1.98-2.98,1.98-5.24V45.5z M32.45,43.57v10.69c-0.84,0.63-1.69,0.95-2.57,0.95c-1.12,0-1.87-0.51-2.26-1.53
		c-0.21-0.56-0.31-2.32-0.31-5.27c0-3.03,0.1-4.8,0.31-5.3c0.41-1.02,1.16-1.54,2.26-1.54c0.89,0,1.77,0.32,2.62,0.98
		C32.46,42.88,32.45,43.22,32.45,43.57"/>
	<path class="st1" d="M46.91,56.43c-0.6,0-1.09,0.21-1.48,0.63c-0.39,0.42-0.59,0.93-0.59,1.52c0,0.6,0.2,1.1,0.59,1.52
		c0.39,0.42,0.88,0.63,1.48,0.63c0.56,0,1.04-0.21,1.44-0.63c0.4-0.42,0.6-0.93,0.6-1.52c0-0.59-0.2-1.1-0.6-1.52
		C47.95,56.64,47.47,56.43,46.91,56.43"/>
	<path class="st1" d="M51.87,56.43c-0.6,0-1.09,0.21-1.48,0.63c-0.39,0.42-0.59,0.93-0.59,1.52c0,0.6,0.2,1.1,0.59,1.52
		c0.39,0.42,0.88,0.63,1.48,0.63c0.56,0,1.04-0.21,1.44-0.63c0.4-0.42,0.6-0.93,0.6-1.52c0-0.59-0.2-1.1-0.6-1.52
		C52.91,56.64,52.43,56.43,51.87,56.43"/>
	<path class="st1" d="M54.48,49.15v-4.9c0-1.43-0.34-2.15-1.01-2.15h-5.16v0.28c1.38,0,2.07,0.63,2.07,1.87v4.9h-6.32v-5.35
		c0-1.43-0.34-2.15-1.01-2.15h-5.16v0.28c1.38,0,2.06,0.62,2.06,1.87v12.61c-0.04,2.87-0.73,4.3-2.06,4.3
		c-1.06,0-1.8-0.47-2.21-1.43l-0.22,0.11c0.44,1.04,1.25,1.56,2.43,1.56c2.08,0,3.63-0.61,4.64-1.84c1.01-1.23,1.52-2.85,1.52-4.86
		v-1.02h12.81v-4.1H54.48z"/>
	<path class="st1" d="M91.46,37.51c-0.13-0.35-0.28-0.64-0.46-0.91c-0.18-0.26-0.38-0.51-0.62-0.75c-0.23-0.24-0.44-0.44-0.63-0.59
		c-0.19-0.15-0.38-0.29-0.59-0.43c-0.21-0.14-0.35-0.23-0.42-0.27l-0.17-0.08c-0.06,0-0.36,0.28-0.92,0.84
		c-0.93-0.65-1.82-0.98-2.68-0.98c-2.01,0-3.63,0.63-4.85,1.9c-1.21,1.27-1.81,3-1.81,5.22c0,2.21,0.6,3.95,1.79,5.22
		c1.23,1.24,2.86,1.87,4.88,1.87c0.86,0,1.71-0.3,2.57-0.89v1.5H55.21v4.1h31.08c1.18,0,2.32-0.4,3.22-1.15
		c0.06-0.05,0.12-0.1,0.18-0.16c0.01-0.01,0.01-0.01,0.02-0.02c0.79-0.74,1.35-1.66,1.66-2.77c0.21-0.74,0.32-1.57,0.32-2.47v-8.12
		C91.66,38.2,91.59,37.86,91.46,37.51 M87.55,36.64v10.68c-0.84,0.63-1.69,0.95-2.57,0.95c-1.12,0-1.87-0.51-2.26-1.54
		c-0.2-0.56-0.31-2.31-0.31-5.27c0-3.03,0.1-4.8,0.31-5.3c0.41-1.02,1.16-1.54,2.26-1.54c0.89,0,1.77,0.33,2.62,0.98
		C87.57,35.94,87.55,36.28,87.55,36.64"/>
	<path class="st1" d="M82.92,29.38c-0.6,0-1.09,0.19-1.48,0.57c-0.39,0.38-0.59,0.85-0.59,1.39s0.2,1.01,0.59,1.39
		c0.39,0.38,0.88,0.57,1.48,0.57c0.56,0,1.04-0.19,1.44-0.57c0.4-0.38,0.6-0.85,0.6-1.39s-0.2-1.01-0.6-1.39
		C83.96,29.57,83.48,29.38,82.92,29.38"/>
	<path class="st1" d="M87.88,29.38c-0.6,0-1.09,0.19-1.48,0.57c-0.39,0.38-0.59,0.85-0.59,1.39s0.2,1.01,0.59,1.39
		c0.39,0.38,0.88,0.57,1.48,0.57c0.56,0,1.04-0.19,1.44-0.57c0.4-0.38,0.6-0.85,0.6-1.39s-0.2-1.01-0.6-1.39
		C88.92,29.57,88.44,29.38,87.88,29.38"/>
	<path class="st1" d="M85.16,25.03c-0.6,0-1.09,0.19-1.48,0.57c-0.39,0.38-0.59,0.85-0.59,1.39c0,0.54,0.2,1.01,0.59,1.39
		c0.39,0.38,0.88,0.57,1.48,0.57c0.56,0,1.04-0.19,1.44-0.57c0.4-0.38,0.6-0.85,0.6-1.39c0-0.54-0.2-1.01-0.6-1.39
		C86.2,25.22,85.72,25.03,85.16,25.03"/>
	<path class="st5" d="M58.39,56.39c-0.09,0-0.17,0.03-0.23,0.09c-0.06,0.06-0.09,0.14-0.09,0.24c0,0.1,0.03,0.18,0.09,0.24
		c0.06,0.06,0.14,0.1,0.23,0.1c0.09,0,0.17-0.03,0.23-0.1c0.06-0.06,0.09-0.14,0.09-0.24c0-0.1-0.03-0.18-0.09-0.24
		C58.56,56.43,58.48,56.39,58.39,56.39"/>
	<path class="st5" d="M58.09,59.6c0,0.19-0.04,0.33-0.12,0.41c-0.08,0.08-0.21,0.11-0.39,0.11l0.09,0.54
		c0.31-0.01,0.56-0.1,0.74-0.29c0.18-0.19,0.27-0.44,0.27-0.77v-2.18h-0.59V59.6z"/>
	<path class="st5" d="M60.67,57.43c-0.27-0.22-0.59-0.37-0.95-0.45l-0.13,0.53c0.36,0.08,0.65,0.25,0.88,0.51
		c0.23,0.26,0.37,0.58,0.44,0.96c-0.29,0.08-0.59,0.12-0.92,0.12c-0.31,0-0.6-0.03-0.87-0.1v0.56c0.28,0.06,0.57,0.09,0.87,0.09
		c0.58,0,1.1-0.1,1.55-0.29c-0.01-0.4-0.09-0.77-0.24-1.1C61.15,57.92,60.94,57.64,60.67,57.43"/>
	<path class="st5" d="M85.36,56.92c0.09,0,0.17-0.03,0.23-0.1c0.06-0.06,0.09-0.14,0.09-0.24c0-0.1-0.03-0.18-0.09-0.24
		c-0.06-0.06-0.14-0.09-0.24-0.09c-0.09,0-0.17,0.03-0.23,0.09c-0.06,0.06-0.09,0.14-0.09,0.24c0,0.09,0.03,0.18,0.09,0.24
		C85.19,56.89,85.27,56.92,85.36,56.92"/>
	<path class="st5" d="M85.35,57.3c-0.23,0-0.44,0.05-0.63,0.16c-0.19,0.1-0.35,0.25-0.46,0.43c-0.11,0.18-0.17,0.39-0.17,0.61
		c0,0.22,0.06,0.42,0.17,0.6h-0.52h-0.82h-0.83h-0.82h-0.83h-0.82h-0.82h-0.82h-0.83h-0.82h-0.82h-0.82h-0.82h0h-0.82h-0.82h-0.83
		h-0.82h-0.82h-0.82h-0.83h-0.82h-0.82h0h-0.82h0h-0.82h-0.49v-1.44l-0.05-0.02c-0.15-0.1-0.31-0.19-0.49-0.25
		c-0.18-0.06-0.36-0.09-0.52-0.09c-0.23,0-0.44,0.05-0.63,0.16c-0.19,0.1-0.35,0.25-0.46,0.43c-0.11,0.18-0.17,0.38-0.17,0.59
		s0.06,0.41,0.17,0.59c0.11,0.18,0.27,0.32,0.46,0.42c0.19,0.1,0.4,0.15,0.63,0.15h0.47c0,0.17-0.04,0.29-0.11,0.37
		c-0.07,0.07-0.18,0.11-0.34,0.11c-0.04,0-0.07,0-0.1-0.01l0.08,0.55c0.32,0,0.57-0.1,0.76-0.28c0.19-0.18,0.28-0.43,0.29-0.75h0.49
		h0.82h0h0.82h0h0.82h0.82h0.83h0.82h0.82h0.82h0.83h0.82h0.82h0h0.82h0.82h0.82h0.82h0.83h0.82h0.82h0.82h0.83h0.82h0.83h0.82h2.57
		v-2.07C85.97,57.38,85.65,57.3,85.35,57.3 M63.68,59.09h-0.47c-0.13,0-0.25-0.03-0.35-0.08c-0.1-0.05-0.19-0.13-0.24-0.22
		c-0.06-0.09-0.09-0.2-0.09-0.31c0-0.12,0.03-0.22,0.09-0.32c0.06-0.09,0.14-0.17,0.24-0.23s0.22-0.09,0.35-0.09
		c0.15,0,0.3,0.04,0.47,0.12V59.09z M85.73,59.09h-0.56c-0.15-0.03-0.27-0.1-0.36-0.21c-0.09-0.11-0.13-0.24-0.13-0.39
		c0-0.19,0.06-0.35,0.19-0.47c0.13-0.12,0.29-0.18,0.49-0.18c0.13,0,0.25,0.02,0.37,0.07V59.09z"/>
</g>
</svg>
