<svg enable-background="new 0 0 116 90" viewBox="0 0 116 90" xmlns="http://www.w3.org/2000/svg" xmlns:xlink="http://www.w3.org/1999/xlink"><linearGradient id="a" gradientUnits="userSpaceOnUse" x1="2.7563" x2="113.2437" y1="44.9999" y2="44.9999"><stop offset="0" stop-color="#3272b8"/><stop offset=".5138" stop-color="#1c4698"/><stop offset=".66" stop-color="#1d489c"/><stop offset=".7862" stop-color="#2451a3"/><stop offset=".9045" stop-color="#2c61ad"/><stop offset="1" stop-color="#3272b8"/></linearGradient><linearGradient id="b" gradientTransform="matrix(-1 0 0 1 -13545.7168 0)" gradientUnits="userSpaceOnUse" x1="-13684.041" x2="-13524.9629" y1="44.9999" y2="44.9999"><stop offset="0" stop-color="#1c180f"/><stop offset=".1352" stop-color="#736639"/><stop offset=".2677" stop-color="#c3ad60"/><stop offset=".328" stop-color="#e2c96f"/><stop offset=".524" stop-color="#e9dd96"/><stop offset=".7298" stop-color="#e2c96f"/><stop offset="1" stop-color="#1c180f"/></linearGradient><path d="m58 89.92c-9.48 0-18.66-1.8-25.2-4.94-3.56-1.71-7.14-2.58-10.64-2.58h-6.72c-2.47 0-4.33-2.43-4.33-5.65v-3.46c0-1.74-.85-2.7-1.13-2.7-2.59 0-4.89-2.48-6.65-7.18-1.8-4.8-2.83-11.51-2.83-18.41s1.03-13.61 2.83-18.41c1.76-4.69 4.06-7.18 6.65-7.18.28 0 1.13-.96 1.13-2.7v-3.46c0-3.22 1.86-5.65 4.33-5.65h6.72c3.5 0 7.08-.87 10.64-2.58 6.54-3.14 15.73-4.94 25.2-4.94s18.66 1.8 25.19 4.94c3.56 1.71 7.14 2.58 10.64 2.58h6.72c2.47 0 4.33 2.43 4.33 5.65v3.46c0 1.74.85 2.7 1.13 2.7 2.59 0 4.89 2.48 6.65 7.18 1.8 4.8 2.83 11.51 2.83 18.41s-1.03 13.61-2.83 18.4c-1.76 4.69-4.06 7.18-6.65 7.18-.28 0-1.13.96-1.13 2.7v3.46c0 3.22-1.86 5.65-4.33 5.65h-6.72c-3.5 0-7.08.87-10.64 2.58-6.53 3.15-15.71 4.95-25.19 4.95zm-42.14-12.04h6.31c4.18 0 8.42 1.02 12.59 3.02 5.95 2.86 14.42 4.5 23.24 4.5s17.29-1.64 23.24-4.5c4.18-2.01 8.41-3.02 12.6-3.02h6.31c.11-.22.23-.61.23-1.14v-3.46c0-4 2.42-7.14 5.53-7.21.35-.2 1.43-1.28 2.54-4.25 1.62-4.31 2.55-10.44 2.55-16.82s-.93-12.51-2.55-16.82c-1.11-2.97-2.19-4.05-2.54-4.25-3.11-.08-5.53-3.22-5.53-7.21v-3.46c0-.52-.12-.92-.23-1.14h-6.31c-4.18 0-8.42-1.02-12.6-3.02-5.95-2.87-14.42-4.51-23.24-4.51s-17.29 1.64-23.24 4.5c-4.18 2.01-8.41 3.02-12.6 3.02h-6.31c-.11.22-.23.61-.23 1.14v3.46c0 4-2.42 7.14-5.53 7.21-.35.2-1.42 1.28-2.54 4.25-1.61 4.32-2.54 10.45-2.54 16.83s.93 12.51 2.55 16.82c1.12 2.97 2.19 4.05 2.54 4.25 3.11.08 5.53 3.22 5.53 7.21v3.46c0 .53.12.93.23 1.14z" fill="#0182af"/><path d="m58 89.1c-9.36 0-18.41-1.77-24.84-4.86-3.67-1.76-7.37-2.66-11-2.66h-6.72c-1.97 0-3.51-2.12-3.51-4.83v-3.46c0-2.02-1.03-3.52-1.95-3.52-2.18 0-4.27-2.36-5.88-6.64-1.77-4.72-2.78-11.33-2.78-18.13s1.01-13.41 2.78-18.12c1.61-4.28 3.7-6.64 5.88-6.64.92 0 1.95-1.51 1.95-3.52v-3.46c0-2.71 1.54-4.83 3.51-4.83h6.72c3.63 0 7.33-.89 11-2.66 6.43-3.09 15.48-4.87 24.84-4.87 9.35 0 18.41 1.77 24.84 4.86 3.67 1.76 7.37 2.66 11 2.66h6.72c1.97 0 3.51 2.12 3.51 4.83v3.46c0 2.02 1.03 3.52 1.95 3.52 2.18 0 4.27 2.36 5.88 6.64 1.77 4.71 2.78 11.31 2.78 18.12 0 6.8-1.01 13.41-2.78 18.12-1.61 4.28-3.7 6.64-5.88 6.64-.92 0-1.95 1.51-1.95 3.52v3.46c0 2.71-1.54 4.83-3.51 4.83h-6.72c-3.62 0-7.32.89-11 2.66-6.43 3.1-15.48 4.88-24.84 4.88zm-42.53-10.4h6.69c4.06 0 8.18.99 12.24 2.94 6.06 2.91 14.66 4.58 23.6 4.58s17.54-1.67 23.6-4.58c4.06-1.95 8.18-2.94 12.24-2.94h6.69c.2-.1.66-.8.66-1.96v-3.46c0-3.59 2.12-6.39 4.83-6.39.46 0 1.84-1.17 3.19-4.78 1.65-4.4 2.6-10.64 2.6-17.11s-.95-12.71-2.6-17.11c-1.36-3.61-2.74-4.78-3.19-4.78-2.71 0-4.82-2.81-4.82-6.39v-3.46c0-1.16-.46-1.85-.66-1.96h-6.69c-4.06 0-8.18-.99-12.24-2.94-6.07-2.92-14.67-4.59-23.61-4.59s-17.54 1.67-23.59 4.58c-4.06 1.95-8.18 2.94-12.24 2.94h-6.69c-.2.1-.66.8-.66 1.96v3.46c0 3.59-2.12 6.39-4.82 6.39-.46 0-1.84 1.17-3.19 4.78-1.65 4.4-2.6 10.64-2.6 17.11s.95 12.71 2.6 17.11c1.36 3.61 2.74 4.78 3.19 4.78 2.71 0 4.82 2.81 4.82 6.39v3.46c-.01 1.18.45 1.87.65 1.97z" fill="#fff"/><path d="m58 2.34c9.15 0 17.97 1.72 24.22 4.72 3.87 1.86 7.78 2.8 11.62 2.8h6.72c1.14 0 2.07 1.52 2.07 3.39v3.46c0 2.74 1.52 4.96 3.39 4.96 1.5 0 3.19 2.14 4.54 5.71 1.71 4.56 2.69 10.98 2.69 17.61 0 6.64-.98 13.06-2.69 17.61-1.34 3.58-3.04 5.71-4.54 5.71-1.87 0-3.39 2.22-3.39 4.96v3.46c0 1.87-.93 3.39-2.07 3.39h-6.72c-3.84 0-7.75.94-11.62 2.8-6.24 3-15.07 4.72-24.22 4.72s-17.98-1.72-24.22-4.72c-3.87-1.86-7.77-2.8-11.62-2.8h-6.72c-1.14 0-2.07-1.52-2.07-3.39v-3.46c0-2.74-1.52-4.96-3.39-4.96-1.5 0-3.19-2.14-4.54-5.71-1.7-4.54-2.68-10.96-2.68-17.6s.98-13.06 2.69-17.61c1.34-3.58 3.04-5.71 4.54-5.71 1.87 0 3.39-2.22 3.39-4.96v-3.46c0-1.87.93-3.39 2.07-3.39h6.72c3.84 0 7.75-.94 11.62-2.8 6.24-3.01 15.06-4.73 24.21-4.73z" fill="url(#a)"/><path d="m58 7.3c8.8 0 17.24 1.63 23.16 4.47 4.21 2.02 8.47 3.05 12.68 3.05h5.4v1.9c0 5.38 2.94 9.77 6.6 9.91.28.23.99 1.11 1.75 3.14 1.44 3.85 2.27 9.4 2.27 15.22 0 5.83-.83 11.38-2.27 15.22-.76 2.03-1.47 2.91-1.75 3.14-3.65.14-6.6 4.53-6.6 9.91v1.9h-5.4c-4.2 0-8.47 1.03-12.68 3.05-5.91 2.86-14.36 4.49-23.16 4.49s-17.25-1.63-23.16-4.47c-4.21-2.02-8.48-3.05-12.68-3.05h-5.4v-1.9c0-5.38-2.94-9.77-6.6-9.91-.27-.23-.99-1.11-1.75-3.14-1.44-3.85-2.26-9.4-2.26-15.23s.83-11.38 2.27-15.22c.76-2.03 1.47-2.91 1.75-3.14 3.65-.14 6.6-4.53 6.6-9.91v-1.9h5.4c4.2 0 8.47-1.03 12.68-3.05 5.91-2.85 14.35-4.48 23.15-4.48zm0-1.99c-8.94 0-17.54 1.67-23.58 4.57-4.07 1.96-8.2 2.95-12.25 2.95h-6.67c-.03.06-.09.19-.09.42v3.46c0 4.37-2.43 7.93-5.42 7.93-.39 0-1.57 1.02-2.75 4.17-1.56 4.14-2.45 10.04-2.45 16.19s.89 12.05 2.44 16.18c1.18 3.15 2.37 4.17 2.75 4.17 2.99 0 5.42 3.56 5.42 7.93v3.46c0 .23.06.36.09.42h6.67c4.06 0 8.18.99 12.25 2.95 6.04 2.91 14.64 4.57 23.58 4.57s17.54-1.67 23.58-4.57c4.07-1.96 8.19-2.95 12.25-2.95h6.67c.03-.06.09-.19.09-.42v-3.46c0-4.37 2.43-7.93 5.42-7.93.39 0 1.57-1.02 2.75-4.17 1.55-4.13 2.44-10.03 2.44-16.18s-.89-12.05-2.44-16.18c-1.18-3.15-2.37-4.17-2.75-4.17-2.99 0-5.42-3.56-5.42-7.93v-3.46c0-.23-.06-.36-.09-.42h-6.67c-4.06 0-8.18-.99-12.25-2.95-6.03-2.91-14.63-4.58-23.57-4.58z" fill="url(#b)"/><g fill="#fff"><path d="m33.05 31.28h7.09v.42c-2.02 0-3.36 1.03-4.01 3.08l-6.81 22.4-1.4 4.57h-1.17c-2.24 0-3.81-1.45-4.71-4.34l-7.09-22.63c-.62-2.05-1.96-3.08-4.01-3.08v-.42h9.1c.44 0 .78.17 1.03.51.25.37.61 1.31 1.07 2.8l6.86 22.21 6.91-22.17c.09-.56.14-1 .14-1.31 0-1.09-1-1.63-2.99-1.63v-.41z"/><path d="m52.21 59.77c1.88-1.1 3.38-2.56 4.5-4.36l.37.23c-1.15 1.9-2.7 3.41-4.64 4.55s-4.04 1.7-6.28 1.7c-3.89 0-6.88-1.04-8.96-3.13-2.05-2.05-3.08-4.98-3.08-8.77 0-3.76 1.04-6.69 3.13-8.77 2.08-2.08 5.05-3.13 8.89-3.13s6.81 1.04 8.89 3.13c2.08 2.08 3.13 5.01 3.13 8.77h-17.18c0 5.29.3 8.35.89 9.19 1.06 1.49 2.49 2.24 4.29 2.24 2.15.01 4.16-.55 6.05-1.65zm-10.25-18.93c-.65 1.59-.98 4.48-.98 8.68h10.32c0-4.54-.22-7.3-.65-8.26-.78-1.8-2.27-2.71-4.48-2.71-2.18.01-3.58.77-4.21 2.29z"/><path d="m79.02 39.26c1.2.78 1.8 1.88 1.8 3.31 0 .96-.33 1.8-.98 2.52s-1.46 1.07-2.43 1.07c-.93 0-1.74-.34-2.43-1.03-.69-.68-1.03-1.54-1.03-2.57l.19-1.77c0-1.21-.54-1.82-1.63-1.82-1.96 0-3.76 1-5.41 2.99v16.1c0 2.08 1.15 3.13 3.45 3.13v.47h-2.43c-1.37 0-2.66-.31-3.87-.93s-2.19-1.51-2.92-2.66-1.1-2.35-1.1-3.59v-12.56c0-2.08-1.15-3.13-3.45-3.13v-.47h8.59c.25 0 .51.23.79.7.31.53.53 1.01.65 1.45l.28.75c1.12-1.06 2.12-1.82 2.99-2.29 1.15-.56 2.75-.84 4.81-.84 1.56 0 2.94.39 4.13 1.17z"/><path d="m101.94 41.22c2.08 2.08 3.13 5.01 3.13 8.77 0 3.8-1.03 6.72-3.08 8.77-2.08 2.08-5.06 3.13-8.91 3.13-3.86 0-6.85-1.04-8.96-3.13-2.05-2.05-3.08-4.98-3.08-8.77 0-3.76 1.04-6.69 3.13-8.77 2.08-2.08 5.05-3.13 8.89-3.13s6.8 1.04 8.88 3.13zm-4.66 17.83c.62-1.62.93-4.64.93-9.05 0-4.42-.31-7.44-.93-9.05-.62-1.59-2.02-2.38-4.2-2.38-2.46 0-3.97.98-4.53 2.94-.44 1.59-.65 4.42-.65 8.49 0 4.08.22 6.91.65 8.49.56 1.96 2.07 2.94 4.53 2.94 2.17 0 3.57-.8 4.2-2.38z"/></g><path d="m69 17.28c1.31 10.14-5.69 17.31-11.44 19.43-1.25-11.9 8.89-13.52 11.44-19.43" fill="#009247"/><path d="m63.54 10.15c5.46 9.59-3.7 11.47-5.97 15.9-.2-6.59 5.05-10.96 5.97-15.9" fill="#8dc440"/><path d="m46.84 24c1.54 4.99 6.33 5.69 9.54 7.79-2.49-4.6-5.43-6.97-9.54-7.79" fill="#28b473"/><g fill="#8dc440"><path d="m34.74 64.32v.67h-1.56v.72h1.44v.67h-1.44v1.16h-.84v-3.22z"/><path d="m46.73 64.48c.26.14.47.34.62.59s.23.53.23.85-.08.6-.23.85-.36.45-.62.6-.56.22-.89.22-.62-.07-.89-.22c-.26-.15-.47-.35-.62-.6-.15-.26-.23-.54-.23-.86 0-.31.08-.59.23-.85.15-.25.36-.45.62-.59s.56-.22.89-.22.62.09.89.23zm-1.33.62c-.14.08-.24.2-.32.34-.08.15-.12.31-.12.48 0 .18.04.34.12.48.08.15.19.26.32.34s.28.13.44.13.31-.04.44-.13c.13-.08.24-.2.31-.34.08-.15.11-.31.11-.48s-.04-.33-.11-.48c-.08-.15-.18-.26-.31-.34s-.28-.12-.44-.12-.3.04-.44.12z"/><path d="m59.55 64.48c.26.14.47.34.62.59s.23.53.23.85-.08.6-.23.85-.36.45-.62.6-.56.22-.89.22-.62-.07-.89-.22c-.26-.15-.47-.35-.62-.6-.15-.26-.23-.54-.23-.86 0-.31.08-.59.23-.85s.36-.45.62-.59.56-.22.89-.22.63.09.89.23zm-1.32.62c-.14.08-.24.2-.32.34-.08.15-.12.31-.12.48 0 .18.04.34.12.48.08.15.19.26.32.34s.28.13.44.13.31-.04.44-.13c.13-.08.24-.2.31-.34.08-.15.11-.31.11-.48s-.04-.33-.11-.48c-.08-.15-.18-.26-.31-.34s-.28-.12-.44-.12-.3.04-.44.12z"/><path d="m72.29 64.52c.26.13.46.32.6.57.14.24.22.52.22.84s-.07.6-.22.84-.35.43-.62.57c-.26.13-.57.2-.91.2h-1.36v-3.22h1.39c.34 0 .64.06.9.2zm-.44 2.22c.13-.08.22-.19.29-.33s.11-.3.11-.48-.04-.35-.11-.49c-.08-.14-.18-.25-.31-.33-.13-.07-.28-.11-.45-.11h-.53v1.86h.57c.16 0 .31-.04.43-.12z"/><path d="m84.38 65.04c-.19-.06-.36-.1-.49-.1-.1 0-.19.02-.25.06s-.09.09-.09.17c0 .07.03.13.08.18s.12.09.19.11c.08.03.19.07.34.11.22.06.41.13.55.19.15.06.27.16.37.3.1.13.16.31.16.52s-.06.4-.17.55-.27.27-.47.34c-.2.08-.42.12-.66.12-.27 0-.53-.05-.8-.14-.26-.09-.49-.22-.69-.38l.33-.66c.16.14.35.26.58.35.22.09.42.14.59.14.13 0 .22-.02.3-.07.07-.05.11-.11.11-.2 0-.07-.03-.13-.08-.18s-.12-.09-.2-.12-.2-.06-.34-.1c-.22-.06-.4-.12-.55-.19-.14-.06-.27-.16-.37-.28-.1-.13-.15-.3-.15-.51 0-.2.05-.37.16-.52s.26-.27.45-.35.42-.12.68-.12c.23 0 .46.03.69.1s.43.15.6.26l-.32.67c-.17-.11-.35-.19-.55-.25z"/></g></svg>